<svg xmlns="http://www.w3.org/2000/svg" width="15.719" height="15.563" viewBox="0 0 15.719 15.563">
  <defs>
    <style>
      .cls-1 {
        fill: #d42027;
        fill-rule: evenodd;
      }
    </style>
  </defs>
  <path id="X" class="cls-1" d="M173.046,608.162a1.177,1.177,0,0,1,2.009-.832l5.827,5.827,5.827-5.827A1.177,1.177,0,0,1,188.374,609l-6.659,6.659a1.177,1.177,0,0,1-1.665,0L173.391,609A1.174,1.174,0,0,1,173.046,608.162Zm0,13.2a1.177,1.177,0,0,0,2.009.832l5.827-5.827,5.827,5.827a1.177,1.177,0,0,0,1.665-1.665l-6.659-6.659a1.177,1.177,0,0,0-1.665,0l-6.659,6.659A1.174,1.174,0,0,0,173.046,621.364Z" transform="translate(-173.031 -607)"/>
</svg>
