<?xml version="1.0" encoding="utf-8"?>
<!-- Generator: Adobe Illustrator 24.2.1, SVG Export Plug-In . SVG Version: 6.00 Build 0)  -->
<svg version="1.1" id="Capa_1" xmlns="http://www.w3.org/2000/svg" xmlns:xlink="http://www.w3.org/1999/xlink" x="0px" y="0px"
	 viewBox="0 0 396.8 396.8" style="enable-background:new 0 0 396.8 396.8;" xml:space="preserve">
<style type="text/css">
	.st0{fill:#D42027;}
</style>
<g>
	<g>
		<path class="st0" d="M352.1,44.7c-59.2-59.4-155.4-59.5-214.8-0.3c-57.3,57.2-59.7,149.2-5.5,209.3l-11.6,11.6
			c-9.4-9.4-24.6-9.4-33.9,0c0,0,0,0,0,0L7,344.5c-9.4,9.4-9.4,24.6,0,33.9c0,0,0,0,0,0l11.3,11.3c9.4,9.4,24.6,9.4,33.9,0
			l79.2-79.2c9.4-9.4,9.4-24.6,0-33.9c0,0,0,0,0,0l11.6-11.6c62.2,56.2,158.3,51.4,214.5-10.9C411.9,194,409.5,101.9,352.1,44.7z
			 M120.2,299.2L41,378.4c-3.1,3.1-8.2,3.1-11.3,0l-11.3-11.3c-3.1-3.1-3.1-8.2,0-11.3l79.2-79.2c3.2-3,8.1-3,11.3,0l11.3,11.3
			C123.3,291,123.3,296.1,120.2,299.2z M340.8,248.3c-53.1,53.1-139.2,53.1-192.3,0s-53.1-139.2,0-192.3
			c53.1-53.1,139.2-53.1,192.3,0C393.8,109.1,393.8,195.2,340.8,248.3z"/>
	</g>
</g>
<g>
	<g>
		<path class="st0" d="M329.5,67.3L329.5,67.3l-11.3,11.3c40.5,40.6,40.5,106.4,0,147.1l11.3,11.3
			C376.3,190.1,376.3,114.2,329.5,67.3z"/>
	</g>
</g>
</svg>
