<?xml version="1.0" encoding="utf-8"?>
<!-- Generator: Adobe Illustrator 24.2.1, SVG Export Plug-In . SVG Version: 6.00 Build 0)  -->
<svg version="1.1" id="Capa_1" xmlns="http://www.w3.org/2000/svg" xmlns:xlink="http://www.w3.org/1999/xlink" x="0px" y="0px"
	 viewBox="0 0 512 512" style="enable-background:new 0 0 512 512;" xml:space="preserve">
<style type="text/css">
	.st0{fill:#2D2D2D;}
</style>
<g>
	<g>
		<path class="st0" d="M180.4,94.3l-12.8-7c-16.3-8.1-37.2-8.1-54.7,0l-12.8,7c-5.8,3.5-8.1,10.5-5.8,15.1
			c3.5,5.8,10.5,8.1,15.1,5.8l12.8-7c10.5-4.7,24.4-4.7,33.7,0l12.8,7c2.3,1.2,3.5,1.2,5.8,1.2c4.7,0,8.1-2.3,10.5-7
			C187.3,103.6,185,96.6,180.4,94.3z"/>
	</g>
</g>
<g>
	<g>
		<path class="st0" d="M416.6,180.4c-2.3-5.8-9.3-8.1-15.1-4.7l-12.8,7c-10.5,4.7-23.3,4.7-33.7,0l-12.8-7c-5.8-2.3-12.8,0-15.1,4.7
			c-2.3,5.8,0,12.8,4.7,15.1l14,7c8.1,4.7,17.5,7,26.8,7s18.6-2.3,26.8-7l12.8-7C417.7,193.2,420.1,186.2,416.6,180.4z"/>
	</g>
</g>
<g>
	<g>
		<path class="st0" d="M245.5,256V11.6c-1.2-7-5.8-11.6-12.8-11.6H69.8C50,0,34.9,15.1,34.9,34.9v209.5
			c0,109.4,88.4,197.8,197.8,197.8c7,0,11.6-4.7,11.6-11.6v-81.5c0-7-4.7-11.6-11.6-11.6h-34.9c-7,0-11.6,4.7-11.6,11.6
			c0,7,4.7,11.6,11.6,11.6h23.3v58.2c-90.8-5.8-162.9-81.5-162.9-174.5V34.9c0-7,4.7-11.6,11.6-11.6h151.3v219.9
			c-27.9-4.7-55.9-23.3-71-51.2c-2.3-4.7-8.1-7-12.8-5.8s-8.1,5.8-8.1,11.6c1.2,54.7,46.5,116.4,104.7,116.4c7,0,11.6-4.7,11.6-11.6
			s-4.7-11.6-11.6-11.6c-29.1,0-54.7-20.9-68.7-47.7c19.8,15.1,44.2,24.4,68.7,24.4C240.9,267.6,245.5,263,245.5,256z"/>
	</g>
</g>
<g>
	<g>
		<path class="st0" d="M442.2,69.8H279.3c-7,0-11.6,4.7-11.6,11.6V256c0,7,4.7,11.6,11.6,11.6h34.9c7,0,11.6-4.7,11.6-11.6
			s-4.7-11.6-11.6-11.6h-23.3V93.1h151.3c7,0,11.6,4.7,11.6,11.6v209.5c0,91.9-72.1,168.7-162.9,174.5v-128
			c30.3,3.5,57,17.5,71,40.7c2.3,4.7,8.1,5.8,12.8,4.7c4.7-1.2,8.1-5.8,8.1-11.6c-1.2-48.9-46.5-104.7-104.7-104.7
			c-7,0-11.6,4.7-11.6,11.6s4.7,11.6,11.6,11.6c29.1,0,54.7,18.6,68.7,41.9c-19.8-11.6-43.1-18.6-68.7-18.6c-7,0-11.6,4.7-11.6,11.6
			v151.3c0,3.5,1.2,5.8,3.5,8.1c2.3,2.3,5.8,4.7,9.3,4.7c109.4,0,197.8-88.4,197.8-197.8V104.7C477.1,84.9,462,69.8,442.2,69.8z"/>
	</g>
</g>
</svg>
