<?xml version="1.0" encoding="utf-8"?>
<!-- Generator: Adobe Illustrator 24.2.1, SVG Export Plug-In . SVG Version: 6.00 Build 0)  -->
<svg version="1.1" id="Layer_1" xmlns="http://www.w3.org/2000/svg" xmlns:xlink="http://www.w3.org/1999/xlink" x="0px" y="0px"
	 viewBox="0 0 512 512" style="enable-background:new 0 0 512 512;" xml:space="preserve">
<style type="text/css">
	.st0{fill:#D42027;}
</style>
<g>
	<path class="st0" d="M156,190c0,55.1,44.9,100,100,100s100-44.9,100-100S311.1,90,256,90S156,134.9,156,190z M256,110
		c44.1,0,80,35.9,80,80s-35.9,80-80,80s-80-35.9-80-80S211.9,110,256,110z"/>
	<path class="st0" d="M266,10c0,5.5-4.5,10-10,10s-10-4.5-10-10s4.5-10,10-10S266,4.5,266,10z"/>
	<path class="st0" d="M208.9,5.9C124.8,27.4,66,103.1,66,190c0,79.2,27.2,111.6,182,318c1.9,2.5,4.9,4,8,4s6.1-1.5,8-4
		c154.8-206.3,182-238.8,182-318c0-86.9-58.8-162.6-142.9-184.1c-5.4-1.4-10.8,1.9-12.2,7.2c-1.4,5.4,1.9,10.8,7.2,12.2
		C373.4,44.5,426,112.2,426,190c0,70.9-22.3,98.5-170,295.3C108.4,288.6,86,261,86,190c0-77.8,52.6-145.5,127.8-164.7
		c5.4-1.4,8.6-6.8,7.2-12.2C219.7,7.8,214.2,4.5,208.9,5.9z"/>
</g>
</svg>
