<?xml version="1.0" encoding="utf-8"?>
<!-- Generator: Adobe Illustrator 24.2.1, SVG Export Plug-In . SVG Version: 6.00 Build 0)  -->
<svg version="1.1" id="Capa_1" xmlns="http://www.w3.org/2000/svg" xmlns:xlink="http://www.w3.org/1999/xlink" x="0px" y="0px"
	 viewBox="0 0 512 512" style="enable-background:new 0 0 512 512;" xml:space="preserve">
<style type="text/css">
	.st0{fill:#D42027;}
</style>
<g>
	<path class="st0" d="M256,34.5c-16.5,0-30,13.5-30,30s13.5,30,30,30s30-13.5,30-30S272.5,34.5,256,34.5z M256,79.5
		c-8.3,0-15-6.7-15-15s6.7-15,15-15s15,6.7,15,15C271,72.8,264.3,79.5,256,79.5z M512,114.9c-0.1-2.7-1.7-5.6-4.6-6.8L263,1.9
		c-4.4-1.9-9.5-1.9-14,0L4.6,108.1c-2.6,1.1-4.7,3.8-4.6,7v24.5c0,15.2,12.3,27.5,27.5,27.5h5.9c-2.2,4-3.4,8.6-3.4,13.5
		c0,15.7,12.8,28.5,28.5,28.5c2.2,0,4.4-0.3,6.5-0.8v213.8c-9.7-1.4-19,5.4-19,15.5v14.2H27.5C12.3,451.9,0,464.3,0,479.4V499
		c0,6.9,5.6,12.5,12.5,12.5h487c6.9,0,12.5-5.6,12.5-12.5v-19.6c0-15.2-12.3-27.5-27.5-27.5H466v-14.2c0-10.5-9.3-16.5-19-15.5
		V208.4c2.1,0.5,4.3,0.8,6.5,0.8c15.7,0,28.5-12.8,28.5-28.5c0-4.9-1.2-9.5-3.4-13.5h5.9c15.2,0,27.5-12.3,27.5-27.5v-24.5
		C512,115.1,512,115.1,512,114.9L512,114.9z M58.5,194.2c-7.4,0-13.5-6.1-13.5-13.5c0-7.4,6-13.5,13.5-13.5h81.1
		c7.4,0,13.5,6.1,13.5,13.5c0,7.4-6.1,13.5-13.5,13.5c-6.4,0-12-4.6-13.2-10.8c-0.8-4.1-4.7-6.7-8.8-5.9c-4.1,0.8-6.7,4.7-5.9,8.8
		c1,5,3.3,9.5,6.4,13.1v129.5c0,4.1,3.4,7.5,7.5,7.5c4.1,0,7.5-3.4,7.5-7.5V208.4c2.1,0.5,4.3,0.8,6.5,0.8
		c15.7,0,28.5-12.8,28.5-28.5c0-4.9-1.2-9.5-3.4-13.5h25.8c-2.2,4-3.4,8.6-3.4,13.5c0,15.7,12.8,28.5,28.5,28.5
		c2.2,0,4.4-0.3,6.5-0.8v213.8c-9.8-1.4-19,5.4-19,15.5v14.2h-51v-14.2c0-10.5-9.3-16.5-19-15.5v-58.4c0-4.1-3.4-7.5-7.5-7.5
		c-4.1,0-7.5,3.4-7.5,7.5v58.4H80V199.4c3.2-3.6,5.5-8.1,6.4-13.1c0.8-4.1-1.8-8-5.9-8.8c-4.1-0.8-8,1.8-8.8,5.9
		C70.5,189.6,64.9,194.2,58.5,194.2L58.5,194.2z M321.6,167.2h25.8c-2.2,4-3.4,8.6-3.4,13.5c0,15.7,12.8,28.5,28.5,28.5
		c2.2,0,4.4-0.3,6.5-0.8v213.8c-9.8-1.4-19,5.4-19,15.5v14.2h-51v-14.2c0-10.5-9.3-16.5-19-15.5V208.4c2.1,0.5,4.3,0.8,6.5,0.8
		c15.7,0,28.5-12.8,28.5-28.5C325,175.8,323.8,171.2,321.6,167.2L321.6,167.2z M294,437.7v14.2h-76v-14.2c0-0.3,0.2-0.5,0.5-0.5h75
		C293.8,437.2,294,437.4,294,437.7z M296.5,194.2c-6.4,0-12-4.6-13.2-10.8c-0.8-4.1-4.7-6.7-8.8-5.9c-4.1,0.8-6.7,4.7-5.9,8.8
		c1,5,3.3,9.5,6.4,13.1v222.8h-38V199.4c3.2-3.6,5.5-8.1,6.4-13.1c0.8-4.1-1.8-8-5.9-8.8c-4.1-0.8-8,1.8-8.8,5.9
		c-1.2,6.3-6.8,10.8-13.2,10.8c-7.4,0-13.5-6.1-13.5-13.5c0-7.4,6-13.5,13.5-13.5h81.1c7.4,0,13.5,6.1,13.5,13.5
		C310,188.1,303.9,194.2,296.5,194.2L296.5,194.2z M61,437.7c0-0.3,0.2-0.5,0.5-0.5h75c0.3,0,0.5,0.2,0.5,0.5v14.2H61V437.7z
		 M484.5,466.9c6.9,0,12.5,5.6,12.5,12.5v17.1H15v-17.1c0-6.9,5.6-12.5,12.5-12.5H484.5z M450.5,437.2c0.3,0,0.5,0.2,0.5,0.5v14.2
		h-76v-14.2c0-0.3,0.2-0.5,0.5-0.5H450.5z M453.5,194.2c-6.4,0-12-4.6-13.2-10.8c-0.8-4.1-4.7-6.7-8.8-5.9c-4.1,0.8-6.7,4.7-5.9,8.8
		c1,5,3.3,9.5,6.4,13.1v222.8h-38V199.4c3.2-3.6,5.5-8.1,6.4-13.1c0.8-4.1-1.8-8-5.9-8.8c-4.1-0.8-8,1.8-8.8,5.9
		c-1.2,6.3-6.8,10.8-13.2,10.8c-7.4,0-13.5-6.1-13.5-13.5c0-7.4,6-13.5,13.5-13.5h81.1c7.4,0,13.5,6.1,13.5,13.5
		C467,188.1,460.9,194.2,453.5,194.2L453.5,194.2z M497,139.7c0,6.9-5.6,12.5-12.5,12.5h-457c-6.9,0-12.5-5.6-12.5-12.5v-17.1h350.2
		c4.1,0,7.5-3.4,7.5-7.5c0-4.1-3.4-7.5-7.5-7.5H43.6L255,15.7c0.6-0.3,1.4-0.3,2,0l211.4,91.9h-68.2c-4.1,0-7.5,3.4-7.5,7.5
		c0,4.1,3.4,7.5,7.5,7.5H497L497,139.7L497,139.7z"/>
</g>
</svg>
