<?xml version="1.0" encoding="utf-8"?>
<!-- Generator: Adobe Illustrator 24.2.1, SVG Export Plug-In . SVG Version: 6.00 Build 0)  -->
<svg version="1.1" id="Capa_1" xmlns="http://www.w3.org/2000/svg" xmlns:xlink="http://www.w3.org/1999/xlink" x="0px" y="0px"
	 viewBox="0 0 512 512" style="enable-background:new 0 0 512 512;" xml:space="preserve">
<style type="text/css">
	.st0{fill:#FFFFFF;}
</style>
<g>
	<path class="st0" d="M458,145H54c-24.8,0-45,20.2-45,45v180c0,24.8,20.2,45,45,45h404c24.8,0,45-20.2,45-45V190
		C503,165.2,482.8,145,458,145z M127.7,303.3c-3.8,0-10.4,0-16.5,0.1V338c0,8.3-6.7,15-15,15s-15-6.7-15-15L81,224
		c0-4,1.6-7.8,4.4-10.6S92,209,96,209h31.7c26.4,0,47.8,21.2,47.8,47.2S154.1,303.3,127.7,303.3L127.7,303.3z M256.5,349.4
		c-8.9,0.2-31.3,0.2-32.2,0.2c0,0,0,0-0.1,0c-4,0-7.8-1.6-10.6-4.4c-2.8-2.8-4.4-6.6-4.4-10.6c0-0.4-0.2-110.6-0.2-110.6
		c0-4,1.6-7.8,4.4-10.6S220,209,224,209h31.3c35.7,0,59.7,28.3,59.7,70.3C315,319.3,290.4,348.8,256.5,349.4L256.5,349.4z
		 M410.2,263.4c8.3,0,15,6.7,15,15s-6.7,15-15,15H383V336c0,8.3-6.7,15-15,15s-15-6.7-15-15V222.8c0-8.3,6.7-15,15-15h45.9
		c8.3,0,15,6.7,15,15s-6.7,15-15,15H383v25.5H410.2z"/>
	<path class="st0" d="M255.3,239H239c0,13.5,0.1,67.5,0.1,80.5c6.2,0,12.9-0.1,16.8-0.2c20-0.4,29-20.4,29-40.1
		C285,269.9,282.9,239,255.3,239L255.3,239z"/>
	<path class="st0" d="M127.7,239H111c0,6.7,0,13.8,0,17.2c0,4,0,10.8,0.1,17.2c6.2,0,12.7-0.1,16.6-0.1c9.6,0,17.8-7.9,17.8-17.2
		S137.4,239,127.7,239z"/>
	<path class="st0" d="M442.5,115c-3.5-9.5-8.9-18.3-16-25.9l-62.3-65.7C350,8.5,330.2,0,309.7,0H110C85.2,0,65,20.2,65,45v70H442.5z
		"/>
	<path class="st0" d="M65,445v22c0,24.8,20.2,45,45,45h292c24.8,0,45-20.2,45-45v-22H65z"/>
</g>
</svg>
