<?xml version="1.0" encoding="utf-8"?>
<!-- Generator: Adobe Illustrator 20.1.0, SVG Export Plug-In . SVG Version: 6.00 Build 0)  -->
<svg version="1.1" id="Layer_1" xmlns="http://www.w3.org/2000/svg" xmlns:xlink="http://www.w3.org/1999/xlink" x="0px" y="0px"
	 viewBox="0 0 246.6 138.9" style="enable-background:new 0 0 246.6 138.9;" xml:space="preserve">
<style type="text/css">
	.st0{fill:#020203;}
	.st1{fill-rule:evenodd;clip-rule:evenodd;fill:#020203;}
</style>
<g>
	<path class="st0" d="M118.4,72.5c0.6,0.7,1.2,1.3,1.9,1.8V44.8h-0.6c-0.1,1.7-0.6,3.7-1.3,6c-1.5,4.5-3.5,9.6-3.3,13.6
		C115.1,67.7,116.5,70.4,118.4,72.5z M118.4,75.9c0.9-0.3,1.7-0.5,2.3-0.6c-0.6-0.2-1.5-0.9-2.3-1.7c-0.8-0.8-1.6-1.6-2-2.2
		c-0.4-0.8-0.7-1.1-1-2c-0.2-0.5-0.4-0.9-0.5-1.3c-0.2-0.7-0.4-1.3-0.5-2.2c-0.1-1.3-0.2-2.1-0.1-3.3c0.1-1.2,0.3-1.9,0.6-3.1
		c0.3-1.4,0.6-2.2,1-3.5c0.4-1.6,0.8-2.4,1.3-4c0.4-1.3,0.6-2,1-3.3c0.1-0.3,0.2-0.4,0.2-0.6c0.1-0.3,0.2-0.5,0.3-0.8
		c0-0.2,0.1-0.4,0.1-0.6c0.2-0.8,0.2-1.3,0.2-2.3c-0.1-0.9-0.1-1.3-0.5-2.1c-0.1-0.1-0.1-0.2-0.1-0.2c-0.4-0.8-0.8-1.2-1.6-1.6
		c-0.5-0.3-0.8-0.4-1.5-0.5h-0.5c-0.3,0-0.5,0.1-0.9,0.2c-0.6,0.2-0.9,0.4-1.3,0.8c-0.5,0.5-0.8,0.9-1,1.6c-0.2,0.5-0.4,0.9-0.4,1.6
		c-0.1,0.9-0.1,1.8,0.4,2.5c0.5,0.6,1,0.8,1.9,0.6c0.6-0.2,0.9-0.5,1.2-1.1c0.3-0.8,0.2-1.6,0.1-2.1c-0.1-0.2,0.4-0.2,0.5-0.2
		c0.2,0.5,0.3,0.8,0.2,1.3c-0.1,0.6-0.4,1.5-0.8,2.3c-0.8,1.6-1.7,3.2-2.3,4.4c-0.6,1.3-1.1,2-1.7,3.4c-2.2,5.6-2.5,11.2-0.6,16.9
		c1.3,3.2,2.5,4.8,4.6,6.9c0.1,0.1,0.1,0.1,0.2,0.2c0-0.1,0-0.2,0.1-0.3c0.1-1.1,0.9-1.9,2.3-2.6C117.7,76.2,118,76.1,118.4,75.9z
		 M122.1,75.1c0.3,0,0.7-0.1,1-0.1V44.8h-1h-1v30c0.1,0.2,0.3,0.3,0.5,0.4C121.7,75.2,121.9,75.2,122.1,75.1z M124.8,75h1.1V44.8
		h-1.1H124V75H124.8z M127.8,86.1h2.8v-3.6h-2.8h-3h-2.7h-2.4v3.6h2.4h2.7H127.8z M127.8,75.3h0.2c0.3-0.1,0.5-0.3,0.8-0.5V44.8h-1
		h-1v30.3C127.2,75.1,127.5,75.2,127.8,75.3z M131.4,72.6c1.8-2,3.3-4.8,3.4-8.2c-0.1-4.4-2-9.2-3.4-13.6c-0.7-2.2-1.2-4.2-1.2-6
		h-0.4v29.3C130.3,73.7,130.8,73.2,131.4,72.6z M131.4,81.1c1.5-0.5,2.4-1.1,2.3-1.7c0-0.2,0-0.4-0.1-0.6c-0.4-0.8-1.2-1.4-2.2-1.8
		c-1.2-0.6-2.7-0.9-3.5-1.1c-1-0.2-1.9-0.2-3-0.2H124h-0.4c-0.4,0.1-1,0.1-1.5,0.1c-1.2,0.2-2.4,0.4-3.3,0.7
		c-0.1,0.1-0.3,0.1-0.4,0.2c-1.1,0.4-2,1.2-2.4,2.3c0.1,0.9,0.9,1.6,2.4,2.1c0.8,0.3,1.8,0.4,2.8,0.6h0.9h2.7h3h1
		C129.8,81.5,130.6,81.3,131.4,81.1z M131.4,89.2h3.5h0.5v-2.4h-0.5h-3.5h-3.5h-3h-2.7h-3.7h-3.5v2.4h3.5h3.7h2.7h3H131.4z
		 M134.9,39.4c1.8,0.1,3.8,0.9,4.5,4.6c0.7,3.5-2.3,4.1-2.6,4c-0.2-0.1-0.7-0.1-1-0.4c1,1.2,5.9,9.2,6,17c0.1,6.8-3.5,12.9-6.8,15.4
		c-0.4,0.3-0.9,0.6-1.2,0.8c-0.5,0.3-1.3,0.6-2.1,0.9v4.3h3.4h1.2v4h-1.2h-3.5h-3.5h-3h-2.7h-3.7h-3.5h-0.8v-4h0.8h3.5h0.4v-4.1
		c-0.2-0.1-0.3-0.1-0.4-0.2c-0.9-0.3-1.7-0.6-2.2-1c-0.4-0.1-0.9-0.4-1.3-0.8c-3.3-2.5-6.8-8.5-6.8-15.3c0.1-7.8,5-15.9,6-17
		c-0.3,0.3-0.8,0.3-1,0.4c-0.3,0.1-3.3-0.5-2.6-4c0.7-3.7,2.6-4.5,4.4-4.6h0.5c1,0,2.1,0.6,3,1.6c0.7,0.8,1.2,1.9,1.2,3.1h0.6v-4.6
		h0.9V44h1h1v-4.6h0.9V44h0.9h1.1v-4.6h0.9V44h1h1v-4.6h0.9V44h0.4c0.1-1.2,0.5-2.2,1.2-3c0.8-1,1.9-1.6,3-1.6H134.9z M134.9,79.1
		c2.1-2,3.3-3.8,4.6-6.9c1.9-5.8,1.6-11.3-0.6-16.9c-0.6-1.3-1.1-2-1.7-3.4c-0.5-1.2-1.6-2.9-2.3-4.5c-0.4-0.8-0.6-1.5-0.8-2.2
		c-0.1-0.5,0-0.8,0.2-1.3c0.1-0.1,0.5-0.1,0.5,0.1v0.2c-0.1,0.4-0.2,1.2,0,1.7c0.1,0.1,0.1,0.2,0.1,0.3c0.3,0.6,0.6,0.9,1.2,1.1
		c1,0.2,1.4,0,1.9-0.6c0.5-0.7,0.5-1.6,0.4-2.5c0-0.6-0.2-1-0.4-1.6c-0.3-0.6-0.5-1-1-1.6c-0.4-0.4-0.8-0.6-1.3-0.8
		c-0.4-0.2-0.6-0.2-0.9-0.2h-0.4c-0.6,0.1-0.9,0.2-1.5,0.5c-0.8,0.5-1.2,0.9-1.6,1.8c-0.5,0.8-0.5,1.3-0.6,2.2c0,0.9,0,1.5,0.2,2.3
		c0,0.2,0.1,0.4,0.1,0.6c0.1,0.2,0.2,0.4,0.3,0.6c0.1,0.3,0.2,0.5,0.3,0.9c0.4,1.2,0.6,1.9,1,3.3c0.5,1.6,0.9,2.4,1.3,4
		c0.4,1.2,0.6,2,0.9,3.2c0.1,0.1,0.1,0.2,0.1,0.3c0.3,1.2,0.5,1.9,0.6,3.1c0.1,1.2,0,2-0.1,3.3c-0.2,0.9-0.4,1.6-0.6,2.3
		c-0.1,0.4-0.3,0.8-0.4,1.2c-0.3,0.9-0.6,1.2-1,2c-0.4,0.5-1.2,1.4-2,2.2c-0.9,0.8-1.8,1.5-2.4,1.8c0.9,0.2,1.7,0.4,2.4,0.7
		c1,0.4,1.8,1,2.4,1.6c0.5,0.5,0.9,1,0.9,1.6C134.8,79.3,134.8,79.2,134.9,79.1z"/>
	<path class="st0" d="M165.6,75.5l14.9-10.1l-0.3-1.6l-0.3-1.6l-0.6-1.3l-0.4-0.4l-0.6-0.4l0.8-1.1l1.1-0.9l-0.5-0.3l-0.5-0.3
		l-0.4-0.3l-0.1-0.5l0.2-0.5l0.2-0.8l-0.1-0.4l-0.5-0.4l-0.1-0.4l0.1-0.3l0.4-0.4l1.2-0.9l1.2-0.9l0.3-0.4l0.1-0.3l-0.4-0.1
		l-0.8,0.1l-2.2,0.5l-2.2,0.5l-0.7,0.1l-0.3-0.1l-0.1-0.5l0.2-0.6l0.6-1.5l0.4-1.2l-0.1-0.5l-0.4-0.2v-0.3l-0.3-0.2l-1-0.1l-1-0.1
		l-0.3-0.2l-0.1-0.3v-5v-4.6l-7.5,5.1l-9.9,6.8l-6.1,4.2c1.2,1.4,2,4.1,4.7,6c0.5,0.4,1,0.9,1.4,1.5c1.5,1.9,2.4,4.8,0,6.7
		c-0.3,0.3-0.6,0.5-1,0.7c-1.1,2.2-4.1,5-4.6,6.2c2.2,0.3,4.8,6.4,5.5,8.6L165.6,75.5z M165.6,40.7l8.3-5.6l-0.1,10.8l0.8,0.2
		l1.3,0.3l1,0.9l0.1,1.1l-0.6,1.9l-0.3,1.1l4-1l1.9-0.1l0.6,0.6l-0.2,0.9l-1.1,1.1l-2,1.5l0.5,0.9l-0.1,0.6l-0.2,1.1l1.7,1.2
		l-1.7,1.7l0.9,1.3l1,4.6l-15.6,10.6l-10.2,7c0,0-1.2-3.2-2.1-5c-2.1-3.9-3.1-4-3.9-4.4c0,0,1-2,2.1-3.1c1.3-1.3,2.7-3.7,2.7-3.7
		s1-0.6,1.4-1.2c1.9-2.4-0.1-5.5-2.3-7.4c-1.3-1.1-2.5-2.8-3.4-4.7c-0.3-0.6-1.3-1.5-1.3-1.5l7.1-4.9L165.6,40.7z M176.3,66.1
		c0.1,0,0.2,0,0.3-0.1l1.9-1.3c0.2-0.1,0.3-0.4,0.1-0.7l-2-2.9c-0.1-0.2-0.3-0.2-0.4-0.3c-0.1,0-0.2,0-0.3,0.1l-1.9,1.3
		c-0.2,0.2-0.3,0.5-0.1,0.7l2,3C175.9,66,176.1,66.1,176.3,66.1z M176.3,60c0.2-0.1,0.5,0.1,0.6,0.3l2.5,3.7
		c0.2,0.3,0.1,0.7-0.2,0.9l-2.7,1.8c-0.1,0.1-0.2,0.1-0.3,0.1c-0.3,0-0.5-0.1-0.6-0.3l-2.5-3.7c-0.2-0.3-0.1-0.8,0.2-1l2.6-1.8
		C176.1,60.1,176.2,60,176.3,60z M171.3,69.4c0.1,0,0.3,0,0.3-0.1l1.9-1.3c0.3-0.1,0.3-0.4,0.1-0.7l-2-2.9c-0.1-0.2-0.2-0.2-0.4-0.3
		c-0.1,0-0.2,0-0.3,0.1l-1.9,1.3c-0.2,0.2-0.3,0.5-0.1,0.7l2,3C171.1,69.3,171.2,69.4,171.3,69.4z M171.3,63.4
		c0.3-0.1,0.5,0.1,0.6,0.3l2.5,3.7c0.2,0.3,0.1,0.7-0.2,0.9l-2.6,1.8c-0.1,0.1-0.2,0.1-0.3,0.1c-0.2,0-0.5-0.1-0.6-0.3l-2.5-3.6
		c-0.2-0.3-0.1-0.8,0.2-1l2.7-1.8C171.1,63.5,171.2,63.4,171.3,63.4z M166.4,72.8c0.1,0.1,0.2,0,0.3-0.1l1.9-1.3
		c0.2-0.1,0.3-0.4,0.1-0.7l-2-2.8c-0.1-0.2-0.2-0.2-0.4-0.3c-0.1,0-0.2,0.1-0.3,0.1l-1.9,1.3c-0.2,0.2-0.3,0.4-0.1,0.7l2,2.9
		C166.2,72.7,166.3,72.8,166.4,72.8z M166.4,66.8c0.2-0.1,0.5,0.1,0.6,0.3l2.5,3.7c0.2,0.3,0.2,0.7-0.2,0.9l-2.6,1.8
		c-0.1,0.1-0.2,0.1-0.3,0.1c-0.2,0-0.5-0.1-0.6-0.3l-2.5-3.7c-0.2-0.3-0.2-0.7,0.2-0.9l2.6-1.8C166.2,66.9,166.3,66.8,166.4,66.8z
		 M161.5,76.2c0.1,0.1,0.2,0,0.3-0.1l1.9-1.3c0.2-0.1,0.3-0.4,0.1-0.7l-2-2.9c-0.1-0.2-0.3-0.2-0.4-0.3c-0.1,0-0.3,0.1-0.3,0.1
		l-1.9,1.3c-0.2,0.2-0.3,0.5-0.1,0.8l2,2.9C161.2,76.1,161.4,76.2,161.5,76.2z M161.5,70.1c0.2-0.1,0.5,0.1,0.6,0.3l2.5,3.7
		c0.2,0.3,0.1,0.7-0.2,0.9l-2.7,1.8c-0.1,0.1-0.2,0.1-0.3,0.1c-0.3,0-0.5-0.1-0.6-0.3l-2.5-3.7c-0.2-0.3-0.1-0.8,0.2-1l2.6-1.8
		C161.3,70.2,161.4,70.1,161.5,70.1z M156.6,79.6c0.1,0.1,0.3,0,0.3-0.1l1.9-1.3c0.3-0.2,0.3-0.5,0.1-0.8l-2-2.9
		c-0.1-0.2-0.2-0.2-0.4-0.3c-0.1,0-0.2,0.1-0.3,0.1l-1.9,1.3c-0.2,0.2-0.3,0.5-0.1,0.8l2,2.9C156.3,79.4,156.5,79.6,156.6,79.6z
		 M156.6,73.5c0.3-0.1,0.5,0.1,0.6,0.3l2.5,3.7c0.2,0.3,0.1,0.8-0.2,0.9l-2.6,1.8c-0.1,0.1-0.2,0.1-0.3,0.1c-0.2,0-0.5-0.1-0.6-0.3
		l-2.5-3.7c-0.2-0.3-0.1-0.8,0.2-1l2.7-1.8C156.4,73.6,156.5,73.5,156.6,73.5z M169.3,46.7c0.1,0,0.2,0,0.3-0.1l1.9-1.3
		c0.2-0.2,0.3-0.5,0.1-0.7l-2-2.9c-0.1-0.2-0.3-0.2-0.4-0.3c-0.2,0-0.3,0-0.3,0.1l-1.9,1.3c-0.3,0.2-0.3,0.5-0.1,0.7l1.9,3
		C169,46.6,169.1,46.7,169.3,46.7z M169.3,40.7c0.2-0.1,0.5,0.1,0.6,0.3l2.5,3.7c0.2,0.3,0.1,0.7-0.2,0.9l-2.7,1.8
		c-0.1,0.1-0.2,0.1-0.3,0.1c-0.3,0-0.5-0.1-0.6-0.3l-2.5-3.7c-0.2-0.3-0.1-0.8,0.2-1l2.6-1.8C169.1,40.7,169.2,40.7,169.3,40.7z
		 M164.3,50.1c0.1,0,0.2,0,0.3-0.1l1.9-1.3c0.2-0.2,0.3-0.5,0.1-0.7l-2-2.9c-0.1-0.2-0.2-0.2-0.4-0.3c-0.1,0-0.2,0-0.3,0.1l-1.9,1.3
		c-0.2,0.2-0.3,0.5-0.1,0.7l2,3C164.1,50,164.2,50.1,164.3,50.1z M164.3,44.1c0.3-0.1,0.5,0.1,0.6,0.3l2.5,3.7
		c0.2,0.3,0.1,0.7-0.2,0.9l-2.6,1.8c-0.1,0.1-0.2,0.1-0.3,0.1c-0.2,0-0.5-0.1-0.6-0.3l-2.5-3.7c-0.2-0.3-0.1-0.8,0.2-1l2.6-1.8
		C164.1,44.1,164.2,44.1,164.3,44.1z M159.4,53.5c0.1,0,0.2,0,0.3-0.1l1.9-1.3c0.2-0.1,0.3-0.4,0.1-0.7l-2-2.9
		c-0.1-0.2-0.2-0.2-0.4-0.3c-0.1,0-0.2,0-0.3,0.1l-1.9,1.3c-0.2,0.2-0.3,0.5-0.1,0.7l2,3C159.2,53.4,159.3,53.5,159.4,53.5z
		 M159.4,47.5c0.2-0.1,0.5,0.1,0.6,0.3l2.5,3.7c0.2,0.3,0.2,0.7-0.2,0.9l-2.6,1.8c-0.1,0.1-0.2,0.1-0.3,0.1c-0.3,0-0.5-0.1-0.6-0.3
		l-2.5-3.7c-0.2-0.3-0.2-0.8,0.2-1l2.6-1.8C159.2,47.5,159.3,47.5,159.4,47.5z M154.5,51.6c-0.2,0-0.3,0-0.3,0.1l-1.9,1.3
		c-0.3,0.2-0.3,0.5-0.1,0.7l1.9,3c0.1,0.1,0.3,0.2,0.4,0.2c0.1,0,0.2,0,0.3-0.1l1.9-1.3c0.2-0.1,0.3-0.4,0.1-0.7l-2-2.9
		C154.8,51.7,154.7,51.7,154.5,51.6z M151.6,52.7l2.6-1.8c0.1-0.1,0.2-0.1,0.3-0.1c0.2-0.1,0.5,0.1,0.6,0.3l2.5,3.7
		c0.2,0.3,0.1,0.7-0.2,0.9l-2.7,1.8c-0.1,0.1-0.2,0.1-0.3,0.1c-0.3,0-0.5-0.1-0.6-0.3l-2.5-3.7C151.2,53.4,151.3,52.9,151.6,52.7z"
		/>
	<path class="st0" d="M75.1,41.9c2.6,0,4.7,1.6,4.7,1.6s-1.3-2.2-2.6-3.1c-0.6-0.5-1.3-0.8-2.1-0.9c-0.8-0.2-1.6-0.2-2.4-0.1
		c-1.7,0.2-2.3,1.3-2.4,1.8c-0.1,0.5,0.4,1,1.2,1.1c0.9,0,0.3-0.1,3.1-0.3H75.1z M88.8,39.3c-0.8,0.2-1.5,0.5-2.2,0.9
		c-1.2,0.9-2.4,2.9-2.4,2.9s2-1.4,4.6-1.3h0.4c2.7,0.2,2.2,0.3,3,0.2c0.8,0,1.2-0.5,1.2-1c0.1-0.4-0.6-1.6-2.4-1.7
		C90.2,39.2,89.5,39.2,88.8,39.3z M81.8,64.3h1.7l1.7-0.1l2-0.5l1.7-0.6l0.3-0.1l1.6-0.8l1.3-0.9l1-0.9l1-1.1l1-1.2l0.8-1.3l0.9-1.9
		l0.4-2.2l0.1-1.7v-1.7L97,47.8l-0.3-1.3l-0.4-1l-0.4-0.9l-0.4-1l-0.3-1L95,42.1c-0.5,0.1-0.9,0.3-1.3,0.6l0.1,0.2L93.6,43L93,42.8
		l-1.9-0.4l-0.8-0.1h-1.2l-0.3,0.1l-1.3,0.1l-1.1,0.2l-1,0.4l-1.1,0.6l-1.1,0.8l0.7-1.8l0.9-1.3l0.9-0.9l1.2-0.9l1.3-0.5l0.6-0.2
		l0.3-0.1l1-0.1l0.9,0.1l1,0.2l1,0.5l0.7,0.6l0.3,0.7v0.5L93.6,42l-0.3,0.2v0.2c0.5-0.4,1.1-0.7,1.7-0.8l-0.1-0.9l-0.1-1.8
		c-3.8-0.9-5.1-1.7-6-2.4c-0.7-0.6-1.2-1.1-2.3-1.5c-1.5-0.5-3.1-0.8-4.7-0.8c-1.5,0-3.1,0.3-4.3,0.7c-0.7,0.3-1.5,0.8-2.4,1.4
		c-1.5,1-3.4,2.1-6.5,2.4l-0.1,1.9l-0.1,0.9c0.8-0.1,1.4,0.4,2.1,0.8L70.1,42l-0.3-0.6v-0.5l0.3-0.7l0.7-0.6l1-0.5l0.9-0.2l1-0.1
		l1,0.1l0.4,0.1l0.4,0.1l1.5,0.5l1.2,0.9l0.9,0.9l0.9,1.3l0.7,1.8l-1.1-0.8L78.4,43l-1-0.4l-1.1-0.2l-1.1-0.1l-0.3-0.1h-1.3
		l-0.8,0.1l-1.9,0.4L70.1,43L70,42.9c-0.6-0.4-1.1-0.7-1.7-0.8l-0.1,0.4l-0.3,1l-0.4,1l-0.4,0.9l-0.4,1l-0.3,1.3l-0.1,1.5l-0.1,1.7
		l0.1,1.7l0.5,2.2l0.8,1.9l0.9,1.3l0.9,1.2l0.9,1.1l1.1,0.9l1.5,0.9l1.5,0.8l0.8,0.3l1.1,0.4l2.1,0.5l1.7,0.1h1.6H81.8z M88.8,30.4
		l-0.2-0.1l-1.9-0.5l-2.5-0.2l-2.4-0.1l-2.6,0.1H78l-1.3,0.2l-1.6,0.4l-0.3,0.1l-1.8,0.6l-1.1,0.4L70.9,32L70,32.5L69.5,33l-0.4,0.7
		l-0.3,0.8l-0.1,0.7v1.7l-0.1,1.4c3.3-0.5,5-1.7,6.5-2.7c0.8-0.5,1.5-1,2.4-1.2c1.3-0.4,2.8-0.6,4.3-0.6c1.7-0.1,3.3,0.2,4.7,0.8
		c0.9,0.4,1.6,0.9,2.3,1.3c1.3,0.9,2.7,1.9,6,2.4l-0.1-1.4v-1.7l-0.1-0.7l-0.2-0.8L93.8,33l-0.5-0.5L92.5,32l-1-0.6l-1.1-0.4
		L88.8,30.4z M81.8,28.7l2.5,0.1l2.6,0.2l1.9,0.5l2,0.6l1.1,0.4l1.1,0.6l0.9,0.5l0.6,0.5l0.5,0.8l0.2,0.8l0.1,0.8v1.8l0.2,4.1
		l0.2,1.8l0.3,1.1l0.4,1l0.4,1l0.4,1.1l0.3,1.4l0.2,1.5v1.7l-0.1,1.7l-0.4,2.3l-1,2l-0.8,1.4l-1.1,1.3l-1,1.1l-1.1,1l-1.4,1
		l-1.6,0.8l-0.6,0.2l-1.5,0.5l-2,0.5L83.6,65h-1.8h-0.2h-1.7l-1.7-0.1l-2.2-0.5L75.1,64l-1.2-0.4l-1.5-0.8l-1.5-1l-1.1-1l-1-1.1
		l-1-1.3L67,57.1l-0.9-2l-0.5-2.3l-0.1-1.7l0.1-1.7l0.1-1.5l0.3-1.4l0.4-1.1l0.4-1l0.4-1l0.3-1.1l0.2-1.8l0.2-4.1v-1.8l0.1-0.8
		l0.3-0.8l0.4-0.8l0.5-0.5l1-0.5l1-0.6l1.1-0.4l1.9-0.6l0.6-0.2l1.3-0.4l1.5-0.2h1.3l2.6-0.1H81.8z M88.8,53.9
		c0.9,0.2,1.9,0.4,1.9-0.3c0-0.5-0.9-0.5-1.9-0.3c-1.1,0.2-2.5,0.6-3.3,0.9c-1.6,0.5-3.5,2.4-3.5,3c-0.7-0.8-1.8-2.4-3.4-3.1
		c-0.9-0.4-2.3-0.8-3.4-1c-1.2-0.2-2.2-0.1-2.2,0.5c0,0.9,1.1,0.6,2.2,0.5c0.4,0,0.8,0,1.1,0c1.4,0.2,1.8,0.5,1.8,1.3
		c0,0.9-0.4,3.1,0.1,4c0.5,0.8,1.5,1.8,3.4,1.9h0.3c1.9-0.1,4.1-1.4,4.5-3.2c0.4-1.9-0.3-2.5-0.1-3.3c0.2-0.9,0.6-1,1.5-1
		C88,53.7,88.4,53.9,88.8,53.9z M88.8,44.6l0.2-0.1h1l0.9,0.1l1.1,0.3l0.8,0.3l0.7,0.5l0.8,0.6l0.5,0.8l0.6,1l0.3,1.1l0.2,1.5
		L95.8,52l-0.4,1.5l-0.7,1.3l-0.8,0.9l-0.8,0.7l-1.2,1.1l-1.5,0.7l-1.3,0.8L88.8,59l-1.1,0.5l-1.9,0.6c-1,1-2.4,1.7-3.9,1.7
		c-2.2-0.1-3.3-0.8-3.9-1.7L76,59.5l-0.9-0.4l-0.4-0.2l-1.5-0.8l-1.3-0.7l-1.2-1.1l-0.9-0.7l-0.7-0.9l-0.8-1.3L67.9,52l-0.1-1.3
		l0.2-1.5l0.3-1.1l0.6-1l0.5-0.8l0.8-0.6l0.7-0.5l0.8-0.3l1.1-0.3l0.9-0.1h1.1l0.3,0.1l0.7,0.2l1,0.6l0.9,0.9l-1.5,0.5l-0.4,0.4
		L75.5,48l0.1,0.8l0.5,0.6l0.5,0.3l0.5,0.2l0.7-0.2l0.6-0.1H79l0.6,0.3l0.4,0.4l0.5,0.4l0.6,0.3l0.6,0.1l0.7-0.1l0.6-0.3l0.5-0.4
		l0.4-0.4l0.6-0.3h0.5l0.6,0.1l0.6,0.2l0.6-0.2l0.5-0.3l0.5-0.6l0.1-0.8l-0.4-0.8l-0.4-0.4l-1.5-0.5l0.9-0.9l1-0.6L88.8,44.6z
		 M88.8,58.3c0.3-0.2,0.7-0.4,1.1-0.6c1.1-0.5,1.7-0.9,2.5-1.6c0.6-0.5,1.1-0.8,1.5-1.5c0.6-1.1,0.8-1.4,1.1-2.6
		c0.2-1,0.2-1.7-0.1-2.6c-0.2-0.8-0.4-1.2-0.9-2c-0.4-0.6-0.7-0.9-1.2-1.2c-0.5-0.4-0.9-0.6-1.5-0.8c-0.9-0.3-1.7-0.4-2.6-0.2
		c-0.6,0.1-1.2,0.4-1.8,1c0.8,0.2,1.7,1,1.8,1.8c0.1,0.5-0.1,1.5-0.5,1.8c-0.4,0.3-0.9,0.7-1.5,0.8c-0.4,0-1.7-0.2-2-0.1
		c-0.9,0.4-1.1,1.4-2.9,1.4h-0.2c-1.6-0.1-1.5-1-2.6-1.5c-0.6-0.3-1.8,0.2-2.4,0.1c-0.4,0-1.2-0.5-1.6-1.2c-0.3-0.4-0.5-0.9-0.4-1.2
		c0.1-0.2,0.2-0.6,0.4-1c0.3-0.5,0.8-0.9,1.4-1c-0.6-0.5-0.5-0.4-1-0.8c-0.2-0.1-0.3-0.1-0.4-0.1c-1.2-0.3-1.8-0.2-2.8,0.1
		c-0.5,0.2-0.9,0.3-1.4,0.8c-0.5,0.4-0.8,0.6-1.2,1.2c-0.5,0.8-0.7,1.2-0.9,2c-0.3,1-0.3,1.7-0.1,2.6c0.3,1.1,0.3,1.5,1.1,2.6
		c0.4,0.7,0.9,1,1.5,1.5c0.9,0.8,1.5,1.1,2.4,1.6c0.5,0.3,1,0.5,1.5,0.8c0.4,0.2,0.8,0.3,1.2,0.5c0.5,0.2,0.8,0.3,1.2,0.4
		c-0.6-1.7,0.2-3.8-0.1-4.2c-0.3-0.5-1-0.6-2.3-0.5c-1.2,0.1-2.7,0.3-2.7-0.8c-0.1-1.2,0.9-1.2,1.9-1.2c0.3,0,0.5,0,0.8,0.1
		c2.7,0.4,5.6,1.7,6.7,3.5c0.2-0.2,0.8-0.9,1-1.1l0.7-0.5l0.5-0.3l0.9-0.4l0.9-0.3c1-0.4,2-0.6,3-0.7c0.2-0.1,0.4-0.1,0.6-0.1h0.9
		l0.6,0.2l0.3,0.3v0.6l-0.4,0.5l-0.6,0.2l-1.4-0.1h-0.2l-1.5-0.1l-0.4,0.2L86.6,55c0.5,1.6,0.4,3.1-0.3,4.2c0.3-0.1,0.6-0.2,1-0.4
		C87.9,58.6,88.4,58.5,88.8,58.3z"/>
	<path class="st0" d="M188.7,38.6l2.1,1.8l16.6-10.9l-18.7-3.7L170,22.2L188.7,38.6z M190.8,41.4l-2.1-1.8l-21-18.5l21,4.2l20.3,4
		L190.8,41.4z M190.2,34.7l-7.6-6.2l7.6,1.6l6.8,1.3l-6.1,3.9L190.2,34.7z M190.2,30.6l-5.3-1l5.3,4.3l0.6,0.5l4.6-2.7L190.2,30.6z"
		/>
	<path class="st0" d="M237.3,31.5c-0.8-0.5-1.5-0.9-2.3-1.2c-0.7-0.3-1.4-0.4-2.2-0.6c-0.1-0.1-0.2-0.1-0.2-0.1
		c-1.1-0.4-3.3,0.6-4,1.6c-0.7,0.7-1.3,1.9-1.8,2.8c-0.1,0.1-0.1,0.2-0.2,0.2c-0.7,1.2-0.8,1.9-1.5,3.1c-0.5,0.9-1.3,2-1.9,2.3
		c-1.1,0.4-1.4,0.6-2,0.2c-0.3-0.2-0.6-0.3-0.8-0.5c-0.3-0.2-0.5-0.5-0.6-0.9c-0.5-1.2-0.6-2.8-0.8-3.8c-0.2-0.5-0.4-0.9-0.7-1
		c-0.1-0.1-0.2-0.1-0.3-0.2h-0.3c-0.5,0.1-1.1,0.6-2,1.5c-2.9,3-3.8,4.5-5.3,8.6c-1.7,5-1.1,8.8,0.6,12.7c1.3,3,2.9,4.5,4.7,5.5
		c0.6,0.4,1.3,0.6,2,0.9c0.1,0.1,0.2,0.1,0.3,0.1c0.1,0,0.2,0.1,0.3,0.1c0.6,0.2,1.3,0.4,2,0.6c1.1,0.5,3.6,0.4,6.3-0.2
		c2-0.5,4.2-1.2,6-2.2c0.2-0.1,0.4-0.2,0.5-0.3c0.6-0.4,1.1-0.8,1.7-1.2c0.8-0.6,1.6-1.3,2.3-1.9c2.1-2.1,3.7-4.6,4.8-8.1
		c0.9-2.9,1.4-5.2,1-8.1c-0.4-2.9-0.7-4.3-2.3-6.6c-1-1.4-1.6-2.2-3-3.1C237.7,31.7,237.6,31.6,237.3,31.5z M235.1,29.4
		c0.8,0.3,1.5,0.6,2.3,1.2c0.3,0.2,0.5,0.3,0.9,0.5c1.5,1,2.3,1.9,3.3,3.3c1.7,2.4,2,3.8,2.4,6.8c0.4,3,0,5.2-1,8.3
		c-1.3,3.9-3.1,6.8-5.6,9.1c-0.7,0.7-1.5,1.3-2.3,1.9c-0.4,0.3-0.9,0.6-1.3,1c-0.3,0.2-0.5,0.3-0.9,0.5c-1.9,1-4,1.7-6,2.1
		c-2.7,0.5-5.1,0.5-6.3,0.2c-0.1,0-0.2-0.1-0.3-0.1c-0.6-0.2-1.2-0.4-1.8-0.6c-0.1-0.1-0.2-0.1-0.3-0.1c-0.1,0-0.2-0.1-0.3-0.1
		c-0.7-0.3-1.3-0.5-2-0.8c-2-1-3.8-2.5-5.4-5.9c-1.8-4.1-2.5-8-0.7-13.3c1.6-4.3,2.5-5.9,5.5-9c0.2-0.2,0.4-0.4,0.6-0.6
		c0.8-0.8,1.5-1.2,2-1.4h0.3h0.3c0.4,0.1,0.8,0.4,1.1,0.9c0.6,0.7,0.3,2.3,0.8,3.6c0.1,0.1,0.1,0.3,0.2,0.4c0.2,0.5,0.2,1,0.7,1.3
		c0.6,0.4,0.9,0.4,2-0.1c0.6-0.3,1-1.6,1.6-2.5c0.8-1.2,0.9-2,1.7-3.2c0.1-0.2,0.3-0.4,0.4-0.5c0.4-0.6,0.8-1.2,1.4-1.8
		c0.6-0.5,0.9-0.9,1.7-1.2c1-0.4,1.8-0.7,2.7-0.6c0.1,0,0.2,0.1,0.3,0.1C233.7,29,234.4,29.2,235.1,29.4z M215.9,46.8
		c0.9,1,0.9,2.5,0,3.6c-0.1,0.1-0.2,0.2-0.2,0.2c-1.1,1.2-2.8,1.3-3.9,0.4c-1.1-1-1-2.7,0.1-3.9c1.1-1.2,2.9-1.3,3.9-0.4L215.9,46.8
		z M215.9,49.3c0.1-0.5,0.1-1,0-1.4c-0.1-0.3-0.3-0.5-0.5-0.8c-0.8-0.8-2.2-0.6-3.1,0.3c-0.9,1-0.9,2.4-0.1,3.2
		c0.9,0.8,2.3,0.6,3.1-0.3C215.6,50,215.8,49.7,215.9,49.3z M217.9,55.1c0.3-0.5,0.3-1.2,0-1.7c-0.1-0.3-0.2-0.5-0.4-0.6
		c-0.4-0.4-1-0.6-1.6-0.5c-0.6,0.1-1.1,0.3-1.6,0.8c-0.9,0.9-0.9,2.4-0.1,3.1c0.4,0.4,1,0.6,1.6,0.5c0.5-0.1,1.1-0.3,1.5-0.8
		C217.6,55.7,217.8,55.5,217.9,55.1z M218.5,53.3c0.2,0.6,0.2,1.2,0,1.9c-0.1,0.2-0.2,0.4-0.3,0.6c-0.1,0.1-0.2,0.3-0.3,0.4
		c0,0.1-0.1,0.1-0.1,0.2c-0.5,0.5-1.2,0.9-1.9,1c-0.8,0.1-1.5-0.1-2-0.6c-1-1-1-2.7,0.1-3.9c0.5-0.5,1.2-0.9,1.9-1
		c0.7-0.1,1.5,0.2,2,0.6l0.3,0.4C218.3,52.9,218.4,53.1,218.5,53.3z M220.5,55.8c0.7-0.1,1.5,0.1,2,0.6c1,1,1,2.7-0.1,3.9
		c-0.5,0.5-1.2,0.9-1.9,1c-0.8,0.1-1.4-0.2-2-0.6c-0.2-0.2-0.3-0.3-0.3-0.4c-0.1-0.2-0.2-0.3-0.3-0.5c-0.2-0.6-0.2-1.2,0-1.9
		c0.1-0.2,0.2-0.4,0.3-0.6c0.1-0.1,0.2-0.3,0.3-0.4c0.1-0.1,0.1-0.1,0.1-0.2C219.1,56.3,219.8,55.9,220.5,55.8z M220.5,60.8
		c0.5-0.1,1.1-0.3,1.5-0.8c0.9-0.9,0.9-2.4,0.1-3.1c-0.4-0.4-1-0.6-1.6-0.5c-0.5,0.1-1.1,0.3-1.6,0.8c-0.2,0.2-0.4,0.5-0.5,0.8
		c-0.2,0.5-0.2,1.2,0,1.7c0.1,0.3,0.2,0.5,0.4,0.6C219.3,60.7,219.9,60.9,220.5,60.8z M226.9,42c0.5,0.2,1.1,0.4,1.5,0.8
		c1.7,1.5,1.7,4.1,0.1,6c-0.5,0.5-1,1-1.6,1.2c-1.5,0.7-3.2,0.5-4.4-0.5c-1.7-1.5-1.7-4.1-0.1-6C223.6,42.2,225.3,41.6,226.9,42z
		 M226.9,49.2c0.4-0.2,0.8-0.5,1.1-0.9c1.3-1.6,1.3-3.8-0.1-4.9c-0.3-0.3-0.6-0.4-1-0.5c-1.3-0.4-2.9,0-3.9,1.2
		c-1.3,1.6-1.3,3.8,0.1,4.9C224.1,49.9,225.6,49.9,226.9,49.2z M226.9,56.3c0.7-0.1,1.5,0.2,2,0.6c1,1,1,2.7-0.1,3.9
		c-0.5,0.6-1.2,0.9-1.9,1c-0.8,0.1-1.5-0.1-2-0.6c-1-1-1-2.7,0.1-3.9C225.5,56.8,226.2,56.4,226.9,56.3z M226.9,61.3
		c0.5-0.1,1.1-0.3,1.5-0.8c0.9-0.9,0.9-2.3,0.1-3.1c-0.4-0.4-1-0.6-1.6-0.5c-0.6,0.1-1.1,0.3-1.6,0.8c-0.9,0.9-0.9,2.4-0.1,3.1
		C225.7,61.2,226.3,61.4,226.9,61.3z M235.1,55.6c-0.1-0.4-0.3-0.8-0.6-1.1c-0.4-0.4-1-0.6-1.6-0.5c-0.5,0.1-1.1,0.3-1.5,0.8
		c-0.9,0.9-0.9,2.3-0.1,3.1c0.4,0.4,1,0.6,1.6,0.5c0.5-0.1,1.1-0.3,1.6-0.8c0.4-0.4,0.6-0.8,0.6-1.3
		C235.1,56.1,235.1,55.8,235.1,55.6z M235.1,54.3c0.8,0.9,0.8,2.3,0,3.3c-0.1,0.1-0.2,0.2-0.3,0.4c-0.5,0.5-1.2,0.9-1.9,1
		c-0.7,0.1-1.5-0.2-2-0.6c-1-1-1-2.7,0.1-3.9c0.5-0.6,1.2-0.9,1.9-1c0.8-0.1,1.4,0.1,2,0.6C235,54.1,235,54.2,235.1,54.3z
		 M235.1,56.3v-0.7C235.1,55.8,235.1,56.1,235.1,56.3z M237.3,48.1c0.8-0.1,1.5,0.2,1.9,0.6c1.1,1,1,2.7-0.1,3.9
		c-0.5,0.6-1.2,0.9-1.9,1c-0.8,0.1-1.5-0.1-2-0.6c0-0.1-0.2-0.2-0.2-0.3c-0.8-0.9-0.7-2.3,0-3.3l0.3-0.3
		C235.9,48.5,236.6,48.2,237.3,48.1z M237.3,53.1c0.5-0.1,1.1-0.3,1.5-0.8c0.9-1,0.9-2.4,0.1-3.2c-0.4-0.4-1-0.5-1.6-0.5
		c-0.5,0.1-1.1,0.3-1.6,0.8c-0.9,1-0.9,2.4-0.1,3.2C236.2,53,236.8,53.2,237.3,53.1z M237.3,35.7c0.8-0.1,1.5,0.1,2,0.6
		c1.1,1,1,2.7-0.1,3.9c-0.5,0.5-1.2,0.9-1.9,1c-0.7,0.1-1.5-0.2-2-0.6l-0.3-0.3c-0.6-0.9-0.6-2.2,0-3.2c0.1-0.2,0.2-0.3,0.4-0.4
		C236,36.1,236.7,35.8,237.3,35.7z M237.3,40.7c0.5-0.1,1.1-0.3,1.6-0.8c0.9-0.9,0.9-2.4,0.1-3.1c-0.4-0.4-1-0.6-1.6-0.5
		c-0.5,0.1-1.1,0.3-1.5,0.8c-0.9,0.9-0.9,2.3-0.1,3.1C236.2,40.6,236.8,40.8,237.3,40.7z M237.3,42.6c1.1-1.2,2.9-1.3,3.9-0.4
		c1.1,1,1,2.8-0.1,3.9c-1.1,1.1-2.7,1.3-3.8,0.5C236.2,45.5,236.2,43.7,237.3,42.6z M237.3,45.7c0.1,0.2,0.2,0.3,0.3,0.4
		c0.9,0.8,2.3,0.6,3.1-0.3c0.9-1,0.9-2.4,0.1-3.2c-0.9-0.8-2.3-0.6-3.1,0.3c-0.2,0.2-0.3,0.3-0.4,0.5
		C236.9,44.1,236.9,45,237.3,45.7z"/>
	<path class="st0" d="M55.9,25.4c-0.2,0-0.3,0-0.5,0.1c-0.9,0.2-1.6,1-1.6,1.9c0,0.9,0.7,1.7,1.6,1.9c0.2,0.1,0.3,0.1,0.5,0.1
		c1.1,0,2-0.9,2-1.9C58,26.2,57.1,25.4,55.9,25.4z M55.9,18.6h-0.5c-2.3-0.1-4.6-0.7-6.8-1.8l-0.6,12.1c5.3,2.3,6.3,6.5,6.8,11h0.8
		l0-10c-0.1,0-0.2,0-0.2-0.1c-1.3-0.2-2.2-1.2-2.2-2.5c0-1.1,0.9-2.1,2.2-2.4c0.2,0,0.3-0.1,0.5-0.1c1.5,0,2.6,1.2,2.6,2.5
		c0,1.3-1.1,2.4-2.4,2.5l0,10H57c0.3-4.1,1.2-8.3,6.9-11l-0.6-12c-0.9,0.4-1.8,0.8-2.7,1.1C59,18.4,57.4,18.6,55.9,18.6z M63.1,2.6
		L63.4,7l1.1,22.2c-0.8,0.3-1.9,0.9-3,1.7c-1,0.8-1.6,1.5-2.2,2.4c-1.6,2.3-1.8,6.1-2,7h-2.9c0,0-0.3-3.5-1.2-5.5
		c-0.6-1.3-1-2-1.9-3c-1.2-1.3-2.2-1.8-3.8-2.6L48.6,7l0.3-4.4H63.1z M55.5,9h0.5c1.6,0,3.1-0.3,4.6-0.8c0.8-0.2,1.5-0.5,2.3-0.9
		l-0.2-4.1H49.4l-0.2,4.2C51.3,8.4,53.4,8.9,55.5,9z M55.5,12h0.5c1.6,0,3.1-0.3,4.6-0.8c0.8-0.3,1.6-0.6,2.4-1L62.9,8
		c-0.8,0.3-1.6,0.6-2.3,0.8c-1.6,0.5-3.1,0.8-4.6,0.8h-0.5C53.3,9.6,51.2,9,49.2,8L49,10.2C51.2,11.3,53.3,11.9,55.5,12z M55.5,15
		h0.5c1.6,0,3.1-0.3,4.6-0.8c0.9-0.3,1.7-0.6,2.5-1.1L63,11c-0.9,0.4-1.6,0.7-2.4,0.9c-1.6,0.5-3.1,0.8-4.6,0.8h-0.5
		c-2.2-0.1-4.2-0.6-6.5-1.7l-0.1,2.1C51.1,14.3,53.3,14.9,55.5,15z M55.9,15.6h-0.5c-2.3-0.1-4.5-0.6-6.6-1.7l-0.1,2.2
		c2.3,1.2,4.5,1.8,6.7,1.9h0.5c1.6,0,3.1-0.3,4.6-0.8c0.9-0.3,1.8-0.6,2.7-1.1l-0.1-2.3c-0.9,0.4-1.7,0.8-2.6,1
		C59,15.4,57.4,15.6,55.9,15.6z"/>
	<path class="st0" d="M15.5,23.2c7.4,0,13.5,6,13.5,13.5c0,7.4-6,13.5-13.5,13.5C8,50.2,2,44.2,2,36.7C2,29.3,8,23.2,15.5,23.2z
		 M15.5,24c-7,0-12.7,5.7-12.7,12.7c0,7,5.7,12.7,12.7,12.7c7,0,12.7-5.7,12.7-12.7C28.2,29.7,22.5,24,15.5,24z"/>
	<path class="st1" d="M15.5,31.1h1.9v3.8h1.5H21v3.7h-2.3h-1.5v3.7h-1.9h-1.8v-3.7h-1.5H9.9v-3.7h2.3h1.5v-3.8H15.5z M18.8,35.5
		h-1.5V38h1.5h1.5v-2.5H18.8z M15.5,41.6h1.2v-3h-1.2h-1.2v3H15.5z M15.5,38h1.2v-2.5h-1.2h-1.2V38H15.5z M15.5,34.9h1.2v-3h-1.2
		h-1.2v3H15.5z M12.1,38h1.5v-2.5h-1.5h-1.5V38H12.1z M15.5,49.8l-1.9-0.1V46H9.8v-3.7H6v-3.8H2.1v-3.8L6,35v-3.8h3.9v-3.7h3.7v-3.9
		h1.9h1.9v4h3.8v3.6H25v3.7h3.8v3.8H25v3.8h-3.9V46h-3.8v3.8H15.5z M15.5,24.3h-1.2v4h-3.7v3.7H6.8v3.7L3,35.5V38h3.8v3.7h3.7v3.6
		h3.8v3.9h2.5v-3.9h3.7v-3.6h3.8V38h3.8v-2.5h-3.8v-3.6h-3.8v-3.5h-3.7v-4.1H15.5z"/>
	<path class="st1" d="M2.3,135.6h241.6v0.7H2.3V135.6z M2.3,101h241.6v0.7H2.3V101z"/>
	<path class="st0" d="M193.7,47.9c-0.2,0.1-0.3,0.1-0.5,0.2c-0.1,0.1-0.1,0.2-0.2,0.4v0.6c0.1,0,0.2,0.1,0.3,0.1
		c0.2,0.1,0.3,0.1,0.4,0.1c0.1-0.1,0.2-0.1,0.2-0.1l0.5-0.5c0-0.4,0.1-0.5,0-0.9C194.4,47.7,194.2,47.8,193.7,47.9z M193.7,61.3
		c0.1,0.3,0.1,0.5,0.2,0.9c0.1,0.3,0.1,0.5,0.2,0.8c0.1,0.5,0.5,0.7,0.7,1.2c0.8,1.2,0.9,2,1.2,3.4c0.2,0.7,0.4,1,0.6,1.7
		c0.1,0.5,0.1,1.3,0.1,1.3c0,1.9,0.2,2.8,0.1,4.6c-0.2,0.4-0.3,0.6-0.4,1c-0.2,0.6-0.2,1-0.4,1.6c-0.2,0.5-0.3,0.9-0.5,1.5
		c-0.5,1.1-1,1.5-1.6,2.5c-0.1,0.2-0.2,0.3-0.3,0.4c-0.4,0.8-0.8,1.3-1.2,2.3c-0.3,0.5-0.6,0.8-0.8,1.3c-0.1,0.3-0.2,0.8-0.2,0.8
		v0.6c0.1,0.4,0.2,0.7,0.4,1.1c0.1,0.3,0.1,0.4,0.2,0.7l0.3,0.3v0.3c-0.1,0.1-0.1,0.2-0.2,0.2c-0.1,0.1-0.3,0-0.3,0
		c-0.5-0.1-0.8-0.1-1.2-0.2c-0.2,0-0.4,0-0.6-0.1c-0.2-0.1-0.3-0.2-0.4-0.4c-0.1-0.3-0.1-0.5-0.1-0.8c-0.1-0.3,0-0.5,0-0.9
		c0,0-0.1-0.2-0.1-0.3c-0.1-0.4-0.5-0.4-0.8-0.9v-0.2c0,0,0-0.3,0.1-0.5c0.1-0.2,0.2-0.3,0.4-0.5c0.2-0.2,0.3-0.3,0.4-0.5
		c0.3-0.2,0.4-0.3,0.6-0.6c0.1-0.4,0.2-0.8,0.3-1.2c0.2-0.8,0.2-1.1,0.4-1.9c0.1-0.6,0.1-1,0.4-1.7c0.2-0.6,0.5-1,0.9-1.7
		c0.3-0.6,0.7-0.9,0.9-1.5c0-0.2,0.1-0.3,0.1-0.6v-0.9c-0.1-0.4-0.2-0.8-0.4-1.1c-0.1-0.4-0.3-0.5-0.5-0.8c-0.4-0.5-0.6-0.8-1-1.3
		c-0.3-0.6-0.3-0.9-0.5-1.6c-0.2-0.3-0.2-0.5-0.4-0.8c-0.1-0.2-0.2-0.3-0.4-0.5c-0.2-0.1-0.6-0.1-0.6-0.1c-0.8,1.2-1.1,1.9-1.9,3.3
		c-0.6,1-0.9,1.7-1.6,2.7c-0.7,1.2-1,1.8-1.8,3c-0.2,0.2-0.3,0.4-0.5,0.7l-0.6,0.6c-0.2,0.2-0.3,0.4-0.5,0.6c-0.3,0.3-0.5,0.3-1,0.5
		c-0.3,0.2-0.6,0.3-0.9,0.6c-0.4,0.3-0.5,0.6-0.8,1c-0.3,0.3-0.4,0.5-0.6,0.9c-0.3,0.3-0.4,0.5-0.7,0.9c-0.5,0.6-0.9,0.9-1.3,1.5
		c-0.4,0.5-0.9,0.9-1.3,1.5c-0.4,0.4-1,1.1-0.5,1.2c0.2,0.1,0.2,0.2,0.3,0.3c0.1,0,0.1,0.2,0.1,0.2s0,0.2-0.1,0.3
		c0,0.1-0.1,0.1-0.2,0.2c-0.1,0.1-0.2,0.1-0.4,0.1c-0.5,0.1-0.8,0-1.5,0c-0.4,0.1-1.1,0.2-1.1,0.2h-0.5c0,0-0.4,0.1-0.5,0
		c-0.1-0.1-0.2-0.3-0.2-0.3s0.1-0.3,0.2-0.4c0-0.1,0.2-0.1,0.3-0.2c0.2-0.3,0.3-0.5,0.5-0.8c0.2-0.2,0.3-0.5,0.5-0.8
		c0.2-0.2,0.4-0.2,0.5-0.4c0.6-1,0.8-1.5,1.1-2.4c0.5-0.9,0.8-1.4,1.3-2.3c0.1-0.2,0.2-0.3,0.3-0.5c0.2-0.3,0.3-0.4,0.5-0.6
		c0.3-0.4,0.5-0.6,0.9-1c0.4-0.4,0.8-0.8,1.1-1.2c0.3-0.2,0.6-0.4,1-0.7c0.3-0.2,0.5-0.4,0.7-0.8c0.2-0.2,0.3-0.3,0.4-0.5
		c0.2-0.3,0.2-0.4,0.3-0.8c0.3-0.5,0.4-0.8,0.6-1.5c0.3-0.8,0.4-1.3,0.8-2.2c0.4-1.3,0.8-2.1,1.1-3.4c0.1-0.6,0.2-0.9,0.3-1.5
		c0.1-0.3,0.1-0.4,0.2-0.7c0.1-0.6,0-1,0.2-1.7c0-0.3,0.1-0.5,0.2-0.9c0.1-0.5,0.3-0.7,0.4-1.1c0.1-0.4,0.2-0.9,0.2-0.9V61
		c-0.1-0.5-0.2-0.7-0.3-1.2c-0.2-1-0.3-1.7-0.4-2.7v-1.5V54c0.1-1.5,0.3-2.3,0.4-3.6c0-0.4,0.1-1.2,0.1-1.2v-1.6
		c-0.1-0.4-0.1-0.7-0.2-1.1c-0.1-0.3-0.1-0.5-0.2-0.8c-0.1-0.3-0.1-0.5-0.1-0.9c-0.1-0.4-0.1-0.6-0.1-1c-0.1-1.2-0.2-1.9-0.3-3.2
		c-0.2-1.2-0.3-1.9-0.5-3.1c-0.1-0.8-0.1-1.1-0.2-1.7c-0.1-0.6-0.1-1-0.2-1.7c-0.1-0.3-0.1-0.5-0.2-0.8c-0.1-0.3-0.2-0.5-0.4-0.7
		c-0.1-0.2-0.2-0.3-0.3-0.4c-0.1-0.2-0.2-0.2-0.3-0.4l-0.2-0.2c0.1-0.2,0.1-0.2,0.2-0.2c0.2,0.2,0.3,0.3,0.5,0.5
		c0.2,0.1,0.3,0.2,0.5,0.3c-0.3-0.5-0.4-0.8-0.4-1.3v-0.4h0.2c0,0,0,0.5,0.2,0.8c0.1,0.2,0.2,0.3,0.4,0.5c0-0.2,0-0.3-0.1-0.5
		c0-0.3-0.2-0.8-0.2-0.8v-0.3h0.2c0,0.3,0.1,0.5,0.2,0.8c0.2,0.3,0.3,0.4,0.5,0.6v-1.3v-0.2c0,0,0.2,0,0.2,0.1c0,0,0.1,0.7,0.2,1.2
		c0.1,0.1,0.1,0.2,0.2,0.3l0.2,0.1c0.1-0.1,0.1-0.2,0.2-0.2c0.1-0.2,0-0.3,0.1-0.4c0.1-0.1,0.1-0.3,0.2-0.3c0.1,0.8-0.1,0.9-0.2,1.3
		c-0.1,0.3-0.3,0.4-0.4,0.8c-0.1,0.2-0.1,0.6-0.1,0.6v0.5c0.1,0.5,0.1,0.9,0.3,1.5c0.1,0.9,0.2,1.5,0.4,2.3c0.2,0.8,0.4,1.1,0.6,1.8
		c0.2,0.8,0.4,1.1,0.5,1.9c0.2,0.7,0.3,1.2,0.4,1.9c0.1,0.5,0.1,0.9,0.2,1.2c0.2,0.6,0.4,0.9,0.7,1.4c0.2,0.4,0.4,0.6,0.8,1h1
		c0.3-0.3,0.4-0.5,0.5-1c0.1-0.5,0.1-0.8,0-1.3c-0.1-0.3-0.3-0.5-0.4-0.9v-0.5c0.1-0.2,0.1-0.4,0.2-0.6l0.2-0.5
		c-0.1-0.1-0.2-0.1-0.4-0.2c-0.4-0.2-0.8-0.3-1.2-0.3l-0.5-0.4l0.2-0.2l1.2,0.1l0.1-0.8l-1-1.6l0.2-0.1l1.2,1.2l-0.3-1.8l0.2-0.1
		l0.8,1.7l0.2-1.7h0.2l0.2,1.9h0.2l0.4-0.9h0.2l-0.5,2c0.3-0.2,0.5-0.3,0.9-0.4c0.3-0.1,0.8-0.1,0.8-0.1l0.5,0.1
		c0.2,0.1,0.4,0.1,0.5,0.1c0.7,0.2,1,0.3,1.5,0.8c0.3,0.3,0.5,0.5,0.8,0.9c0.2,0.3,0.3,0.4,0.3,0.8v0.8c-0.1,0.3-0.2,0.4-0.3,0.7
		c-0.1,0.2-0.2,0.2-0.2,0.4c-0.1,0.2-0.1,0.5-0.1,0.5c0.4,0.4,0.5,0.6,0.8,1.1c0,0.3,0.1,0.4,0.1,0.6v1c0,0.4,0,0.7-0.2,1.1
		c-0.1,0.2-0.1,0.3-0.3,0.6c-0.2,0.4-0.3,0.7-0.8,1.1c-0.3,0.4-0.5,0.6-0.9,1l-0.3,0.8c-0.2,0.4-0.3,0.6-0.4,0.9
		c-0.2,0.4-0.3,0.7-0.4,1c-0.1,0.3-0.3,0.6-0.4,1.1c-0.2,0.5-0.3,0.9-0.5,1.4c-0.1,0.3-0.1,0.5-0.2,1c0,0.3,0,0.5,0.1,0.9
		c0,0.3,0.2,0.4,0.3,0.8c0.2,0.3,0.5,0.5,0.8,0.8V61.3z"/>
	<path class="st1" d="M14.8,50.1c-0.2,0.3-0.7,0.8-0.4,0.9h0.1c0,0,0.1,0,0.2-0.1c0.2-0.1,0.3-0.2,0.4-0.3c0.1,0,0.2-0.1,0.3-0.1
		c0.2-0.1,0.3-0.2,0.3-0.2c0.4,0,0.6,0.1,0.8,0.3c-0.4,0.1-0.5,0.1-0.9,0.2c0,0-0.1,0.1-0.2,0.2c-0.1,0.1-0.2,0.1-0.1,0.2
		c0.1,0.1,0.1,0.1,0.1,0.1c0.3,0.2,0.7,0,0.7,0c0.6,0,1,0.2,1.7,0.1c0.6-0.1,1.1-0.5,1.6-0.6l0.9,0.2c0.6,0.1,1,0.1,1.6,0.3l0,0
		c-0.2,0.8,1,0.3,1.7,0.5c0.6,0.2,1.1,0.3,1.7,0.4c0.4,0.2,0.8,0.2,1.2,0.3c0.8,0.2,1.3,0.2,2,0.3c0.6,0.1,1,0.1,1.5,0.2l0,0
		c0.3,0.4,0.8,1.7,1.5,2.6c0.2,0.3,0.5,0.6,0.6,0.7c0.1,0.1,0.1,0.3-0.1,0.4c-0.2,0.1-0.2-0.4-0.4-0.3c0,0-0.1,0-0.1,0.1
		c-0.1,0.1,0,0.2,0,0.3c0,0.2,0.1,0.3,0.2,0.4c-0.8,0.1-1.1,0.2-1.9,0.2c0,0-0.2,0-0.3,0.1c0,0,0,0.1,0,0.2c0,0.1,0.1,0.1,0.2,0.1
		c1.1,0.8,2.3,0,3.5,0.5c0.3,0.1,0.5,0.2,0.8,0.3c0.3,0.1,0.5,0.1,0.9,0.2c1.1,0.3,1.2,1.7,1.9,2c-0.1,0.5-0.1,0.6,1,2.7
		c-0.5,0.5-0.8,0.4-1.2,0.6c-2.9,1.8-4.5,2.6-6.8,5c-0.8,1-0.7,1.7-0.2,3.2c0.4,1.1,0.8,1.2,1.1,2.1c0.5,1.2,0.7,1.9,1.1,3.1
		c0.3,0.8,0.5,1.2,0.7,2.1c0.4,1.3,0.6,2.1,1,3.6c0.2,1.5,0.2,2.4,0.5,3.9c0,0.3-0.1,0.1,0,0.4l1.2-0.2c0.5-0.1-0.1-2.1,0.2-2.5
		c0.3-1,0.5-1.7,1.1-2.6c0.2-0.2,0.3-0.3,0.4-0.6c0.1-0.2,0.1-0.4,0.1-0.4s-0.1-0.2-0.1-0.3c-0.3-0.3-0.6-0.3-0.9-0.6
		c-0.4-0.4-0.4-0.8-0.6-1.3c-0.4-1-0.3-1.6-0.5-2.7c-0.1-0.8-0.1-1.3-0.3-2c-0.2-1-0.5-1.5-0.9-2.4c0-0.1-0.1-0.3-0.1-0.3
		s0.1-0.3,0.2-0.4c0.3-0.4,0.7-0.3,1.2-0.5c0.9-0.3,1.6-0.2,2.5-0.5c-0.6,1.3-0.6,2-0.8,3.6c0,0.8,0.2,1.2,0.3,2
		c0.3,1.1,0.5,1.7,0.8,2.7c0.4,2,0.4,3.3,0.5,5.3c0.1,0.9,0,1.6-0.6,2.3c-0.3,0.4-0.6,0.5-1,0.9c-1.3,0.8-1.3,0.5-2.5,0.8
		c-0.2,0.1-0.4,0.5-0.4,0.5s0.2,0.3,0.4,0.3c0.9,0.3,1.1,0.1,1.7,0.2c0.9,0,1.2,0,2,0.1c0.9,0.2,1.2,0.4,2.5,0.6
		c0.4,0.1,0.8-0.2,0.6-0.6c0-1.1-0.2-1.5-0.3-2.5c0-1.8,0.6-2.8,0.8-4.6c0.1-0.9,0.3-1.3,0.2-2.3c-0.1-1.1-0.5-1.8-0.8-2.9
		c-0.1-0.5-0.3-0.8-0.3-1.5c0-0.6,0-0.6,0.3-1.6c0.4-0.9,0.8-1.3,1.2-2.3c0.3-0.9,0.3-1.2,0.6-2c0.4-0.9,0.9-1.4,1.3-2.3
		c0.4-0.8,0.9-1.1,1.2-2.1C44.9,64.6,45,64,45,64c0-0.7-0.2-1.1-0.5-1.8c-0.1-0.3-0.1-0.5-0.3-0.8c-0.3-0.8-1.1-1.7-1.2-1.9
		c-1-1.8-3.5-6.2-7.9-8.9c-0.4-0.3-0.4-0.3-0.3-0.6c0.1-0.2,0.1-0.3,0.3-0.5c0.3-0.5,0.6-0.7,0.9-1.3c0.2-0.7,0.1-1.3-0.2-2
		c-0.3-0.5-0.3-0.6-1-1.2c-0.1-0.1-0.3-0.1-0.4-0.1c0-0.1-0.1-0.2-0.1-0.2c-1.2-0.5-1.3-0.2-2.2-0.3c0,0-0.5,0.1-1.2,0.3
		c0,0-0.4,0-1.1,1.2c-0.2,0.2-0.3,0.3-0.4,0.6c-0.1,0.4,0.1,0.6-0.1,1c0,0.2-0.1,0.4-0.1,0.4c-0.1,0.8,0.2,1.8,0.4,2.7
		c-0.8-0.1-1.6-0.3-2.3-0.4c-2.6-0.4-4-0.3-6.6-0.6c-0.3,0,0.1,0-0.7,0c-0.6-0.1-1.9,0-3.2,0.1c-0.6,0-1.2,0-1.5,0.2
		C15.1,49.8,14.9,49.9,14.8,50.1z"/>
	<path class="st1" d="M55.8,87.6c0,0.1-0.1,0.2-0.1,0.2l-0.1,1v0.4l-0.1,0.3l-0.1,0.1c0,0-0.2,0.2-0.3,0.3c-0.2,0.1-0.5,0.2-0.5,0.2
		l-1.3,0.1H53l-0.2-0.1c0,0-0.1-0.2,0-0.3c0.1-0.1,0.3-0.4,0.3-0.4l0.3-0.6l0.3-1.3V87l-0.1-0.9l-0.3-0.7l-0.4-0.8L51.2,82l-0.7-1.2
		l-0.8-1.2l-0.6-1.5l-0.3-1.5l-0.4-1l-0.1-2.3l0.1-2.4l0.1-1.2l0.6-1.8l0.5-1.7l0.8-1.7l0.4-0.5l0.4-0.6l0.1-0.9l0.3-0.9l0.3-0.5
		l0.3-0.4l0.4-0.7V59l-0.2-1L52,56.6l-0.8-1.9l-0.4-1l-0.4-0.8l-1-1l-0.7-1.2l-0.3-0.6l-0.1-0.5L48.2,49v-1l0.2-0.6l0.2-0.6l0.4-0.6
		v-0.4l-0.2-0.5l-0.3-0.7l-0.1-0.8l0.3-0.8l0.3-0.4l0.4-0.4l0.8-0.5l0.8-0.3l1.1-0.2l0.8,0.1l0.8,0.4c0,0-0.1-0.8-0.3-1.3
		c-0.1-0.3-0.2-0.6-0.2-0.6s0.2-0.1,0.2,0c0.2,0.3,0.4,0.7,0.5,0.8c0.1,0.1,0.2-0.1,0.2-0.1l0.2-1.7c0,0,0.1-0.3,0.2-0.2
		c0.2,0.3,0.3,1.3,0.3,1.3l0.6-1.3c0,0,0.2,0,0.2,0.1c0.1,0.3-0.2,0.7-0.2,1.2c0,0.2-0.1,0.5,0,0.5c0.2,0,0.8-0.8,0.8-0.8l0.4-0.4
		c0,0,0.2,0,0.2,0.1c0.1,0.2-0.3,0.7-0.3,0.7l-0.2,0.3c0,0-0.3,0.4-0.4,0.7c-0.1,0.3,0,0.8,0,0.8h1.2c0,0,0.2,0,0.2,0.1
		c0.2,0.2-0.5,0.4-0.5,0.4l-0.6,0.1l-0.3,0.1l-0.5,0.2l-0.3,0.2l0.2,0.5l0.1,0.2l0.1,0.3v0.6l-0.1,0.3l-0.2,0.6l-0.1,0.6v0.7
		l0.3,0.5l0.2,0.4h0.3l0.8,0.1l0.9-1.1l0.7-1.2l0.1-1.2l0.4-2.1l0.5-1.7l0.6-1.8l0.5-2.3l0.1-1.2l0-0.4v-0.5v-0.5l-0.2-0.4l-0.2-0.3
		l-0.2-0.5c0,0-0.1-0.4-0.2-0.7c0,0,0-0.1,0-0.2c0.1,0,0.2,0.2,0.2,0.3c0.1,0.2,0.3,0.5,0.3,0.5s0.1,0.1,0.2,0
		c0.2,0,0.2-0.3,0.3-0.5c0.1-0.2,0.1-0.5,0.1-0.5l0.1-0.5c0.1,0,0.1-0.1,0.1,0c0.1,0.1,0.1,0.3,0.1,0.3s0,0.2,0,0.4
		c0,0.3-0.1,0.7-0.1,0.7s0.4-0.4,0.6-0.7c0.1-0.3,0.3-0.8,0.3-0.8c0.2,0,0.1,0.1,0.2,0.2c0,0.2,0,0.3,0,0.4c0,0.1-0.1,0.2-0.2,0.3
		c-0.1,0.2-0.1,0.5-0.1,0.5l0.4-0.4c0,0,0.2-0.3,0.2-0.4c0.1-0.2,0.1-0.5,0.1-0.5c0.2,0.1,0.2,0.3,0.2,0.5c0,0.3-0.2,0.6-0.2,0.6
		l-0.3,0.6c0,0,0.4-0.2,0.6-0.3c0.2-0.1,0.3-0.2,0.5-0.4c0,0,0.1,0,0.2,0c0.1,0-0.2,0.3-0.2,0.3L63,32.7l-0.3,0.4l-0.4,0.7l-0.2,0.8
		l-0.2,1.7l-0.2,1.6L61.3,41l-0.4,3.2v1.1l-0.3,1L60.5,47l-0.1,1v1.7v1l0.2,2.3l0.2,1.4l0.1,1.6l-0.1,1.5l-0.2,1.1l-0.2,1.7
		l-0.2,1.1v0.4l0.1,0.9l0.3,1l0.1,0.2l0.3,1l0.1,1.6l0.2,0.6l0.3,1.4l0.6,1.7l0.6,1.7l0.7,2.3l0.5,1.5l0.3,0.6l0.4,0.6l0.7,0.8
		l0.9,0.7l1.2,1.1l1,1l0.4,0.6l0.4,0.5l1.2,2.3l0.5,1.2l0.6,1.2l0.5,0.3l0.5,0.9l0.6,0.7l0.3,0.3l0.1,0.3L73.7,89h-0.4h-0.6
		l-1.1-0.1h-0.8l-0.7-0.1l-0.4-0.1l-0.2-0.2l-0.1-0.2l0.1-0.3l0.2-0.2h0.2l0.1-0.2l-0.1-0.3l-0.5-0.8L68,84.9l-1.3-1.3L66,82.7
		l-0.6-0.9l-0.8-1l-1.1-0.7c0,0-0.6-0.2-0.9-0.4c-0.3-0.2-0.5-0.7-0.5-0.7l-0.5-0.6l-0.6-0.8L60.6,77L60,76.1l-0.9-1.5L57.7,72
		l-1.7-2.9l-0.3-0.4l-0.2,0.1L55,68.9l-0.4,0.4l-0.3,0.9l-0.6,1.5l-0.8,1.5l-0.6,0.7l-0.3,1l-0.1,1.1l0.2,0.5l0.4,0.9l0.5,0.7
		l0.5,0.9l0.4,0.9l0.4,1.7l0.3,1.8l0.4,1.3l0.5,0.6l0.4,0.4l0,0l0.5,0.5c0,0,0.2,0.3,0.2,0.5c0,0.1-0.1,0.2-0.1,0.3
		C56.3,87.2,56,87.2,55.8,87.6z"/>
	<polygon class="st0" points="105.4,44.4 106,44.7 106.6,45.1 107.2,45.7 107.6,46.3 107.9,47.3 108.1,47.9 108.1,49.1 108.2,50 
		108.1,50.9 107.9,51.2 107.6,51.3 107.5,52 107.2,52.6 107.4,54.6 107.2,56.4 107,57.6 106.4,58.8 105.8,59.8 105.1,60.7 
		103.4,62.5 101,65.4 101,66.3 102.7,69 103.8,70.8 104.8,72.8 105.2,74.3 105.6,75.1 105.7,75.6 105.7,76.1 105.6,76.7 105.1,77.4 
		104.4,78.2 103.7,79.2 103,80.4 102.1,81.4 101,82.6 99.9,84.3 99.6,84.8 99.4,85.4 99.4,86 99.3,86.4 99.5,86.6 100,87.5 
		100.7,88.4 101,88.7 101.6,88.8 102.1,89 102.3,89.1 102.2,89.4 100.8,89.4 99.7,89.4 99.4,89.1 99.2,88.8 98.6,88.4 97.7,87.8 
		96.5,87.5 96.1,87.4 95.8,87 95.6,86.7 95.6,86.3 95.7,85.9 96,85.5 97,84.1 97.7,83.1 98.1,81.9 98.4,81.1 98.7,80.2 99.5,78.9 
		100.2,78.1 100.9,77.4 102,76.1 100.9,74.7 99.5,73.3 98.3,72.2 97.4,70.8 96.5,69.6 95,71.5 93.7,73.6 92.4,75.3 91.4,76.4 
		90.3,77.4 88.7,78.8 86.9,80.5 86,81.7 84.8,82.8 84.1,84 83.4,85.3 83.3,85.7 83,85.9 82.6,86.4 82.1,87.2 81.6,88.2 81.4,88.9 
		81,89.2 80.6,89.7 80.5,89.9 80.2,90 79.9,90 79.6,89.7 79.2,89.7 78.9,89.4 78.7,89 78.6,88.5 78.8,87.9 79,87.5 79.6,86.6 
		80.1,85.9 80.8,85.1 81.3,84.6 81.8,84 82.1,83.5 82.9,81.8 83.4,80.5 84.1,79.2 84.8,78 85.7,77 87.1,75.7 88,75.2 88.4,74.6 
		89.2,73.2 89.9,71.7 90.8,69.6 91.6,67.5 92,66 92.4,65 93,64.2 93.8,63.3 94.5,62.8 95.1,62.5 96.2,62 97,61.2 97.7,59.9 
		98.9,57.7 96.1,58.2 95.8,58.3 95.5,58.6 94.9,59 94.4,59.5 93.3,60.3 92.1,60.8 91.2,61.7 90,63.2 89.1,64.1 88.4,65.1 88.2,65.4 
		88,65.7 87.8,65.8 87.7,65.6 87.8,65.3 88,64.6 85.3,64.8 85.2,64.8 85.1,64.6 84.9,64.5 84.8,64.5 84.7,64.5 84.5,64.1 84.5,63.8 
		84.6,63.6 84.8,63.4 85,63.1 85.5,62.8 86.2,62.7 87.2,62.5 87.8,62.3 88.7,61.8 89.2,61.3 89.7,60.7 91.4,58.8 93.5,56.5 
		95.7,55.6 97.1,55 98.6,54.8 100.3,54.5 101,53.4 101.9,52.5 103,51.3 102.1,50.7 101.3,50.4 100.7,49.8 100.2,49.2 99.9,49.2 
		99.5,49.7 99.1,49.9 98.4,49.9 98,50 97.8,50.1 97.7,50.1 97.6,49.9 97.6,49.8 96.3,49.7 96.1,49.7 95.9,49.6 95.9,49.3 96.1,49.1 
		96.5,49.1 96.9,49 97.7,48.4 98.3,48.1 98.9,47.8 99.3,47.7 99.7,47.8 100.2,48 101.2,48.3 101.2,47.3 101.3,46.7 101.6,46.1 
		101.9,45.4 102.4,45 103.1,44.6 104,44.4 104.7,44.3 	"/>
	<path class="st0" d="M137.2,49.7v0.2l0.2,1.1l0.2-0.2v-0.3l0.1,0.2l0.2,1.6l0.2,0.9l0.5-0.4l0.1-0.4l0.2-0.2l0.2-0.1l0.1,0.2
		l-0.2,0.3v0.2l-0.1,0.5l-0.1,0.4l-0.3,0.2l-0.3,0.3l-0.2,0.4l0.6,1.5l0.6-0.5l0.6-0.5l0.5-0.4l0.4-0.5l0.1-0.3l0.4-0.4l1-0.7
		l0.8-0.4l0.2-0.2l0.2-0.2l-0.2-0.2l-0.3-0.4l-0.4-0.5l-0.2-0.4l-0.1-0.8l-0.3-0.8l-0.2-0.3l-0.6-0.4l-0.2-0.3v-0.2l0.2-0.3l0.2-0.1
		v-0.3h0.4l-0.1-0.4l0.3-0.2l-0.1-0.2l-0.1-0.2v-0.2l0.2-0.1h0.4l0.4-0.1l0.4-0.4l0.2-0.3l0.2-0.4l0.2-0.3l0.5-0.3l0.8-0.2h0.6
		l0.6,0.2l0.9,0.3l0.7,0.5l0.4,0.4l0.2,0.6l0.2,0.8V47v0.8l-0.3,0.7L148,49l-0.7,0.5l-0.4,0.1l-0.2,0.3l-0.1,0.2l1.8,1.5l1.1,1.2
		c1.2,1.3,2.1,4.1,4.7,6c2.4,1.8,4.9,6.5,0.4,8.8c-1.1,2.2-4.1,5-4.6,6.2c2.3,0.3,4.9,6.8,5.6,8.8l0.3,0.4l0.6,0.1l0.5,0.3l0.4,0.2
		l0.2,0.4v0.4l-0.2,0.8l-0.4,0.9l-0.1,0.4l-0.1,0.6l0.2,1.2l0.2,1.1l-0.1,0.3l-0.3,0.3l-0.4,0.1l-0.5,0.1h-0.6H155l-0.2-0.2
		l-0.2-0.1l0.1-0.2l0.2-0.2l0.5-0.3v-0.4v-0.4l-0.3-0.9l-0.4-1.3l-0.7-1.2l-0.4-0.8l-2-2.8l0.5,1.6l0.7,1.6l0.3,0.4l0.5,0.3l0.3,0.4
		l0.2,0.3v0.5l-0.2,0.3l-0.6,0.4l-0.6,0.3l-1,0.8l-0.8,0.8l-0.8,0.6l-0.3,0.2h-1l-1.1-0.2h-0.2v-0.2l0.2-0.2l0.5-0.1l0.5-0.2
		l0.3-0.2l0.3-0.3l0.2-0.4l0.3-0.9l0.5-1V85l-0.1-0.7l-1.3-2.4l-1.6-3l-1-1.5l-0.6-0.8l-0.2-0.3l-0.2-0.5l-0.2-0.8l0.1-0.5l0.2-1
		l0.6-2l1-2l1.7-2.5l1.3-1.8V64l0.1-1.2l0.2-0.5l0.2-0.3v-0.8l-0.3-0.1l-1.6-0.8l-1.3-0.8l-1.5-0.8l-0.7-0.6l-0.9-1l-1.3,1.7
		l-1.5,1.7l-0.8,0.3l-0.4,0.2h-0.4l-0.5-0.2l-0.5-0.6l-1-1.2l-0.4,0.2l-0.2,0.1l-0.3,0.2l-0.3,0.1l-0.2,0.1l-0.4-0.1l-0.8-0.1
		l-0.9-0.3l-1.7-0.6l-1.7-0.9l-1.2-0.9l-0.6-0.2l-0.5-0.1l-0.3-0.1L128,56l-1.2,0.6l-0.3,0.1v-0.2l1.2-0.9l-0.7-0.2l-0.8-0.2H126
		v-0.2h1.9l-0.7-0.4l-0.9-0.5l-0.2-0.1l-0.1-0.2h0.2l1.8,0.6l-1.1-1.4l-0.1-0.2h0.3l0.2,0.2l0.6,0.6l0.6,0.3l0.5,0.1l0.2-0.1
		l-0.1-0.5v-0.5v-0.2l0.4,0.6l0.2,0.3l0.1,0.2l0.2,0.9l0.5,0.4l1.2,0.6l1.7,0.7l1.8,0.5l0.9,0.2l0.5-0.1L137,57l0.4-0.2l-0.2-0.6
		L137,56l-0.5-1l-0.5-0.8l-0.1-0.4v-0.3v-0.8l0.1-0.6v-0.8l0.1-0.8l0.2,0.8l0.2,0.8l0.1-1.8l0.1-0.2l0.2,0.6l0.1-0.7L137.2,49.7z"/>
	<path class="st0" d="M201.5,44.4c-0.5,0.2-0.8,0.4-1.2,0.7c-0.4,0.4-0.6,0.8-0.9,1.2c-0.1,0.4-0.2,0.6-0.3,1
		c-0.1,0.3-0.1,0.4-0.2,0.6c-0.1,0.5,0,1.2,0,1.2c0,0.6-0.2,1.1,0,1.8c0.1,0.4,0.3,0.3,0.5,0.4c0,0,0,0.4,0.1,0.6
		c0.1,0.2,0.1,0.4,0.2,0.6c-0.1,1.5-0.1,2.4,0.1,3.8c0,0.5,0,0.8,0.2,1.2c0.1,0.5,0.2,0.7,0.4,1.2c0.9,1.7,2,2.3,3.1,3.7
		c0.9,1.1,1.5,1.8,2.4,2.9v0.9c-0.6,1.1-1,1.7-1.6,2.7c-0.9,1.4-1.5,2.1-2.1,3.8c-0.2,0.5-0.2,0.8-0.4,1.5c-0.2,0.3-0.3,0.5-0.4,0.8
		c-0.1,0.2-0.2,0.5-0.2,0.5v0.5c0,0,0.1,0.3,0.2,0.5c0.1,0.3,0.2,0.4,0.4,0.7c0.3,0.3,0.5,0.5,0.8,0.8c0.6,0.8,0.8,1.3,1.5,2.2
		c0.6,1,1.2,1.3,1.9,2.2c0.5,0.6,0.8,1,1.1,1.8c0.3,0.4,0.5,0.5,0.6,1c0,0.2,0,0.6,0,0.6s0.1,0.2,0,0.4c0,0,0,0.1-0.1,0.2
		c-0.4,0.8-0.6,1.1-1.2,1.8c-0.1,0.1-0.2,0.2-0.3,0.3c-0.2,0.1-0.3,0.1-0.5,0.1c-0.2,0.1-0.4,0.1-0.5,0.2c-0.1,0-0.2,0-0.2,0.1
		c-0.1,0.1,0,0.3,0,0.3c1.2,0.1,1.8,0,2.6,0c0.3-0.2,0.3-0.4,0.5-0.6c0.2-0.2,0.4-0.2,0.6-0.4c0.4-0.2,0.5-0.4,0.9-0.5
		c0.4-0.2,0.8-0.2,1.1-0.4c0.3-0.1,0.5-0.1,0.8-0.4c0.1-0.1,0.1-0.2,0.2-0.3c0-0.1,0-0.4,0-0.4s0-0.2-0.1-0.4
		c-0.1-0.2-0.2-0.2-0.3-0.4c-0.4-0.5-0.8-0.8-1.1-1.3c-0.5-0.8-0.8-1.2-1.1-2.2c-0.2-0.6-0.2-1-0.5-1.7c-0.3-0.5-0.5-0.9-0.9-1.3
		c-0.5-0.6-0.9-0.9-1.5-1.5c-0.4-0.5-0.6-0.7-1-1.3c0.4-0.6,0.6-0.9,1-1.5c0.5-0.5,0.9-0.8,1.5-1.3c0.5-0.4,0.9-0.6,1.2-1.1
		c0.4-0.5,0.5-0.8,0.9-1.3c0.4-0.5,0.6-0.7,0.9-1.2c0.6,0.8,1,1.1,1.3,1.9c0.6,0.8,0.9,1.3,1.5,2.2c0.4,0.8,0.8,1,1.2,1.7
		c0.8,0.9,1.3,1.3,2.1,2.1c0.6,0.5,1,0.7,1.7,1.3c0.7,0.6,1.1,1,1.8,1.7c0.4,0.4,0.5,0.7,0.9,1.2c0.4,0.4,0.7,0.6,1.1,1.1
		c0.8,0.9,0.8,1.6,1.4,2.5c0.1,0.2,0.1,0.2,0.2,0.4c0.1,0.1,0.1,0.1,0.2,0.2c0.1,0.3,0.2,0.4,0.3,0.5c0.3,0.3,0.4,0.5,0.6,0.9
		c0.2,0.3,0.3,0.6,0.4,0.9c0.1,0.3,0.1,0.5,0.3,0.8c0.1,0.2,0.2,0.2,0.3,0.3c0.2,0.2,0.2,0.3,0.4,0.5c0.2,0.1,0.4,0.3,0.4,0.3
		s0.2,0,0.3,0c0.1-0.1,0.2-0.2,0.3-0.3c0.1,0,0.2,0,0.4,0c0.1-0.1,0.2-0.2,0.3-0.3c0.1-0.1,0.1-0.2,0.2-0.4c0-0.2,0-0.5,0-0.5
		c0-0.4-0.2-0.6-0.4-1c-0.2-0.3-0.3-0.5-0.5-0.9c-0.2-0.3-0.3-0.5-0.5-0.7c-0.3-0.3-0.5-0.4-0.8-0.8c-0.2-0.2-0.3-0.4-0.4-0.6
		c-0.2-0.2-0.3-0.3-0.5-0.5c-0.1-0.2-0.2-0.3-0.3-0.5c-0.4-0.6-0.6-1-0.9-1.7c-0.4-0.9-0.5-1.6-1.1-2.6c-0.5-1-0.9-1.6-1.6-2.3
		c-0.5-0.5-0.9-0.8-1.5-1.2c-0.3-0.2-0.5-0.2-0.9-0.5c-0.2-0.2-0.3-0.4-0.5-0.6c-0.8-1.1-0.9-1.8-1.3-2.9c-0.4-0.9-0.6-1.3-1-2.1
		c-0.3-0.8-0.6-1.3-0.9-2.1c-0.1-0.6-0.1-1-0.4-1.6c-0.2-0.8-0.4-1.2-0.9-1.8c-0.2-0.4-0.4-0.6-0.9-0.9c-0.4-0.4-0.8-0.5-1.3-0.8
		c-0.3-0.2-0.6-0.3-0.9-0.5c-0.4-0.3-0.5-0.5-0.8-0.8c-0.3-0.4-0.5-0.7-0.8-1.2c-0.5-0.9-0.8-1.3-1.2-2.2c1.1,0.1,0.5,0.1,2.8,0.4
		c0.3,0,0.5,0.2,0.8,0.4c0.4,0.3,0.5,0.6,0.9,0.9c0.4,0.3,0.7,0.4,1.1,0.8c0.5,0.2,0.8,0.3,1.1,0.6c0.4,0.2,0.6,0.5,1,0.9
		c0.5,0.5,0.8,0.8,1.3,1.5c0.3,0.3,0.5,0.5,0.8,1c0.3,0.3,0.4,0.5,0.6,0.9c0.2,0.2,0.2,0.5,0.5,0.6c0.1,0.1,0.1,0.1,0.2,0.1
		c0.1,0,0-0.2,0-0.2s0-0.2-0.1-0.3c-0.1-0.3-0.1-0.5-0.2-0.7l2.8,0.2l0.2-0.2l0.3-0.1c0,0,0.1,0.1,0.3-0.4c0-0.3-0.2-0.4-0.2-0.4
		l-0.2-0.2c0-0.1-0.1-0.2-0.2-0.4c-0.2-0.3-0.6-0.2-1-0.3c-0.4-0.1-0.6-0.1-1-0.2c-0.3-0.1-0.4-0.1-0.6-0.2
		c-0.4-0.2-0.6-0.3-0.9-0.5c-0.4-0.3-0.6-0.6-1-1.1c-0.7-0.7-1-1.2-1.7-1.9c-0.9-1-1.2-1.3-2.1-2.3c-0.8-0.4-1.3-0.6-2.2-0.9
		c-1.2-0.4-1.8-0.6-2.9-0.8c-0.8-0.2-1.2-0.2-1.8-0.3c-0.3-0.4-0.5-0.6-0.8-1c-0.3-0.4-0.4-0.6-0.8-1c-0.4-0.5-0.7-0.7-1.1-1.1
		c0.3-0.3,0.5-0.4,0.9-0.6c0.3-0.2,0.5-0.2,0.8-0.3c0.3-0.2,0.4-0.4,0.6-0.6c0.2-0.2,0.3-0.3,0.5-0.5h0.3c0.1,0.2,0.2,0.2,0.4,0.4
		c0.1,0.1,0.2,0.1,0.4,0.2c0.2,0,0.4-0.1,0.8,0c0.1,0,0.2,0,0.3,0.1c0.1,0,0.2,0.1,0.2,0.1s0.1,0,0.2,0c0.1-0.1,0.1-0.2,0-0.3
		l1.3-0.1c0,0.1,0.4-0.1,0.4-0.1v-0.2c-0.1-0.2-0.4-0.2-0.6-0.3c-0.2,0-0.3,0-0.5-0.1c-0.3-0.1-0.4-0.3-0.8-0.5
		c-0.2-0.1-0.3-0.2-0.5-0.3c-0.3-0.2-0.4-0.2-0.6-0.3c-0.3-0.1-0.6-0.1-0.9,0c-0.2,0-0.2,0.1-0.4,0.2c-0.4,0.2-0.5,0.2-0.9,0.3
		c0,0,0-0.6-0.1-1c0-0.5-0.1-0.9-0.3-1.2c-0.2-0.5-0.4-0.8-0.9-1.1c-0.5-0.4-0.9-0.5-1.6-0.6C202.5,44.3,202,44.3,201.5,44.4z"/>
	<path class="st0" d="M140.7,122v-7.3l-0.1-0.9l-0.2-0.2l-0.4-0.2v-0.5h3.4v0.5l-0.4,0.2l-0.3,0.2l-0.1,0.9v7l0.1,0.8l0.3,0.3
		l0.4,0.1v0.5h-4.7l-1.2-0.1l-1-0.3l-0.8-0.5l-0.6-0.6l-0.4-0.8l-0.3-0.7l-0.2-1.4l0.1-0.9l0.3-0.9l0.6-1.6l0.6-1.1l0.3-0.6
		l-0.2-0.3l-0.3-0.1v-0.5h3.2v0.5l-0.5,0.4l-0.5,0.5l-0.8,1.5l-0.5,1.5l-0.1,1.5l0.2,1.5l0.3,0.6l0.3,0.4l0.5,0.4l0.6,0.3l1.5,0.2
		H140.7z M126.8,122v-7.3l-0.1-0.9l-0.2-0.2l-0.4-0.2v-0.5h3.4v0.5l-0.4,0.2l-0.2,0.2l-0.1,0.9v7l0.1,0.8l0.2,0.3l0.4,0.1v0.5h-4.7
		l-1.2-0.1l-1-0.3l-0.9-0.5l-0.6-0.6l-0.4-0.8l-0.3-0.7l-0.3-1.4l0.1-0.9l0.2-0.9l0.6-1.6l0.6-1.1l0.3-0.6l-0.2-0.3l-0.4-0.1v-0.5
		h3.2v0.5l-0.5,0.4l-0.6,0.5l-0.7,1.5l-0.5,1.5l-0.1,1.5l0.2,1.5l0.3,0.6l0.3,0.4l0.5,0.4l0.6,0.3l1.5,0.2H126.8z M107.2,112.9h8.9
		v2.2h-0.7l-0.1-0.5l-0.2-0.2l-0.9-0.2h-1.6v7.5l0.2,0.8l0.2,0.3l0.4,0.1v0.5H110v-0.5l0.4-0.1l0.1-0.3l0.1-0.8v-7.5H109h-0.5
		l-0.3,0.2l-0.2,0.2l-0.1,0.5h-0.7V112.9z M96.9,123.4v-0.5l0.4-0.1l0.2-0.3l0.1-0.8v-7l-0.1-0.9l-0.2-0.2l-0.4-0.2v-0.5h3.4v0.5
		l-0.4,0.2l-0.3,0.2l-0.1,0.9v7.4h2.9h0.6l0.4-0.2l0.4-0.3l0.2-0.5h0.7v2.3H96.9z M89.9,122v-7.3l-0.1-0.9l-0.2-0.2l-0.4-0.2v-0.5
		h3.4v0.5l-0.4,0.2l-0.2,0.2l-0.1,0.9v7l0.1,0.8l0.2,0.3l0.4,0.1v0.5h-4.8l-1.1-0.1l-1-0.3l-0.9-0.5l-0.6-0.6l-0.4-0.8l-0.3-0.7
		l-0.2-1.4l0.1-0.9l0.2-0.9l0.6-1.6l0.6-1.1l0.3-0.6l-0.2-0.3l-0.3-0.1v-0.5h3.2v0.5l-0.5,0.4l-0.5,0.5l-0.8,1.5l-0.5,1.5l-0.1,1.5
		l0.2,1.5l0.3,0.6l0.3,0.4l0.5,0.4l0.6,0.3l1.5,0.2H89.9z M74.5,116.5l3.8,5.7l0.3,0.4l0.5,0.2v0.5h-3.6v-0.5l0.4-0.1v-0.5l-2.9-4.2
		l-1.5,1.3v2.3l0.1,0.8l0.2,0.3l0.3,0.1v0.5h-3.3v-0.5l0.4-0.1l0.2-0.3v-0.8v-7v-0.9l-0.2-0.2l-0.4-0.2v-0.5h3.3v0.5l-0.3,0.2
		l-0.2,0.2l-0.1,0.9v2.9l3.2-3.3l0.2-0.3v-0.2l-0.5-0.4v-0.5h3.8v0.5l-0.4,0.1l-0.4,0.3l-0.7,0.6L74.5,116.5z M56.3,114.7v7v0.8
		l0.2,0.3l0.4,0.1v0.5h-3.3v-0.5l0.3-0.1l0.2-0.3l0.1-0.8v-7l-0.1-0.9l-0.2-0.2l-0.3-0.2v-0.5h3.3v0.5l-0.4,0.2l-0.2,0.2V114.7z
		 M40.6,112.9h9v2.2h-0.9l-0.1-0.5l-0.2-0.2l-0.8-0.2h-1.6v7.5l0.2,0.8l0.2,0.3l0.3,0.1v0.5h-3.3v-0.5l0.4-0.1l0.2-0.3v-0.8v-7.5
		h-1.6h-0.4l-0.4,0.2l-0.2,0.2l-0.1,0.5h-0.8V112.9z M27.1,120.9l2.3-1.4l0.4,0.5l-0.2,0.3l-0.1,0.4v0.4l0.2,0.3l0.6,0.5l0.9,0.3
		h0.8l0.8-0.1l0.8-0.3l0.6-0.5l0.3-0.3l0.1-0.5l-0.1-0.4l-0.3-0.4l-0.7-0.5l-1.1-0.4l-1.3-0.2l-1.2-0.3l-1.1-0.5l-0.4-0.4l-0.3-0.4
		l-0.3-0.5l-0.1-0.8l0.1-0.8l0.3-0.7l0.4-0.5l0.5-0.4l1.3-0.5l1.5-0.1l1.3,0.1l1.1,0.3l1,0.7l0.9,0.9l-1.7,1.5l-0.5-0.3l0.2-0.4
		l-0.2-0.4l-0.1-0.3l-0.6-0.4l-0.8-0.2h-0.7h-0.6l-0.7,0.2l-0.5,0.4l-0.3,0.6l0.1,0.4l0.2,0.2l0.8,0.5l2.4,0.5l1.2,0.4l1,0.6
		l0.4,0.3l0.4,0.5l0.2,0.7l0.2,0.7l-0.2,0.8l-0.3,0.7l-0.5,0.7l-0.6,0.5l-1.4,0.6l-1.7,0.1l-1.6-0.1l-1.3-0.5l-1.1-0.9L27.1,120.9z
		 M14.4,123.4v-0.5l0.4-0.1l0.1-0.3l0.2-0.8v-7l-0.2-0.9l-0.1-0.2l-0.4-0.2v-0.5h8.3v2h-0.8l-0.1-0.4l-0.2-0.3l-0.8-0.1h-3.7v2.7
		h2.6l0.8-0.1l0.3-0.2l0.1-0.4h0.8v2.8h-0.8l-0.1-0.4l-0.3-0.2l-0.8-0.2h-2.6v4H21h0.5l0.3-0.2l0.3-0.3l0.1-0.4h0.9v2.2H14.4z
		 M1.8,123.4v-0.5l0.3-0.1l0.2-0.3l0.1-0.8v-7l-0.1-0.9l-0.2-0.2l-0.3-0.2v-0.5H10v2H9.2l-0.1-0.4l-0.3-0.3L8,114.1H4.5v2.7h2.6
		l0.8-0.1l0.3-0.2l0.1-0.4h0.8v2.8H8.2l-0.1-0.4l-0.3-0.2l-0.8-0.2H4.5v4h3.9h0.5l0.3-0.2l0.3-0.3l0.1-0.4h0.8v2.2H1.8z
		 M167.2,116.5l3.9,5.7l0.3,0.4l0.5,0.2v0.5h-3.7v-0.5l0.4-0.1l0.2-0.1l-0.2-0.4l-2.9-4.2l-1.3,1.3v2.3v0.8l0.2,0.3l0.4,0.1v0.5
		h-3.3v-0.5l0.3-0.1l0.2-0.3l0.1-0.8v-7l-0.1-0.9l-0.2-0.2l-0.3-0.2v-0.5h3.3v0.5l-0.4,0.2l-0.2,0.2v0.9v2.9l3.1-3.3l0.3-0.3v-0.2
		l-0.6-0.4v-0.5h4v0.5l-0.5,0.1l-0.4,0.3l-0.8,0.6L167.2,116.5z M152.6,112.9h0.5l1.4,0.2l1.1,0.5l0.4,0.4l0.3,0.4l0.2,0.6l0.1,0.6
		l-0.2,1l-0.4,0.9l-0.8,0.6l-1,0.4l2.3,3.5l0.4,0.5l0.5,0.2v0.5h-2.7l-2.2-3.7l-0.5-0.8h-1.5v2.7v0.8l0.2,0.3l0.4,0.1v0.5h-3.3v-0.5
		l0.3-0.1l0.2-0.3l0.1-0.8v-7l-0.1-0.9l-0.2-0.2l-0.3-0.2v-0.5H152.6z M152.6,117.6h0.6l0.8-0.3l0.5-0.5l0.1-0.8l-0.2-0.8l-0.5-0.5
		l-0.8-0.3l-0.5-0.1h-0.3h-1.7v3.4h1.8H152.6z M180.5,112.9h1.5l3.7,9.2l0.3,0.5l0.4,0.2v0.5h-3.5v-0.5l0.5-0.1l0.1-0.2l-0.1-0.7
		l-0.9-2.3h-1.9h-1.9l-0.8,2.3l-0.1,0.6l0.2,0.3l0.4,0.1v0.5h-2.9l-0.2-0.5l0.4-0.1l0.2-0.3l0.3-0.6l3.6-8.9H180.5z M180.5,118.3
		h1.3l-1.3-3.4l-1.3,3.4H180.5z M210.2,112.9h8.9v2.2h-0.8l-0.1-0.5l-0.2-0.2l-0.9-0.2h-1.5v7.5v0.8l0.2,0.3l0.4,0.1v0.5H213v-0.5
		l0.3-0.1l0.2-0.3l0.1-0.8v-7.5h-1.6h-0.5l-0.3,0.2l-0.2,0.2l-0.1,0.5h-0.8V112.9z M205.7,114.7l-0.2,7l0.2,0.8l0.2,0.3l0.4,0.1v0.5
		h-3.4v-0.5l0.4-0.1l0.2-0.3l0.1-0.8v-7l-0.1-0.9l-0.2-0.2l-0.4-0.2v-0.5h3.4v0.5l-0.4,0.2l-0.2,0.2V114.7z M194.9,112.9h0.3
		l0.9,0.1l0.7,0.1l0.8,0.3l0.5,0.4l0.4,0.5l0.2,0.5l0.3,1.1l-0.2,0.9l-0.3,0.8l-0.4,0.6l-0.6,0.5l-1.4,0.8l-1.1,0.4l-0.6,0.2
		l-1.3,0.4v1.2v0.8l0.2,0.3l0.4,0.1v0.5h-3.3v-0.5l0.3-0.1l0.2-0.3l0.1-0.8v-7l-0.1-0.9l-0.2-0.2l-0.3-0.2v-0.5H194.9z M194.9,118.4
		l0.4-0.2l0.7-0.4l0.4-0.5l0.3-0.5l0.1-0.6l-0.2-0.9l-0.5-0.6l-0.8-0.4l-0.4-0.1l-0.4-0.1H193v5.1l1.2-0.4L194.9,118.4z
		 M227.1,119.5h-1.7l-0.9,2.3l-0.2,0.6l0.2,0.3l0.4,0.1v0.5H222v-0.5l0.3-0.1l0.3-0.3l0.3-0.6l3.5-8.9h0.7h1.5l3.6,9.2l0.3,0.5
		l0.4,0.2v0.5h-3.4v-0.5l0.4-0.1l0.1-0.2l-0.1-0.7l-0.9-2.3H227.1z M227.1,114.8l-1.3,3.4h1.3h1.3L227.1,114.8z M236.9,123.4v-0.5
		l0.3-0.1l0.2-0.3l0.1-0.8v-7l-0.1-0.9l-0.2-0.2l-0.3-0.2v-0.5h3.3v0.5l-0.4,0.2l-0.1,0.2l-0.1,0.9v7.4h2.9h0.5l0.5-0.2l0.3-0.3
		l0.3-0.5h0.7v2.3H236.9z"/>
</g>
</svg>
