<?xml version="1.0" encoding="utf-8"?>
<!-- Generator: Adobe Illustrator 20.1.0, SVG Export Plug-In . SVG Version: 6.00 Build 0)  -->
<svg version="1.1" id="Layer_1" xmlns="http://www.w3.org/2000/svg" xmlns:xlink="http://www.w3.org/1999/xlink" x="0px" y="0px"
	 viewBox="0 0 436.5 62.4" style="enable-background:new 0 0 436.5 62.4;" xml:space="preserve">
<style type="text/css">
	.st0{fill:#1E1E1C;}
	.st1{fill-rule:evenodd;clip-rule:evenodd;fill:#1E1E1C;}
</style>
<path class="st0" d="M113.9,5.8H1.4v50.7h112.1V43.7H16.8v-7.2h11.6c-1.4-1.6-2.2-3.6-2.2-5.9c0-1.8,0.5-3.4,1.4-4.8H16.8v-7.7h97.1
	V5.8z"/>
<g>
	<path class="st1" d="M35,22.5c4.5,0,8.2,3.7,8.2,8.2c0,4.5-3.7,8.2-8.2,8.2c-4.5,0-8.2-3.7-8.2-8.2C26.8,26.2,30.5,22.5,35,22.5
		L35,22.5z"/>
</g>
<path class="st0" d="M57.1,28.2h-6.9v1.5h6.5v2h-6.5v1.5h7v2.3h-9.7v-9.6h9.6V28.2L57.1,28.2z M68.2,28.2h-6.9v1.5h6.5v2h-6.5v1.5h7
	v2.3h-9.7v-9.6h9.6V28.2L68.2,28.2z M75.6,35.5h-2.7v-7.3h-3.7v-2.4h10v2.4h-3.7V35.5L75.6,35.5z M90,28.2h-6.9v1.5h6.5v2h-6.5v1.5
	h7v2.3h-9.7v-9.6H90V28.2L90,28.2z M95.5,31.5h3.4l-1.7-3.4L95.5,31.5L95.5,31.5z M93.7,35.5h-2.9l4.8-9.6h3.4l4.7,9.6h-2.9
	l-0.8-1.6h-5.3L93.7,35.5L93.7,35.5z M107.4,33.1h5.8v2.3h-8.5v-9.6h2.7V33.1L107.4,33.1z"/>
<polygon class="st1" points="132.8,1.4 129.4,1.4 129.4,60.9 132.8,60.9 132.8,1.4 "/>
<path class="st0" d="M148.6,11.7h11.7v2.7H152v5.8h6.5V23H152v6.4h8.4v2.8h-11.8V11.7L148.6,11.7z M173.5,25H165
	c0,2,0.3,3.4,0.8,4.1c0.6,0.7,1.2,1,2.1,1c1.4,0,2.3-0.9,2.6-2.8l2.8,0.4c-0.7,3.2-2.6,4.8-5.6,4.8c-1.8,0-3.3-0.7-4.4-2
	c-1.1-1.3-1.6-3.2-1.6-5.7c0-2.6,0.5-4.6,1.6-6c1.1-1.4,2.6-2.1,4.4-2.1c1.3,0,2.4,0.4,3.2,1.1c0.9,0.7,1.5,1.6,1.8,2.8
	C173.3,21.7,173.4,23.2,173.5,25L173.5,25z M170.3,22.9c0-2.7-0.9-4-2.6-4c-1.6,0-2.5,1.3-2.7,4H170.3L170.3,22.9z M185.1,20.6
	l-2.4,0.7c-0.4-1.5-1.3-2.3-2.6-2.3c-0.6,0-1,0.2-1.4,0.5c-0.4,0.4-0.5,0.8-0.5,1.3c0,0.6,0.2,1,0.5,1.3c0.4,0.3,1.2,0.6,2.5,1
	c1.6,0.5,2.7,1.1,3.4,1.8c0.7,0.7,1,1.6,1,2.8c0,1.3-0.5,2.5-1.5,3.4c-1,0.9-2.3,1.4-4,1.4c-3.2,0-5-1.5-5.4-4.4l2.6-0.5
	c0.3,1.7,1.3,2.6,2.9,2.6c0.8,0,1.4-0.2,1.8-0.6c0.4-0.4,0.6-0.9,0.6-1.4c0-0.4-0.1-0.7-0.4-1.1c-0.3-0.4-1-0.8-2.3-1.2
	c-1.2-0.4-2.1-0.7-2.7-1.1c-0.6-0.3-1.1-0.8-1.5-1.4c-0.4-0.6-0.6-1.3-0.6-2.1c0-1.3,0.5-2.4,1.4-3.3c0.9-0.9,2.1-1.4,3.6-1.4
	C182.8,16.7,184.4,18,185.1,20.6L185.1,20.6z M188.9,13.1l2.8-0.3V17h2.9v2.5h-2.9v6.7c0,1.2,0,2,0.1,2.3c0.1,0.4,0.2,0.7,0.5,0.9
	c0.3,0.2,0.8,0.4,1.5,0.4c0.4,0,0.8,0,1.3-0.1v2.5c-0.8,0.2-1.6,0.3-2.3,0.3c-1.2,0-2.1-0.2-2.7-0.7c-0.6-0.5-1-1.1-1.2-1.8
	c-0.2-0.8-0.3-2-0.3-3.6v-6.9h-2V17h2L188.9,13.1L188.9,13.1z M199.8,15h-3.3v-3.3h3.3V15L199.8,15z M196.6,17h3.1v15.1h-3.1V17
	L196.6,17z M209.2,11.7h11.7v2.7h-8.3v5.8h6.5V23h-6.5v6.4h8.4v2.8h-11.8V11.7L209.2,11.7z M223.7,13.1l2.8-0.3V17h2.9v2.5h-2.9v6.7
	c0,1.2,0,2,0.1,2.3c0.1,0.4,0.2,0.7,0.5,0.9c0.3,0.2,0.8,0.4,1.5,0.4c0.4,0,0.8,0,1.3-0.1v2.5c-0.8,0.2-1.6,0.3-2.3,0.3
	c-1.2,0-2.1-0.2-2.7-0.7c-0.6-0.5-1-1.1-1.2-1.8c-0.2-0.8-0.3-2-0.3-3.6v-6.9h-2V17h2L223.7,13.1L223.7,13.1z M242.6,25h-8.5
	c0,2,0.3,3.4,0.8,4.1c0.6,0.7,1.2,1,2.1,1c1.4,0,2.3-0.9,2.6-2.8l2.8,0.4c-0.7,3.2-2.6,4.8-5.6,4.8c-1.8,0-3.3-0.7-4.4-2
	c-1.1-1.3-1.6-3.2-1.6-5.7c0-2.6,0.5-4.6,1.6-6c1.1-1.4,2.6-2.1,4.4-2.1c1.3,0,2.4,0.4,3.2,1.1c0.9,0.7,1.5,1.6,1.8,2.8
	C242.4,21.7,242.6,23.2,242.6,25L242.6,25z M239.4,22.9c0-2.7-0.9-4-2.6-4c-1.6,0-2.5,1.3-2.7,4H239.4L239.4,22.9z M245.2,17h2.9
	v2.3c0.7-1.8,1.9-2.7,3.7-2.7c1,0,1.8,0.2,2.5,0.7c0.6,0.5,1,1.1,1.2,1.8c0.2,0.7,0.2,1.8,0.2,3.2v9.7h-3.1v-9.6
	c0-1.3-0.1-2.2-0.3-2.7c-0.2-0.5-0.7-0.7-1.5-0.7c-0.8,0-1.4,0.3-1.8,0.9c-0.4,0.6-0.6,1.8-0.6,3.6v8.4h-3.1V17L245.2,17z
	 M267.1,11.7h3.1v20.4h-2.9v-2.3c-0.7,1.7-2,2.6-3.7,2.6c-1.7,0-3-0.7-3.8-2.1c-0.9-1.4-1.3-3.3-1.3-5.6c0-2.5,0.5-4.4,1.4-5.8
	c0.9-1.4,2.2-2.1,3.8-2.1c1.6,0,2.8,0.7,3.4,2V11.7L267.1,11.7z M267.1,23.2c0-1.6-0.3-2.6-0.9-3.3c-0.6-0.6-1.2-0.9-1.8-0.9
	c-1.7,0-2.6,1.8-2.6,5.3c0,3.8,0.9,5.7,2.6,5.7c0.7,0,1.3-0.3,1.8-0.9c0.6-0.6,0.8-1.7,0.8-3.3V23.2L267.1,23.2z M273.7,17h3.1v9.6
	c0,1.3,0.1,2.2,0.3,2.7c0.2,0.5,0.7,0.7,1.4,0.7c0.9,0,1.6-0.4,1.9-1.2c0.4-0.8,0.6-2.3,0.6-4.5V17h3.1v15.1h-2.8v-2.3
	c-0.8,1.8-2.1,2.6-3.8,2.6c-0.9,0-1.6-0.2-2.2-0.6c-0.6-0.4-1-0.9-1.2-1.6c-0.2-0.7-0.4-1.9-0.4-3.6V17L273.7,17z M297,20.6
	l-2.4,0.7c-0.4-1.5-1.3-2.3-2.6-2.3c-0.6,0-1,0.2-1.4,0.5c-0.4,0.4-0.5,0.8-0.5,1.3c0,0.6,0.2,1,0.5,1.3c0.4,0.3,1.2,0.6,2.5,1
	c1.6,0.5,2.7,1.1,3.4,1.8c0.7,0.7,1,1.6,1,2.8c0,1.3-0.5,2.5-1.5,3.4c-1,0.9-2.3,1.4-4,1.4c-3.2,0-5-1.5-5.4-4.4l2.6-0.5
	c0.3,1.7,1.3,2.6,2.9,2.6c0.8,0,1.4-0.2,1.8-0.6c0.4-0.4,0.6-0.9,0.6-1.4c0-0.4-0.1-0.7-0.4-1.1c-0.3-0.4-1-0.8-2.3-1.2
	c-1.2-0.4-2.1-0.7-2.7-1.1c-0.6-0.3-1.1-0.8-1.5-1.4c-0.4-0.6-0.6-1.3-0.6-2.1c0-1.3,0.5-2.4,1.4-3.3c0.9-0.9,2.1-1.4,3.6-1.4
	C294.6,16.7,296.3,18,297,20.6L297,20.6z M302.7,21.3l-3-0.4c0.2-1.3,0.8-2.4,1.9-3.1c1-0.7,2.3-1.1,3.8-1.1c1.4,0,2.4,0.3,3.2,0.8
	c0.8,0.5,1.3,1.2,1.5,1.9c0.2,0.7,0.3,1.9,0.3,3.4v5.1c0,2.1,0.1,3.5,0.3,4.2h-2.9c-0.1-0.5-0.2-1.4-0.2-2.5
	c-0.9,1.9-2.4,2.9-4.2,2.9c-1.3,0-2.3-0.4-3.1-1.2c-0.8-0.8-1.2-1.8-1.2-3.2c0-1.6,0.6-2.9,1.7-3.9c1.1-1,3.1-1.4,5.9-1.4
	c0.1,0,0.4,0,0.7,0v-0.6c0-1.1-0.2-1.9-0.5-2.4c-0.3-0.5-0.9-0.8-1.7-0.8C303.8,18.9,303,19.7,302.7,21.3L302.7,21.3z M307.4,24.8
	c-0.4,0-0.7-0.1-0.9-0.1c-2.7,0-4.1,1.1-4.1,3.2c0,1.5,0.7,2.3,2,2.3c0.8,0,1.5-0.4,2.1-1.3c0.6-0.8,0.9-2,0.9-3.4V24.8L307.4,24.8z
	 M323,20.6l-2.4,0.7c-0.4-1.5-1.3-2.3-2.6-2.3c-0.6,0-1,0.2-1.4,0.5c-0.4,0.4-0.5,0.8-0.5,1.3c0,0.6,0.2,1,0.5,1.3
	c0.4,0.3,1.2,0.6,2.5,1c1.6,0.5,2.7,1.1,3.4,1.8c0.7,0.7,1,1.6,1,2.8c0,1.3-0.5,2.5-1.5,3.4c-1,0.9-2.3,1.4-4,1.4
	c-3.2,0-5-1.5-5.4-4.4l2.6-0.5c0.3,1.7,1.3,2.6,2.9,2.6c0.8,0,1.4-0.2,1.8-0.6c0.4-0.4,0.6-0.9,0.6-1.4c0-0.4-0.1-0.7-0.4-1.1
	c-0.3-0.4-1-0.8-2.3-1.2c-1.2-0.4-2.1-0.7-2.7-1.1c-0.6-0.3-1.1-0.8-1.5-1.4c-0.4-0.6-0.6-1.3-0.6-2.1c0-1.3,0.5-2.4,1.4-3.3
	c0.9-0.9,2.1-1.4,3.6-1.4C320.7,16.7,322.3,18,323,20.6L323,20.6z M325.8,17h3.1v9.6c0,1.3,0.1,2.2,0.3,2.7c0.2,0.5,0.7,0.7,1.4,0.7
	c0.9,0,1.6-0.4,1.9-1.2c0.4-0.8,0.6-2.3,0.6-4.5V17h3.1v15.1h-2.8v-2.3c-0.8,1.8-2.1,2.6-3.8,2.6c-0.9,0-1.6-0.2-2.2-0.6
	c-0.6-0.4-1-0.9-1.2-1.6c-0.2-0.7-0.4-1.9-0.4-3.6V17L325.8,17z M340.6,13.1l2.8-0.3V17h2.9v2.5h-2.9v6.7c0,1.2,0,2,0.1,2.3
	c0.1,0.4,0.2,0.7,0.5,0.9c0.3,0.2,0.8,0.4,1.5,0.4c0.4,0,0.8,0,1.3-0.1v2.5c-0.8,0.2-1.6,0.3-2.3,0.3c-1.2,0-2.1-0.2-2.7-0.7
	c-0.6-0.5-1-1.1-1.2-1.8c-0.2-0.8-0.3-2-0.3-3.6v-6.9h-2V17h2L340.6,13.1L340.6,13.1z M348.3,17h3.1v9.6c0,1.3,0.1,2.2,0.3,2.7
	c0.2,0.5,0.7,0.7,1.4,0.7c0.9,0,1.6-0.4,1.9-1.2c0.4-0.8,0.6-2.3,0.6-4.5V17h3.1v15.1h-2.8v-2.3c-0.8,1.8-2.1,2.6-3.8,2.6
	c-0.9,0-1.6-0.2-2.2-0.6c-0.6-0.4-1-0.9-1.2-1.6c-0.2-0.7-0.4-1.9-0.4-3.6V17L348.3,17z M371.5,20.6l-2.4,0.7
	c-0.4-1.5-1.3-2.3-2.6-2.3c-0.6,0-1,0.2-1.4,0.5c-0.4,0.4-0.5,0.8-0.5,1.3c0,0.6,0.2,1,0.5,1.3c0.4,0.3,1.2,0.6,2.5,1
	c1.6,0.5,2.7,1.1,3.4,1.8c0.7,0.7,1,1.6,1,2.8c0,1.3-0.5,2.5-1.5,3.4c-1,0.9-2.3,1.4-4,1.4c-3.2,0-5-1.5-5.4-4.4l2.6-0.5
	c0.3,1.7,1.3,2.6,2.9,2.6c0.8,0,1.4-0.2,1.8-0.6c0.4-0.4,0.6-0.9,0.6-1.4c0-0.4-0.1-0.7-0.4-1.1c-0.3-0.4-1-0.8-2.3-1.2
	c-1.2-0.4-2.1-0.7-2.7-1.1c-0.6-0.3-1.1-0.8-1.5-1.4c-0.4-0.6-0.6-1.3-0.6-2.1c0-1.3,0.5-2.4,1.4-3.3c0.9-0.9,2.1-1.4,3.6-1.4
	C369.2,16.7,370.8,18,371.5,20.6L371.5,20.6z M375.2,13.1l2.8-0.3V17h2.9v2.5h-2.9v6.7c0,1.2,0,2,0.1,2.3c0.1,0.4,0.2,0.7,0.5,0.9
	c0.3,0.2,0.8,0.4,1.5,0.4c0.4,0,0.8,0,1.3-0.1v2.5c-0.8,0.2-1.6,0.3-2.3,0.3c-1.2,0-2.1-0.2-2.7-0.7c-0.6-0.5-1-1.1-1.2-1.8
	c-0.2-0.8-0.3-2-0.3-3.6v-6.9h-2V17h2L375.2,13.1L375.2,13.1z M394.1,25h-8.5c0,2,0.3,3.4,0.8,4.1c0.6,0.7,1.2,1,2.1,1
	c1.4,0,2.3-0.9,2.6-2.8l2.8,0.4c-0.7,3.2-2.6,4.8-5.6,4.8c-1.8,0-3.3-0.7-4.4-2c-1.1-1.3-1.6-3.2-1.6-5.7c0-2.6,0.5-4.6,1.6-6
	c1.1-1.4,2.6-2.1,4.4-2.1c1.3,0,2.4,0.4,3.2,1.1c0.9,0.7,1.5,1.6,1.8,2.8C393.9,21.7,394.1,23.2,394.1,25L394.1,25z M390.9,22.9
	c0-2.7-0.9-4-2.6-4c-1.6,0-2.5,1.3-2.7,4H390.9L390.9,22.9z M402.5,11.7h3.4v17.5h7.2v2.9h-10.6V11.7L402.5,11.7z M418.1,15h-3.3
	v-3.3h3.3V15L418.1,15z M414.9,17h3.1v15.1h-3.1V17L414.9,17z M424.9,15h-3.3v-3.3h3.3V15L424.9,15z M421.7,17h3.1v15.1h-3.1V17
	L421.7,17z M429,13.1l2.8-0.3V17h2.9v2.5h-2.9v6.7c0,1.2,0,2,0.1,2.3c0.1,0.4,0.2,0.7,0.5,0.9c0.3,0.2,0.8,0.4,1.5,0.4
	c0.4,0,0.8,0,1.3-0.1v2.5c-0.8,0.2-1.6,0.3-2.3,0.3c-1.2,0-2.1-0.2-2.7-0.7c-0.6-0.5-1-1.1-1.2-1.8c-0.2-0.8-0.3-2-0.3-3.6v-6.9h-2
	V17h2L429,13.1L429,13.1z"/>
<path class="st0" d="M148.7,38.6h5.9V40h-4.2v2.9h3.3v1.4h-3.3v3.2h4.2v1.4h-5.9V38.6L148.7,38.6z M160.3,43l-1.2,0.3
	c-0.2-0.8-0.7-1.1-1.3-1.1c-0.3,0-0.5,0.1-0.7,0.3c-0.2,0.2-0.3,0.4-0.3,0.7c0,0.3,0.1,0.5,0.3,0.7c0.2,0.1,0.6,0.3,1.2,0.5
	c0.8,0.3,1.4,0.6,1.7,0.9c0.4,0.3,0.5,0.8,0.5,1.4c0,0.7-0.3,1.2-0.7,1.7c-0.5,0.5-1.2,0.7-2,0.7c-1.6,0-2.5-0.7-2.7-2.2l1.3-0.2
	c0.2,0.9,0.7,1.3,1.4,1.3c0.4,0,0.7-0.1,0.9-0.3c0.2-0.2,0.3-0.4,0.3-0.7c0-0.2-0.1-0.4-0.2-0.6c-0.1-0.2-0.5-0.4-1.1-0.6
	c-0.6-0.2-1-0.4-1.3-0.5c-0.3-0.2-0.5-0.4-0.7-0.7c-0.2-0.3-0.3-0.7-0.3-1.1c0-0.6,0.2-1.2,0.7-1.6c0.5-0.5,1.1-0.7,1.8-0.7
	C159.1,41.1,159.9,41.7,160.3,43L160.3,43z M162.1,39.3l1.4-0.1v2.1h1.4v1.3h-1.4v3.3c0,0.6,0,1,0,1.2c0,0.2,0.1,0.4,0.3,0.5
	c0.1,0.1,0.4,0.2,0.7,0.2c0.2,0,0.4,0,0.6-0.1v1.2c-0.4,0.1-0.8,0.1-1.2,0.1c-0.6,0-1-0.1-1.3-0.3c-0.3-0.2-0.5-0.5-0.6-0.9
	c-0.1-0.4-0.1-1-0.1-1.8v-3.4h-1v-1.3h1L162.1,39.3L162.1,39.3z M171.7,45c0,2.7-1,4-3,4c-0.9,0-1.6-0.3-2.2-1
	c-0.5-0.7-0.8-1.6-0.8-3c0-2.6,1-4,3-4c0.9,0,1.6,0.3,2.2,1C171.4,42.7,171.7,43.7,171.7,45L171.7,45z M170.1,45
	c0-1.1-0.1-1.8-0.4-2.2c-0.2-0.4-0.6-0.6-1-0.6c-0.9,0-1.3,0.9-1.3,2.8c0,1,0.1,1.7,0.3,2.1c0.2,0.5,0.5,0.7,1,0.7
	c0.5,0,0.8-0.2,1-0.7C169.9,46.7,170.1,46,170.1,45L170.1,45z M173.2,41.3h1.4v1.2c0.4-0.9,1-1.3,1.9-1.3c0.5,0,0.9,0.1,1.2,0.4
	c0.3,0.2,0.5,0.5,0.6,0.9c0.1,0.3,0.1,0.9,0.1,1.6v4.9h-1.6V44c0-0.7-0.1-1.1-0.2-1.3c-0.1-0.2-0.4-0.4-0.7-0.4
	c-0.4,0-0.7,0.2-0.9,0.5c-0.2,0.3-0.3,0.9-0.3,1.8v4.2h-1.6V41.3L173.2,41.3z M181.8,40.2h-1.6v-1.7h1.6V40.2L181.8,40.2z
	 M180.2,41.3h1.6v7.6h-1.6V41.3L180.2,41.3z M185,43.4l-1.5-0.2c0.1-0.7,0.4-1.2,0.9-1.6c0.5-0.4,1.2-0.6,1.9-0.6
	c0.7,0,1.2,0.1,1.6,0.4c0.4,0.3,0.7,0.6,0.8,1c0.1,0.4,0.2,0.9,0.2,1.7v2.6c0,1,0,1.7,0.1,2.1h-1.5c-0.1-0.3-0.1-0.7-0.1-1.3
	c-0.5,1-1.2,1.4-2.1,1.4c-0.6,0-1.2-0.2-1.5-0.6c-0.4-0.4-0.6-0.9-0.6-1.6c0-0.8,0.3-1.5,0.8-2c0.6-0.5,1.5-0.7,2.9-0.7
	c0.1,0,0.2,0,0.3,0v-0.3c0-0.5-0.1-0.9-0.2-1.2c-0.2-0.3-0.5-0.4-0.9-0.4C185.6,42.2,185.2,42.6,185,43.4L185,43.4z M187.4,45.1
	c-0.2,0-0.4,0-0.5,0c-1.4,0-2,0.5-2,1.6c0,0.8,0.3,1.2,1,1.2c0.4,0,0.7-0.2,1-0.6c0.3-0.4,0.4-1,0.4-1.7V45.1L187.4,45.1z
	 M190.7,41.3h1.4v1.2c0.4-0.9,1-1.3,1.9-1.3c0.5,0,0.9,0.1,1.2,0.4c0.3,0.2,0.5,0.5,0.6,0.9c0.1,0.3,0.1,0.9,0.1,1.6v4.9h-1.6V44
	c0-0.7-0.1-1.1-0.2-1.3c-0.1-0.2-0.4-0.4-0.7-0.4c-0.4,0-0.7,0.2-0.9,0.5c-0.2,0.3-0.3,0.9-0.3,1.8v4.2h-1.6V41.3L190.7,41.3z
	 M202.6,38.6h1.9l2.7,10.2h-1.7l-0.6-2.6h-3l-0.6,2.6h-1.6L202.6,38.6L202.6,38.6z M204.5,44.9l-1.2-4.7l-1.2,4.7H204.5L204.5,44.9z
	 M212.7,43l-1.2,0.3c-0.2-0.8-0.7-1.1-1.3-1.1c-0.3,0-0.5,0.1-0.7,0.3c-0.2,0.2-0.3,0.4-0.3,0.7c0,0.3,0.1,0.5,0.3,0.7
	c0.2,0.1,0.6,0.3,1.2,0.5c0.8,0.3,1.4,0.6,1.7,0.9c0.4,0.3,0.5,0.8,0.5,1.4c0,0.7-0.3,1.2-0.7,1.7c-0.5,0.5-1.2,0.7-2,0.7
	c-1.6,0-2.5-0.7-2.7-2.2l1.3-0.2c0.2,0.9,0.7,1.3,1.4,1.3c0.4,0,0.7-0.1,0.9-0.3c0.2-0.2,0.3-0.4,0.3-0.7c0-0.2-0.1-0.4-0.2-0.6
	c-0.1-0.2-0.5-0.4-1.1-0.6c-0.6-0.2-1-0.4-1.3-0.5c-0.3-0.2-0.5-0.4-0.7-0.7c-0.2-0.3-0.3-0.7-0.3-1.1c0-0.6,0.2-1.2,0.7-1.6
	c0.5-0.5,1.1-0.7,1.8-0.7C211.6,41.1,212.4,41.7,212.7,43L212.7,43z M218.8,43l-1.2,0.3c-0.2-0.8-0.7-1.1-1.3-1.1
	c-0.3,0-0.5,0.1-0.7,0.3c-0.2,0.2-0.3,0.4-0.3,0.7c0,0.3,0.1,0.5,0.3,0.7c0.2,0.1,0.6,0.3,1.2,0.5c0.8,0.3,1.4,0.6,1.7,0.9
	c0.4,0.3,0.5,0.8,0.5,1.4c0,0.7-0.3,1.2-0.7,1.7c-0.5,0.5-1.2,0.7-2,0.7c-1.6,0-2.5-0.7-2.7-2.2l1.3-0.2c0.2,0.9,0.7,1.3,1.4,1.3
	c0.4,0,0.7-0.1,0.9-0.3c0.2-0.2,0.3-0.4,0.3-0.7c0-0.2-0.1-0.4-0.2-0.6c-0.1-0.2-0.5-0.4-1.1-0.6c-0.6-0.2-1-0.4-1.3-0.5
	c-0.3-0.2-0.5-0.4-0.7-0.7c-0.2-0.3-0.3-0.7-0.3-1.1c0-0.6,0.2-1.2,0.7-1.6c0.5-0.5,1.1-0.7,1.8-0.7C217.6,41.1,218.4,41.7,218.8,43
	L218.8,43z M225.8,45c0,2.7-1,4-3,4c-0.9,0-1.6-0.3-2.2-1c-0.5-0.7-0.8-1.6-0.8-3c0-2.6,1-4,3-4c0.9,0,1.6,0.3,2.2,1
	C225.5,42.7,225.8,43.7,225.8,45L225.8,45z M224.2,45c0-1.1-0.1-1.8-0.4-2.2c-0.2-0.4-0.6-0.6-1-0.6c-0.9,0-1.3,0.9-1.3,2.8
	c0,1,0.1,1.7,0.3,2.1c0.2,0.5,0.5,0.7,1,0.7c0.5,0,0.8-0.2,1-0.7C224,46.7,224.2,46,224.2,45L224.2,45z M232.5,43.8L231,44
	c-0.1-0.7-0.2-1.1-0.4-1.3c-0.2-0.2-0.4-0.3-0.8-0.3c-0.5,0-0.8,0.2-1,0.6c-0.2,0.4-0.3,1.2-0.3,2.2c0,1.7,0.4,2.5,1.3,2.5
	c0.7,0,1.1-0.5,1.1-1.6l1.5,0.1c-0.2,1.9-1.1,2.8-2.8,2.8c-1,0-1.7-0.3-2.2-1c-0.5-0.7-0.7-1.7-0.7-2.9c0-1.3,0.3-2.3,0.8-3
	c0.5-0.7,1.2-1,2.2-1C231.4,41.1,232.3,42,232.5,43.8L232.5,43.8z M235.1,40.2h-1.6v-1.7h1.6V40.2L235.1,40.2z M233.5,41.3h1.6v7.6
	h-1.6V41.3L233.5,41.3z M238.4,43.4l-1.5-0.2c0.1-0.7,0.4-1.2,0.9-1.6c0.5-0.4,1.2-0.6,1.9-0.6c0.7,0,1.2,0.1,1.6,0.4
	c0.4,0.3,0.7,0.6,0.8,1c0.1,0.4,0.2,0.9,0.2,1.7v2.6c0,1,0,1.7,0.1,2.1h-1.5c-0.1-0.3-0.1-0.7-0.1-1.3c-0.5,1-1.2,1.4-2.1,1.4
	c-0.6,0-1.2-0.2-1.5-0.6c-0.4-0.4-0.6-0.9-0.6-1.6c0-0.8,0.3-1.5,0.8-2c0.6-0.5,1.5-0.7,2.9-0.7c0.1,0,0.2,0,0.3,0v-0.3
	c0-0.5-0.1-0.9-0.2-1.2c-0.2-0.3-0.5-0.4-0.9-0.4C238.9,42.2,238.5,42.6,238.4,43.4L238.4,43.4z M240.7,45.1c-0.2,0-0.4,0-0.5,0
	c-1.4,0-2,0.5-2,1.6c0,0.8,0.3,1.2,1,1.2c0.4,0,0.7-0.2,1-0.6c0.3-0.4,0.4-1,0.4-1.7V45.1L240.7,45.1z M244.3,39.3l1.4-0.1v2.1h1.4
	v1.3h-1.4v3.3c0,0.6,0,1,0,1.2c0,0.2,0.1,0.4,0.3,0.5c0.1,0.1,0.4,0.2,0.7,0.2c0.2,0,0.4,0,0.6-0.1v1.2c-0.4,0.1-0.8,0.1-1.2,0.1
	c-0.6,0-1-0.1-1.3-0.3c-0.3-0.2-0.5-0.5-0.6-0.9c-0.1-0.4-0.1-1-0.1-1.8v-3.4h-1v-1.3h1L244.3,39.3L244.3,39.3z M249.8,40.2h-1.6
	v-1.7h1.6V40.2L249.8,40.2z M248.2,41.3h1.6v7.6h-1.6V41.3L248.2,41.3z M257.2,45c0,2.7-1,4-3,4c-0.9,0-1.6-0.3-2.2-1
	c-0.5-0.7-0.8-1.6-0.8-3c0-2.6,1-4,3-4c0.9,0,1.6,0.3,2.2,1C256.9,42.7,257.2,43.7,257.2,45L257.2,45z M255.5,45
	c0-1.1-0.1-1.8-0.4-2.2c-0.2-0.4-0.6-0.6-1-0.6c-0.9,0-1.3,0.9-1.3,2.8c0,1,0.1,1.7,0.3,2.1c0.2,0.5,0.5,0.7,1,0.7
	c0.5,0,0.8-0.2,1-0.7C255.4,46.7,255.5,46,255.5,45L255.5,45z M258.6,41.3h1.4v1.2c0.4-0.9,1-1.3,1.9-1.3c0.5,0,0.9,0.1,1.2,0.4
	c0.3,0.2,0.5,0.5,0.6,0.9c0.1,0.3,0.1,0.9,0.1,1.6v4.9h-1.6V44c0-0.7-0.1-1.1-0.2-1.3c-0.1-0.2-0.4-0.4-0.7-0.4
	c-0.4,0-0.7,0.2-0.9,0.5c-0.2,0.3-0.3,0.9-0.3,1.8v4.2h-1.6V41.3L258.6,41.3z M274.1,45c0,2.7-1,4-3,4c-0.9,0-1.6-0.3-2.2-1
	c-0.5-0.7-0.8-1.6-0.8-3c0-2.6,1-4,3-4c0.9,0,1.6,0.3,2.2,1C273.9,42.7,274.1,43.7,274.1,45L274.1,45z M272.5,45
	c0-1.1-0.1-1.8-0.4-2.2c-0.2-0.4-0.6-0.6-1-0.6c-0.9,0-1.3,0.9-1.3,2.8c0,1,0.1,1.7,0.3,2.1c0.2,0.5,0.5,0.7,1,0.7
	c0.5,0,0.8-0.2,1-0.7C272.4,46.7,272.5,46,272.5,45L272.5,45z M277.4,41.3h1.4v1.3h-1.4v6.3h-1.5v-6.3h-1v-1.3h1
	c0-0.9,0.1-1.5,0.2-1.9c0.1-0.3,0.4-0.6,0.7-0.8c0.3-0.2,0.7-0.3,1.3-0.3c0.3,0,0.6,0,0.9,0.1v1.2c-0.2,0-0.4-0.1-0.6-0.1
	c-0.3,0-0.5,0.1-0.7,0.2c-0.1,0.1-0.2,0.3-0.3,0.4C277.4,40.4,277.4,40.7,277.4,41.3L277.4,41.3z M282.5,38.6h2.5
	c0.8,0,1.5,0.1,2,0.2c0.5,0.2,0.9,0.5,1.3,1c0.3,0.5,0.5,1.2,0.5,1.9c0,0.7-0.1,1.3-0.4,1.7c-0.3,0.5-0.7,0.8-1.1,1
	c-0.5,0.2-1.2,0.3-2.2,0.3h-0.9v4h-1.7V38.6L282.5,38.6z M284.1,39.9v3.6h0.8c0.7,0,1.3-0.1,1.6-0.4c0.3-0.3,0.4-0.7,0.4-1.4
	c0-0.5-0.1-0.9-0.3-1.1c-0.2-0.3-0.4-0.5-0.6-0.5c-0.2-0.1-0.6-0.1-1.1-0.1H284.1L284.1,39.9z M295.4,45.3h-4.3c0,1,0.1,1.7,0.4,2.1
	c0.3,0.3,0.6,0.5,1,0.5c0.7,0,1.1-0.5,1.3-1.4l1.4,0.2c-0.4,1.6-1.3,2.4-2.8,2.4c-0.9,0-1.6-0.3-2.2-1c-0.5-0.7-0.8-1.6-0.8-2.9
	c0-1.3,0.3-2.3,0.8-3c0.5-0.7,1.3-1.1,2.2-1.1c0.6,0,1.2,0.2,1.6,0.5c0.4,0.4,0.7,0.8,0.9,1.4C295.3,43.6,295.4,44.3,295.4,45.3
	L295.4,45.3z M293.8,44.2c0-1.3-0.4-2-1.3-2c-0.8,0-1.3,0.7-1.3,2H293.8L293.8,44.2z M296.7,41.3h1.4V43c0.4-1.2,1.1-1.9,1.9-1.9
	c0.1,0,0.2,0,0.3,0v1.6c-0.1,0-0.2,0-0.3,0c-1.1,0-1.7,0.7-1.7,2.2v3.9h-1.6V41.3L296.7,41.3z M303.2,41.3h1.4v1.3h-1.4v6.3h-1.5
	v-6.3h-1v-1.3h1c0-0.9,0.1-1.5,0.2-1.9c0.1-0.3,0.4-0.6,0.7-0.8c0.3-0.2,0.7-0.3,1.3-0.3c0.3,0,0.6,0,0.9,0.1v1.2
	c-0.2,0-0.4-0.1-0.6-0.1c-0.3,0-0.5,0.1-0.7,0.2c-0.1,0.1-0.2,0.3-0.3,0.4C303.2,40.4,303.2,40.7,303.2,41.3L303.2,41.3z M311,45
	c0,2.7-1,4-3,4c-0.9,0-1.6-0.3-2.2-1c-0.5-0.7-0.8-1.6-0.8-3c0-2.6,1-4,3-4c0.9,0,1.6,0.3,2.2,1C310.8,42.7,311,43.7,311,45L311,45z
	 M309.4,45c0-1.1-0.1-1.8-0.4-2.2c-0.2-0.4-0.6-0.6-1-0.6c-0.9,0-1.3,0.9-1.3,2.8c0,1,0.1,1.7,0.3,2.1c0.2,0.5,0.5,0.7,1,0.7
	c0.5,0,0.8-0.2,1-0.7C309.3,46.7,309.4,46,309.4,45L309.4,45z M312.5,41.3h1.4V43c0.4-1.2,1.1-1.9,1.9-1.9c0.1,0,0.2,0,0.3,0v1.6
	c-0.1,0-0.2,0-0.3,0c-1.1,0-1.7,0.7-1.7,2.2v3.9h-1.6V41.3L312.5,41.3z M316.7,41.3h1.4v1.2c0.4-0.9,1-1.3,1.9-1.3
	c1,0,1.5,0.5,1.7,1.4c0.4-0.9,1-1.4,1.9-1.4c0.5,0,0.8,0.1,1.2,0.3c0.3,0.2,0.5,0.5,0.6,0.8c0.1,0.3,0.2,1,0.2,1.9v4.8h-1.6v-4.7
	c0-0.7-0.1-1.2-0.2-1.5c-0.1-0.3-0.4-0.4-0.7-0.4c-0.8,0-1.2,0.7-1.2,2.1v4.4h-1.6v-4.6c0-0.7,0-1.1-0.1-1.3
	c-0.1-0.2-0.2-0.3-0.3-0.5c-0.1-0.1-0.3-0.2-0.6-0.2c-0.4,0-0.7,0.2-0.9,0.5c-0.2,0.3-0.3,0.9-0.3,1.6v4.4h-1.6V41.3L316.7,41.3z
	 M329,40.2h-1.6v-1.7h1.6V40.2L329,40.2z M327.4,41.3h1.6v7.6h-1.6V41.3L327.4,41.3z M330.8,41.3h1.4v1.2c0.4-0.9,1-1.3,1.9-1.3
	c0.5,0,0.9,0.1,1.2,0.4c0.3,0.2,0.5,0.5,0.6,0.9c0.1,0.3,0.1,0.9,0.1,1.6v4.9h-1.6V44c0-0.7-0.1-1.1-0.2-1.3
	c-0.1-0.2-0.4-0.4-0.7-0.4c-0.4,0-0.7,0.2-0.9,0.5c-0.2,0.3-0.3,0.9-0.3,1.8v4.2h-1.6V41.3L330.8,41.3z M343.7,40.1v1.1
	c-0.1,0-0.3,0-0.4,0c-0.5,0-0.7,0.3-0.8,0.8c0.4,0.5,0.6,1,0.6,1.6c0,0.7-0.2,1.3-0.7,1.7c-0.5,0.5-1.1,0.7-1.9,0.7
	c-0.3,0-0.6,0-1-0.1c-0.4,0.1-0.6,0.4-0.6,0.7c0,0.3,0.1,0.4,0.3,0.5c0.2,0.1,0.7,0.1,1.6,0.2c0.7,0,1.3,0.1,1.7,0.2
	c0.4,0.1,0.7,0.3,0.9,0.6c0.2,0.3,0.3,0.7,0.3,1.2c0,0.8-0.3,1.4-0.9,1.7c-0.6,0.4-1.4,0.6-2.5,0.6c-1.1,0-1.8-0.2-2.3-0.5
	c-0.5-0.3-0.7-0.8-0.7-1.4c0-0.7,0.4-1.2,1.1-1.5c-0.5-0.3-0.8-0.7-0.8-1.2c0-0.7,0.4-1.2,1.1-1.5c-0.6-0.4-1-1.1-1-1.9
	c0-0.7,0.2-1.3,0.7-1.8c0.5-0.5,1.1-0.7,1.9-0.7c0.5,0,1,0.1,1.4,0.3c0.1-0.5,0.2-0.9,0.5-1.1c0.2-0.2,0.5-0.3,1-0.3
	C343.4,40,343.6,40,343.7,40.1L343.7,40.1z M341.5,43.6c0-1-0.3-1.5-1-1.5c-0.7,0-1.1,0.5-1.1,1.5c0,1,0.4,1.5,1.1,1.5
	C341.2,45.1,341.5,44.6,341.5,43.6L341.5,43.6z M339.4,48.5c-0.4,0.2-0.7,0.5-0.7,1c0,0.4,0.1,0.6,0.4,0.8c0.3,0.2,0.7,0.3,1.4,0.3
	c1.2,0,1.8-0.3,1.8-1c0-0.3-0.1-0.6-0.3-0.7c-0.2-0.1-0.7-0.2-1.3-0.2C340.1,48.5,339.7,48.5,339.4,48.5L339.4,48.5z M349.5,38.6
	h1.9l2.7,10.2h-1.7l-0.6-2.6h-3l-0.6,2.6h-1.6L349.5,38.6L349.5,38.6z M351.4,44.9l-1.2-4.7l-1.2,4.7H351.4L351.4,44.9z M355.1,41.3
	h1.4V43c0.4-1.2,1.1-1.9,1.9-1.9c0.1,0,0.2,0,0.3,0v1.6c-0.1,0-0.2,0-0.3,0c-1.1,0-1.7,0.7-1.7,2.2v3.9h-1.6V41.3L355.1,41.3z
	 M360.2,39.3l1.4-0.1v2.1h1.4v1.3h-1.4v3.3c0,0.6,0,1,0,1.2c0,0.2,0.1,0.4,0.3,0.5c0.1,0.1,0.4,0.2,0.7,0.2c0.2,0,0.4,0,0.6-0.1v1.2
	c-0.4,0.1-0.8,0.1-1.2,0.1c-0.6,0-1-0.1-1.3-0.3c-0.3-0.2-0.5-0.5-0.6-0.9c-0.1-0.4-0.1-1-0.1-1.8v-3.4h-1v-1.3h1L360.2,39.3
	L360.2,39.3z M368.6,43l-1.2,0.3c-0.2-0.8-0.7-1.1-1.3-1.1c-0.3,0-0.5,0.1-0.7,0.3c-0.2,0.2-0.3,0.4-0.3,0.7c0,0.3,0.1,0.5,0.3,0.7
	c0.2,0.1,0.6,0.3,1.2,0.5c0.8,0.3,1.4,0.6,1.7,0.9c0.4,0.3,0.5,0.8,0.5,1.4c0,0.7-0.3,1.2-0.7,1.7c-0.5,0.5-1.2,0.7-2,0.7
	c-1.6,0-2.5-0.7-2.7-2.2l1.3-0.2c0.2,0.9,0.7,1.3,1.4,1.3c0.4,0,0.7-0.1,0.9-0.3c0.2-0.2,0.3-0.4,0.3-0.7c0-0.2-0.1-0.4-0.2-0.6
	c-0.1-0.2-0.5-0.4-1.1-0.6c-0.6-0.2-1-0.4-1.3-0.5c-0.3-0.2-0.5-0.4-0.7-0.7c-0.2-0.3-0.3-0.7-0.3-1.1c0-0.6,0.2-1.2,0.7-1.6
	c0.5-0.5,1.1-0.7,1.8-0.7C367.5,41.1,368.3,41.7,368.6,43L368.6,43z M373,38.6h1.7v10.2H373V38.6L373,38.6z M376.6,41.3h1.4v1.2
	c0.4-0.9,1-1.3,1.9-1.3c0.5,0,0.9,0.1,1.2,0.4c0.3,0.2,0.5,0.5,0.6,0.9c0.1,0.3,0.1,0.9,0.1,1.6v4.9h-1.6V44c0-0.7-0.1-1.1-0.2-1.3
	c-0.1-0.2-0.4-0.4-0.7-0.4c-0.4,0-0.7,0.2-0.9,0.5c-0.2,0.3-0.3,0.9-0.3,1.8v4.2h-1.6V41.3L376.6,41.3z M388.2,43l-1.2,0.3
	c-0.2-0.8-0.7-1.1-1.3-1.1c-0.3,0-0.5,0.1-0.7,0.3c-0.2,0.2-0.3,0.4-0.3,0.7c0,0.3,0.1,0.5,0.3,0.7c0.2,0.1,0.6,0.3,1.2,0.5
	c0.8,0.3,1.4,0.6,1.7,0.9c0.4,0.3,0.5,0.8,0.5,1.4c0,0.7-0.3,1.2-0.7,1.7c-0.5,0.5-1.2,0.7-2,0.7c-1.6,0-2.5-0.7-2.7-2.2l1.3-0.2
	c0.2,0.9,0.7,1.3,1.4,1.3c0.4,0,0.7-0.1,0.9-0.3c0.2-0.2,0.3-0.4,0.3-0.7c0-0.2-0.1-0.4-0.2-0.6c-0.1-0.2-0.5-0.4-1.1-0.6
	c-0.6-0.2-1-0.4-1.3-0.5c-0.3-0.2-0.5-0.4-0.7-0.7c-0.2-0.3-0.3-0.7-0.3-1.1c0-0.6,0.2-1.2,0.7-1.6c0.5-0.5,1.1-0.7,1.8-0.7
	C387.1,41.1,387.9,41.7,388.2,43L388.2,43z M390.1,39.3l1.4-0.1v2.1h1.4v1.3h-1.4v3.3c0,0.6,0,1,0,1.2c0,0.2,0.1,0.4,0.3,0.5
	c0.1,0.1,0.4,0.2,0.7,0.2c0.2,0,0.4,0,0.6-0.1v1.2c-0.4,0.1-0.8,0.1-1.2,0.1c-0.6,0-1-0.1-1.3-0.3c-0.3-0.2-0.5-0.5-0.6-0.9
	c-0.1-0.4-0.1-1-0.1-1.8v-3.4h-1v-1.3h1L390.1,39.3L390.1,39.3z M395.6,40.2H394v-1.7h1.6V40.2L395.6,40.2z M394,41.3h1.6v7.6H394
	V41.3L394,41.3z M397.7,39.3l1.4-0.1v2.1h1.4v1.3h-1.4v3.3c0,0.6,0,1,0,1.2c0,0.2,0.1,0.4,0.3,0.5c0.1,0.1,0.4,0.2,0.7,0.2
	c0.2,0,0.4,0,0.6-0.1v1.2c-0.4,0.1-0.8,0.1-1.2,0.1c-0.6,0-1-0.1-1.3-0.3c-0.3-0.2-0.5-0.5-0.6-0.9c-0.1-0.4-0.1-1-0.1-1.8v-3.4h-1
	v-1.3h1L397.7,39.3L397.7,39.3z M401.5,41.3h1.6v4.8c0,0.7,0.1,1.1,0.2,1.3c0.1,0.2,0.4,0.3,0.7,0.3c0.5,0,0.8-0.2,1-0.6
	c0.2-0.4,0.3-1.2,0.3-2.2v-3.6h1.6v7.6h-1.4v-1.1c-0.4,0.9-1,1.3-1.9,1.3c-0.5,0-0.8-0.1-1.1-0.3c-0.3-0.2-0.5-0.5-0.6-0.8
	c-0.1-0.3-0.2-1-0.2-1.8V41.3L401.5,41.3z M408.9,39.3l1.4-0.1v2.1h1.4v1.3h-1.4v3.3c0,0.6,0,1,0,1.2c0,0.2,0.1,0.4,0.3,0.5
	c0.1,0.1,0.4,0.2,0.7,0.2c0.2,0,0.4,0,0.6-0.1v1.2c-0.4,0.1-0.8,0.1-1.2,0.1c-0.6,0-1-0.1-1.3-0.3c-0.3-0.2-0.5-0.5-0.6-0.9
	c-0.1-0.4-0.1-1-0.1-1.8v-3.4h-1v-1.3h1L408.9,39.3L408.9,39.3z M414.4,40.2h-1.6v-1.7h1.6V40.2L414.4,40.2z M412.8,41.3h1.6v7.6
	h-1.6V41.3L412.8,41.3z M421.8,45c0,2.7-1,4-3,4c-0.9,0-1.6-0.3-2.2-1c-0.5-0.7-0.8-1.6-0.8-3c0-2.6,1-4,3-4c0.9,0,1.6,0.3,2.2,1
	C421.6,42.7,421.8,43.7,421.8,45L421.8,45z M420.2,45c0-1.1-0.1-1.8-0.4-2.2c-0.2-0.4-0.6-0.6-1-0.6c-0.9,0-1.3,0.9-1.3,2.8
	c0,1,0.1,1.7,0.3,2.1c0.2,0.5,0.5,0.7,1,0.7c0.5,0,0.8-0.2,1-0.7C420.1,46.7,420.2,46,420.2,45L420.2,45z M423.3,41.3h1.4v1.2
	c0.4-0.9,1-1.3,1.9-1.3c0.5,0,0.9,0.1,1.2,0.4c0.3,0.2,0.5,0.5,0.6,0.9c0.1,0.3,0.1,0.9,0.1,1.6v4.9H427V44c0-0.7-0.1-1.1-0.2-1.3
	c-0.1-0.2-0.4-0.4-0.7-0.4c-0.4,0-0.7,0.2-0.9,0.5c-0.2,0.3-0.3,0.9-0.3,1.8v4.2h-1.6V41.3L423.3,41.3z M434.9,43l-1.2,0.3
	c-0.2-0.8-0.7-1.1-1.3-1.1c-0.3,0-0.5,0.1-0.7,0.3c-0.2,0.2-0.3,0.4-0.3,0.7c0,0.3,0.1,0.5,0.3,0.7c0.2,0.1,0.6,0.3,1.2,0.5
	c0.8,0.3,1.4,0.6,1.7,0.9c0.4,0.3,0.5,0.8,0.5,1.4c0,0.7-0.3,1.2-0.7,1.7c-0.5,0.5-1.2,0.7-2,0.7c-1.6,0-2.5-0.7-2.7-2.2l1.3-0.2
	c0.2,0.9,0.7,1.3,1.4,1.3c0.4,0,0.7-0.1,0.9-0.3c0.2-0.2,0.3-0.4,0.3-0.7c0-0.2-0.1-0.4-0.2-0.6c-0.1-0.2-0.5-0.4-1.1-0.6
	c-0.6-0.2-1-0.4-1.3-0.5c-0.3-0.2-0.5-0.4-0.7-0.7c-0.2-0.3-0.3-0.7-0.3-1.1c0-0.6,0.2-1.2,0.7-1.6c0.5-0.5,1.1-0.7,1.8-0.7
	C433.7,41.1,434.5,41.7,434.9,43L434.9,43z"/>
</svg>
