<?xml version="1.0" encoding="utf-8"?>
<!-- Generator: Adobe Illustrator 20.1.0, SVG Export Plug-In . SVG Version: 6.00 Build 0)  -->
<svg version="1.1" id="Layer_1" xmlns="http://www.w3.org/2000/svg" xmlns:xlink="http://www.w3.org/1999/xlink" x="0px" y="0px"
	 viewBox="0 0 283.5 113.4" style="enable-background:new 0 0 283.5 113.4;" xml:space="preserve">
<style type="text/css">
	.st0{fill:#1E1E1C;}
</style>
<g>
	<path class="st0" d="M26.1,90.7c0,0.2,0.1,0.4,0.2,0.6c0.4-0.4,0.9-0.7,1.4-0.8c0.2-0.8,1-1.4,1.9-1.4c0.1,0,0.2,0,0.2,0
		c-0.7,0.2-1.3,0.8-1.6,1.5c-0.5,0.2-0.8,0.6-0.8,1.1c0,0.2,0.1,0.5,0.2,0.6c0.4-0.4,0.9-0.8,1.5-0.9c0.2-0.9,0.9-1.5,1.8-1.6
		c-0.8,0.3-1.3,1.1-1.3,2c0,0.3,0.1,0.6,0.2,0.9c0.1-0.5,0.6-0.9,1.1-0.9c0.1,0,0.3,0,0.4,0.1c0.2,0.1,0.3,0.1,0.5,0.1
		c0.9,0,1.6-0.7,1.6-1.6c0-0.2,0-0.3-0.1-0.5c0.4,0.1,0.7,0.5,0.7,0.9c0,0.2-0.1,0.4-0.2,0.6c0.1,0,0.2,0,0.4,0c1,0,1.8-0.8,2-1.7
		c0.5-0.3,1-0.6,1.3-1.1l0.3,1.3c0,0.1,0,0.2,0,0.3c0,0.1-0.1,0.2-0.1,0.2l1.1-1.1c0.1-0.1,0.1-0.1,0.1-0.2c0-0.1,0-0.2,0-0.3
		l-0.3-1.6c0-0.1,0-0.2,0-0.3c0-0.1,0.1-0.2,0.1-0.2l0.9-0.9c-0.1,0.1-0.1,0.1-0.1,0.2c0,0.1,0,0.2,0,0.3l0.3,1.6c0,0.1,0,0.2,0,0.3
		c0,0.1-0.1,0.2-0.1,0.2l1-1c0.1-0.1,0.1-0.1,0.1-0.2c0-0.1,0-0.2,0-0.3l-0.3-1.6c0-0.1,0-0.2,0-0.3c0-0.1,0.1-0.2,0.1-0.2l0.9-0.9
		c-0.1,0.1-0.1,0.1-0.1,0.2c0,0.1,0,0.2,0,0.3l0.3,1.6c0,0.1,0,0.2,0,0.3c0,0.1-0.1,0.2-0.1,0.2l1-1c0.1-0.1,0.1-0.1,0.1-0.2
		c0-0.1,0-0.2,0-0.3l-0.2-0.8c-0.2-0.9,0.7-1.9,1.5-2c0.1-0.2,0.1-0.4,0.1-0.5c0-0.9-1.1-1.6-2.4-1.6c-0.6,0-1.2,0.2-1.7,0.5
		c0.2,0.5,0.2,1-1.5,1.3c-1.3,0.2-2.5,0.5-3.4,1.2c-1.4,1.2-1.3,2.8-2.1,3.3c0.4,0.1,0.8,0.1,1.3,0c0.3-0.1,0.6-0.2,0.8-0.3
		c-0.1,0.3-0.5,0.6-0.9,0.7c-0.1,0.6-0.6,1.1-1.3,1.3c-0.4,0.2-0.8,0.2-1.2,0.1L30,87.6c-0.2-0.1-0.4-0.1-0.6-0.1
		c-1.2,0-2.2,0.9-2.3,2.1C26.5,89.7,26.1,90.2,26.1,90.7 M42.1,26.5c0.9-0.9,2-1.7,3.2-2.3c0-0.1-0.1-0.3-0.1-0.4v0
		c-5,0.8-9.4,3.4-13.5,3.3c-1.1,0-2-0.4-2.2-1.2c0-0.1,0-0.3,0-0.4c0.1-0.3,0.3-0.5,0.6-0.5c0.3,0,0.6,0.3,0.6,0.6
		c0,0.2-0.1,0.3-0.2,0.4c0.1,0,0.2,0,0.4,0c0.3,0,0.6,0,0.9-0.1c0.4-0.1,0.8-0.5,0.8-1c0-0.6-0.5-1-1-1c0,0-0.1,0-0.1,0
		c0.1-0.1,0.3-0.1,0.5-0.1c0.7,0,1.2,0.5,1.2,1.2c0,0,0,0.1,0,0.1c1.8,0,3.8-1.7,4.2-2.3c-0.6,0.1-1.2,0.2-1.8,0.2
		c-0.7,0-1.4-0.1-2-0.3c-0.9-0.2-1.7-0.4-2.4-0.4c-2.2,0-3.9,1.4-3.9,3.2c0,1.4,1.2,2.7,2.9,3C33.9,29.5,38.4,27.2,42.1,26.5
		 M20.9,31.6c0.1-0.5,0.1-1,0.1-1.5l-0.5,0.6c-0.1-0.2-0.2-0.4-0.2-0.5c-0.1-0.1-0.1-0.2-0.2-0.2c0,0-0.1,0-0.1,0.1
		c-0.1,0-0.1,0-0.2,0c0,0-0.1,0-0.2,0c-0.1,0-0.1,0-0.1-0.1c-0.1,0-0.1,0.1-0.2,0.2c-0.1,0.1-0.1,0.2-0.2,0.5l-0.5-0.6
		c0,0.5,0,1,0.1,1.5c0.4-0.1,0.7-0.1,1.1-0.1C20.2,31.5,20.5,31.5,20.9,31.6 M21.1,33c0.1-0.6-0.6-0.8-1.3-0.8
		c-0.6,0-1.3,0.2-1.3,0.8c0.1,0.7,0.8,0.4,1.3,0.4C20.3,33.4,21,33.8,21.1,33 M22.9,28.7c-0.1,0-0.2,0.1-0.2,0.2
		c-0.1,0.7-0.4,1-0.8,1.2c0,0.7-0.1,1.3-0.3,1.9c0.5,1.1,0.1,1.9-0.3,2.1c-0.4,0.2-1-0.1-1.4-0.1c-0.5,0-1,0.2-1.5,0.1
		c-0.4-0.2-0.9-1-0.3-2.1c-0.2-0.7-0.3-1.2-0.3-1.9c-0.5-0.2-0.7-0.4-0.8-1.2c0-0.1-0.1-0.2-0.2-0.2c-1.8-0.5-2-2.7-1.1-3.4
		c-0.1,1-0.2,2.4,1.9,2.6c0,1.2,0.5,1.5,1,1.5c0.4,0,0.7-0.1,0.8-0.2c0.4-0.2,0.1-0.5,0-0.6C19.1,28.4,19,28,19,27.7
		c0-0.1,0-0.1,0.1-0.1h0.7h0.7c0.1,0,0.1,0,0.1,0.1c0.1,0.3-0.1,0.7-0.3,0.9c-0.1,0.1-0.4,0.4,0,0.6c0.1,0.1,0.4,0.2,0.8,0.2
		c0.5,0,1-0.3,1-1.5c2.1-0.2,2-1.6,1.9-2.6C24.9,26,24.7,28.2,22.9,28.7 M23.5,24.8c0,0.5-0.4,1.1-0.8,1.1h-0.4
		c0.1,0.1,0.2,0.3,0.2,0.4c0,0.4-0.3,0.7-0.7,0.7c-0.4,0-0.7-0.3-0.7-0.7c0-0.2,0.1-0.3,0.2-0.4h-0.4c-0.1,0-0.3,0.1-0.3,0.2
		c0-0.2-0.1-0.5,0-0.6c0.1-0.2,0.2-0.3,0.4-0.3h1.8C23,25.2,23.2,25,23.5,24.8 M23.2,23.9h-0.6c-0.3,0-0.5-0.1-0.7-0.3l-0.7-0.9
		c-0.1-0.1-0.2-0.3-0.4-0.3h0.7c0.2,0,0.4,0.1,0.6,0.3l0.8,1C23,23.8,23,23.9,23.2,23.9 M19.9,22.4l0.9,1.3c0.1,0.2,0.3,0.3,0.5,0.4
		h-0.8c-0.3,0-0.5-0.1-0.7-0.4l-0.7-1.1c-0.3-0.4-0.4-0.5-0.7-0.6h0.8C19.5,21.9,19.8,22.1,19.9,22.4 M17.8,22.6l0.8,1
		c0.2,0.2,0.2,0.3,0.4,0.4h-0.6c-0.3,0-0.5-0.1-0.7-0.3l-0.7-0.9c-0.1-0.1-0.2-0.3-0.4-0.3h0.7C17.5,22.3,17.7,22.4,17.8,22.6
		 M17.4,25.9H17c-0.4,0-0.8-0.6-0.8-1.1c0.2,0.3,0.5,0.4,0.8,0.4h1.8c0.2,0,0.3,0.1,0.4,0.3c0.1,0.2,0,0.4,0,0.6
		c-0.1-0.2-0.2-0.2-0.3-0.2h-0.4c0.1,0.1,0.2,0.3,0.2,0.4c0,0.4-0.3,0.7-0.7,0.7c-0.4,0-0.7-0.3-0.7-0.7
		C17.2,26.2,17.3,26,17.4,25.9 M15.1,34.5l0.2-0.4c0-0.1,0.1-0.2,0.1-0.3c0-0.1,0-0.2-0.1-0.3l0.6,1.1c0,0.1,0.1,0.2,0.1,0.3
		c0,0.1,0,0.2-0.1,0.3l-0.1,0.1c-0.4,0.7-0.7,2.1-0.3,2.8c-0.9-0.3-1.2-1.1-1.1-1.8c-1.7-1.6-2.1-3.2-0.9-4.6l0.6-0.7
		c0.1-0.1,0.1-0.2,0.1-0.2c0-0.1,0-0.2,0-0.3l0.3,1.2c0,0.1,0,0.2,0,0.3c0,0.1-0.1,0.2-0.1,0.2l-0.2,0.2c-0.6,0.7-0.5,1.7,0.5,2.6
		C15,34.9,15,34.7,15.1,34.5 M56.4,39c0.1-0.2,0.1-0.3,0.1-0.5c0-0.8-0.6-1.4-1.4-1.4h-1.4c-0.1,0-0.2,0-0.3-0.1
		c-0.1,0-0.1-0.1-0.2-0.2l-0.7-1c0.1,0.1,0.1,0.1,0.2,0.2c0.1,0,0.2,0.1,0.3,0.1l1.8,0c0.1,0,0.2,0,0.3,0.1c0.1,0,0.1,0.1,0.2,0.2
		l-0.8-1.2c-0.1-0.1-0.1-0.1-0.2-0.2c-0.1,0-0.2-0.1-0.3-0.1l-1.8,0c-0.1,0-0.2,0-0.3-0.1c-0.1,0-0.1-0.1-0.2-0.2L51,33.5
		c0.1,0.1,0.1,0.1,0.2,0.2c0.1,0,0.2,0.1,0.3,0.1l1.8,0c0.1,0,0.2,0,0.3,0.1c0.1,0,0.1,0.1,0.2,0.2l-0.8-1.2
		c-0.1-0.1-0.1-0.1-0.2-0.2c-0.1,0-0.2-0.1-0.3-0.1H51c-0.1,0-0.2,0-0.3-0.1c-0.1,0-0.1-0.1-0.2-0.2l-1-1.4c1.9-0.2,3.5-1.3,3.8-2.7
		c0.4-1.9-1.5-3.7-4.2-4.1c-0.5-0.1-0.8-0.5-0.8-0.9c0-0.4,0.3-0.8,0.6-0.9c-0.3-0.1-0.6-0.2-1-0.2c-1.2,0-2.2,0.9-2.2,1.9
		c0,0.2,0,0.4,0.1,0.6c-1.3,0.6-2.6,1.6-3.5,2.7c1-0.3,2.1-0.4,3.1-0.4c0-0.1,0-0.1,0-0.2c0-0.8,0.7-1.5,1.5-1.5h0
		c-0.6,0.2-0.8,0.8-0.8,1.1c0,0.4,0.3,0.8,0.8,0.8c0.2,0,0.3-0.1,0.4-0.1c0-0.1,0-0.2,0-0.3c0-0.6,0.5-1.1,1.1-1.1
		c0.1,0,0.1,0,0.2,0c-0.4,0.2-0.7,0.6-0.7,1.1c0,0.7,0.5,1.2,1.2,1.2c0.1,0,0.1,0,0.2,0c0-0.1,0-0.1,0-0.2c0-0.5,0.4-0.8,0.8-0.8
		c0.5,0,0.8,0.4,0.8,0.8c0,1-1.1,1.1-2,0.9c-2.3-0.7-4.5-1-6.7-0.7c-2.7,0.4-7.2,2.2-11.9,2.1c-1.1,0-2.2-0.2-3.4-0.5
		c0.1,0.2,0.2,0.3,0.3,0.4c0.5,0.7,0.6,1.5,0.2,2.4c0-1.1-0.9-1.9-1.6-2.5c-0.3-0.2-0.4-0.4-0.4-0.7l0.2-1.2c0,0.1,0,0.2,0,0.3
		c0,0.1,0.1,0.2,0.1,0.2l0.5,0.4c0.2-1.2-0.1-2.4-0.8-3.5c0.3-0.9,0.4-1.8,0.2-2.7c-0.1,0.7-0.4,1-0.7,1.1c-0.6,0.4-0.7,1-0.4,1.4
		c-0.5-0.2-1.2-1.2-0.8-1.7c0.4-0.6,1.6-0.3,1.7-1.3c-0.7-0.2-1.5-0.1-1.7,0c-0.4-0.5-1-0.8-1.8-0.8c-0.6-0.5-1.3-0.7-2.2-0.6
		c-0.9-0.1-1.6,0.1-2.2,0.6c-0.7,0-1.3,0.2-1.8,0.8c-0.2-0.1-1-0.2-1.7,0c0.1,1,1.3,0.7,1.7,1.3c0.4,0.5-0.3,1.4-0.8,1.7
		c0.3-0.4,0.2-1-0.4-1.4c-0.3-0.2-0.6-0.5-0.7-1.1c-0.2,0.9-0.2,1.8,0.2,2.7c-0.7,1.1-1,2.2-0.8,3.5l0.5-0.4
		c0.1-0.1,0.1-0.1,0.1-0.2c0-0.1,0-0.2,0-0.3l0.2,1.2c0,0.3-0.1,0.5-0.4,0.7c-0.7,0.5-1.6,1.4-1.6,2.5c-0.4-0.9-0.2-1.7,0.2-2.4
		c-1.4-0.8-2.5-2-2.6-2.2c-0.4-0.5-0.4-1.1,0-1.7c0.7-1.1,0.9-2.2,0-2.9c0-0.1,0-0.1,0-0.2c0-0.7-0.5-1.3-1.2-1.4
		c0.1,0.2,0.2,0.4,0.2,0.7c0,0.3-0.1,0.5-0.2,0.7c0.1,0.2,0.2,0.4,0.2,0.6c0,0.3-0.1,0.6-0.4,0.8c0-0.1,0-0.2,0-0.3
		c0-0.7-0.4-1.3-1-1.5c-0.1-0.5-0.6-0.9-1.1-0.9c-0.3,0-0.6,0.1-0.8,0.3c0.4,0,0.8,0.4,0.8,0.8c-0.2,0.2-0.4,0.4-0.5,0.6h0
		c0.7,0,1.3,0.6,1.3,1.3c0,0.1,0,0.2,0,0.2c-0.1-0.3-0.2-0.6-0.4-0.8c-0.4-0.4-1-0.5-1.6-0.3c-0.2-0.3-0.5-0.4-0.9-0.4
		c-0.4,0-0.8,0.2-1,0.5c0.4,0,0.8,0.2,1,0.5c-0.6,0.7-0.6,1.8,0,2.3c0.4,0.4,1,0.5,1.5,0.3c0,0,0.1,0,0.1,0c0.2,0,0.4,0.2,0.4,0.4
		c0,0.2-0.2,0.4-0.4,0.4c-0.1,0-0.2,0-0.2-0.1c-0.1-0.1-0.3-0.2-0.5-0.2c-0.4,0-0.8,0.3-0.8,0.8c0,0,0,0.1,0,0.1c-0.1,0-0.2,0-0.2,0
		c-0.2,0-0.4-0.1-0.5-0.2c0,0.1,0,0.2,0,0.3c0,0.5,0.4,1,1,1c0.2,0.6,0.8,1,1.5,1c0.4,0,0.7-0.1,0.9-0.3c0.1-0.1,0.3-0.1,0.4-0.1
		c0.4,0,0.7,0.3,0.7,0.7c0,0.3-0.2,0.6-0.6,0.7L7,31.4c-0.1,0-0.2,0-0.3,0c-0.1,0-0.2-0.1-0.2-0.1l1.3,1.2C7.9,32.6,8,32.6,8,32.6
		c0.1,0,0.2,0,0.3,0l1-0.2c0.1,0,0.2,0,0.3,0c0.1,0,0.2,0.1,0.2,0.1l0.9,0.8c-0.1-0.1-0.1-0.1-0.2-0.1c-0.1,0-0.2,0-0.3,0l-1,0.2
		c-0.1,0-0.2,0-0.3,0c-0.1,0-0.2-0.1-0.2-0.1l1.2,1.1c0.1,0.1,0.1,0.1,0.2,0.1c0.1,0,0.2,0,0.3,0l1-0.2c0.1,0,0.2,0,0.3,0
		c0.1,0,0.2,0.1,0.2,0.1l0.9,0.8c-0.1-0.1-0.1-0.1-0.2-0.1c-0.1,0-0.2,0-0.3,0l-1,0.2c-0.1,0-0.2,0-0.3,0c-0.1,0-0.2-0.1-0.2-0.1
		l1.2,1.1c0.1,0.1,0.1,0.1,0.2,0.1c0.1,0,0.2,0,0.3,0l1.3-0.3c-1.2,0.7-2.5,1.5-3.9,2.4C8.9,39.1,8,39.2,7,38.8
		c-0.6-0.2-1.2-0.2-1.5-0.2C5,38.7,4.6,39,4.3,39.4c0.2-0.1,0.4-0.1,0.6-0.1c0.5,0,0.9,0.2,1.2,0.5c-0.5-0.2-1.1-0.2-1.6,0
		c-1,0.4-1.6,1.3-1.4,2.2c-0.4,0.1-0.7,0.5-0.7,1c0,0.3,0.1,0.5,0.3,0.7c0.1-0.5,0.5-0.8,1-0.8c0.2,0.1,0.4,0.2,0.7,0.3
		c0.1-0.1,0.2-0.2,0.3-0.4c0-0.1,0-0.2,0-0.3c0-0.9,0.8-1.7,1.7-1.7c0.1,0,0.2,0,0.2,0c-0.7,0.2-1.3,0.9-1.3,1.7c0,0.1,0,0.2,0,0.3
		c-0.4,0.2-0.7,0.5-0.7,1c0,0.3,0.1,0.5,0.3,0.7c0.3-0.6,0.9-1,1.5-1c0.2,0.1,0.5,0.1,0.8,0.1c0.2,0,0.3,0,0.5,0
		c-0.1-0.2-0.2-0.5-0.2-0.8c0-0.7,0.6-1.3,1.3-1.3c0.1,0,0.1,0,0.2,0c-0.7,0.3-1.1,0.9-1,1.5c0.1,0.4,0.5,0.7,1,0.8
		c0,0.3-0.1,0.6-0.2,0.8c0.6,0,1.1-0.4,1.4-0.9c0.7-0.3,1.2-0.9,1-1.5c-0.1-0.2-0.2-0.4-0.3-0.5c0,0,0,0,0-0.1
		c0-0.4,0.3-0.7,0.7-0.7c0.4,0,0.7,0.3,0.7,0.7c0,0.2-0.1,0.4-0.2,0.5h1.5c0.1,0,0.2,0,0.3-0.1c0.1,0,0.1-0.1,0.2-0.2l0.9-1.4
		c0-0.1,0.1-0.1,0.1-0.1c0.1,0,0.1,0,0.2,0h1.2c-0.1,0-0.1,0-0.2,0c-0.1,0-0.1,0.1-0.1,0.1l-0.9,1.4c-0.1,0.1-0.1,0.1-0.2,0.2
		c-0.1,0-0.2,0.1-0.3,0.1h1.8c0.1,0,0.2,0,0.3-0.1c0.1,0,0.1-0.1,0.2-0.2l1.1-1.6c-0.7-0.4-1-1.1-1-2.1c0-0.6,0.3-1.3,0.4-1.7l0-0.2
		c0-0.1,0-0.2,0-0.3c0-0.1-0.1-0.2-0.1-0.2l0.9,0.9c0.1,0.1,0.1,0.1,0.2,0.2c0,0.1,0,0.2,0,0.3l0,0.2c0,0.4-0.5,1.2,0.4,1.9
		c0,0,0.1,0.1,0.3,0.2l0.6,0.4v-2.3h0.9v2.5c0,0.1,0,0.2,0.1,0.3c0,0.1,0.1,0.1,0.2,0.2l0.8,0.5c0.1,0.1,0.2,0.1,0.3,0.1
		c0.1,0,0.2,0,0.3,0l1.5-0.7c-0.1,0-0.2,0.1-0.3,0c-0.1,0-0.2,0-0.3-0.1l-1.8-1.1c0.9-0.7,0.4-1.5,0.4-1.9l0-0.2c0-0.1,0-0.2,0-0.3
		c0-0.1,0.1-0.2,0.2-0.2l0.9-0.9c-0.1,0.1-0.1,0.2-0.1,0.2c0,0.1,0,0.2,0,0.3l0,0.2c0.1,0.6,0.7,1.8,0.2,2.4l1.6,1
		c0.1,0,0.2,0.1,0.3,0.1c0.1,0,0.2,0,0.3,0l1.6-0.7c-0.1,0-0.2,0-0.3,0c-0.1,0-0.2,0-0.3-0.1L24.1,38c0.4-0.8,0.1-2-0.3-2.7
		l-0.1-0.1c0-0.1-0.1-0.2-0.1-0.3c0-0.1,0-0.2,0.1-0.3l0.6-1.1c0,0.1-0.1,0.2-0.1,0.3c0,0.1,0,0.2,0.1,0.3l0.2,0.4
		c0.1,0.2,0.2,0.3,0.3,0.6c1-0.9,1.2-1.7,0.6-2.5l-0.2-0.2c-0.1-0.1-0.1-0.2-0.1-0.2c0-0.1,0-0.2,0-0.3l0.3-1.2c0,0.1,0,0.2,0,0.3
		c0,0.1,0.1,0.2,0.1,0.2l0.6,0.7c1.2,1.4,0.5,3.1-1,4.4c0.1,0.3,0.1,0.7,0.1,1l1.9,1.2c0.1,0.1,0.2,0.1,0.3,0.1c0.1,0,0.2,0,0.3,0
		L29,38c-0.1,0-0.2,0.1-0.3,0.1c-0.4,0-0.6-0.3-0.6-0.6c0-0.3,0.2-0.5,0.4-0.6c5.2-1.6,10.1-5.7,13.2-5.7c1.5,0,2.8,0.9,2.8,2.1
		c0,0.2,0,0.4-0.1,0.5c-0.7,1.9,0.3,3.7,2.9,4.4c0.4,0.1,0.7,0.5,0.7,0.9c0,0.1,0,0.2,0,0.3c0.1,0,0.1,0,0.2,0
		c0.7,0,1.3-0.4,1.7-0.9c0.4,0,0.9,0,1.4-0.1c0.1,0.1,0.1,0.3,0.1,0.4c0.1,0.5-0.1,1-0.4,1.1c-0.6,0.2-1.3,0-1.9,0
		c-1.1,0-1.9,0.9-1.9,1.9c0,0.1,0,0.2,0,0.2c-0.3,0.2-0.6,0.6-0.6,1c0,0.2,0.1,0.4,0.2,0.6c0.3-0.4,0.8-0.7,1.2-0.9
		c0-0.9,0.8-1.7,1.8-1.7c0.1,0,0.3,0,0.4,0.1c-1,0.1-1.7,0.9-1.7,1.9c0,0.1,0,0.1,0,0.2c-0.1,0.1-0.2,0.3-0.2,0.5
		c0,0.3,0.1,0.5,0.3,0.6c0.2-0.4,0.6-0.8,1.2-1c0.4-0.1,0.8-0.2,1.1-0.1c0-0.1-0.1-0.3-0.1-0.5c0-0.8,0.7-1.5,1.5-1.5
		c0.1,0,0.2,0,0.2,0c-0.6,0.1-1,0.6-1,1.2c0,0.4,0.2,0.8,0.5,1c0,0,0,0,0,0.1c0,0.3,0.2,0.6,0.4,0.8c0.1-0.6,0.6-1,1.2-1
		c0.5,0,0.9-0.1,1.2-0.2c0.5-0.2,0.9-0.7,0.9-1.2c0-0.4-0.2-0.8-0.5-1c0.1-0.7,0.1-1.7-0.1-2.6c0,0,0.1,0,0.1,0
		C55.8,38.5,56.2,38.7,56.4,39 M29.6,50.1c0-0.1,0-0.3,0-0.4c0.1-0.3,0.3-0.5,0.6-0.5c0.3,0,0.6,0.3,0.6,0.6c0,0.2-0.1,0.3-0.2,0.4
		c0.1,0,0.2,0,0.4,0c0.3,0,0.6,0,0.9-0.1c0.4-0.1,0.8-0.5,0.8-1c0-0.6-0.5-1-1-1c0,0-0.1,0-0.1,0c0.1-0.1,0.3-0.1,0.5-0.1
		c0.7,0,1.2,0.5,1.2,1.2c0,0,0,0.1,0,0.1c1.8,0,3.8-1.7,4.2-2.3c-0.6,0.1-1.2,0.2-1.8,0.2c-0.7,0-1.4-0.1-2-0.3
		c-0.9-0.2-1.7-0.4-2.4-0.4c-2.2,0-3.9,1.4-3.9,3.2c0,1.4,1.2,2.7,2.9,3c3.8,0.8,8.2-1.5,11.9-2.2c0.9-0.9,2-1.7,3.2-2.3
		c0-0.1-0.1-0.3-0.1-0.4v0c-5,0.8-9.4,3.4-13.5,3.3C30.7,51.2,29.8,50.8,29.6,50.1 M29.5,40.9c0.1,0,0.2,0,0.2,0
		c-0.7,0.2-1.3,0.8-1.6,1.5c-0.5,0.2-0.8,0.6-0.8,1.1c0,0.2,0.1,0.5,0.2,0.6c0.4-0.4,0.9-0.8,1.5-0.9c0.2-0.9,0.9-1.5,1.8-1.6
		c-0.8,0.3-1.3,1.1-1.3,2c0,0.3,0.1,0.6,0.2,0.9c0.1-0.5,0.6-0.9,1.1-0.9c0.1,0,0.3,0,0.4,0.1c0.2,0.1,0.3,0.1,0.5,0.1
		c0.9,0,1.6-0.7,1.6-1.6c0-0.2,0-0.3-0.1-0.5c0.4,0.1,0.7,0.5,0.7,0.9c0,0.2-0.1,0.4-0.2,0.6c0.1,0,0.2,0,0.4,0c1,0,1.8-0.8,2-1.7
		c0.5-0.3,1-0.6,1.3-1.1l0.3,1.3c0,0.1,0,0.2,0,0.3c0,0.1-0.1,0.2-0.1,0.2l1.1-1.1c0.1-0.1,0.1-0.1,0.1-0.2c0-0.1,0-0.2,0-0.3
		l-0.3-1.6c0-0.1,0-0.2,0-0.3c0-0.1,0.1-0.2,0.1-0.2l0.9-0.9c-0.1,0.1-0.1,0.1-0.1,0.2c0,0.1,0,0.2,0,0.3l0.3,1.6c0,0.1,0,0.2,0,0.3
		c0,0.1-0.1,0.2-0.1,0.2l1-1c0.1-0.1,0.1-0.1,0.1-0.2c0-0.1,0-0.2,0-0.3L40.4,37c0-0.1,0-0.2,0-0.3c0-0.1,0.1-0.2,0.1-0.2l0.9-0.9
		c-0.1,0.1-0.1,0.1-0.1,0.2c0,0.1,0,0.2,0,0.3l0.3,1.6c0,0.1,0,0.2,0,0.3c0,0.1-0.1,0.2-0.1,0.2l1-1c0.1-0.1,0.1-0.1,0.1-0.2
		c0-0.1,0-0.2,0-0.3l-0.2-0.8c-0.2-0.9,0.7-1.9,1.5-2c0.1-0.2,0.1-0.4,0.1-0.5c0-0.9-1.1-1.6-2.4-1.6c-0.6,0-1.2,0.2-1.7,0.5
		c0.2,0.5,0.2,1-1.5,1.3c-1.3,0.2-2.5,0.5-3.4,1.2c-1.4,1.2-1.3,2.8-2.1,3.3c0.4,0.1,0.8,0.1,1.3,0c0.3-0.1,0.6-0.2,0.8-0.3
		c-0.1,0.3-0.5,0.6-0.9,0.7c-0.1,0.6-0.6,1.1-1.3,1.3c-0.4,0.2-0.8,0.2-1.2,0.1L30,39.4c-0.2-0.1-0.4-0.1-0.6-0.1
		c-1.2,0-2.2,0.9-2.3,2.1c-0.6,0.1-1,0.6-1,1.2c0,0.2,0.1,0.4,0.2,0.6c0.4-0.4,0.9-0.7,1.4-0.8C27.9,41.5,28.6,40.9,29.5,40.9
		 M20.9,55.7c0.1-0.5,0.1-1,0.1-1.5l-0.5,0.6c-0.1-0.2-0.2-0.4-0.2-0.5c-0.1-0.1-0.1-0.2-0.2-0.2c0,0-0.1,0-0.1,0.1
		c-0.1,0-0.1,0-0.2,0c0,0-0.1,0-0.2,0c-0.1,0-0.1,0-0.1-0.1c-0.1,0-0.1,0.1-0.2,0.2c-0.1,0.1-0.1,0.2-0.2,0.5l-0.5-0.6
		c0,0.5,0,1,0.1,1.5c0.4-0.1,0.7-0.1,1.1-0.1C20.2,55.6,20.5,55.6,20.9,55.7 M21.1,57.1c0.1-0.6-0.6-0.8-1.3-0.8
		c-0.6,0-1.3,0.2-1.3,0.8c0.1,0.7,0.8,0.4,1.3,0.4C20.3,57.5,21,57.9,21.1,57.1 M22.9,52.8c-0.1,0-0.2,0.1-0.2,0.2
		c-0.1,0.7-0.4,1-0.8,1.2c0,0.7-0.1,1.3-0.3,1.9c0.5,1.1,0.1,1.9-0.3,2.1c-0.4,0.2-1-0.1-1.4-0.1c-0.5,0-1,0.2-1.5,0.1
		c-0.4-0.2-0.9-1-0.3-2.1c-0.2-0.7-0.3-1.2-0.3-1.9C17.3,54,17,53.8,16.9,53c0-0.1-0.1-0.2-0.2-0.2c-1.8-0.5-2-2.7-1.1-3.4
		c-0.1,1-0.2,2.4,1.9,2.6c0,1.2,0.5,1.5,1,1.5c0.4,0,0.7-0.1,0.8-0.2c0.4-0.2,0.1-0.5,0-0.6c-0.3-0.2-0.4-0.6-0.3-0.9
		c0-0.1,0-0.1,0.1-0.1h0.7h0.7c0.1,0,0.1,0,0.1,0.1c0.1,0.3-0.1,0.7-0.3,0.9c-0.1,0.1-0.4,0.4,0,0.6c0.1,0.1,0.4,0.2,0.8,0.2
		c0.5,0,1-0.3,1-1.5c2.1-0.2,2-1.6,1.9-2.6C24.9,50.1,24.7,52.3,22.9,52.8 M23.5,48.9c0,0.5-0.4,1.1-0.8,1.1h-0.4
		c0.1,0.1,0.2,0.3,0.2,0.4c0,0.4-0.3,0.7-0.7,0.7c-0.4,0-0.7-0.3-0.7-0.7c0-0.2,0.1-0.3,0.2-0.4h-0.4c-0.1,0-0.3,0.1-0.3,0.2
		c0-0.2-0.1-0.5,0-0.6c0.1-0.2,0.2-0.3,0.4-0.3h1.8C23,49.3,23.2,49.1,23.5,48.9 M23.2,48h-0.6c-0.3,0-0.5-0.1-0.7-0.3l-0.7-0.9
		c-0.1-0.1-0.2-0.3-0.4-0.3h0.7c0.2,0,0.4,0.1,0.6,0.3l0.8,1C23,47.9,23,48,23.2,48 M19.9,46.5l0.9,1.3c0.1,0.2,0.3,0.3,0.5,0.4
		h-0.8c-0.3,0-0.5-0.1-0.7-0.4l-0.7-1.1c-0.3-0.4-0.4-0.5-0.7-0.6h0.8C19.5,46,19.8,46.2,19.9,46.5 M17.8,46.7l0.8,1
		c0.2,0.2,0.2,0.3,0.4,0.4h-0.6c-0.3,0-0.5-0.1-0.7-0.3l-0.7-0.9c-0.1-0.1-0.2-0.3-0.4-0.3h0.7C17.5,46.4,17.7,46.5,17.8,46.7
		 M17.4,50H17c-0.4,0-0.8-0.6-0.8-1.1c0.2,0.3,0.5,0.4,0.8,0.4h1.8c0.2,0,0.3,0.1,0.4,0.3c0.1,0.2,0,0.4,0,0.6
		C19.1,50,19,50,18.9,50h-0.4c0.1,0.1,0.2,0.3,0.2,0.4c0,0.4-0.3,0.7-0.7,0.7c-0.4,0-0.7-0.3-0.7-0.7C17.2,50.2,17.3,50.1,17.4,50
		 M15.1,58.6l0.2-0.4c0-0.1,0.1-0.2,0.1-0.3c0-0.1,0-0.2-0.1-0.3l0.6,1.1c0,0.1,0.1,0.2,0.1,0.3c0,0.1,0,0.2-0.1,0.3l-0.1,0.1
		c-0.4,0.7-0.7,2.1-0.3,2.8c-0.9-0.3-1.2-1.1-1.1-1.8c-1.7-1.6-2.1-3.2-0.9-4.6l0.6-0.7c0.1-0.1,0.1-0.2,0.1-0.2c0-0.1,0-0.2,0-0.3
		l0.3,1.2c0,0.1,0,0.2,0,0.3c0,0.1-0.1,0.2-0.1,0.2l-0.2,0.2c-0.6,0.7-0.5,1.7,0.5,2.6C15,59,15,58.8,15.1,58.6 M56.4,63.1
		c0.1-0.2,0.1-0.3,0.1-0.5c0-0.8-0.6-1.4-1.4-1.4h-1.4c-0.1,0-0.2,0-0.3-0.1c-0.1,0-0.1-0.1-0.2-0.2l-0.7-1c0.1,0.1,0.1,0.1,0.2,0.2
		c0.1,0,0.2,0.1,0.3,0.1l1.8,0c0.1,0,0.2,0,0.3,0.1c0.1,0,0.1,0.1,0.2,0.2l-0.8-1.2c-0.1-0.1-0.1-0.1-0.2-0.2C54.2,59,54.1,59,54,59
		l-1.8,0c-0.1,0-0.2,0-0.3-0.1c-0.1,0-0.1-0.1-0.2-0.2L51,57.6c0.1,0.1,0.1,0.1,0.2,0.2c0.1,0,0.2,0.1,0.3,0.1l1.8,0
		c0.1,0,0.2,0,0.3,0.1c0.1,0,0.1,0.1,0.2,0.2l-0.8-1.2c-0.1-0.1-0.1-0.1-0.2-0.2c-0.1,0-0.2-0.1-0.3-0.1H51c-0.1,0-0.2,0-0.3-0.1
		c-0.1,0-0.1-0.1-0.2-0.2l-1-1.4c1.9-0.2,3.5-1.3,3.8-2.7c0.4-1.9-1.5-3.7-4.2-4.1c-0.5-0.1-0.8-0.5-0.8-0.9c0-0.4,0.3-0.8,0.6-0.9
		c-0.3-0.1-0.6-0.2-1-0.2c-1.2,0-2.2,0.9-2.2,1.9c0,0.2,0,0.4,0.1,0.6c-1.3,0.6-2.6,1.6-3.5,2.7c1-0.3,2.1-0.4,3.1-0.4
		c0-0.1,0-0.1,0-0.2c0-0.8,0.7-1.5,1.5-1.5h0c-0.6,0.2-0.8,0.8-0.8,1.1c0,0.4,0.3,0.8,0.8,0.8c0.2,0,0.3-0.1,0.4-0.1
		c0-0.1,0-0.2,0-0.3c0-0.6,0.5-1.1,1.1-1.1c0.1,0,0.1,0,0.2,0c-0.4,0.2-0.7,0.6-0.7,1.1c0,0.7,0.5,1.2,1.2,1.2c0.1,0,0.1,0,0.2,0
		c0-0.1,0-0.1,0-0.2c0-0.5,0.4-0.8,0.8-0.8c0.5,0,0.8,0.4,0.8,0.8c0,1-1.1,1.1-2,0.9c-2.3-0.7-4.5-1-6.7-0.7
		c-2.7,0.4-7.2,2.2-11.9,2.1c-1.1,0-2.2-0.2-3.4-0.5c0.1,0.2,0.2,0.3,0.3,0.4c0.5,0.7,0.6,1.5,0.2,2.4c0-1.1-0.9-1.9-1.6-2.5
		c-0.3-0.2-0.4-0.4-0.4-0.7l0.2-1.2c0,0.1,0,0.2,0,0.3c0,0.1,0.1,0.2,0.1,0.2l0.5,0.4c0.2-1.2-0.1-2.4-0.8-3.5
		c0.3-0.9,0.4-1.8,0.2-2.7c-0.1,0.7-0.4,1-0.7,1.1c-0.6,0.4-0.7,1-0.4,1.4c-0.5-0.2-1.2-1.2-0.8-1.7c0.4-0.6,1.6-0.3,1.7-1.3
		c-0.7-0.2-1.5-0.1-1.7,0c-0.4-0.5-1-0.8-1.8-0.8c-0.6-0.5-1.3-0.7-2.2-0.7c-0.9-0.1-1.6,0.1-2.2,0.7c-0.7,0-1.3,0.2-1.8,0.8
		c-0.2-0.1-1-0.2-1.7,0c0.1,1,1.3,0.7,1.7,1.3c0.4,0.5-0.3,1.4-0.8,1.7c0.3-0.4,0.2-1-0.4-1.4c-0.3-0.2-0.6-0.5-0.7-1.1
		c-0.2,0.9-0.2,1.8,0.2,2.7c-0.7,1.1-1,2.2-0.8,3.5l0.5-0.4c0.1-0.1,0.1-0.1,0.1-0.2c0-0.1,0-0.2,0-0.3l0.2,1.2
		c0,0.3-0.1,0.5-0.4,0.7c-0.7,0.5-1.6,1.4-1.6,2.5c-0.4-0.9-0.2-1.7,0.2-2.4c-1.4-0.8-2.5-2-2.6-2.2c-0.4-0.5-0.4-1.1,0-1.7
		c0.7-1.1,0.9-2.2,0-2.9c0-0.1,0-0.1,0-0.2c0-0.7-0.5-1.3-1.2-1.4c0.1,0.2,0.2,0.4,0.2,0.7c0,0.3-0.1,0.5-0.2,0.7
		c0.1,0.2,0.2,0.4,0.2,0.6c0,0.3-0.1,0.6-0.4,0.8c0-0.1,0-0.2,0-0.3c0-0.7-0.4-1.3-1-1.5c-0.1-0.5-0.6-0.9-1.1-0.9
		c-0.3,0-0.6,0.1-0.8,0.3c0.4,0,0.8,0.4,0.8,0.8c-0.2,0.2-0.4,0.4-0.5,0.6h0c0.7,0,1.3,0.6,1.3,1.3c0,0.1,0,0.2,0,0.2
		C7,48.5,6.9,48.2,6.7,48c-0.4-0.4-1-0.5-1.6-0.3c-0.2-0.3-0.5-0.4-0.9-0.4c-0.4,0-0.8,0.2-1,0.5c0.4,0,0.8,0.2,1,0.5
		c-0.6,0.7-0.6,1.8,0,2.3c0.4,0.4,1,0.5,1.5,0.3c0,0,0.1,0,0.1,0c0.2,0,0.4,0.2,0.4,0.4c0,0.2-0.2,0.4-0.4,0.4c-0.1,0-0.2,0-0.2-0.1
		c-0.1-0.1-0.3-0.2-0.5-0.2c-0.4,0-0.8,0.3-0.8,0.8c0,0,0,0.1,0,0.1c-0.1,0-0.2,0-0.2,0c-0.2,0-0.4-0.1-0.5-0.2c0,0.1,0,0.2,0,0.3
		c0,0.5,0.4,1,1,1c0.2,0.6,0.8,1,1.5,1c0.4,0,0.7-0.1,0.9-0.3C7.1,54,7.3,54,7.4,54c0.4,0,0.7,0.3,0.7,0.7c0,0.3-0.2,0.6-0.6,0.7
		L7,55.5c-0.1,0-0.2,0-0.3,0c-0.1,0-0.2-0.1-0.2-0.1l1.3,1.2C7.9,56.6,8,56.7,8,56.7c0.1,0,0.2,0,0.3,0l1-0.2c0.1,0,0.2,0,0.3,0
		c0.1,0,0.2,0.1,0.2,0.1l0.9,0.8c-0.1-0.1-0.1-0.1-0.2-0.1c-0.1,0-0.2,0-0.3,0l-1,0.2c-0.1,0-0.2,0-0.3,0c-0.1,0-0.2-0.1-0.2-0.1
		l1.2,1.1c0.1,0.1,0.1,0.1,0.2,0.1c0.1,0,0.2,0,0.3,0l1-0.2c0.1,0,0.2,0,0.3,0c0.1,0,0.2,0.1,0.2,0.1l0.9,0.8
		c-0.1-0.1-0.1-0.1-0.2-0.1c-0.1,0-0.2,0-0.3,0l-1,0.2c-0.1,0-0.2,0-0.3,0c-0.1,0-0.2-0.1-0.2-0.1l1.2,1.1c0.1,0.1,0.1,0.1,0.2,0.1
		c0.1,0,0.2,0,0.3,0l1.3-0.3c-1.2,0.7-2.5,1.5-3.9,2.4C8.9,63.2,8,63.3,7,62.9c-0.6-0.2-1.2-0.2-1.5-0.2c-0.5,0.1-0.9,0.4-1.2,0.8
		c0.2-0.1,0.4-0.1,0.6-0.1c0.5,0,0.9,0.2,1.2,0.5c-0.5-0.2-1.1-0.2-1.6,0c-1,0.4-1.6,1.3-1.4,2.2c-0.4,0.1-0.7,0.5-0.7,1
		c0,0.3,0.1,0.5,0.3,0.7c0.1-0.5,0.5-0.8,1-0.8c0.2,0.1,0.4,0.2,0.7,0.3c0.1-0.1,0.2-0.3,0.3-0.4c0-0.1,0-0.2,0-0.3
		c0-0.9,0.8-1.7,1.7-1.7c0.1,0,0.2,0,0.2,0c-0.7,0.2-1.3,0.9-1.3,1.7c0,0.1,0,0.2,0,0.3c-0.4,0.2-0.7,0.5-0.7,1
		c0,0.3,0.1,0.5,0.3,0.7c0.3-0.6,0.9-1,1.5-1c0.2,0.1,0.5,0.1,0.8,0.1c0.2,0,0.3,0,0.5,0c-0.1-0.2-0.2-0.5-0.2-0.7
		c0-0.7,0.6-1.3,1.3-1.3c0.1,0,0.1,0,0.2,0c-0.7,0.3-1.1,0.9-1,1.5c0.1,0.4,0.5,0.7,1,0.8c0,0.3-0.1,0.6-0.2,0.8
		c0.6,0,1.1-0.4,1.4-0.9c0.7-0.3,1.2-0.9,1-1.5c-0.1-0.2-0.2-0.4-0.3-0.5c0,0,0,0,0-0.1c0-0.4,0.3-0.7,0.7-0.7
		c0.4,0,0.7,0.3,0.7,0.7c0,0.2-0.1,0.4-0.2,0.5h1.5c0.1,0,0.2,0,0.3-0.1c0.1,0,0.1-0.1,0.2-0.2l0.9-1.4c0-0.1,0.1-0.1,0.1-0.1
		c0.1,0,0.1,0,0.2,0h1.2c-0.1,0-0.1,0-0.2,0c-0.1,0-0.1,0.1-0.1,0.1l-0.9,1.4C15,65.9,15,66,14.9,66c-0.1,0-0.2,0.1-0.3,0.1h1.8
		c0.1,0,0.2,0,0.3-0.1c0.1,0,0.1-0.1,0.2-0.2l1.1-1.6c-0.7-0.4-1-1.1-1-2.1c0-0.6,0.3-1.3,0.4-1.7l0-0.2c0-0.1,0-0.2,0-0.3
		c0-0.1-0.1-0.2-0.1-0.2l0.9,0.9c0.1,0.1,0.1,0.1,0.2,0.2c0,0.1,0,0.2,0,0.3l0,0.2c0,0.4-0.5,1.2,0.4,1.9c0,0,0.1,0.1,0.3,0.2
		l0.6,0.4v-2.3h0.9v2.5c0,0.1,0,0.2,0.1,0.3c0,0.1,0.1,0.1,0.2,0.2l0.8,0.5c0.1,0,0.2,0.1,0.3,0.1c0.1,0,0.2,0,0.3,0l1.5-0.7
		c-0.1,0-0.2,0.1-0.3,0c-0.1,0-0.2,0-0.3-0.1l-1.8-1.1c0.9-0.7,0.4-1.5,0.4-1.9l0-0.2c0-0.1,0-0.2,0-0.3c0-0.1,0.1-0.2,0.2-0.2
		l0.9-0.9c-0.1,0.1-0.1,0.2-0.1,0.2c0,0.1,0,0.2,0,0.3l0,0.2c0.1,0.6,0.7,1.8,0.2,2.4l1.6,1c0.1,0,0.2,0.1,0.3,0.1
		c0.1,0,0.2,0,0.3,0l1.6-0.7c-0.1,0-0.2,0-0.3,0c-0.1,0-0.2,0-0.3-0.1l-1.8-1.1c0.4-0.8,0.1-2-0.3-2.7l-0.1-0.1
		c0-0.1-0.1-0.2-0.1-0.3c0-0.1,0-0.2,0.1-0.3l0.6-1.1c0,0.1-0.1,0.2-0.1,0.3c0,0.1,0,0.2,0.1,0.3l0.2,0.4c0.1,0.2,0.2,0.3,0.3,0.6
		c1-0.9,1.2-1.7,0.6-2.5l-0.2-0.2c-0.1-0.1-0.1-0.2-0.1-0.2c0-0.1,0-0.2,0-0.3l0.3-1.2c0,0.1,0,0.2,0,0.3c0,0.1,0.1,0.2,0.1,0.2
		l0.6,0.7c1.2,1.4,0.5,3.1-1,4.4c0.1,0.3,0.1,0.7,0.1,1l1.9,1.2c0.1,0,0.2,0.1,0.3,0.1c0.1,0,0.2,0,0.3,0l1.4-0.6
		c-0.1,0-0.2,0.1-0.3,0.1c-0.4,0-0.6-0.3-0.6-0.6c0-0.3,0.2-0.5,0.4-0.6c5.2-1.6,10.1-5.7,13.2-5.7c1.5,0,2.8,0.9,2.8,2.1
		c0,0.2,0,0.4-0.1,0.5c-0.7,1.9,0.3,3.7,2.9,4.4c0.4,0.1,0.7,0.5,0.7,0.9c0,0.1,0,0.2,0,0.3c0.1,0,0.1,0,0.2,0
		c0.7,0,1.3-0.4,1.7-0.9c0.4,0,0.9,0,1.4-0.1c0.1,0.1,0.1,0.3,0.1,0.4c0.1,0.5-0.1,1-0.4,1.1c-0.6,0.2-1.3,0-1.9,0
		c-1.1,0-1.9,0.9-1.9,1.9c0,0.1,0,0.2,0,0.2c-0.3,0.2-0.6,0.6-0.6,1c0,0.2,0.1,0.4,0.2,0.6c0.3-0.4,0.8-0.7,1.2-0.9
		c0-0.9,0.8-1.7,1.8-1.7c0.1,0,0.3,0,0.4,0.1c-1,0.1-1.7,0.9-1.7,1.9c0,0.1,0,0.1,0,0.2c-0.1,0.1-0.2,0.3-0.2,0.5
		c0,0.3,0.1,0.5,0.3,0.6c0.2-0.4,0.6-0.8,1.2-1c0.4-0.1,0.8-0.2,1.1-0.1c0-0.1-0.1-0.3-0.1-0.5c0-0.8,0.7-1.5,1.5-1.5
		c0.1,0,0.2,0,0.2,0c-0.6,0.1-1,0.6-1,1.2c0,0.4,0.2,0.8,0.5,1c0,0,0,0,0,0.1c0,0.3,0.2,0.6,0.4,0.8c0.1-0.6,0.6-1,1.2-1
		c0.5,0,0.9-0.1,1.2-0.2c0.5-0.2,0.9-0.7,0.9-1.2c0-0.4-0.2-0.8-0.5-1c0.1-0.7,0.1-1.7-0.1-2.6c0,0,0.1,0,0.1,0
		C55.8,62.6,56.2,62.8,56.4,63.1 M29.6,74.1c0-0.1,0-0.3,0-0.4c0.1-0.3,0.3-0.5,0.6-0.5c0.3,0,0.6,0.3,0.6,0.6
		c0,0.2-0.1,0.3-0.2,0.4c0.1,0,0.2,0,0.4,0c0.3,0,0.6,0,0.9-0.1c0.4-0.1,0.8-0.5,0.8-1c0-0.6-0.5-1-1-1c0,0-0.1,0-0.1,0
		c0.1-0.1,0.3-0.1,0.5-0.1c0.7,0,1.2,0.5,1.2,1.2c0,0,0,0.1,0,0.1c1.8,0,3.8-1.7,4.2-2.3c-0.6,0.1-1.2,0.2-1.8,0.2
		c-0.7,0-1.4-0.1-2-0.3c-0.9-0.2-1.7-0.4-2.4-0.4c-2.2,0-3.9,1.4-3.9,3.2c0,1.4,1.2,2.7,2.9,3c3.8,0.8,8.2-1.5,11.9-2.2
		c0.9-0.9,2-1.7,3.2-2.3c0-0.1-0.1-0.3-0.1-0.4v0c-5,0.8-9.4,3.4-13.5,3.3C30.7,75.3,29.8,74.9,29.6,74.1 M29.5,65
		c0.1,0,0.2,0,0.2,0c-0.7,0.2-1.3,0.8-1.6,1.5c-0.5,0.2-0.8,0.6-0.8,1.1c0,0.2,0.1,0.5,0.2,0.6c0.4-0.4,0.9-0.8,1.5-0.9
		c0.2-0.9,0.9-1.5,1.8-1.6c-0.8,0.3-1.3,1.1-1.3,2c0,0.3,0.1,0.6,0.2,0.9c0.1-0.5,0.6-0.9,1.1-0.9c0.1,0,0.3,0,0.4,0.1
		c0.2,0.1,0.3,0.1,0.5,0.1c0.9,0,1.6-0.7,1.6-1.6c0-0.2,0-0.3-0.1-0.5c0.4,0.1,0.7,0.5,0.7,0.9c0,0.2-0.1,0.4-0.2,0.6
		c0.1,0,0.2,0,0.4,0c1,0,1.8-0.8,2-1.7c0.5-0.3,1-0.6,1.3-1.1l0.3,1.3c0,0.1,0,0.2,0,0.3c0,0.1-0.1,0.2-0.1,0.2l1.1-1.1
		c0.1-0.1,0.1-0.1,0.1-0.2c0-0.1,0-0.2,0-0.3L38.5,63c0-0.1,0-0.2,0-0.3c0-0.1,0.1-0.2,0.1-0.2l0.9-0.9c-0.1,0.1-0.1,0.1-0.1,0.2
		c0,0.1,0,0.2,0,0.3l0.3,1.6c0,0.1,0,0.2,0,0.3c0,0.1-0.1,0.2-0.1,0.2l1-1c0.1-0.1,0.1-0.1,0.1-0.2c0-0.1,0-0.2,0-0.3l-0.3-1.6
		c0-0.1,0-0.2,0-0.3c0-0.1,0.1-0.2,0.1-0.2l0.9-0.9c-0.1,0.1-0.1,0.1-0.1,0.2c0,0.1,0,0.2,0,0.3l0.3,1.6c0,0.1,0,0.2,0,0.3
		c0,0.1-0.1,0.2-0.1,0.2l1-1c0.1-0.1,0.1-0.1,0.1-0.2c0-0.1,0-0.2,0-0.3L42.4,60c-0.2-0.9,0.7-1.9,1.5-2c0.1-0.2,0.1-0.4,0.1-0.5
		c0-0.9-1.1-1.6-2.4-1.6c-0.6,0-1.2,0.2-1.7,0.5c0.2,0.5,0.2,1-1.5,1.3c-1.3,0.2-2.5,0.5-3.4,1.2c-1.4,1.2-1.3,2.8-2.1,3.3
		c0.4,0.1,0.8,0.1,1.3,0c0.3-0.1,0.6-0.2,0.8-0.3c-0.1,0.3-0.5,0.6-0.9,0.7c-0.1,0.6-0.6,1.1-1.3,1.3C32.4,64,32,64,31.6,63.9
		L30,63.5c-0.2-0.1-0.4-0.1-0.6-0.1c-1.2,0-2.2,0.9-2.3,2.1c-0.6,0.1-1,0.6-1,1.2c0,0.2,0.1,0.4,0.2,0.6c0.4-0.4,0.9-0.7,1.4-0.8
		C27.9,65.6,28.6,65,29.5,65 M20.9,79.8c0.1-0.5,0.1-1,0.1-1.5l-0.5,0.6c-0.1-0.2-0.2-0.4-0.2-0.5c-0.1-0.1-0.1-0.2-0.2-0.2
		c0,0-0.1,0-0.1,0.1c-0.1,0-0.1,0-0.2,0c0,0-0.1,0-0.2,0c-0.1,0-0.1,0-0.1-0.1c-0.1,0-0.1,0.1-0.2,0.2c-0.1,0.1-0.1,0.2-0.2,0.5
		l-0.5-0.6c0,0.5,0,1,0.1,1.5c0.4-0.1,0.7-0.1,1.1-0.1C20.2,79.7,20.5,79.7,20.9,79.8 M21.1,81.2c0.1-0.6-0.6-0.8-1.3-0.8
		c-0.6,0-1.3,0.2-1.3,0.8c0.1,0.7,0.8,0.4,1.3,0.4C20.3,81.6,21,82,21.1,81.2 M22.9,76.9c-0.1,0-0.2,0.1-0.2,0.2
		c-0.1,0.7-0.4,1-0.8,1.2c0,0.7-0.1,1.3-0.3,1.9c0.5,1.1,0.1,1.9-0.3,2.1c-0.4,0.2-1-0.1-1.4-0.1c-0.5,0-1,0.2-1.5,0.1
		c-0.4-0.2-0.9-1-0.3-2.1c-0.2-0.7-0.3-1.2-0.3-1.9c-0.5-0.2-0.7-0.4-0.8-1.2c0-0.1-0.1-0.2-0.2-0.2c-1.8-0.5-2-2.7-1.1-3.4
		c-0.1,1-0.2,2.4,1.9,2.6c0,1.2,0.5,1.5,1,1.5c0.4,0,0.7-0.1,0.8-0.2c0.4-0.2,0.1-0.5,0-0.6c-0.3-0.2-0.4-0.6-0.3-0.9
		c0-0.1,0-0.1,0.1-0.1h0.7h0.7c0.1,0,0.1,0,0.1,0.1c0.1,0.3-0.1,0.7-0.3,0.9c-0.1,0.1-0.4,0.4,0,0.6c0.1,0.1,0.4,0.2,0.8,0.2
		c0.5,0,1-0.3,1-1.5c2.1-0.2,2-1.6,1.9-2.6C24.9,74.2,24.7,76.4,22.9,76.9 M23.5,73c0,0.5-0.4,1.1-0.8,1.1h-0.4
		c0.1,0.1,0.2,0.3,0.2,0.4c0,0.4-0.3,0.7-0.7,0.7c-0.4,0-0.7-0.3-0.7-0.7c0-0.2,0.1-0.3,0.2-0.4h-0.4c-0.1,0-0.3,0.1-0.3,0.2
		c0-0.2-0.1-0.5,0-0.6c0.1-0.2,0.2-0.3,0.4-0.3h1.8C23,73.3,23.2,73.2,23.5,73 M23.2,72.1h-0.6c-0.3,0-0.5-0.1-0.7-0.3l-0.7-0.9
		c-0.1-0.1-0.2-0.3-0.4-0.3h0.7c0.2,0,0.4,0.1,0.6,0.3l0.8,1C23,71.9,23,72.1,23.2,72.1 M19.9,70.6l0.9,1.3c0.1,0.2,0.3,0.3,0.5,0.4
		h-0.8c-0.3,0-0.5-0.2-0.7-0.4l-0.7-1.1c-0.3-0.4-0.4-0.5-0.7-0.6h0.8C19.5,70.1,19.8,70.3,19.9,70.6 M17.8,70.8l0.8,1
		c0.2,0.2,0.2,0.3,0.4,0.4h-0.6c-0.3,0-0.5-0.1-0.7-0.3l-0.7-0.9c-0.1-0.1-0.2-0.3-0.4-0.3h0.7C17.5,70.5,17.7,70.6,17.8,70.8
		 M17.4,74.1H17c-0.4,0-0.8-0.6-0.8-1.1c0.2,0.3,0.5,0.4,0.8,0.4h1.8c0.2,0,0.3,0.1,0.4,0.3c0.1,0.2,0,0.4,0,0.6
		c-0.1-0.2-0.2-0.2-0.3-0.2h-0.4c0.1,0.1,0.2,0.3,0.2,0.4c0,0.4-0.3,0.7-0.7,0.7c-0.4,0-0.7-0.3-0.7-0.7
		C17.2,74.3,17.3,74.2,17.4,74.1 M15.1,82.7l0.2-0.4c0-0.1,0.1-0.2,0.1-0.3c0-0.1,0-0.2-0.1-0.3l0.6,1.1c0,0.1,0.1,0.2,0.1,0.3
		c0,0.1,0,0.2-0.1,0.3l-0.1,0.1c-0.4,0.7-0.7,2.1-0.3,2.8c-0.9-0.3-1.2-1.1-1.1-1.8c-1.7-1.6-2.1-3.2-0.9-4.6l0.6-0.7
		c0.1-0.1,0.1-0.2,0.1-0.2c0-0.1,0-0.2,0-0.3l0.3,1.2c0,0.1,0,0.2,0,0.3c0,0.1-0.1,0.2-0.1,0.2l-0.2,0.2c-0.6,0.7-0.5,1.7,0.5,2.6
		C15,83.1,15,82.9,15.1,82.7 M56.4,87.2c0.1-0.2,0.1-0.3,0.1-0.5c0-0.8-0.6-1.4-1.4-1.4h-1.4c-0.1,0-0.2,0-0.3-0.1
		c-0.1,0-0.1-0.1-0.2-0.2l-0.7-1c0.1,0.1,0.1,0.1,0.2,0.2c0.1,0,0.2,0.1,0.3,0.1l1.8,0c0.1,0,0.2,0,0.3,0.1c0.1,0,0.1,0.1,0.2,0.2
		l-0.8-1.2c-0.1-0.1-0.1-0.1-0.2-0.2c-0.1,0-0.2-0.1-0.3-0.1l-1.8,0c-0.1,0-0.2,0-0.3-0.1c-0.1,0-0.1-0.1-0.2-0.2L51,81.7
		c0.1,0.1,0.1,0.1,0.2,0.2c0.1,0,0.2,0.1,0.3,0.1h1.8c0.1,0,0.2,0,0.3,0.1c0.1,0,0.1,0.1,0.2,0.2l-0.8-1.2c-0.1-0.1-0.1-0.1-0.2-0.2
		c-0.1,0-0.2-0.1-0.3-0.1H51c-0.1,0-0.2,0-0.3-0.1c-0.1,0-0.1-0.1-0.2-0.2l-1-1.4c1.9-0.2,3.5-1.3,3.8-2.7c0.4-1.9-1.5-3.7-4.2-4.1
		c-0.5-0.1-0.8-0.5-0.8-0.9c0-0.4,0.3-0.7,0.6-0.9c-0.3-0.1-0.6-0.2-1-0.2c-1.2,0-2.2,0.9-2.2,1.9c0,0.2,0,0.4,0.1,0.6
		c-1.3,0.6-2.6,1.6-3.5,2.7c1-0.3,2.1-0.4,3.1-0.4c0-0.1,0-0.1,0-0.2c0-0.8,0.7-1.5,1.5-1.5h0c-0.6,0.2-0.8,0.8-0.8,1.1
		c0,0.4,0.3,0.8,0.8,0.8c0.2,0,0.3-0.1,0.4-0.1c0-0.1,0-0.2,0-0.3c0-0.6,0.5-1.1,1.1-1.1c0.1,0,0.1,0,0.2,0
		c-0.4,0.2-0.7,0.6-0.7,1.1c0,0.7,0.5,1.2,1.2,1.2c0.1,0,0.1,0,0.2,0c0-0.1,0-0.1,0-0.2c0-0.5,0.4-0.8,0.8-0.8
		c0.5,0,0.8,0.4,0.8,0.8c0,1-1.1,1.1-2,0.9c-2.3-0.7-4.5-1-6.7-0.7c-2.7,0.4-7.2,2.2-11.9,2.1c-1.1,0-2.2-0.2-3.4-0.5
		c0.1,0.2,0.2,0.3,0.3,0.4c0.5,0.7,0.6,1.5,0.2,2.4c0-1.1-0.9-1.9-1.6-2.5c-0.3-0.2-0.4-0.4-0.4-0.7l0.2-1.2c0,0.1,0,0.2,0,0.3
		c0,0.1,0.1,0.2,0.1,0.2l0.5,0.4c0.2-1.2-0.1-2.4-0.8-3.5c0.3-0.9,0.4-1.8,0.2-2.7c-0.1,0.7-0.4,1-0.7,1.1c-0.6,0.4-0.7,1-0.4,1.4
		c-0.5-0.2-1.2-1.2-0.8-1.7c0.4-0.6,1.6-0.3,1.7-1.3c-0.7-0.2-1.5-0.1-1.7,0c-0.4-0.5-1-0.8-1.8-0.8c-0.6-0.5-1.3-0.7-2.2-0.7
		c-0.9-0.1-1.6,0.1-2.2,0.7c-0.7,0-1.3,0.2-1.8,0.8c-0.2-0.1-1-0.2-1.7,0c0.1,1,1.3,0.7,1.7,1.3c0.4,0.5-0.3,1.4-0.8,1.7
		c0.3-0.4,0.2-1-0.4-1.4c-0.3-0.2-0.6-0.5-0.7-1.1c-0.2,0.9-0.2,1.8,0.2,2.7c-0.7,1.1-1,2.2-0.8,3.5l0.5-0.4
		c0.1-0.1,0.1-0.1,0.1-0.2c0-0.1,0-0.2,0-0.3l0.2,1.2c0,0.3-0.1,0.5-0.4,0.7c-0.7,0.5-1.6,1.4-1.6,2.5c-0.4-0.9-0.2-1.7,0.2-2.4
		c-1.4-0.8-2.5-2-2.6-2.2c-0.4-0.5-0.4-1.1,0-1.7c0.7-1.1,0.9-2.2,0-2.9c0-0.1,0-0.1,0-0.2c0-0.7-0.5-1.3-1.2-1.4
		c0.1,0.2,0.2,0.4,0.2,0.7c0,0.3-0.1,0.5-0.2,0.7c0.1,0.2,0.2,0.4,0.2,0.6c0,0.3-0.1,0.6-0.4,0.8c0-0.1,0-0.2,0-0.3
		c0-0.7-0.4-1.3-1-1.5c-0.1-0.5-0.6-0.9-1.1-0.9c-0.3,0-0.6,0.1-0.8,0.3c0.4,0,0.8,0.4,0.8,0.8C6,70.8,5.9,71,5.8,71.3h0
		c0.7,0,1.3,0.6,1.3,1.3c0,0.1,0,0.2,0,0.2c-0.1-0.3-0.2-0.6-0.4-0.8c-0.4-0.4-1-0.5-1.6-0.3c-0.2-0.3-0.5-0.4-0.9-0.4
		c-0.4,0-0.8,0.2-1,0.5c0.4,0,0.8,0.2,1,0.5c-0.6,0.7-0.6,1.8,0,2.3c0.4,0.4,1,0.5,1.5,0.3c0,0,0.1,0,0.1,0c0.2,0,0.4,0.2,0.4,0.4
		c0,0.2-0.2,0.4-0.4,0.4c-0.1,0-0.2,0-0.2-0.1c-0.1-0.1-0.3-0.2-0.5-0.2c-0.4,0-0.8,0.3-0.8,0.8c0,0,0,0.1,0,0.1c-0.1,0-0.2,0-0.2,0
		c-0.2,0-0.4-0.1-0.5-0.2c0,0.1,0,0.2,0,0.3c0,0.5,0.4,1,1,1c0.2,0.6,0.8,1,1.5,1c0.4,0,0.7-0.1,0.9-0.3c0.1-0.1,0.3-0.1,0.4-0.1
		c0.4,0,0.7,0.3,0.7,0.7c0,0.3-0.2,0.6-0.6,0.7L7,79.6c-0.1,0-0.2,0-0.3,0c-0.1,0-0.2-0.1-0.2-0.1l1.3,1.2C7.9,80.7,8,80.8,8,80.8
		c0.1,0,0.2,0,0.3,0l1-0.2c0.1,0,0.2,0,0.3,0c0.1,0,0.2,0.1,0.2,0.1l0.9,0.8c-0.1-0.1-0.1-0.1-0.2-0.1c-0.1,0-0.2,0-0.3,0l-1,0.2
		c-0.1,0-0.2,0-0.3,0c-0.1,0-0.2-0.1-0.2-0.1l1.2,1.1c0.1,0.1,0.1,0.1,0.2,0.1c0.1,0,0.2,0,0.3,0l1-0.2c0.1,0,0.2,0,0.3,0
		c0.1,0,0.2,0.1,0.2,0.1l0.9,0.8c-0.1-0.1-0.1-0.1-0.2-0.1c-0.1,0-0.2,0-0.3,0l-1,0.2c-0.1,0-0.2,0-0.3,0c-0.1,0-0.2-0.1-0.2-0.1
		l1.2,1.1c0.1,0.1,0.1,0.1,0.2,0.1c0.1,0,0.2,0,0.3,0l1.3-0.3c-1.2,0.7-2.5,1.5-3.9,2.4C8.9,87.3,8,87.4,7,87
		c-0.6-0.2-1.2-0.2-1.5-0.2c-0.5,0.1-0.9,0.4-1.2,0.8c0.2-0.1,0.4-0.1,0.6-0.1c0.5,0,0.9,0.2,1.2,0.5c-0.5-0.2-1.1-0.2-1.6,0
		c-1,0.4-1.6,1.3-1.4,2.2c-0.4,0.2-0.7,0.5-0.7,1c0,0.3,0.1,0.5,0.3,0.7c0.1-0.5,0.5-0.8,1-0.8c0.2,0.1,0.4,0.2,0.7,0.3
		c0.1-0.1,0.2-0.3,0.3-0.4c0-0.1,0-0.2,0-0.3c0-0.9,0.8-1.7,1.7-1.7c0.1,0,0.2,0,0.2,0c-0.7,0.2-1.3,0.9-1.3,1.7c0,0.1,0,0.2,0,0.3
		c-0.4,0.2-0.7,0.5-0.7,1c0,0.3,0.1,0.5,0.3,0.7c0.3-0.6,0.9-1,1.5-1c0.2,0.1,0.5,0.1,0.8,0.1c0.2,0,0.3,0,0.5,0
		c-0.1-0.2-0.2-0.5-0.2-0.8c0-0.7,0.6-1.3,1.3-1.3c0.1,0,0.1,0,0.2,0c-0.7,0.3-1.1,0.9-1,1.5c0.1,0.4,0.5,0.7,1,0.8
		c0,0.3-0.1,0.6-0.2,0.8c0.6,0,1.1-0.4,1.4-0.9c0.7-0.3,1.2-0.9,1-1.5c-0.1-0.2-0.2-0.4-0.3-0.5c0,0,0,0,0-0.1
		c0-0.4,0.3-0.7,0.7-0.7c0.4,0,0.7,0.3,0.7,0.7c0,0.2-0.1,0.4-0.2,0.5h1.5c0.1,0,0.2,0,0.3-0.1c0.1,0,0.1-0.1,0.2-0.2l0.9-1.4
		c0-0.1,0.1-0.1,0.1-0.1c0.1,0,0.1,0,0.2,0h1.2c-0.1,0-0.1,0-0.2,0c-0.1,0-0.1,0.1-0.1,0.1L15.1,90C15,90,15,90.1,14.9,90.1
		c-0.1,0-0.2,0.1-0.3,0.1h1.8c0.1,0,0.2,0,0.3-0.1c0.1,0,0.1-0.1,0.2-0.2l1.1-1.6c-0.7-0.4-1-1.1-1-2.1c0-0.6,0.3-1.3,0.4-1.7l0-0.2
		c0-0.1,0-0.2,0-0.3c0-0.1-0.1-0.2-0.1-0.2l0.9,0.9c0.1,0.1,0.1,0.1,0.2,0.2c0,0.1,0,0.2,0,0.3l0,0.2c0,0.4-0.5,1.2,0.4,1.9
		c0,0,0.1,0.1,0.3,0.2l0.6,0.4v-2.3h0.9v2.5c0,0.1,0,0.2,0.1,0.3c0,0.1,0.1,0.1,0.2,0.2l0.8,0.5c0.1,0,0.2,0.1,0.3,0.1
		c0.1,0,0.2,0,0.3,0l1.5-0.7c-0.1,0-0.2,0.1-0.3,0c-0.1,0-0.2,0-0.3-0.1l-1.8-1.1c0.9-0.7,0.4-1.5,0.4-1.9l0-0.2c0-0.1,0-0.2,0-0.3
		c0-0.1,0.1-0.2,0.2-0.2l0.9-0.9c-0.1,0.1-0.1,0.2-0.1,0.2c0,0.1,0,0.2,0,0.3l0,0.2c0.1,0.6,0.7,1.8,0.2,2.4l1.6,1
		c0.1,0,0.2,0.1,0.3,0.1c0.1,0,0.2,0,0.3,0l1.6-0.7c-0.1,0-0.2,0-0.3,0c-0.1,0-0.2,0-0.3-0.1l-1.8-1.1c0.4-0.8,0.1-2-0.3-2.7
		l-0.1-0.1c0-0.1-0.1-0.2-0.1-0.3c0-0.1,0-0.2,0.1-0.3l0.6-1.1c0,0.1-0.1,0.2-0.1,0.3c0,0.1,0,0.2,0.1,0.3l0.2,0.4
		c0.1,0.2,0.2,0.3,0.3,0.6c1-0.9,1.2-1.7,0.6-2.5l-0.2-0.2c-0.1-0.1-0.1-0.2-0.1-0.2c0-0.1,0-0.2,0-0.3l0.3-1.2c0,0.1,0,0.2,0,0.3
		c0,0.1,0.1,0.2,0.1,0.2l0.6,0.7c1.2,1.4,0.5,3.1-1,4.4c0.1,0.3,0.1,0.7,0.1,1l1.9,1.2c0.1,0,0.2,0.1,0.3,0.1c0.1,0,0.2,0,0.3,0
		l1.4-0.6c-0.1,0-0.2,0.1-0.3,0.1c-0.4,0-0.6-0.3-0.6-0.6c0-0.3,0.2-0.5,0.4-0.6c5.2-1.6,10.1-5.7,13.2-5.7c1.5,0,2.8,0.9,2.8,2.1
		c0,0.2,0,0.4-0.1,0.5c-0.7,1.9,0.3,3.7,2.9,4.4c0.4,0.1,0.7,0.5,0.7,0.9c0,0.1,0,0.2,0,0.3c0.1,0,0.1,0,0.2,0
		c0.7,0,1.3-0.4,1.7-0.9c0.4,0,0.9,0,1.4-0.1c0.1,0.1,0.1,0.3,0.1,0.4c0.1,0.5-0.1,1-0.4,1.1c-0.6,0.2-1.3,0-1.9,0
		c-1.1,0-1.9,0.9-1.9,1.9c0,0.1,0,0.2,0,0.2c-0.3,0.2-0.6,0.6-0.6,1c0,0.2,0.1,0.4,0.2,0.6c0.3-0.4,0.8-0.7,1.2-0.9
		c0-0.9,0.8-1.7,1.8-1.7c0.1,0,0.3,0,0.4,0.1c-1,0.1-1.7,0.9-1.7,1.9c0,0.1,0,0.1,0,0.2c-0.1,0.1-0.2,0.3-0.2,0.5
		c0,0.3,0.1,0.5,0.3,0.6c0.2-0.4,0.6-0.8,1.2-1c0.4-0.1,0.8-0.2,1.1-0.1c0-0.1-0.1-0.3-0.1-0.5c0-0.8,0.7-1.5,1.5-1.5
		c0.1,0,0.2,0,0.2,0c-0.6,0.1-1,0.6-1,1.2c0,0.4,0.2,0.8,0.5,1c0,0,0,0,0,0.1c0,0.3,0.2,0.6,0.4,0.8c0.1-0.6,0.6-1,1.2-1
		c0.5,0,0.9-0.1,1.2-0.2c0.5-0.2,0.9-0.7,0.9-1.2c0-0.4-0.2-0.8-0.5-1c0.1-0.7,0.1-1.7-0.1-2.6c0,0,0.1,0,0.1,0
		C55.8,86.7,56.2,86.9,56.4,87.2 M75.4,2.7h-1.8v108.1h1.8V2.7z"/>
	<path class="st0" d="M273.2,52.4h-2.5v11.5h2v-7.6l0.1,0l2.5,7.6h1.4l2.5-7.6l0.1,0v7.5h2V52.4h-2.5l-2.7,9h-0.1L273.2,52.4z
		 M265.8,52.4v7.5c0,0.8-0.2,1.5-0.6,1.9c-0.4,0.5-1,0.7-1.7,0.7c-0.7,0-1.2-0.2-1.6-0.7c-0.4-0.5-0.6-1.1-0.6-1.9v-7.5h-2v7.5
		c0,1.3,0.4,2.3,1.2,3c0.8,0.7,1.8,1.1,3.1,1.1c1.3,0,2.3-0.4,3.1-1.1c0.8-0.7,1.2-1.7,1.2-3v-7.5H265.8z M256.4,52.4h-2v11.5h2
		V52.4z M245.5,53.9h1.8c0.6,0,1,0.2,1.3,0.5c0.3,0.3,0.4,0.8,0.4,1.4c0,0.6-0.1,1.1-0.4,1.4c-0.3,0.3-0.7,0.5-1.3,0.5h-1.8V53.9z
		 M247.5,59.2c0.5,0,0.9,0.2,1.2,0.5c0.3,0.3,0.4,0.8,0.4,1.4v1c0,0.3,0,0.7,0,1c0,0.3,0.1,0.6,0.1,0.7h2.1v-0.2
		c-0.1-0.1-0.1-0.4-0.2-0.7c0-0.3,0-0.6,0-0.9v-1.1c0-0.7-0.1-1.3-0.4-1.7c-0.3-0.5-0.7-0.8-1.3-1c0.6-0.3,1-0.6,1.3-1.1
		c0.3-0.4,0.4-1,0.4-1.6c0-1.1-0.3-1.9-1-2.5c-0.7-0.6-1.6-0.9-2.8-0.9h-3.8v11.5h2v-4.7H247.5z M240.1,57.1h-4.2v-3.2h5v-1.5h-7
		v11.5h7v-1.5h-5v-3.7h4.2V57.1z M230.4,57.1h-4.2v-3.2h5v-1.5h-7v11.5h7v-1.5h-5v-3.7h4.2V57.1z M222.2,52.4h-7.9v1.5h2.9v10h2v-10
		h3V52.4z M210.9,62.1c-0.3,0.3-0.8,0.5-1.5,0.5c-0.6,0-1.1-0.2-1.5-0.5c-0.4-0.3-0.6-0.8-0.6-1.6h-1.9l0,0.1c0,1.2,0.3,2.1,1.1,2.6
		c0.7,0.6,1.7,0.9,3,0.9c1.2,0,2.2-0.3,2.9-0.9c0.7-0.6,1.1-1.3,1.1-2.3c0-1-0.3-1.7-0.9-2.2c-0.6-0.5-1.5-0.9-2.7-1.3
		c-0.9-0.3-1.5-0.5-1.8-0.8c-0.3-0.3-0.4-0.7-0.4-1.1c0-0.5,0.1-0.9,0.4-1.2c0.3-0.3,0.7-0.5,1.3-0.5c0.6,0,1.1,0.2,1.4,0.6
		c0.3,0.4,0.5,0.9,0.5,1.5h1.9l0-0.1c0-1.1-0.3-1.9-1-2.6c-0.7-0.6-1.6-0.9-2.8-0.9c-1.2,0-2.1,0.3-2.8,0.9c-0.7,0.6-1,1.4-1,2.3
		c0,1,0.3,1.7,0.9,2.2c0.6,0.5,1.5,0.9,2.7,1.3c0.8,0.3,1.4,0.5,1.7,0.8c0.3,0.3,0.5,0.7,0.5,1.1C211.4,61.3,211.2,61.7,210.9,62.1
		 M202.8,52.4h-2v11.5h2V52.4z M197.4,52.4h-2v7.9l-0.1,0l-4.4-8h-2v11.5h2v-7.9l0.1,0l4.4,8h2V52.4z M185.9,52.4h-2v11.5h2V52.4z
		 M173,52.4h-2.5v11.5h2v-7.6l0.1,0l2.5,7.6h1.4l2.5-7.6l0.1,0v7.5h2V52.4h-2.5l-2.7,9h-0.1L173,52.4z M167.5,52.4h-2v11.5h2V52.4z
		 M157,53.9h1.8c0.6,0,1,0.2,1.3,0.5c0.3,0.3,0.4,0.8,0.4,1.4c0,0.6-0.1,1.1-0.4,1.4c-0.3,0.3-0.7,0.5-1.3,0.5H157V53.9z M159,59.2
		c0.5,0,0.9,0.2,1.2,0.5c0.3,0.3,0.4,0.8,0.4,1.4v1c0,0.3,0,0.7,0,1c0,0.3,0.1,0.6,0.1,0.7h2.1v-0.2c-0.1-0.1-0.1-0.4-0.2-0.7
		c0-0.3,0-0.6,0-0.9v-1.1c0-0.7-0.1-1.3-0.4-1.7c-0.3-0.5-0.7-0.8-1.3-1c0.6-0.3,1-0.6,1.3-1.1c0.3-0.4,0.4-1,0.4-1.6
		c0-1.1-0.3-1.9-1-2.5c-0.7-0.6-1.6-0.9-2.8-0.9H155v11.5h2v-4.7H159z M150.2,52.4v7.5c0,0.8-0.2,1.5-0.6,1.9
		c-0.4,0.5-1,0.7-1.7,0.7c-0.7,0-1.2-0.2-1.6-0.7c-0.4-0.5-0.6-1.1-0.6-1.9v-7.5h-2v7.5c0,1.3,0.4,2.3,1.2,3
		c0.8,0.7,1.8,1.1,3.1,1.1c1.3,0,2.3-0.4,3.1-1.1c0.8-0.7,1.2-1.7,1.2-3v-7.5H150.2z M138.9,52.4v7.5c0,0.8-0.2,1.5-0.6,1.9
		c-0.4,0.5-1,0.7-1.7,0.7c-0.7,0-1.2-0.2-1.6-0.7c-0.4-0.5-0.6-1.1-0.6-1.9v-7.5h-2v7.5c0,1.3,0.4,2.3,1.2,3
		c0.8,0.7,1.8,1.1,3.1,1.1c1.3,0,2.3-0.4,3.1-1.1c0.8-0.7,1.2-1.7,1.2-3v-7.5H138.9z M130.5,52.4h-7.9v1.5h2.9v10h2v-10h3V52.4z
		 M117.2,52.4h-2v11.5h6.2v-1.5h-4.2V52.4z M110.3,52.4v7.5c0,0.8-0.2,1.5-0.6,1.9c-0.4,0.5-1,0.7-1.7,0.7c-0.7,0-1.2-0.2-1.6-0.7
		c-0.4-0.5-0.6-1.1-0.6-1.9v-7.5h-2v7.5c0,1.3,0.4,2.3,1.2,3c0.8,0.7,1.8,1.1,3.1,1.1c1.3,0,2.3-0.4,3.1-1.1c0.8-0.7,1.2-1.7,1.2-3
		v-7.5H110.3z M99.8,63.9h2.4l-4.9-7.6l4.5-6.8h-2.4l-3.8,6.3h-1.2v-6.3h-2v14.4h2v-6.4h1.4L99.8,63.9z"/>
</g>
</svg>
