<?xml version="1.0" encoding="utf-8"?>
<!-- Generator: Adobe Illustrator 20.1.0, SVG Export Plug-In . SVG Version: 6.00 Build 0)  -->
<svg version="1.1" id="Layer_1" xmlns="http://www.w3.org/2000/svg" xmlns:xlink="http://www.w3.org/1999/xlink" x="0px" y="0px"
	 viewBox="0 0 306.1 96.4" style="enable-background:new 0 0 306.1 96.4;" xml:space="preserve">
<style type="text/css">
	.st0{fill:#1E1E1C;}
</style>
<g>
	<g>
		<path class="st0" d="M45.4,25.2c0-1.3,0.9-2.4,2.2-2.4c1.3,0,2.3,1.1,2.3,2.4c0,1.3-1.1,2.3-2.3,2.3
			C46.3,27.6,45.4,26.5,45.4,25.2 M45.4,71.1c0-1.2,0.9-2.3,2.2-2.3c1.3,0,2.3,1.1,2.3,2.3c0,1.4-1.1,2.4-2.3,2.4
			C46.3,73.5,45.4,72.4,45.4,71.1 M70.5,45.6c1.4,0,2.3,1,2.3,2.3c0,1.1-0.9,2.2-2.3,2.2c-1.3,0-2.2-1.1-2.3-2.2
			C68.2,46.5,69.2,45.6,70.5,45.6 M24.5,45.6c1.3,0,2.4,0.9,2.4,2.3c0,1.1-1.1,2.2-2.4,2.2c-1.3,0-2.3-1.1-2.3-2.2
			C22.2,46.5,23.3,45.6,24.5,45.6 M91.2,54.9C91.2,54.9,91.2,54.9,91.2,54.9c-0.1,0.1-0.9,0.5-2.1,0.9C85.4,57.1,78,59,72.7,60.1
			c1.5-3.2,2.5-6.7,2.7-10.4c0.6,0.6,1.7,1,3,1.4c1.9,0.6,4.2,1,6.1,1.4c2.4,0.5,4.1,1,5.3,1.4c0.6,0.2,1,0.4,1.3,0.6
			C91.2,54.7,91.3,54.9,91.2,54.9C91.2,54.9,91.2,54.9,91.2,54.9 M70.5,53.8c-1.7,0-3-2.2-3.3-4.9c0.2-0.1,0.3-0.3,0.3-0.6
			c0-0.4-0.1-0.7-0.3-0.7h-4.7c0.1-1.3,0.6-3.5,2.5-3.8c0.4-0.1,0.6-0.3,0.6-0.6c0-0.3-0.2-0.7-0.4-0.7c-0.2,0-0.3,0-0.5,0
			c-2,0-3.3,2.6-3.6,5.2h-3c0.1-1.3,0.6-3.5,2.5-3.8c0.4-0.1,0.6-0.3,0.6-0.6c0-0.3-0.2-0.7-0.4-0.7c-0.2,0-0.3,0-0.5,0
			c-2,0-3.3,2.6-3.6,5.2h-2.1c-0.2-3.4-2.9-6-6.2-6.4v-2c2.7-0.1,5.4-1.2,5.4-3.8c0,0,0-0.1,0-0.1c0-0.3-0.4-0.5-0.7-0.5
			c-0.3,0-0.7,0.2-0.7,0.5c0,1.4-1.7,2.3-4,2.4v-3c2.7-0.1,5.4-1.2,5.4-3.8c0,0,0-0.1,0-0.1c0-0.3-0.4-0.5-0.7-0.5
			c-0.3,0-0.7,0.2-0.7,0.5c0,1.4-1.7,2.3-4,2.4v-4.6c10.1,0.4,18.2,8.3,18.8,18.3c0.2-2.9,1.6-5.2,3.4-5.2c2,0,3.5,2.7,3.6,5.9
			C74,51,72.5,53.8,70.5,53.8 M48.8,67.7c2.6,0.3,4.6,1.6,4.6,3.4c0,2-2.6,3.5-5.8,3.5c-3.2,0-5.9-1.5-5.9-3.5
			c0-1.7,2.1-3.1,4.7-3.4C36.5,67,28.5,58.9,28.2,49h4.6c-0.1,1.3-0.6,3.5-2.5,3.8c-0.4,0.1-0.6,0.3-0.6,0.6c0,0.3,0.2,0.7,0.4,0.7
			c0.2,0,0.3,0,0.5,0c2,0,3.3-2.6,3.6-5.2h3c-0.1,1.3-0.6,3.5-2.5,3.8c-0.4,0.1-0.6,0.3-0.6,0.6c0,0.3,0.2,0.7,0.4,0.7
			c0.2,0,0.3,0,0.5,0c2,0,3.3-2.6,3.6-5.2h2.1c0,0,0,0,0.1,0c0.4,3.4,3,6,6.3,6.2c0,0-0.1,0.1-0.1,0.2v2.1c-2.7,0.1-5.4,1.2-5.4,3.8
			c0,0,0,0.1,0,0.1c0,0.3,0.4,0.5,0.7,0.5c0.3,0,0.7-0.2,0.7-0.5c0-1.4,1.7-2.3,4-2.4v3c-2.7,0.1-5.4,1.2-5.4,3.8c0,0,0,0.1,0,0.1
			c0,0.3,0.4,0.5,0.7,0.5c0.3,0,0.7-0.2,0.7-0.5c0-1.4,1.7-2.3,4-2.4v4.7v0c0,0.2,0.3,0.3,0.7,0.3c0.4,0,0.7-0.1,0.7-0.3v-4.7
			c1.3,0.1,3.5,0.6,3.8,2.5c0.1,0.4,0.3,0.6,0.6,0.6h0c0.3,0,0.7-0.2,0.7-0.4c0-0.2,0-0.3,0-0.5c0-2-2.6-3.3-5.2-3.6v-3
			c1.3,0.1,3.5,0.6,3.8,2.5c0.1,0.4,0.3,0.6,0.6,0.6h0c0.3,0,0.7-0.2,0.7-0.4c0-0.2,0-0.3,0-0.5c0-2-2.6-3.3-5.2-3.6v-2.1
			c0-0.1,0-0.1-0.1-0.2c3.2-0.3,5.8-2.9,6.2-6.2l0,0h2.1c0.1,2.7,1.2,5.4,3.8,5.4c0,0,0.1,0,0.1,0l0-0.1l0,0.1
			c0.3,0,0.5-0.4,0.5-0.7c0-0.3-0.2-0.7-0.5-0.7c-1.4,0-2.3-1.7-2.4-4h3c0.1,2.7,1.2,5.4,3.8,5.4c0,0,0.1,0,0.1,0l0-0.1l0,0.1
			c0.3,0,0.5-0.4,0.5-0.7c0-0.3-0.2-0.7-0.5-0.7c-1.4,0-2.3-1.7-2.4-4h4.7h0c0,0,0,0,0,0C66.8,58.9,58.8,67,48.8,67.7 M56.7,84.9
			c-0.5,1.9-1.1,3.7-1.5,4.9c-0.2,0.6-0.4,1.1-0.6,1.5c-0.1,0.2-0.2,0.3-0.2,0.4c0,0-0.1,0.1-0.1,0.1l0,0l0,0c0,0-0.2-0.1-0.3-0.3
			c-0.6-0.8-1.3-3-2-6.5c-0.4-1.9-0.8-4.2-1.4-6.1c-0.4-1.2-0.8-2.3-1.3-2.9c3.7-0.2,7.3-1.2,10.4-2.7
			C58.9,76.8,57.7,81.2,56.7,84.9 M44.7,78.8c-0.6,1.9-1,4.2-1.4,6.1c-0.5,2.3-1,4.1-1.4,5.2c-0.2,0.6-0.4,1-0.6,1.3
			c-0.1,0.1-0.2,0.2-0.2,0.3c0,0,0,0-0.1,0c-0.2-0.2-0.6-1-1-2.3c-1.2-3.7-3-10.9-4.1-16C39,74.9,42.4,75.8,46,76
			C45.5,76.6,45.1,77.6,44.7,78.8 M28.1,47.6L28.1,47.6c-0.2,0-0.3,0.3-0.3,0.7c0,0.3,0.1,0.6,0.3,0.7c-0.3,2.7-1.7,4.9-3.3,4.9
			c-2.1,0-3.6-2.9-3.6-6.1c0-3.2,1.5-5.8,3.6-5.9C26.6,41.9,28.1,44.5,28.1,47.6L28.1,47.6z M11,57.3c-1.9-0.5-3.7-1-4.9-1.5
			c-0.6-0.2-1.1-0.4-1.5-0.6c-0.2-0.1-0.3-0.2-0.4-0.2c0,0-0.1,0-0.1-0.1c0,0,0.1-0.2,0.3-0.3c0.8-0.5,3-1.3,6.5-2
			c1.9-0.4,4.2-0.8,6-1.4c1.2-0.4,2.3-0.8,2.9-1.4c0.2,3.6,1.1,7.1,2.6,10.3C19.1,59.4,14.7,58.3,11,57.3 M16.9,45.3
			c-1.9-0.6-4.3-1-6.1-1.4c-2.3-0.5-4.1-0.9-5.2-1.3c-0.6-0.2-1-0.4-1.3-0.6C4.1,41.8,4,41.6,4,41.6l0,0v0c0.1-0.2,1-0.6,2.3-1
			c3.8-1.3,11-3.1,16.2-4.2c-1.5,3.2-2.4,6.7-2.6,10.4C19.3,46.1,18.2,45.7,16.9,45.3 M46.9,28.8v4.6c-1.3-0.1-3.5-0.6-3.8-2.5
			c-0.1-0.4-0.3-0.6-0.6-0.6c-0.3,0-0.7,0.2-0.7,0.4c0,0.2,0,0.3,0,0.5c0,2,2.6,3.3,5.2,3.6v3c-1.3-0.1-3.5-0.6-3.8-2.5
			c-0.1-0.4-0.3-0.6-0.6-0.6c-0.3,0-0.7,0.2-0.7,0.4c0,0.2,0,0.3,0,0.5c0,2,2.6,3.3,5.2,3.6v2.1c-3.4,0.3-6,3-6.2,6.4c0,0,0,0,0,0
			l-2.1,0c-0.1-2.7-1.2-5.4-3.8-5.4c0,0-0.1,0-0.1,0v0c-0.3,0-0.5,0.4-0.5,0.7c0,0.3,0.2,0.7,0.5,0.7c1.4,0,2.3,1.7,2.4,4h-3
			c-0.1-2.7-1.2-5.4-3.8-5.4c0,0-0.1,0-0.1,0c-0.3,0-0.5,0.4-0.5,0.7c0,0.3,0.2,0.7,0.5,0.7c1.4,0,2.3,1.7,2.4,4h-4.7
			C28.6,37.4,36.8,29.2,46.9,28.8 M38.7,11.5c0.5-1.9,1-3.7,1.5-4.9c0.2-0.6,0.4-1.1,0.6-1.5C40.8,5,40.9,4.9,41,4.8
			c0,0,0.1-0.1,0.1-0.1c0,0,0,0,0.1,0c0.5,0.4,1.4,2.7,2.2,6.8c0.4,1.9,0.8,4.2,1.4,6.1c0.4,1.3,0.9,2.5,1.6,3
			c-3.7,0.2-7.2,1.1-10.5,2.5C36.6,19.7,37.7,15.2,38.7,11.5 M47.6,21.8c3.2,0,5.8,1.6,5.8,3.5c0,1.9-2.2,3.3-5.1,3.5v-0.1v0
			c0-0.2-0.3-0.3-0.7-0.3c-0.4,0-0.7,0.1-0.7,0.3v0.1c-2.9-0.2-5.2-1.7-5.3-3.5C41.7,23.3,44.4,21.8,47.6,21.8 M50.7,17.4
			c0.6-1.9,1-4.3,1.4-6.1C52.6,9,53,7.3,53.5,6.1c0.2-0.6,0.4-1,0.6-1.3c0.2-0.3,0.3-0.3,0.3-0.3l0,0v0c0.2,0.1,0.6,1,1,2.3
			c1.3,3.8,3.1,11.1,4.3,16.3c-3.2-1.5-6.8-2.4-10.6-2.6C49.8,20.1,50.3,18.8,50.7,17.4 M84.3,39.2c1.9,0.5,3.7,1,4.9,1.5
			c0.6,0.2,1.1,0.4,1.5,0.6c0.2,0.1,0.3,0.2,0.4,0.2c0,0,0,0,0.1,0.1c0,0,0,0,0,0.1c-0.4,0.5-2.7,1.4-6.8,2.3
			c-1.9,0.4-4.2,0.8-6.1,1.4c-1.2,0.4-2.3,0.8-2.9,1.4c-0.2-3.7-1.2-7.1-2.6-10.3C76.1,37.2,80.6,38.2,84.3,39.2 M90.4,52.4
			c-2.4-1-5.9-1.7-8.8-2.4c-1.5-0.3-2.8-0.6-3.7-1c-1-0.3-1.4-0.7-1.4-0.8l0,0l0,0v0c0-0.1,0.2-0.3,0.6-0.4c1.5-0.7,5.5-1.4,9.1-2.2
			c1.8-0.4,3.5-0.9,4.8-1.5c1.3-0.6,2.2-1.4,2.2-2.4v0c-0.1-0.9-1.1-1.5-2.5-2.1c-4.4-1.9-13.6-3.5-19-5.3c-0.9-1.5-2-2.9-3.2-4.3
			l2.3-2.3c1.3,1.2,2.8,2.1,4.3,2.1h0c0.8,0,1.7-0.3,2.3-1c0.1-0.1,0.1-0.2,0.1-0.3c0-0.4-0.4-0.8-0.8-0.8c-0.1,0-0.2,0-0.3,0.1
			c-0.3,0.3-0.8,0.5-1.3,0.5c-1,0-2.2-0.6-3.3-1.6l2.1-2.1c1.3,1.2,2.8,2.1,4.3,2.1h0c0.8,0,1.7-0.3,2.3-1c0.1-0.1,0.1-0.2,0.1-0.3
			c0-0.4-0.4-0.8-0.8-0.8c-0.1,0-0.2,0-0.3,0.2C78.9,24.8,78.5,25,78,25c-1,0-2.2-0.6-3.3-1.6l2.1-2.1c1.3,1.2,2.8,2.1,4.2,2.1h0
			c0.8,0,1.7-0.3,2.3-1c0.1-0.1,0.1-0.2,0.1-0.3c0-0.4-0.4-0.8-0.8-0.8c-0.1,0-0.2,0-0.3,0.1c-0.3,0.3-0.8,0.5-1.3,0.5
			c-1,0-2.2-0.6-3.3-1.6l2.2-2.2c1.3,1.2,2.8,2.1,4.3,2.1h0c0.8,0,1.6-0.3,2.3-1c0.1-0.1,0.1-0.2,0.1-0.3c0-0.4-0.4-0.8-0.8-0.8
			c-0.1,0-0.2,0-0.3,0.1c-0.3,0.3-0.8,0.5-1.3,0.5c-1,0-2.2-0.6-3.3-1.6l7.3-7.3c0,0,0,0,0,0c0.1-0.1,0.2-0.3,0.2-0.5
			c0-0.2-0.1-0.3-0.2-0.5c-0.1-0.1-0.3-0.2-0.5-0.2c-0.2,0-0.3,0.1-0.5,0.2l-7.3,7.3c-0.6-0.7-1.4-1.9-1.4-3c0-0.5,0.1-1,0.5-1.4
			c0.1-0.1,0.2-0.3,0.2-0.4c0-0.5-0.6-0.7-0.8-0.7c0,0-0.1,0-0.1,0c-0.7,0.5-1.1,1.3-1.1,2.2c0,1.4,0.8,3,1.8,4.3l-2.2,2.2
			c-0.6-0.7-1.4-1.9-1.4-3c0-0.5,0.1-1,0.5-1.4c0.1-0.2,0.2-0.3,0.2-0.4c0-0.5-0.6-0.7-0.8-0.7c0,0-0.1,0-0.1,0
			c-0.7,0.5-1.1,1.3-1.1,2.2c0,1.4,0.8,3,1.8,4.3l-2.1,2.1c-0.6-0.7-1.4-1.9-1.4-3c0-0.5,0.1-1,0.5-1.4c0.1-0.1,0.1-0.3,0.1-0.4
			c0-0.5-0.6-0.7-0.8-0.7c0,0-0.1,0-0.1,0C71.3,17.4,71,18.2,71,19c0,1.4,0.8,3,1.8,4.3l-2.2,2.1c-0.6-0.7-1.4-1.9-1.4-3
			c0-0.5,0.1-1,0.5-1.4c0.1-0.2,0.2-0.3,0.2-0.4c0-0.5-0.6-0.7-0.8-0.7c0,0-0.1,0-0.1,0c-0.7,0.5-1.1,1.3-1.1,2.2
			c0,1.4,0.8,3,1.8,4.3l-2.3,2.3c-1.6-1.7-3.5-3.1-5.5-4.4c-1.1-3.6-2.2-9-3.4-13.4c-0.6-2.3-1.2-4.3-1.8-5.8
			c-0.6-1.5-1.2-2.5-2.1-2.5c0,0,0,0,0,0h0c-1.2,0-2,1.2-2.7,2.8c-1,2.4-1.7,5.9-2.4,8.8c-0.3,1.5-0.6,2.8-1,3.7
			c-0.3,0.9-0.7,1.4-0.8,1.4c0,0,0,0,0,0c0,0-0.3-0.1-0.5-0.6c-0.7-1.5-1.4-5.5-2.3-9.1C44.5,8,44,6.3,43.3,5
			c-0.6-1.3-1.4-2.2-2.4-2.2c0,0,0,0,0,0c-0.9,0.1-1.5,1.1-2.1,2.5c-1.8,4.4-3.5,13.6-5.2,19c-2.2,1.3-4.1,2.9-5.8,4.7l-2.3-2.3
			c1.2-1.3,2.1-2.8,2.1-4.3c0-0.9-0.3-1.7-1-2.3c-0.1-0.1-0.2-0.1-0.3-0.1c-0.4,0-0.8,0.4-0.8,0.8c0,0.1,0,0.2,0.1,0.3
			c0.3,0.3,0.5,0.8,0.5,1.3c0,1-0.6,2.2-1.6,3.3l-2.1-2.1c1.2-1.3,2.1-2.8,2.1-4.3c0-0.8-0.3-1.7-1-2.3C23.2,17,23.1,17,23,17
			c-0.4,0-0.8,0.4-0.8,0.8c0,0.1,0,0.2,0.1,0.3c0.3,0.3,0.5,0.8,0.5,1.3c0,1-0.6,2.2-1.6,3.3l-2.1-2.1c1.2-1.3,2.1-2.8,2.1-4.3
			c0-0.8-0.3-1.7-1-2.3c-0.1-0.1-0.2-0.1-0.3-0.1c-0.4,0-0.8,0.4-0.8,0.8c0,0.1,0,0.2,0.1,0.3c0.3,0.3,0.5,0.8,0.5,1.3
			c0,1-0.6,2.2-1.6,3.3l-2.2-2.2C17.1,16,18,14.5,18,13c0-0.9-0.3-1.7-1-2.3c-0.1-0.1-0.2-0.1-0.3-0.1c-0.4,0-0.8,0.4-0.8,0.8
			c0,0.1,0,0.2,0.1,0.3c0.3,0.3,0.5,0.8,0.5,1.3c0,1-0.6,2.2-1.6,3.3L7.6,9c0,0,0,0,0,0C7.5,8.8,7.3,8.8,7.1,8.8
			C7,8.8,6.8,8.9,6.7,9C6.5,9.1,6.5,9.3,6.5,9.5c0,0.2,0.1,0.3,0.2,0.5l7.3,7.3c-0.7,0.6-1.9,1.4-3,1.4c-0.5,0-1-0.1-1.4-0.5
			C9.3,18.1,9.2,18,9.1,18c-0.5,0-0.7,0.6-0.7,0.8c0,0,0,0.1,0,0.1c0.5,0.7,1.3,1.1,2.2,1.1h0c1.4,0,3-0.8,4.3-1.8l2.2,2.2
			c-0.7,0.6-1.9,1.4-3,1.4c-0.5,0-1-0.1-1.4-0.5c-0.1-0.1-0.3-0.2-0.4-0.2c-0.5,0-0.7,0.6-0.7,0.8c0,0,0,0.1,0,0.1
			c0.5,0.8,1.3,1.1,2.2,1.1h0c1.4,0,3-0.8,4.3-1.8l2.2,2.1c-0.7,0.6-1.9,1.4-3,1.4c-0.5,0-1-0.1-1.4-0.5c-0.2-0.1-0.3-0.2-0.4-0.2
			c-0.5,0-0.7,0.6-0.7,0.8c0,0,0,0.1,0,0.1c0.5,0.8,1.3,1.1,2.2,1.1h0c1.4,0,3-0.8,4.3-1.8l2.2,2.2c-0.7,0.6-1.9,1.4-3,1.4
			c-0.5,0-1-0.1-1.4-0.4c-0.1-0.1-0.3-0.2-0.4-0.2c-0.5,0-0.7,0.6-0.7,0.8c0,0,0,0.1,0,0.1c0.5,0.8,1.3,1.1,2.2,1.1h0
			c1.4,0,3-0.8,4.3-1.8l2.4,2.3v0c-1.1,1.3-2.1,2.6-3,4.1c-3.6,1.1-8.9,2.2-13.4,3.3c-2.2,0.6-4.3,1.2-5.7,1.8
			c-1.5,0.6-2.5,1.2-2.5,2.1c0,0,0,0,0,0c0,1.2,1.2,2,2.8,2.7c2.4,1,5.9,1.7,8.8,2.4c1.5,0.3,2.8,0.6,3.7,1c1,0.3,1.4,0.7,1.4,0.9v0
			c0,0-0.1,0.3-0.6,0.5c-1.5,0.7-5.5,1.4-9.1,2.2c-1.8,0.4-3.5,0.9-4.8,1.5C3.2,53.2,2.3,54,2.3,55v0c0.1,0.9,1.1,1.5,2.5,2.1
			c4.4,1.8,13.6,3.4,19,5.1c1,1.7,2.1,3.2,3.4,4.7c-0.1,0-0.2,0.1-0.2,0.1c0,0,0,0,0,0l-2.3,2.3c-1.3-1.2-2.8-2.1-4.2-2.1
			c-0.8,0-1.7,0.3-2.3,1v0C18,68.5,18,68.6,18,68.7c0,0.4,0.4,0.8,0.8,0.8c0.1,0,0.2,0,0.3-0.1c0.3-0.3,0.8-0.5,1.3-0.5
			c1,0,2.2,0.6,3.3,1.6l-2.1,2.1c-1.3-1.2-2.8-2.1-4.3-2.1c-0.8,0-1.7,0.3-2.3,1c-0.1,0.1-0.1,0.2-0.1,0.3c0,0.4,0.4,0.8,0.8,0.8
			c0.1,0,0.2,0,0.3-0.1c0.3-0.3,0.8-0.5,1.3-0.5c1,0,2.2,0.6,3.3,1.6l-2.1,2.1c-1.3-1.2-2.8-2.1-4.2-2.1c-0.9,0-1.7,0.3-2.3,1
			c-0.1,0.1-0.1,0.2-0.1,0.3c0,0.4,0.4,0.8,0.8,0.8c0.1,0,0.2,0,0.3-0.1c0.3-0.3,0.8-0.5,1.3-0.5c1,0,2.2,0.6,3.3,1.6l-2.2,2.2
			c-1.3-1.2-2.8-2.1-4.3-2.1c-0.9,0-1.7,0.3-2.3,1C8.5,78,8.5,78,8.5,78.1c0,0.4,0.4,0.8,0.8,0.8c0.1,0,0.2,0,0.3-0.1
			c0.3-0.3,0.8-0.5,1.3-0.5c1,0,2.2,0.6,3.3,1.6l-7.3,7.3c0,0,0,0,0,0c-0.1,0.1-0.2,0.3-0.2,0.5c0,0.2,0.1,0.3,0.2,0.5
			c0.1,0.1,0.3,0.2,0.5,0.2c0.2,0,0.3-0.1,0.5-0.2l7.3-7.3c0.6,0.7,1.4,1.9,1.4,3c0,0.5-0.1,1-0.5,1.4c-0.1,0.1-0.2,0.3-0.2,0.4
			c0,0.5,0.6,0.7,0.8,0.7c0,0,0.1,0,0.1,0c0.8-0.5,1.1-1.3,1.1-2.2c0-1.4-0.8-3-1.8-4.3l2.2-2.2c0.6,0.7,1.4,1.9,1.4,3
			c0,0.5-0.1,1-0.5,1.4c-0.1,0.1-0.2,0.3-0.2,0.4c0,0.5,0.6,0.7,0.8,0.7c0,0,0.1,0,0.1,0c0.8-0.5,1.1-1.3,1.1-2.2
			c0-1.4-0.8-3-1.8-4.3l2.1-2.1c0.6,0.7,1.4,1.9,1.4,3c0,0.5-0.1,1-0.5,1.4c-0.1,0.1-0.2,0.3-0.2,0.4c0,0.5,0.6,0.7,0.8,0.7
			c0,0,0.1,0,0.1,0c0.8-0.5,1.1-1.3,1.1-2.2c0-1.4-0.8-3-1.8-4.3l2.1-2.2c0.6,0.7,1.4,1.9,1.4,3c0,0.5-0.1,1-0.5,1.4
			c-0.1,0.1-0.2,0.3-0.2,0.4c0,0.5,0.6,0.7,0.8,0.7c0,0,0.1,0,0.1,0c0.8-0.5,1.1-1.3,1.1-2.2c0-1.4-0.8-3-1.8-4.3l2.3-2.3
			c0.1-0.1,0.1-0.1,0.1-0.2c1.6,1.7,3.5,3.1,5.5,4.3c0,0,0,0,0,0c1,3.6,2.1,8.8,3.3,13.1c0.6,2.2,1.2,4.2,1.8,5.7
			c0.6,1.5,1.2,2.5,2.1,2.5h0l0,0c1.2,0,2-1.2,2.7-2.8c1-2.4,1.7-5.9,2.3-8.8c0.3-1.4,0.6-2.8,0.9-3.7c0.2-0.5,0.3-0.8,0.5-1.1
			c0.2-0.2,0.3-0.3,0.3-0.3l0,0c0.1,0,0.3,0.1,0.5,0.6c0.8,1.5,1.5,5.5,2.4,9.1c0.4,1.8,1,3.5,1.6,4.8c0.6,1.3,1.4,2.2,2.4,2.2h0
			c0.9,0,1.5-1.1,2.1-2.5c1.8-4.4,3.4-13.7,5.1-19c2.1-1.2,3.9-2.7,5.6-4.4c0,0,0,0.1,0.1,0.1c0,0,0,0,0,0l2.3,2.3
			c-1.2,1.3-2.1,2.8-2.1,4.3c0,0.8,0.3,1.7,1,2.3c0.1,0.1,0.2,0.1,0.3,0.1h0c0.4,0,0.8-0.4,0.8-0.8c0-0.1,0-0.2-0.1-0.3
			c-0.3-0.3-0.5-0.8-0.5-1.3c0-1,0.6-2.2,1.6-3.3l2.1,2.1c-1.2,1.3-2.1,2.8-2.1,4.3c0,0.8,0.3,1.7,1,2.3C72,80,72.1,80,72.2,80
			c0.4,0,0.8-0.4,0.8-0.8c0-0.1,0-0.2-0.1-0.3c-0.3-0.3-0.5-0.8-0.5-1.3c0-1,0.6-2.2,1.6-3.3l2.1,2.1c-1.2,1.3-2.1,2.8-2.1,4.3
			c0,0.8,0.3,1.7,1,2.3c0.1,0.1,0.2,0.1,0.3,0.1c0.4,0,0.8-0.4,0.8-0.8c0-0.1,0-0.2-0.1-0.3c-0.3-0.3-0.5-0.8-0.5-1.3
			c0-1,0.6-2.2,1.6-3.3l2.2,2.2c-1.2,1.3-2.1,2.8-2.1,4.3c0,0.8,0.3,1.7,1,2.3c0.1,0.1,0.2,0.1,0.3,0.1c0.4,0,0.8-0.4,0.8-0.8
			c0-0.1,0-0.2-0.1-0.3c-0.3-0.3-0.5-0.8-0.5-1.3c0-1,0.6-2.2,1.6-3.3l7.3,7.3c0,0,0,0,0,0c0.1,0.1,0.3,0.2,0.5,0.2
			c0.2,0,0.3-0.1,0.5-0.2c0.1-0.1,0.2-0.3,0.2-0.5c0-0.2-0.1-0.3-0.2-0.5l-7.3-7.3c0.7-0.6,1.9-1.4,3-1.4c0.5,0,1,0.1,1.4,0.5
			c0.2,0.1,0.3,0.2,0.4,0.2c0.5,0,0.7-0.6,0.7-0.8c0,0,0-0.1,0-0.1c-0.5-0.8-1.3-1.1-2.2-1.1c-1.4,0-3,0.8-4.3,1.8L78,76.5
			c0.7-0.6,1.9-1.4,3-1.4c0.5,0,1,0.1,1.4,0.5c0.1,0.1,0.3,0.2,0.4,0.2c0.5,0,0.7-0.6,0.7-0.8c0,0,0-0.1,0-0.1
			c-0.5-0.8-1.3-1.1-2.2-1.1c-1.4,0-3,0.8-4.3,1.8l-2.2-2.2c0.7-0.6,1.9-1.4,3-1.4c0.5,0,1,0.1,1.4,0.5c0.1,0.1,0.3,0.2,0.4,0.2
			c0.5,0,0.7-0.6,0.7-0.8c0,0,0-0.1,0-0.1c-0.5-0.8-1.3-1.1-2.2-1.1c-1.4,0-3,0.8-4.3,1.8l-2.1-2.1c0.7-0.6,1.9-1.4,3-1.4
			c0.5,0,1,0.1,1.4,0.5c0.1,0.1,0.3,0.2,0.4,0.2c0.5,0,0.7-0.6,0.7-0.8c0,0,0-0.1,0-0.1c-0.5-0.7-1.3-1.1-2.2-1.1
			c-1.4,0-3,0.8-4.3,1.8l-2.4-2.4c-0.1-0.1-0.1-0.1-0.2-0.1c1.2-1.4,2.4-2.9,3.3-4.4c3.6-1.1,8.9-2.2,13.3-3.3
			c2.2-0.6,4.3-1.2,5.7-1.8c1.5-0.6,2.5-1.2,2.5-2.1c0,0,0,0,0,0C93.1,53.9,91.9,53.1,90.4,52.4"/>
	</g>
	<rect x="300.9" y="16" class="st0" width="2.9" height="25.6"/>
	<g>
		<path class="st0" d="M238,17.3c4.3-2.6,9.7-2.4,13.4,0l-0.6,2.7c-1.3-1-2.9-1.7-4.6-1.9v23.5h-2.9V18.1c-1.7,0.2-3.2,1-4.5,1.9
			L238,17.3z"/>
	</g>
	<polygon class="st0" points="231.7,41.6 231.7,16 234.7,16 234.7,38.8 241.8,38.8 241.8,41.6 	"/>
	<g>
		<path class="st0" d="M213.7,16h3v18.8c0,6.2,9.2,6.2,9.2,0V16h2.9v18.8c0,9.8-15.1,9.7-15.1,0V16z"/>
		<path class="st0" d="M254.1,48.4h3v18.8c0,6.2,9.2,6.2,9.2,0V48.4h2.9v18.8c0,9.8-15.1,9.7-15.1,0V48.4z"/>
		<path class="st0" d="M269.9,16h3v18.8c0,6.2,9.2,6.2,9.2,0V16h2.9v18.8c0,9.8-15.1,9.7-15.1,0V16z"/>
		<path class="st0" d="M252,16h3v18.8c0,6.2,9.2,6.2,9.2,0V16h2.9v18.8c0,9.8-15.1,9.7-15.1,0V16z"/>
		<path class="st0" d="M111.4,48.5h2.7v25.6h-2.7V48.5z M114.3,59.3c4.6-1.8,8.1-5.3,8.5-10.8h2.4c-0.2,5.6-3.7,10.3-8,12.1
			c0.2,4.1,3.4,9.6,7.5,11.3v2.7C118.6,72.6,114.3,66.5,114.3,59.3"/>
		<path class="st0" d="M219.7,48.5h2.7v25.6h-2.7V48.5z M222.7,59.3c4.6-1.8,8.1-5.3,8.5-10.8h2.4c-0.2,5.6-3.7,10.3-8,12.1
			c0.2,4.1,3.4,9.6,7.5,11.3v2.7C227,72.6,222.7,66.5,222.7,59.3"/>
		<path class="st0" d="M198.7,16h2.7v25.6h-2.7V16z M201.7,26.8c4.6-1.8,8.1-5.3,8.5-10.8h2.4c-0.2,5.6-3.7,10.3-8,12.1
			c0.2,4.1,3.4,9.6,7.5,11.3v2.7C206,40.1,201.7,34,201.7,26.8"/>
		<path class="st0" d="M178.1,41.6C167.7,37.3,162.5,28,162.6,16h2.7c0,9.8,3.8,17,10,20.9V16h2.9V41.6z"/>
	</g>
	<polygon class="st0" points="156.5,27.4 156.5,16 159.4,16 159.4,27.4 163.8,27.4 163.8,29.7 159.4,29.7 159.4,41.6 156.5,41.6 
		156.5,29.7 146.6,29.7 146.6,41.6 143.7,41.6 143.7,16 146.6,16 146.6,27.4 	"/>
	<g>
		<path class="st0" d="M124.2,41.6c1.4-10.7,7-20.2,17-25.8v25.8h-2.7v-7.4h-9.7c-0.8,2-1.5,4.8-1.8,7.4H124.2z M129.8,31.9h8.7
			V20.4C135.3,22.8,131.5,27.5,129.8,31.9"/>
		<path class="st0" d="M178.8,41.6c1.4-10.7,7-20.2,17-25.8v25.8H193v-7.4h-9.7c-0.8,2-1.5,4.8-1.8,7.4H178.8z M184.3,31.9h8.7V20.4
			C189.8,22.8,186,27.5,184.3,31.9"/>
		<path class="st0" d="M114,41.6h-2.7V16c6.7-0.3,11,3.1,11,8.5c0,3.8-2.3,6.3-5,7.4c1,3.1,3.1,5.7,6.3,7.4v2.9
			c-5.2-1.7-8.8-7.5-9.2-11.8c2.2-0.5,5.4-1.8,5.4-5.9c0-3.2-2.5-5.4-5.8-5.7V41.6z"/>
		<path class="st0" d="M290.3,41.6h-2.7V16c6.7-0.3,11,3.1,11,8.5c0,3.8-2.3,6.3-5,7.4c1,3.1,3.1,5.7,6.3,7.4v2.9
			c-5.2-1.7-8.9-7.5-9.2-11.8c2.2-0.5,5.4-1.8,5.4-5.9c0-3.2-2.5-5.4-5.8-5.7V41.6z"/>
		<path class="st0" d="M290.4,70c1.7,1.4,3.4,1.8,5.4,1.8c3.2,0,5.1-1.6,5.1-4.8c0-5.1-10.2-5.3-10.2-12.7c0-3.6,2.9-6.3,7-6.3
			c1.5,0,3,0.1,4.1,0.7v3.7c-1.2-1.1-2.3-1.7-4.1-1.7c-2,0-3.6,1.4-3.6,3.6c0,5,10,5.1,10,12.5c0,5-3.3,7.6-8.1,7.6
			c-1.9,0-3.6,0-5.4-1V70z"/>
		<path class="st0" d="M184.4,70c1.7,1.4,3.4,1.8,5.4,1.8c3.2,0,5.1-1.6,5.1-4.8c0-5.1-10.2-5.3-10.2-12.7c0-3.6,2.9-6.3,7-6.3
			c1.5,0,3,0.1,4.1,0.7v3.7c-1.2-1.1-2.3-1.7-4.1-1.7c-2,0-3.6,1.4-3.6,3.6c0,5,10,5.1,10,12.5c0,5-3.3,7.6-8.1,7.6
			c-1.9,0-3.6,0-5.4-1V70z"/>
		<path class="st0" d="M161.8,74.5c-18.3,0-18.4-26.4,0-26.4v2.4c-5.4,0-10.3,4-10.7,9.5h10.7v2.6h-10.7c0.3,5.7,5.2,9.4,10.7,9.4
			V74.5z"/>
	</g>
</g>
</svg>
