<?xml version="1.0" encoding="utf-8"?>
<!-- Generator: Adobe Illustrator 20.1.0, SVG Export Plug-In . SVG Version: 6.00 Build 0)  -->
<svg version="1.1" id="Layer_1" xmlns="http://www.w3.org/2000/svg" xmlns:xlink="http://www.w3.org/1999/xlink" x="0px" y="0px"
	 viewBox="0 0 289.1 87.9" style="enable-background:new 0 0 289.1 87.9;" xml:space="preserve">
<style type="text/css">
	.st0{fill:#020203;}
	.st1{fill:#FFFFFF;}
	.st2{fill-rule:evenodd;clip-rule:evenodd;fill:#FFFFFF;}
</style>
<g>
	<rect x="1.7" y="2.2" class="st0" width="285.7" height="83.4"/>
	<g>
		<path class="st1" d="M71.8,66.7l1.2-0.1c0.1,0.4,0.2,0.7,0.5,0.9c0.2,0.2,0.5,0.3,0.9,0.3c0.4,0,0.7-0.1,0.9-0.3
			c0.2-0.2,0.3-0.4,0.3-0.6c0-0.1,0-0.3-0.1-0.4c-0.1-0.1-0.2-0.2-0.5-0.3c-0.1,0-0.5-0.1-1-0.3c-0.7-0.2-1.2-0.4-1.4-0.6
			c-0.4-0.3-0.6-0.8-0.6-1.3c0-0.3,0.1-0.6,0.3-0.9c0.2-0.3,0.4-0.5,0.8-0.6c0.3-0.1,0.8-0.2,1.2-0.2c0.8,0,1.4,0.2,1.8,0.5
			c0.4,0.3,0.6,0.8,0.6,1.4l-1.3,0c-0.1-0.3-0.2-0.6-0.4-0.7c-0.2-0.1-0.4-0.2-0.8-0.2c-0.4,0-0.7,0.1-0.9,0.2
			c-0.1,0.1-0.2,0.2-0.2,0.4c0,0.1,0.1,0.3,0.2,0.4c0.2,0.1,0.5,0.3,1.2,0.4c0.6,0.1,1.1,0.3,1.4,0.5c0.3,0.2,0.5,0.4,0.7,0.6
			c0.2,0.3,0.2,0.6,0.2,1c0,0.4-0.1,0.7-0.3,1c-0.2,0.3-0.5,0.5-0.9,0.7c-0.4,0.2-0.8,0.2-1.4,0.2c-0.8,0-1.4-0.2-1.8-0.6
			C72.1,68,71.9,67.4,71.8,66.7"/>
		<path class="st1" d="M85.8,68.8h-1.4l-0.5-1.4h-2.5l-0.5,1.4h-1.3l2.4-6.3h1.3L85.8,68.8z M83.5,66.3L82.6,64l-0.8,2.3H83.5z"/>
		<path class="st1" d="M94.4,68.8H93l-0.5-1.4h-2.5l-0.5,1.4h-1.3l2.4-6.3h1.3L94.4,68.8z M92.1,66.3L91.2,64l-0.8,2.3H92.1z"/>
		<path class="st1" d="M97.3,68.8v-6.3h2.7c0.7,0,1.2,0.1,1.5,0.2c0.3,0.1,0.5,0.3,0.7,0.6c0.2,0.3,0.3,0.6,0.3,1
			c0,0.5-0.1,0.9-0.4,1.2c-0.3,0.3-0.7,0.5-1.2,0.6c0.3,0.2,0.5,0.3,0.7,0.5c0.2,0.2,0.4,0.5,0.7,1l0.8,1.2h-1.5l-0.9-1.4
			c-0.3-0.5-0.6-0.8-0.7-0.9c-0.1-0.1-0.2-0.2-0.4-0.3c-0.1,0-0.3-0.1-0.6-0.1h-0.3v2.6H97.3z M98.5,65.2h0.9c0.6,0,1,0,1.1-0.1
			c0.2,0,0.3-0.1,0.4-0.3c0.1-0.1,0.1-0.3,0.1-0.5c0-0.2-0.1-0.4-0.2-0.5c-0.1-0.1-0.3-0.2-0.5-0.2c-0.1,0-0.4,0-0.9,0h-1V65.2z"/>
		<polygon class="st1" points="105.8,68.8 105.8,62.5 107.1,62.5 107.1,67.7 110.3,67.7 110.3,68.8 		"/>
		<path class="st1" d="M119,68.8h-1.4l-0.5-1.4h-2.5l-0.5,1.4h-1.3l2.4-6.3h1.3L119,68.8z M116.7,66.3l-0.9-2.3l-0.8,2.3H116.7z"/>
		<path class="st1" d="M121.6,66.7l1.2-0.1c0.1,0.4,0.2,0.7,0.5,0.9c0.2,0.2,0.5,0.3,0.9,0.3c0.4,0,0.7-0.1,0.9-0.3
			c0.2-0.2,0.3-0.4,0.3-0.6c0-0.1,0-0.3-0.1-0.4c-0.1-0.1-0.2-0.2-0.5-0.3c-0.1,0-0.5-0.1-1-0.3c-0.7-0.2-1.2-0.4-1.4-0.6
			c-0.4-0.3-0.6-0.8-0.6-1.3c0-0.3,0.1-0.6,0.3-0.9c0.2-0.3,0.4-0.5,0.8-0.6c0.3-0.1,0.8-0.2,1.2-0.2c0.8,0,1.4,0.2,1.8,0.5
			c0.4,0.3,0.6,0.8,0.6,1.4l-1.3,0c-0.1-0.3-0.2-0.6-0.4-0.7c-0.2-0.1-0.4-0.2-0.8-0.2c-0.4,0-0.7,0.1-0.9,0.2
			c-0.1,0.1-0.2,0.2-0.2,0.4c0,0.1,0.1,0.3,0.2,0.4c0.2,0.1,0.6,0.3,1.2,0.4c0.6,0.1,1.1,0.3,1.4,0.5c0.3,0.2,0.5,0.4,0.7,0.6
			c0.2,0.3,0.3,0.6,0.3,1c0,0.4-0.1,0.7-0.3,1c-0.2,0.3-0.5,0.5-0.9,0.7c-0.4,0.2-0.8,0.2-1.4,0.2c-0.8,0-1.4-0.2-1.8-0.6
			C121.9,68,121.6,67.4,121.6,66.7"/>
		<polygon class="st1" points="131.4,68.8 131.4,63.6 129.5,63.6 129.5,62.5 134.5,62.5 134.5,63.6 132.6,63.6 132.6,68.8 		"/>
		<polygon class="st1" points="137.5,68.8 137.5,62.5 142.2,62.5 142.2,63.6 138.8,63.6 138.8,64.9 141.9,64.9 141.9,66 138.8,66 
			138.8,67.7 142.3,67.7 142.3,68.8 		"/>
		<path class="st1" d="M150.3,68.8v-6.3h2c0.8,0,1.3,0,1.5,0.1c0.4,0.1,0.7,0.3,0.9,0.6c0.2,0.3,0.4,0.7,0.4,1.2
			c0,0.4-0.1,0.7-0.2,1c-0.1,0.3-0.3,0.5-0.5,0.6c-0.2,0.2-0.4,0.2-0.7,0.3c-0.3,0.1-0.7,0.1-1.3,0.1h-0.8v2.4H150.3z M151.6,63.6
			v1.8h0.7c0.5,0,0.8,0,1-0.1c0.2-0.1,0.3-0.2,0.4-0.3c0.1-0.1,0.1-0.3,0.1-0.5c0-0.2-0.1-0.4-0.2-0.6c-0.1-0.2-0.3-0.2-0.5-0.3
			c-0.2,0-0.5,0-0.9,0H151.6z"/>
		<path class="st1" d="M164,68.8h-1.4l-0.6-1.4h-2.5l-0.5,1.4h-1.3l2.4-6.3h1.3L164,68.8z M159.4,60.9h1v1h-1V60.9z M161.7,66.3
			l-0.9-2.3l-0.9,2.3H161.7z M161.3,60.9h1v1h-1V60.9z"/>
		<polygon class="st1" points="166.9,68.8 166.9,62.5 171.5,62.5 171.5,63.6 168.2,63.6 168.2,64.9 171.3,64.9 171.3,66 168.2,66 
			168.2,67.7 171.7,67.7 171.7,68.8 		"/>
		<polygon class="st1" points="176.5,68.8 174.3,62.5 175.7,62.5 177.3,67.1 178.8,62.5 180.2,62.5 177.9,68.8 		"/>
		<path class="st1" d="M188,68.8h-1.4l-0.6-1.4h-2.5l-0.5,1.4h-1.3l2.4-6.3h1.3L188,68.8z M185.7,66.3l-0.9-2.3l-0.8,2.3H185.7z"/>
		<polygon class="st1" points="190.9,68.8 190.9,62.5 192.2,62.5 192.2,67.7 195.3,67.7 195.3,68.8 		"/>
		<polygon class="st1" points="198.4,68.8 198.4,62.5 203.1,62.5 203.1,63.6 199.7,63.6 199.7,64.9 202.9,64.9 202.9,66 199.7,66 
			199.7,67.7 203.2,67.7 203.2,68.8 		"/>
		<polygon class="st1" points="206.5,68.8 206.5,62.5 207.7,62.5 207.7,65 210.2,65 210.2,62.5 211.5,62.5 211.5,68.8 210.2,68.8 
			210.2,66 207.7,66 207.7,68.8 		"/>
		<polygon class="st1" points="216.4,68.8 216.4,63.6 214.6,63.6 214.6,62.5 219.6,62.5 219.6,63.6 217.7,63.6 217.7,68.8 		"/>
		<path class="st2" d="M258.6,19c-0.1,2.2-0.1,4.6-0.2,7.2c0,2.5-0.1,5.5-0.1,9v3.3c0,3.9,0,6.7,0.1,8.2c0.1,1.5,0.1,2.5,0.3,3
			c0.1,0.4,0.3,0.7,0.7,0.9c0.4,0.2,0.8,0.3,1.4,0.3c0,0,0.1,0,0.2,0c0.1,0,0.2,0,0.3,0l0,2.6c-1.3-0.1-2.6-0.2-3.7-0.2
			c-1.1-0.1-2-0.1-2.8-0.1c-0.8,0-1.7,0-2.8,0.1c-1.1,0.1-2.3,0.1-3.6,0.2v-2.6c0.1,0,0.1,0,0.3,0c0.1,0,0.2,0,0.3,0
			c1,0,1.7-0.4,2-1.1c0.3-0.7,0.5-2.5,0.5-5.2V41v-1l0-4.7v-7.9c0-1.7-0.2-2.8-0.4-3.3c-0.3-0.5-0.8-0.8-1.6-0.8c-0.1,0-0.2,0-0.3,0
			c-0.1,0-0.3,0-0.6,0.1l-0.1-2.4c1.7-0.2,3.4-0.5,5.1-0.9C255.4,19.8,257,19.4,258.6,19"/>
		<path class="st2" d="M232.2,24.3c0.5,0,0.9,0.3,1.4,0.8c0.5,0.5,0.7,1,0.7,1.5c0,0.5-0.2,1-0.7,1.5c-0.5,0.5-0.9,0.8-1.4,0.8
			c-0.5,0-0.9-0.3-1.4-0.8c-0.5-0.5-0.7-1-0.7-1.5c0-0.5,0.2-1,0.7-1.5C231.3,24.6,231.8,24.3,232.2,24.3"/>
		<path class="st2" d="M239,24.3c0.5,0,1,0.3,1.4,0.8c0.5,0.5,0.7,1,0.7,1.5c0,0.5-0.2,1-0.7,1.5c-0.5,0.5-1,0.8-1.4,0.8
			c-0.5,0-1-0.3-1.4-0.8c-0.5-0.5-0.7-1-0.7-1.5c0-0.5,0.2-1,0.7-1.5C238,24.6,238.5,24.3,239,24.3"/>
		<path class="st2" d="M208.8,24.1c0.5,0,0.9,0.3,1.4,0.8c0.5,0.5,0.7,1,0.7,1.5c0,0.5-0.2,1-0.7,1.5c-0.5,0.5-0.9,0.8-1.4,0.8
			c-0.5,0-1-0.3-1.4-0.8c-0.5-0.5-0.7-1-0.7-1.5c0-0.5,0.2-1,0.7-1.5C207.8,24.4,208.3,24.1,208.8,24.1"/>
		<path class="st2" d="M215.6,24.1c0.5,0,1,0.3,1.4,0.8c0.5,0.5,0.7,1,0.7,1.5c0,0.5-0.2,1-0.7,1.5c-0.5,0.5-1,0.8-1.4,0.8
			c-0.5,0-0.9-0.3-1.4-0.8c-0.5-0.5-0.7-1-0.7-1.5c0-0.5,0.2-1,0.7-1.5C214.6,24.4,215.1,24.1,215.6,24.1"/>
		<path class="st2" d="M168.8,21.7c1.7,0.1,3,0.2,4,0.3c1,0.1,1.8,0.1,2.4,0.1c0.9,0,1.9,0,3-0.1c1.1-0.1,2.5-0.1,4-0.3v2.7h-0.4
			c-1.1,0-1.8,0.3-2.2,0.9c-0.4,0.6-0.6,2.3-0.6,4.9v0.6v3.9c0.8,0.1,1.6,0.1,2.4,0.1c0.8,0,1.7,0.1,2.6,0.1c1.5,0,3-0.1,4.6-0.2
			c0.4,0,0.7,0,0.8,0h0.1v-5.1c0-2.3-0.2-3.8-0.6-4.4c-0.4-0.6-1.1-0.9-2.2-0.9h-0.4v-2.7c1.5,0.1,2.9,0.2,4,0.3
			c1.1,0.1,2.1,0.1,3,0.1c0.6,0,1.5,0,2.5-0.1c1-0.1,2.4-0.1,4-0.3v2.7c-0.1,0-0.2,0-0.3,0c-0.1,0-0.3,0-0.4,0c-1,0-1.6,0.5-2,1.4
			c-0.3,0.9-0.5,3.2-0.5,6.9v1.9v1.6v2.7c0,0.6,0,1.5,0,2.6c0,1.1,0,1.9,0,2.3c0,1.8,0,3.1,0.1,4c0.1,0.8,0.2,1.5,0.4,1.9
			c0.2,0.4,0.4,0.7,0.8,0.9c0.4,0.2,0.9,0.3,1.5,0.3c0.1,0,0.2,0,0.3,0c0.2,0,0.3,0,0.3,0v2.7c-1.7-0.1-3.1-0.2-4.2-0.3
			c-1.1-0.1-1.9-0.1-2.6-0.1c-0.8,0-1.8,0-3,0.1c-1.2,0-2.6,0.1-4.2,0.3v-2.7c0.1,0,0.2,0,0.3,0c0.1,0,0.3,0,0.5,0
			c1,0,1.7-0.3,2.1-0.9c0.4-0.6,0.6-2.2,0.6-4.8v-0.9V44v-4.5c-0.9-0.1-1.8-0.1-2.6-0.1c-0.9,0-1.8,0-2.7,0c-1,0-2.4,0-4.1,0.1
			c-0.5,0-0.9,0-1.1,0v4.6V45c0,2.6,0.2,4.1,0.5,4.7c0.4,0.6,1.1,0.9,2.1,0.9h0.8v2.7c-1.7-0.1-3.1-0.2-4.2-0.3
			c-1.2-0.1-2.2-0.1-3-0.1c-0.6,0-1.4,0-2.5,0.1c-1,0-2.4,0.1-4.2,0.3v-2.7h0.5c0.7,0,1.2-0.1,1.5-0.3c0.3-0.2,0.6-0.4,0.7-0.8
			c0.3-0.8,0.5-3.9,0.6-9.1v-1.5v-2.7c0-0.9,0-2,0-3.4c0-1.4,0-2.3,0-2.8c0-2.3-0.2-3.9-0.5-4.6c-0.4-0.7-1-1.1-2-1.1
			c-0.2,0-0.3,0-0.4,0c-0.1,0-0.2,0-0.3,0V21.7z"/>
		<path class="st2" d="M125.2,25.9l2.4,0.6c0,0.2,0,0.5-0.1,1c-0.1,1.9-0.2,3.3-0.2,4.3c1,0,2,0,3-0.1c1-0.1,2.1-0.1,3.1-0.2
			l-0.6,4.1c-1-0.1-1.8-0.1-2.6-0.2c-0.8,0-1.5-0.1-2.1-0.1h-0.9c0,0.5,0,1.2,0,2.1c0,2.5-0.1,4.2-0.1,5c0,2.8,0.2,4.7,0.6,5.6
			c0.4,1,1.2,1.4,2.2,1.4c0.3,0,0.8-0.1,1.2-0.2c0.5-0.2,1.1-0.4,1.7-0.8l1,2.6c-1.8,1.1-3.4,1.9-4.6,2.4c-1.2,0.5-2.3,0.8-3.2,0.8
			c-1.9,0-3.3-0.7-4.3-2c-1-1.4-1.5-3.3-1.5-5.9c0-0.4,0-1.8,0.1-4.3c0.1-2.4,0.1-4.7,0.1-6.7c-0.2,0-0.6,0-1.4,0
			c-0.8,0-1.4,0.1-1.8,0.1l0-3c1.8-0.3,3.4-1,4.7-2C123.3,29.4,124.4,27.9,125.2,25.9"/>
		<path class="st2" d="M109.1,30.2c-0.1,1-0.1,2.1-0.2,3.1c-0.1,1-0.1,2.1-0.1,3.1c1.1-2.3,2.1-3.8,2.8-4.6c0.8-0.8,1.6-1.2,2.5-1.2
			c0.9,0,1.6,0.4,2.2,1.2c0.6,0.8,0.9,1.8,0.9,2.9c0,1-0.2,1.9-0.7,2.5c-0.5,0.7-1,1-1.7,1c-0.4,0-0.9-0.2-1.5-0.7
			c-0.6-0.4-1.1-0.7-1.5-0.7c-0.4,0-0.8,0.2-1.3,0.5c-0.5,0.3-1,0.9-1.5,1.5c0,0.6,0,1.2,0,1.9c0,0.7,0,1.5,0,2.6V46
			c0,2.2,0.2,3.5,0.6,4.1c0.4,0.6,1.3,0.8,2.5,0.8c0.2,0,0.4,0,0.6,0c0.1,0,0.3,0,0.4,0v2.4c-1.6-0.1-3-0.2-4.3-0.3
			c-1.3-0.1-2.4-0.1-3.4-0.1c-0.6,0-1.5,0-2.6,0.1c-1.1,0.1-2.3,0.1-3.7,0.3v-2.5c0.1,0,0.2,0,0.3,0c0.1,0,0.2,0,0.3,0
			c1.7,0,2.6-2.3,2.6-6.8c0-0.8,0-1.3,0-1.8l0-2.5v-1.7c0-1.4-0.2-2.3-0.5-2.7c-0.3-0.4-0.8-0.6-1.6-0.6c-0.2,0-0.3,0-0.5,0
			c-0.2,0-0.4,0-0.6,0L99,32.5c1.6-0.2,3.3-0.5,5-0.9C105.7,31.2,107.4,30.8,109.1,30.2"/>
		<path class="st2" d="M49.2,22.8v1.4c0,1.3,0,2.5,0.1,3.7c0.1,1.2,0.2,2.4,0.4,3.6L46.9,32c-0.2-2.2-0.8-3.9-2-5
			c-1.2-1.1-2.8-1.7-4.9-1.7c-1.5,0-2.7,0.4-3.6,1.1c-0.9,0.7-1.4,1.7-1.4,2.9c0,1.7,1.9,3,5.8,3.9c0.3,0.1,0.5,0.1,0.6,0.2
			c3.3,0.8,5.7,1.9,7.1,3.4c1.4,1.5,2.1,3.5,2.1,6c0,3.4-1.2,6.2-3.7,8.4c-2.4,2.1-5.7,3.2-9.7,3.2c-1.7,0-3.3-0.2-4.8-0.5
			c-1.5-0.3-2.9-0.9-4.2-1.5c0-0.2,0-0.4,0-0.6c0-0.2,0-0.5,0-1c0-1.4-0.1-2.8-0.2-4.2c-0.1-1.4-0.3-2.8-0.6-4.2l2.9-0.6
			c0.4,2.8,1.3,4.9,2.5,6.2c1.2,1.3,2.9,2,5.1,2c1.6,0,2.9-0.4,3.9-1.1c1-0.7,1.4-1.7,1.4-2.9c0-1.8-1.7-3.2-5.2-4.2
			c-0.7-0.2-1.2-0.3-1.5-0.4c-3.3-1-5.6-2.2-6.9-3.6c-1.3-1.4-2-3.4-2-5.8c0-3.2,1.2-5.8,3.5-7.9c2.3-2.1,5.3-3.1,9-3.1
			c1.6,0,3.2,0.2,4.6,0.5C46.6,21.7,47.9,22.2,49.2,22.8"/>
		<path class="st2" d="M246.8,48.7c-0.5,0.3-0.9,0.5-1.1,0.6c-0.3,0.1-0.5,0.2-0.7,0.2c-0.4,0-0.8-0.2-1-0.6c-0.2-0.4-0.3-1-0.3-1.7
			c0-1.3,0-3,0.2-5c0.1-2,0.1-3.3,0.1-3.9c0-2.7-0.6-4.7-1.9-6c-1.2-1.3-3.1-2-5.6-2c-1.5,0-3,0.3-4.5,0.9c-1.5,0.6-2.9,1.5-4,2.6
			c-0.6,0.6-1.1,1.2-1.5,1.8c-0.3,0.6-0.5,1.1-0.5,1.6c0,0.6,0.2,1.1,0.6,1.4c0.4,0.3,0.9,0.5,1.6,0.5c1.1,0,1.9-0.2,2.4-0.5
			c0.5-0.3,0.8-0.8,0.8-1.5v-0.5c0-0.6,0.3-1.2,0.8-1.6c0.5-0.4,1.3-0.6,2.2-0.6c0.9,0,1.6,0.3,2,0.8c0.4,0.5,0.7,1.3,0.7,2.4
			c0,0.1,0,0.4,0,0.9c0,0.5,0,1,0,1.4c-0.7,0.2-1.7,0.5-2.9,0.8c-5.9,1.5-8.9,3.8-8.9,6.8c0,1.8,0.5,3.4,1.6,4.8
			c1.1,1.3,2.3,2,3.8,2c0.8,0,1.7-0.3,2.7-0.8c1-0.5,2.2-1.4,3.8-2.6c0,1.1,0.3,2,0.9,2.5c0.6,0.6,1.4,0.9,2.5,0.9
			c0.8,0,1.7-0.3,2.9-0.8c1.1-0.5,2.6-1.4,4.4-2.6L246.8,48.7z M237,48.1c-0.7,0.6-1.4,1-1.8,1.2c-0.5,0.2-0.9,0.3-1.2,0.3
			c-0.6,0-1.2-0.3-1.6-0.8c-0.4-0.5-0.7-1.2-0.7-1.9c0-1.3,1.4-2.5,4.1-3.4c0.5-0.2,1-0.3,1.2-0.4L237,48.1z"/>
		<path class="st2" d="M223.3,48.7c-0.5,0.3-0.9,0.5-1.1,0.6c-0.3,0.1-0.5,0.2-0.7,0.2c-0.4,0-0.8-0.2-1-0.6c-0.2-0.4-0.3-1-0.3-1.7
			c0-1.3,0.1-3,0.2-5c0.1-2,0.1-3.3,0.1-3.9c0-2.7-0.6-4.7-1.9-6c-1.2-1.3-3.1-2-5.6-2c-1.5,0-3,0.3-4.5,0.9c-1.5,0.6-2.9,1.5-4,2.6
			c-0.6,0.6-1.1,1.2-1.5,1.8c-0.3,0.6-0.5,1.1-0.5,1.6c0,0.6,0.2,1.1,0.6,1.4c0.4,0.3,0.9,0.5,1.6,0.5c1.1,0,1.9-0.2,2.4-0.5
			c0.5-0.3,0.8-0.8,0.8-1.5v-0.5c0-0.6,0.3-1.2,0.8-1.6c0.5-0.4,1.3-0.6,2.2-0.6c0.9,0,1.6,0.3,2,0.8c0.4,0.5,0.7,1.3,0.7,2.4
			c0,0.1,0,0.4,0,0.9c0,0.5,0,1,0,1.4c-0.7,0.2-1.7,0.5-2.9,0.8c-5.9,1.5-8.9,3.8-8.9,6.8c0,1.8,0.5,3.4,1.6,4.8
			c1.1,1.3,2.3,2,3.8,2c0.8,0,1.7-0.3,2.7-0.8c1-0.5,2.2-1.4,3.7-2.6c0,1.1,0.3,2,0.9,2.5c0.6,0.6,1.4,0.9,2.5,0.9
			c0.8,0,1.7-0.3,2.9-0.8c1.1-0.5,2.6-1.4,4.4-2.6L223.3,48.7z M213.5,48.1c-0.8,0.6-1.4,1-1.8,1.2c-0.5,0.2-0.9,0.3-1.2,0.3
			c-0.6,0-1.2-0.3-1.6-0.8c-0.4-0.5-0.7-1.2-0.7-1.9c0-1.3,1.4-2.5,4.1-3.4c0.6-0.2,1-0.3,1.2-0.4L213.5,48.1z"/>
		<path class="st2" d="M97.6,48.7c-0.5,0.3-0.9,0.5-1.1,0.6c-0.3,0.1-0.5,0.2-0.7,0.2c-0.4,0-0.8-0.2-1-0.6c-0.2-0.4-0.3-1-0.3-1.7
			c0-1.3,0.1-3,0.2-5c0.1-2,0.1-3.3,0.1-3.9c0-2.7-0.6-4.7-1.9-6c-1.2-1.3-3.1-2-5.6-2c-1.5,0-3,0.3-4.5,0.9c-1.5,0.6-2.9,1.5-4,2.6
			c-0.6,0.6-1.1,1.2-1.5,1.8c-0.3,0.6-0.5,1.1-0.5,1.6c0,0.6,0.2,1.1,0.6,1.4c0.4,0.3,0.9,0.5,1.6,0.5c1.1,0,1.9-0.2,2.4-0.5
			c0.5-0.3,0.8-0.8,0.8-1.5v-0.5c0-0.6,0.3-1.2,0.8-1.6c0.5-0.4,1.3-0.6,2.2-0.6c0.9,0,1.6,0.3,2,0.8c0.4,0.5,0.7,1.3,0.7,2.4
			c0,0.1,0,0.4,0,0.9c0,0.5,0,1,0,1.4c-0.7,0.2-1.7,0.5-2.9,0.8C79,42.4,76,44.6,76,47.6c0,1.8,0.5,3.4,1.6,4.8c1.1,1.3,2.3,2,3.9,2
			c0.8,0,1.7-0.3,2.7-0.8c1-0.5,2.2-1.4,3.7-2.6c0,1.1,0.3,2,0.9,2.5c0.6,0.6,1.4,0.9,2.5,0.9c0.8,0,1.7-0.3,2.9-0.8
			c1.1-0.5,2.6-1.4,4.4-2.6L97.6,48.7z M87.8,48.1c-0.8,0.6-1.4,1-1.8,1.2c-0.5,0.2-0.9,0.3-1.2,0.3c-0.6,0-1.2-0.3-1.6-0.8
			c-0.4-0.5-0.7-1.2-0.7-1.9c0-1.3,1.4-2.5,4.1-3.4c0.5-0.2,1-0.3,1.2-0.4L87.8,48.1z"/>
		<path class="st2" d="M74,48.7c-0.5,0.3-0.9,0.5-1.1,0.6c-0.3,0.1-0.5,0.2-0.7,0.2c-0.4,0-0.8-0.2-1-0.6c-0.2-0.4-0.3-1-0.3-1.7
			c0-1.3,0.1-3,0.2-5c0.1-2,0.2-3.3,0.2-3.9c0-2.7-0.6-4.7-1.9-6c-1.2-1.3-3.1-2-5.6-2c-1.5,0-3,0.3-4.5,0.9c-1.5,0.6-2.9,1.5-4,2.6
			c-0.6,0.6-1.1,1.2-1.5,1.8c-0.3,0.6-0.5,1.1-0.5,1.6c0,0.6,0.2,1.1,0.6,1.4c0.4,0.3,0.9,0.5,1.6,0.5c1.1,0,1.9-0.2,2.4-0.5
			c0.5-0.3,0.8-0.8,0.8-1.5v-0.5c0-0.6,0.3-1.2,0.8-1.6c0.5-0.4,1.3-0.6,2.2-0.6c0.9,0,1.6,0.3,2,0.8c0.4,0.5,0.7,1.3,0.7,2.4
			c0,0.1,0,0.4,0,0.9c0,0.5,0,1,0,1.4c-0.7,0.2-1.7,0.5-2.9,0.8c-5.9,1.5-8.9,3.8-8.9,6.8c0,1.8,0.5,3.4,1.6,4.8
			c1.1,1.3,2.3,2,3.9,2c0.8,0,1.7-0.3,2.7-0.8c1-0.5,2.2-1.4,3.7-2.6c0,1.1,0.3,2,0.9,2.5c0.6,0.6,1.4,0.9,2.5,0.9
			c0.8,0,1.7-0.3,2.9-0.8c1.1-0.5,2.6-1.4,4.4-2.6L74,48.7z M64.3,48.1c-0.8,0.6-1.4,1-1.8,1.2c-0.5,0.2-0.9,0.3-1.2,0.3
			c-0.6,0-1.2-0.3-1.6-0.8c-0.4-0.5-0.7-1.2-0.7-1.9c0-1.3,1.4-2.5,4.1-3.4c0.5-0.2,1-0.3,1.2-0.4L64.3,48.1z"/>
		<path class="st2" d="M153.5,47c-1.2,0.7-2.3,1.2-3.3,1.5c-1,0.3-1.8,0.5-2.6,0.5c-1.8,0-3.1-0.5-4.1-1.6c-1-1.1-1.6-2.6-1.7-4.6
			c0.6-0.1,1.2-0.2,1.9-0.2c0.7,0,1.5-0.1,2.2-0.1h8.6v-0.4c0-3.7-0.8-6.6-2.5-8.7c-1.7-2.1-3.9-3.2-6.8-3.2c-3.1,0-5.7,1.2-7.7,3.6
			c-2.1,2.4-3.5,5.4-3.5,8.9c0,3.4,1.3,6.2,3.2,8.3c1.8,2.1,4.3,3.2,7.2,3.2c1.7,0,3.4-0.4,5-1.1c1.6-0.7,3.3-1.8,5.1-3.4L153.5,47z
			 M142.6,35.4c0.6-1,1.4-1.5,2.3-1.5c0.9,0,1.7,0.5,2.3,1.4c0.6,0.9,0.9,2.2,1,3.8c-0.7,0.1-1.6,0.2-2.6,0.3
			c-1.1,0.1-2.4,0.1-3.9,0.1C141.7,37.7,142,36.3,142.6,35.4"/>
	</g>
</g>
</svg>
