<?xml version="1.0" encoding="utf-8"?>
<!-- Generator: Adobe Illustrator 20.1.0, SVG Export Plug-In . SVG Version: 6.00 Build 0)  -->
<svg version="1.1" id="Layer_1" xmlns="http://www.w3.org/2000/svg" xmlns:xlink="http://www.w3.org/1999/xlink" x="0px" y="0px"
	 viewBox="0 0 496.1 637.8" style="enable-background:new 0 0 496.1 637.8;" xml:space="preserve">
<style type="text/css">
	.st0{fill:#E5E4E4;stroke:#1D1D1C;stroke-width:0.5;stroke-miterlimit:10;}
	.st1{fill:#CFCECE;}
	.st2{fill:none;stroke:#000000;stroke-width:0.5;stroke-miterlimit:10;}
	.st3{font-family:'MyriadPro-Regular';}
	.st4{font-size:5.2696px;}
	.st5{fill:none;stroke:#000000;stroke-width:0.5;stroke-miterlimit:10;stroke-dasharray:4.0533,4.0533;}
	.st6{fill:#CFCECE;stroke:#1D1D1C;stroke-width:0.5;stroke-miterlimit:10;}
	.st7{fill:none;stroke:#000000;stroke-width:0.1;stroke-miterlimit:10;stroke-dasharray:4,1,0.2,1;}
	.st8{fill:#CFCECE;stroke:#000000;stroke-width:0.5;stroke-miterlimit:10;}
	.st9{fill:#9E9E9E;stroke:#000000;stroke-width:0.5;stroke-miterlimit:10;}
	.st10{font-family:'MyriadPro-Semibold';}
	.st11{font-size:12.3208px;}
	.st12{fill:none;stroke:#000000;stroke-width:0.5;stroke-miterlimit:10;stroke-dasharray:4;}
	.st13{fill:none;stroke:#000000;stroke-width:0.2;stroke-miterlimit:10;stroke-dasharray:2,1;}
	.st14{fill:none;stroke:#000000;stroke-width:0.5;stroke-linecap:round;stroke-linejoin:round;stroke-miterlimit:10;}
</style>
<g>
	<path class="st0" d="M437,27.9h11.2v-1.9H34.4v361.7h11.2c4,0,7.3,3.3,7.3,7.3V433c0,4-3.3,7.3-7.3,7.3H34.4v2H82v-83.1H64.2V55.9
		h336.4v386.3h47.7v-50.2H437c-4,0-7.3-3.3-7.3-7.3V141.3c0-4,3.3-7.3,7.3-7.3h11.2V98.8H437c-4,0-7.3-3.3-7.3-7.3V35.2
		C429.7,31.2,433,27.9,437,27.9z"/>
	<rect x="448.2" y="133.1" class="st1" width="17.5" height="277.9"/>
	<rect x="103.4" y="562.6" class="st2" width="18.5" height="18.5"/>
	<rect x="121.9" y="562.6" class="st2" width="18.5" height="18.5"/>
	<rect x="140.4" y="562.6" class="st2" width="18.5" height="18.5"/>
	<rect x="158.9" y="562.6" class="st2" width="18.5" height="18.5"/>
	<rect x="177.4" y="562.6" class="st2" width="18.5" height="18.5"/>
	<rect x="195.9" y="562.6" class="st2" width="18.5" height="18.5"/>
	<rect x="214.4" y="562.6" class="st2" width="18.5" height="18.5"/>
	<rect x="232.9" y="562.6" class="st2" width="18.5" height="18.5"/>
	<rect x="251.4" y="562.6" class="st2" width="18.5" height="18.5"/>
	<rect x="269.9" y="562.6" class="st2" width="18.5" height="18.5"/>
	<rect x="288.4" y="562.6" class="st2" width="18.5" height="18.5"/>
	<rect x="306.9" y="562.6" class="st2" width="18.5" height="18.5"/>
	<rect x="325.4" y="562.6" class="st2" width="18.5" height="18.5"/>
	<rect x="343.9" y="562.6" class="st2" width="18.5" height="18.5"/>
	<rect x="362.4" y="562.6" class="st2" width="18.5" height="18.5"/>
	<ellipse class="st2" cx="243" cy="296.6" rx="146.7" ry="145.7"/>
	<g>
		<text transform="matrix(1 0 0 1 481.6042 77.7092)" class="st3 st4">21</text>
	</g>
	<g>
		<g>
			<line class="st2" x1="116.6" y1="442.2" x2="118.6" y2="442.2"/>
			<line class="st5" x1="122.7" y1="442.2" x2="363.8" y2="442.2"/>
			<line class="st2" x1="365.9" y1="442.2" x2="367.9" y2="442.2"/>
		</g>
	</g>
	<polygon class="st6" points="55.5,442.2 116.6,442.2 112.9,450.1 108.1,450.1 105.7,456.1 101.9,456.1 99.9,459.6 55.5,459.6 	"/>
	<polygon class="st6" points="427.4,442.2 367.5,442.2 371.3,450.1 374.7,450.1 377.7,456.1 380.7,456.1 382.4,459.6 427.4,459.6 	
		"/>
	<polygon class="st6" points="55.5,442.2 34.4,442.2 34.4,321.8 15.4,321.8 15.4,459.6 55.5,459.6 	"/>
	<line class="st7" x1="106" y1="455.6" x2="377.2" y2="455.6"/>
	<line class="st7" x1="60.2" y1="419.1" x2="448.2" y2="419.1"/>
	<line class="st7" x1="34.4" y1="382.6" x2="429.7" y2="382.6"/>
	<line class="st7" x1="34.4" y1="346.1" x2="429.7" y2="346.1"/>
	<line class="st7" x1="34.4" y1="309.8" x2="429.7" y2="309.8"/>
	<line class="st7" x1="34.4" y1="273" x2="429.7" y2="273"/>
	<line class="st7" x1="34.4" y1="236.8" x2="429.7" y2="236.8"/>
	<line class="st7" x1="34.4" y1="200.6" x2="429.7" y2="200.6"/>
	<line class="st7" x1="34.4" y1="164.1" x2="429.7" y2="164.1"/>
	<line class="st7" x1="34.4" y1="91.3" x2="429.7" y2="91.3"/>
	<line class="st7" x1="34.4" y1="54.3" x2="429.7" y2="54.3"/>
	<line class="st7" x1="34.4" y1="126.9" x2="448.2" y2="126.9"/>
	<line class="st7" x1="389.9" y1="442.2" x2="389.9" y2="26"/>
	<line class="st7" x1="426.4" y1="442.2" x2="426.4" y2="26"/>
	<line class="st7" x1="353.4" y1="528.2" x2="353.4" y2="26"/>
	<line class="st7" x1="316.9" y1="528.2" x2="316.9" y2="26.4"/>
	<line class="st7" x1="279.4" y1="528.2" x2="279.4" y2="26.1"/>
	<line class="st7" x1="243.1" y1="528.2" x2="243.1" y2="26.4"/>
	<line class="st7" x1="206.3" y1="528.2" x2="206.3" y2="26.4"/>
	<line class="st7" x1="170.1" y1="528.2" x2="170.1" y2="26.4"/>
	<line class="st7" x1="132.9" y1="528.2" x2="132.9" y2="26.1"/>
	<line class="st7" x1="96.4" y1="442.2" x2="96.4" y2="26.4"/>
	<line class="st7" x1="60.2" y1="442.2" x2="60.2" y2="26.1"/>
	<line class="st7" x1="60.2" y1="526.6" x2="60.2" y2="459.6"/>
	<line class="st7" x1="96.3" y1="493.2" x2="96.3" y2="459.6"/>
	<line class="st7" x1="389.9" y1="493.2" x2="389.9" y2="459.6"/>
	<line class="st7" x1="426.4" y1="528.2" x2="426.4" y2="459.6"/>
	<line class="st7" x1="60.2" y1="492.1" x2="426.4" y2="492.1"/>
	<polyline class="st6" points="448.2,98.8 448.2,26.1 34.6,26.1 34.4,216.1 15.4,216.1 15.4,5.1 35.4,5.1 35.4,6.8 94.8,6.8 
		94.8,5.1 101.4,5.1 101.4,10.3 149.4,10.3 149.4,5.1 155.8,5.1 155.8,7.1 211.3,7.1 211.3,5.1 217.4,5.1 217.4,10.3 265.1,10.3 
		265.1,5.1 272.1,5.1 272.1,6.9 327.9,6.9 327.9,5.1 334.8,5.1 334.8,10.3 381.6,10.3 381.6,5.1 388.6,5.1 388.6,6.8 448.2,6.8 
		448.2,5.1 466.3,5.1 466.3,98.8 	"/>
	<polyline class="st2" points="448.2,392.1 448.2,411.1 454.1,411.1 	"/>
	<polyline class="st2" points="457.9,411.1 465.7,411.1 465.7,133.5 	"/>
	<polyline class="st6" points="457.9,442.2 465.7,442.2 465.7,459.6 427.4,459.6 427.4,442.2 	"/>
	<polyline class="st2" points="427.4,442.2 448.2,442.2 448.2,411.1 	"/>
	<line class="st2" x1="454.1" y1="442.2" x2="448.2" y2="442.2"/>
	<path class="st8" d="M446.6,493.2v93c0,0-0.8-0.4-2.3-1.8c-1.2-1.1-0.8-2.7-1.8-2.8c-1.1-0.1-2,2.1-3,2.4c-1.3,0.4-3.1-1.5-5-1.9
		c-2.2-0.4,0.4-3.4-0.5-3.5c-1.5-0.2-3.9,4-5.3,3.8c-2.9-0.4-4.1,3.8-4.1,3.8v-48.8h11.6v-44.2H446.6z"/>
	<polygon class="st9" points="436.1,531.7 422.5,531.7 417.6,509.5 412.2,509.5 408.6,493.2 401.2,493.2 408,517.1 410.5,517.1 
		416.9,537.5 424.5,537.5 436.1,537.5 	"/>
	<rect x="34.4" y="493.2" class="st8" width="10.5" height="44.1"/>
	<polyline class="st2" points="84.5,493.2 114.2,493.2 104.2,528.2 378.2,528.2 369.4,493.2 401.2,493.2 	"/>
	<polyline class="st9" points="84.5,493.2 77.5,493.2 72.2,509.6 67.5,509.6 60.6,531.8 45,531.8 45,537.3 67.4,537.3 74.4,517.1 
		76.7,517.1 84.5,493.2 	"/>
	<path class="st8" d="M54.9,585.8c0,0,1.2,0.3,1.6,0.1c0.8-0.5,0.1-1,0.7-1.3c1.2-0.6,3,1.2,3,1.2v-48.5h-5.1v48.5"/>
	<path class="st2" d="M34.4,537.3v48.5c0,0,0.9-1.2,5.7,0.2c1.5,0.4,1.7-4,3.3-4.4c3.8-0.8,11.4,4.2,11.4,4.2"/>
	<rect x="356.1" y="612.3" class="st2" width="66.4" height="20.4"/>
	<line class="st2" x1="15.4" y1="216.1" x2="15.4" y2="321.8"/>
	<line class="st2" x1="34.4" y1="321.8" x2="34.4" y2="216.1"/>
	<g>
		<g>
			<polygon points="479.8,77 479.8,76.5 479.3,76.5 479.3,77 478.8,77 478.8,76.5 479.3,76.5 479.3,75.9 478.8,75.9 478.8,75.3 
				479.3,75.3 479.3,75.9 479.8,75.9 479.8,75.3 480.4,75.3 480.4,75.9 481,75.9 481,75.3 481.2,75.3 481.2,75.1 478.6,75.1 
				478.6,77.2 481.2,77.2 481.2,77 481,77 481,76.5 480.4,76.5 480.4,77 			"/>
			<rect x="479.8" y="75.9" width="0.6" height="0.6"/>
		</g>
		<g>
			<polygon points="488.8,75.3 488.8,75.9 489.4,75.9 489.4,75.3 489.9,75.3 489.9,75.9 489.4,75.9 489.4,76.5 489.9,76.5 489.9,77 
				489.4,77 489.4,76.5 488.8,76.5 488.8,77 488.2,77 488.2,76.5 487.6,76.5 487.6,77 487.4,77 487.4,77.2 490.1,77.2 490.1,75.1 
				487.4,75.1 487.4,75.3 487.6,75.3 487.6,75.9 488.2,75.9 488.2,75.3 			"/>
			<rect x="488.2" y="75.9" width="0.6" height="0.6"/>
		</g>
	</g>
	<g>
		<text transform="matrix(1 0 0 1 481.6042 93.8731)" class="st3 st4">20</text>
	</g>
	<g>
		<g>
			<polygon points="479.8,93.2 479.8,92.6 479.3,92.6 479.3,93.2 478.8,93.2 478.8,92.6 479.3,92.6 479.3,92 478.8,92 478.8,91.5 
				479.3,91.5 479.3,92 479.8,92 479.8,91.5 480.4,91.5 480.4,92 481,92 481,91.5 481.2,91.5 481.2,91.3 478.6,91.3 478.6,93.4 
				481.2,93.4 481.2,93.2 481,93.2 481,92.6 480.4,92.6 480.4,93.2 			"/>
			<rect x="479.8" y="92" width="0.6" height="0.6"/>
		</g>
		<g>
			<polygon points="488.8,91.5 488.8,92 489.4,92 489.4,91.5 489.9,91.5 489.9,92 489.4,92 489.4,92.6 489.9,92.6 489.9,93.2 
				489.4,93.2 489.4,92.6 488.8,92.6 488.8,93.2 488.2,93.2 488.2,92.6 487.6,92.6 487.6,93.2 487.4,93.2 487.4,93.4 490.1,93.4 
				490.1,91.3 487.4,91.3 487.4,91.5 487.6,91.5 487.6,92 488.2,92 488.2,91.5 			"/>
			<rect x="488.2" y="92" width="0.6" height="0.6"/>
		</g>
	</g>
	<g>
		<text transform="matrix(1 0 0 1 481.6042 110.5851)" class="st3 st4">19</text>
	</g>
	<g>
		<g>
			<polygon points="479.8,109.9 479.8,109.3 479.3,109.3 479.3,109.9 478.8,109.9 478.8,109.3 479.3,109.3 479.3,108.8 478.8,108.8 
				478.8,108.2 479.3,108.2 479.3,108.8 479.8,108.8 479.8,108.2 480.4,108.2 480.4,108.8 481,108.8 481,108.2 481.2,108.2 
				481.2,108 478.6,108 478.6,110.1 481.2,110.1 481.2,109.9 481,109.9 481,109.3 480.4,109.3 480.4,109.9 			"/>
			<rect x="479.8" y="108.8" width="0.6" height="0.6"/>
		</g>
		<g>
			<polygon points="488.8,108.2 488.8,108.8 489.4,108.8 489.4,108.2 489.9,108.2 489.9,108.8 489.4,108.8 489.4,109.3 489.9,109.3 
				489.9,109.9 489.4,109.9 489.4,109.3 488.8,109.3 488.8,109.9 488.2,109.9 488.2,109.3 487.6,109.3 487.6,109.9 487.4,109.9 
				487.4,110.1 490.1,110.1 490.1,108 487.4,108 487.4,108.2 487.6,108.2 487.6,108.8 488.2,108.8 488.2,108.2 			"/>
			<rect x="488.2" y="108.8" width="0.6" height="0.6"/>
		</g>
	</g>
	<g>
		<text transform="matrix(1 0 0 1 481.6042 126.9368)" class="st3 st4">18</text>
	</g>
	<g>
		<g>
			<polygon points="479.8,126.2 479.8,125.7 479.3,125.7 479.3,126.2 478.8,126.2 478.8,125.7 479.3,125.7 479.3,125.1 478.8,125.1 
				478.8,124.6 479.3,124.6 479.3,125.1 479.8,125.1 479.8,124.6 480.4,124.6 480.4,125.1 481,125.1 481,124.6 481.2,124.6 
				481.2,124.4 478.6,124.4 478.6,126.4 481.2,126.4 481.2,126.2 481,126.2 481,125.7 480.4,125.7 480.4,126.2 			"/>
			<rect x="479.8" y="125.1" width="0.6" height="0.6"/>
		</g>
		<g>
			<polygon points="488.8,124.6 488.8,125.1 489.4,125.1 489.4,124.6 489.9,124.6 489.9,125.1 489.4,125.1 489.4,125.7 489.9,125.7 
				489.9,126.2 489.4,126.2 489.4,125.7 488.8,125.7 488.8,126.2 488.2,126.2 488.2,125.7 487.6,125.7 487.6,126.2 487.4,126.2 
				487.4,126.4 490.1,126.4 490.1,124.4 487.4,124.4 487.4,124.6 487.6,124.6 487.6,125.1 488.2,125.1 488.2,124.6 			"/>
			<rect x="488.2" y="125.1" width="0.6" height="0.6"/>
		</g>
	</g>
	<g>
		<text transform="matrix(1 0 0 1 436.5821 48.0296)" class="st3 st4">21</text>
	</g>
	<g>
		<g>
			<polygon points="434.8,47.3 434.8,46.8 434.2,46.8 434.2,47.3 433.7,47.3 433.7,46.8 434.2,46.8 434.2,46.2 433.7,46.2 
				433.7,45.6 434.2,45.6 434.2,46.2 434.8,46.2 434.8,45.6 435.4,45.6 435.4,46.2 436,46.2 436,45.6 436.2,45.6 436.2,45.4 
				433.5,45.4 433.5,47.5 436.2,47.5 436.2,47.3 436,47.3 436,46.8 435.4,46.8 435.4,47.3 			"/>
			<rect x="434.8" y="46.2" width="0.6" height="0.6"/>
		</g>
		<g>
			<polygon points="443.7,45.6 443.7,46.2 444.3,46.2 444.3,45.6 444.8,45.6 444.8,46.2 444.3,46.2 444.3,46.8 444.8,46.8 
				444.8,47.3 444.3,47.3 444.3,46.8 443.7,46.8 443.7,47.3 443.2,47.3 443.2,46.8 442.6,46.8 442.6,47.3 442.4,47.3 442.4,47.5 
				445,47.5 445,45.4 442.4,45.4 442.4,45.6 442.6,45.6 442.6,46.2 443.2,46.2 443.2,45.6 			"/>
			<rect x="443.2" y="46.2" width="0.6" height="0.6"/>
		</g>
	</g>
	<g>
		<text transform="matrix(1 0 0 1 436.5821 70.3572)" class="st3 st4">20</text>
	</g>
	<g>
		<g>
			<polygon points="434.8,69.7 434.8,69.1 434.2,69.1 434.2,69.7 433.7,69.7 433.7,69.1 434.2,69.1 434.2,68.5 433.7,68.5 433.7,68 
				434.2,68 434.2,68.5 434.8,68.5 434.8,68 435.4,68 435.4,68.5 436,68.5 436,68 436.2,68 436.2,67.8 433.5,67.8 433.5,69.9 
				436.2,69.9 436.2,69.7 436,69.7 436,69.1 435.4,69.1 435.4,69.7 			"/>
			<rect x="434.8" y="68.5" width="0.6" height="0.6"/>
		</g>
		<g>
			<polygon points="443.7,68 443.7,68.5 444.3,68.5 444.3,68 444.8,68 444.8,68.5 444.3,68.5 444.3,69.1 444.8,69.1 444.8,69.7 
				444.3,69.7 444.3,69.1 443.7,69.1 443.7,69.7 443.2,69.7 443.2,69.1 442.6,69.1 442.6,69.7 442.4,69.7 442.4,69.9 445,69.9 
				445,67.8 442.4,67.8 442.4,68 442.6,68 442.6,68.5 443.2,68.5 443.2,68 			"/>
			<rect x="443.2" y="68.5" width="0.6" height="0.6"/>
		</g>
	</g>
	<g>
		<text transform="matrix(1 0 0 1 436.5821 82.527)" class="st3 st4">19</text>
	</g>
	<g>
		<g>
			<polygon points="434.8,81.8 434.8,81.3 434.2,81.3 434.2,81.8 433.7,81.8 433.7,81.3 434.2,81.3 434.2,80.7 433.7,80.7 
				433.7,80.1 434.2,80.1 434.2,80.7 434.8,80.7 434.8,80.1 435.4,80.1 435.4,80.7 436,80.7 436,80.1 436.2,80.1 436.2,79.9 
				433.5,79.9 433.5,82 436.2,82 436.2,81.8 436,81.8 436,81.3 435.4,81.3 435.4,81.8 			"/>
			<rect x="434.8" y="80.7" width="0.6" height="0.6"/>
		</g>
		<g>
			<polygon points="443.7,80.1 443.7,80.7 444.3,80.7 444.3,80.1 444.8,80.1 444.8,80.7 444.3,80.7 444.3,81.3 444.8,81.3 
				444.8,81.8 444.3,81.8 444.3,81.3 443.7,81.3 443.7,81.8 443.2,81.8 443.2,81.3 442.6,81.3 442.6,81.8 442.4,81.8 442.4,82 
				445,82 445,79.9 442.4,79.9 442.4,80.1 442.6,80.1 442.6,80.7 443.2,80.7 443.2,80.1 			"/>
			<rect x="443.2" y="80.7" width="0.6" height="0.6"/>
		</g>
	</g>
	<g>
		<text transform="matrix(1 0 0 1 436.5821 93.9173)" class="st3 st4">18</text>
	</g>
	<g>
		<g>
			<polygon points="434.8,93.2 434.8,92.7 434.2,92.7 434.2,93.2 433.7,93.2 433.7,92.7 434.2,92.7 434.2,92.1 433.7,92.1 
				433.7,91.5 434.2,91.5 434.2,92.1 434.8,92.1 434.8,91.5 435.4,91.5 435.4,92.1 436,92.1 436,91.5 436.2,91.5 436.2,91.3 
				433.5,91.3 433.5,93.4 436.2,93.4 436.2,93.2 436,93.2 436,92.7 435.4,92.7 435.4,93.2 			"/>
			<rect x="434.8" y="92.1" width="0.6" height="0.6"/>
		</g>
		<g>
			<polygon points="443.7,91.5 443.7,92.1 444.3,92.1 444.3,91.5 444.8,91.5 444.8,92.1 444.3,92.1 444.3,92.7 444.8,92.7 
				444.8,93.2 444.3,93.2 444.3,92.7 443.7,92.7 443.7,93.2 443.2,93.2 443.2,92.7 442.6,92.7 442.6,93.2 442.4,93.2 442.4,93.4 
				445,93.4 445,91.3 442.4,91.3 442.4,91.5 442.6,91.5 442.6,92.1 443.2,92.1 443.2,91.5 			"/>
			<rect x="443.2" y="92.1" width="0.6" height="0.6"/>
		</g>
	</g>
	<g>
		<text transform="matrix(1 0 0 1 436.5821 143.4797)" class="st3 st4">17</text>
	</g>
	<g>
		<g>
			<polygon points="434.8,142.8 434.8,142.2 434.2,142.2 434.2,142.8 433.7,142.8 433.7,142.2 434.2,142.2 434.2,141.6 433.7,141.6 
				433.7,141.1 434.2,141.1 434.2,141.6 434.8,141.6 434.8,141.1 435.4,141.1 435.4,141.6 436,141.6 436,141.1 436.2,141.1 
				436.2,140.9 433.5,140.9 433.5,143 436.2,143 436.2,142.8 436,142.8 436,142.2 435.4,142.2 435.4,142.8 			"/>
			<rect x="434.8" y="141.6" width="0.6" height="0.6"/>
		</g>
		<g>
			<polygon points="443.7,141.1 443.7,141.6 444.3,141.6 444.3,141.1 444.8,141.1 444.8,141.6 444.3,141.6 444.3,142.2 444.8,142.2 
				444.8,142.8 444.3,142.8 444.3,142.2 443.7,142.2 443.7,142.8 443.2,142.8 443.2,142.2 442.6,142.2 442.6,142.8 442.4,142.8 
				442.4,143 445,143 445,140.9 442.4,140.9 442.4,141.1 442.6,141.1 442.6,141.6 443.2,141.6 443.2,141.1 			"/>
			<rect x="443.2" y="141.6" width="0.6" height="0.6"/>
		</g>
	</g>
	<g>
		<text transform="matrix(1 0 0 1 436.5821 159.9375)" class="st3 st4">16</text>
	</g>
	<g>
		<g>
			<polygon points="434.8,159.2 434.8,158.7 434.2,158.7 434.2,159.2 433.7,159.2 433.7,158.7 434.2,158.7 434.2,158.1 433.7,158.1 
				433.7,157.6 434.2,157.6 434.2,158.1 434.8,158.1 434.8,157.6 435.4,157.6 435.4,158.1 436,158.1 436,157.6 436.2,157.6 
				436.2,157.4 433.5,157.4 433.5,159.4 436.2,159.4 436.2,159.2 436,159.2 436,158.7 435.4,158.7 435.4,159.2 			"/>
			<rect x="434.8" y="158.1" width="0.6" height="0.6"/>
		</g>
		<g>
			<polygon points="443.7,157.6 443.7,158.1 444.3,158.1 444.3,157.6 444.8,157.6 444.8,158.1 444.3,158.1 444.3,158.7 444.8,158.7 
				444.8,159.2 444.3,159.2 444.3,158.7 443.7,158.7 443.7,159.2 443.2,159.2 443.2,158.7 442.6,158.7 442.6,159.2 442.4,159.2 
				442.4,159.4 445,159.4 445,157.4 442.4,157.4 442.4,157.6 442.6,157.6 442.6,158.1 443.2,158.1 443.2,157.6 			"/>
			<rect x="443.2" y="158.1" width="0.6" height="0.6"/>
		</g>
	</g>
	<g>
		<text transform="matrix(1 0 0 1 436.5821 176.6218)" class="st3 st4">15</text>
	</g>
	<g>
		<g>
			<polygon points="434.8,175.9 434.8,175.4 434.2,175.4 434.2,175.9 433.7,175.9 433.7,175.4 434.2,175.4 434.2,174.8 433.7,174.8 
				433.7,174.2 434.2,174.2 434.2,174.8 434.8,174.8 434.8,174.2 435.4,174.2 435.4,174.8 436,174.8 436,174.2 436.2,174.2 
				436.2,174 433.5,174 433.5,176.1 436.2,176.1 436.2,175.9 436,175.9 436,175.4 435.4,175.4 435.4,175.9 			"/>
			<rect x="434.8" y="174.8" width="0.6" height="0.6"/>
		</g>
		<g>
			<polygon points="443.7,174.2 443.7,174.8 444.3,174.8 444.3,174.2 444.8,174.2 444.8,174.8 444.3,174.8 444.3,175.4 444.8,175.4 
				444.8,175.9 444.3,175.9 444.3,175.4 443.7,175.4 443.7,175.9 443.2,175.9 443.2,175.4 442.6,175.4 442.6,175.9 442.4,175.9 
				442.4,176.1 445,176.1 445,174 442.4,174 442.4,174.2 442.6,174.2 442.6,174.8 443.2,174.8 443.2,174.2 			"/>
			<rect x="443.2" y="174.8" width="0.6" height="0.6"/>
		</g>
	</g>
	<g>
		<text transform="matrix(1 0 0 1 436.5821 193.1222)" class="st3 st4">14</text>
	</g>
	<g>
		<g>
			<polygon points="434.8,192.4 434.8,191.9 434.2,191.9 434.2,192.4 433.7,192.4 433.7,191.9 434.2,191.9 434.2,191.3 433.7,191.3 
				433.7,190.7 434.2,190.7 434.2,191.3 434.8,191.3 434.8,190.7 435.4,190.7 435.4,191.3 436,191.3 436,190.7 436.2,190.7 
				436.2,190.5 433.5,190.5 433.5,192.6 436.2,192.6 436.2,192.4 436,192.4 436,191.9 435.4,191.9 435.4,192.4 			"/>
			<rect x="434.8" y="191.3" width="0.6" height="0.6"/>
		</g>
		<g>
			<polygon points="443.7,190.7 443.7,191.3 444.3,191.3 444.3,190.7 444.8,190.7 444.8,191.3 444.3,191.3 444.3,191.9 444.8,191.9 
				444.8,192.4 444.3,192.4 444.3,191.9 443.7,191.9 443.7,192.4 443.2,192.4 443.2,191.9 442.6,191.9 442.6,192.4 442.4,192.4 
				442.4,192.6 445,192.6 445,190.5 442.4,190.5 442.4,190.7 442.6,190.7 442.6,191.3 443.2,191.3 443.2,190.7 			"/>
			<rect x="443.2" y="191.3" width="0.6" height="0.6"/>
		</g>
	</g>
	<g>
		<text transform="matrix(1 0 0 1 436.5821 209.3158)" class="st3 st4">13</text>
	</g>
	<g>
		<g>
			<polygon points="434.8,208.6 434.8,208.1 434.2,208.1 434.2,208.6 433.7,208.6 433.7,208.1 434.2,208.1 434.2,207.5 433.7,207.5 
				433.7,206.9 434.2,206.9 434.2,207.5 434.8,207.5 434.8,206.9 435.4,206.9 435.4,207.5 436,207.5 436,206.9 436.2,206.9 
				436.2,206.7 433.5,206.7 433.5,208.8 436.2,208.8 436.2,208.6 436,208.6 436,208.1 435.4,208.1 435.4,208.6 			"/>
			<rect x="434.8" y="207.5" width="0.6" height="0.6"/>
		</g>
		<g>
			<polygon points="443.7,206.9 443.7,207.5 444.3,207.5 444.3,206.9 444.8,206.9 444.8,207.5 444.3,207.5 444.3,208.1 444.8,208.1 
				444.8,208.6 444.3,208.6 444.3,208.1 443.7,208.1 443.7,208.6 443.2,208.6 443.2,208.1 442.6,208.1 442.6,208.6 442.4,208.6 
				442.4,208.8 445,208.8 445,206.7 442.4,206.7 442.4,206.9 442.6,206.9 442.6,207.5 443.2,207.5 443.2,206.9 			"/>
			<rect x="443.2" y="207.5" width="0.6" height="0.6"/>
		</g>
	</g>
	<g>
		<text transform="matrix(1 0 0 1 436.5821 225.7532)" class="st3 st4">12</text>
	</g>
	<g>
		<g>
			<polygon points="434.8,225.1 434.8,224.5 434.2,224.5 434.2,225.1 433.7,225.1 433.7,224.5 434.2,224.5 434.2,223.9 433.7,223.9 
				433.7,223.4 434.2,223.4 434.2,223.9 434.8,223.9 434.8,223.4 435.4,223.4 435.4,223.9 436,223.9 436,223.4 436.2,223.4 
				436.2,223.2 433.5,223.2 433.5,225.3 436.2,225.3 436.2,225.1 436,225.1 436,224.5 435.4,224.5 435.4,225.1 			"/>
			<rect x="434.8" y="223.9" width="0.6" height="0.6"/>
		</g>
		<g>
			<polygon points="443.7,223.4 443.7,223.9 444.3,223.9 444.3,223.4 444.8,223.4 444.8,223.9 444.3,223.9 444.3,224.5 444.8,224.5 
				444.8,225.1 444.3,225.1 444.3,224.5 443.7,224.5 443.7,225.1 443.2,225.1 443.2,224.5 442.6,224.5 442.6,225.1 442.4,225.1 
				442.4,225.3 445,225.3 445,223.2 442.4,223.2 442.4,223.4 442.6,223.4 442.6,223.9 443.2,223.9 443.2,223.4 			"/>
			<rect x="443.2" y="223.9" width="0.6" height="0.6"/>
		</g>
	</g>
	<g>
		<text transform="matrix(1 0 0 1 436.5821 242.0382)" class="st3 st4">11</text>
	</g>
	<g>
		<g>
			<polygon points="434.8,241.3 434.8,240.8 434.2,240.8 434.2,241.3 433.7,241.3 433.7,240.8 434.2,240.8 434.2,240.2 433.7,240.2 
				433.7,239.7 434.2,239.7 434.2,240.2 434.8,240.2 434.8,239.7 435.4,239.7 435.4,240.2 436,240.2 436,239.7 436.2,239.7 
				436.2,239.5 433.5,239.5 433.5,241.5 436.2,241.5 436.2,241.3 436,241.3 436,240.8 435.4,240.8 435.4,241.3 			"/>
			<rect x="434.8" y="240.2" width="0.6" height="0.6"/>
		</g>
		<g>
			<polygon points="443.7,239.7 443.7,240.2 444.3,240.2 444.3,239.7 444.8,239.7 444.8,240.2 444.3,240.2 444.3,240.8 444.8,240.8 
				444.8,241.3 444.3,241.3 444.3,240.8 443.7,240.8 443.7,241.3 443.2,241.3 443.2,240.8 442.6,240.8 442.6,241.3 442.4,241.3 
				442.4,241.5 445,241.5 445,239.5 442.4,239.5 442.4,239.7 442.6,239.7 442.6,240.2 443.2,240.2 443.2,239.7 			"/>
			<rect x="443.2" y="240.2" width="0.6" height="0.6"/>
		</g>
	</g>
	<g>
		<text transform="matrix(1 0 0 1 436.5821 258.3261)" class="st3 st4">10</text>
	</g>
	<g>
		<g>
			<polygon points="434.8,257.6 434.8,257.1 434.2,257.1 434.2,257.6 433.7,257.6 433.7,257.1 434.2,257.1 434.2,256.5 433.7,256.5 
				433.7,255.9 434.2,255.9 434.2,256.5 434.8,256.5 434.8,255.9 435.4,255.9 435.4,256.5 436,256.5 436,255.9 436.2,255.9 
				436.2,255.7 433.5,255.7 433.5,257.8 436.2,257.8 436.2,257.6 436,257.6 436,257.1 435.4,257.1 435.4,257.6 			"/>
			<rect x="434.8" y="256.5" width="0.6" height="0.6"/>
		</g>
		<g>
			<polygon points="443.7,255.9 443.7,256.5 444.3,256.5 444.3,255.9 444.8,255.9 444.8,256.5 444.3,256.5 444.3,257.1 444.8,257.1 
				444.8,257.6 444.3,257.6 444.3,257.1 443.7,257.1 443.7,257.6 443.2,257.6 443.2,257.1 442.6,257.1 442.6,257.6 442.4,257.6 
				442.4,257.8 445,257.8 445,255.7 442.4,255.7 442.4,255.9 442.6,255.9 442.6,256.5 443.2,256.5 443.2,255.9 			"/>
			<rect x="443.2" y="256.5" width="0.6" height="0.6"/>
		</g>
	</g>
	<g>
		<text transform="matrix(1 0 0 1 437.9337 274.8591)" class="st3 st4">9</text>
	</g>
	<g>
		<g>
			<polygon points="434.8,274.2 434.8,273.6 434.2,273.6 434.2,274.2 433.7,274.2 433.7,273.6 434.2,273.6 434.2,273 433.7,273 
				433.7,272.5 434.2,272.5 434.2,273 434.8,273 434.8,272.5 435.4,272.5 435.4,273 436,273 436,272.5 436.2,272.5 436.2,272.3 
				433.5,272.3 433.5,274.4 436.2,274.4 436.2,274.2 436,274.2 436,273.6 435.4,273.6 435.4,274.2 			"/>
			<rect x="434.8" y="273" width="0.6" height="0.6"/>
		</g>
		<g>
			<polygon points="443.7,272.5 443.7,273 444.3,273 444.3,272.5 444.8,272.5 444.8,273 444.3,273 444.3,273.6 444.8,273.6 
				444.8,274.2 444.3,274.2 444.3,273.6 443.7,273.6 443.7,274.2 443.2,274.2 443.2,273.6 442.6,273.6 442.6,274.2 442.4,274.2 
				442.4,274.4 445,274.4 445,272.3 442.4,272.3 442.4,272.5 442.6,272.5 442.6,273 443.2,273 443.2,272.5 			"/>
			<rect x="443.2" y="273" width="0.6" height="0.6"/>
		</g>
	</g>
	<g>
		<text transform="matrix(1 0 0 1 437.9337 291.3865)" class="st3 st4">8</text>
	</g>
	<g>
		<g>
			<polygon points="434.8,290.7 434.8,290.1 434.2,290.1 434.2,290.7 433.7,290.7 433.7,290.1 434.2,290.1 434.2,289.6 433.7,289.6 
				433.7,289 434.2,289 434.2,289.6 434.8,289.6 434.8,289 435.4,289 435.4,289.6 436,289.6 436,289 436.2,289 436.2,288.8 
				433.5,288.8 433.5,290.9 436.2,290.9 436.2,290.7 436,290.7 436,290.1 435.4,290.1 435.4,290.7 			"/>
			<rect x="434.8" y="289.6" width="0.6" height="0.6"/>
		</g>
		<g>
			<polygon points="443.7,289 443.7,289.6 444.3,289.6 444.3,289 444.8,289 444.8,289.6 444.3,289.6 444.3,290.1 444.8,290.1 
				444.8,290.7 444.3,290.7 444.3,290.1 443.7,290.1 443.7,290.7 443.2,290.7 443.2,290.1 442.6,290.1 442.6,290.7 442.4,290.7 
				442.4,290.9 445,290.9 445,288.8 442.4,288.8 442.4,289 442.6,289 442.6,289.6 443.2,289.6 443.2,289 			"/>
			<rect x="443.2" y="289.6" width="0.6" height="0.6"/>
		</g>
	</g>
	<g>
		<text transform="matrix(1 0 0 1 437.9337 307.8868)" class="st3 st4">7</text>
	</g>
	<g>
		<g>
			<polygon points="434.8,307.2 434.8,306.6 434.2,306.6 434.2,307.2 433.7,307.2 433.7,306.6 434.2,306.6 434.2,306.1 433.7,306.1 
				433.7,305.5 434.2,305.5 434.2,306.1 434.8,306.1 434.8,305.5 435.4,305.5 435.4,306.1 436,306.1 436,305.5 436.2,305.5 
				436.2,305.3 433.5,305.3 433.5,307.4 436.2,307.4 436.2,307.2 436,307.2 436,306.6 435.4,306.6 435.4,307.2 			"/>
			<rect x="434.8" y="306.1" width="0.6" height="0.6"/>
		</g>
		<g>
			<polygon points="443.7,305.5 443.7,306.1 444.3,306.1 444.3,305.5 444.8,305.5 444.8,306.1 444.3,306.1 444.3,306.6 444.8,306.6 
				444.8,307.2 444.3,307.2 444.3,306.6 443.7,306.6 443.7,307.2 443.2,307.2 443.2,306.6 442.6,306.6 442.6,307.2 442.4,307.2 
				442.4,307.4 445,307.4 445,305.3 442.4,305.3 442.4,305.5 442.6,305.5 442.6,306.1 443.2,306.1 443.2,305.5 			"/>
			<rect x="443.2" y="306.1" width="0.6" height="0.6"/>
		</g>
	</g>
	<g>
		<text transform="matrix(1 0 0 1 437.9337 324.0821)" class="st3 st4">6</text>
	</g>
	<g>
		<g>
			<polygon points="434.8,323.4 434.8,322.8 434.2,322.8 434.2,323.4 433.7,323.4 433.7,322.8 434.2,322.8 434.2,322.2 433.7,322.2 
				433.7,321.7 434.2,321.7 434.2,322.2 434.8,322.2 434.8,321.7 435.4,321.7 435.4,322.2 436,322.2 436,321.7 436.2,321.7 
				436.2,321.5 433.5,321.5 433.5,323.6 436.2,323.6 436.2,323.4 436,323.4 436,322.8 435.4,322.8 435.4,323.4 			"/>
			<rect x="434.8" y="322.2" width="0.6" height="0.6"/>
		</g>
		<g>
			<polygon points="443.7,321.7 443.7,322.2 444.3,322.2 444.3,321.7 444.8,321.7 444.8,322.2 444.3,322.2 444.3,322.8 444.8,322.8 
				444.8,323.4 444.3,323.4 444.3,322.8 443.7,322.8 443.7,323.4 443.2,323.4 443.2,322.8 442.6,322.8 442.6,323.4 442.4,323.4 
				442.4,323.6 445,323.6 445,321.5 442.4,321.5 442.4,321.7 442.6,321.7 442.6,322.2 443.2,322.2 443.2,321.7 			"/>
			<rect x="443.2" y="322.2" width="0.6" height="0.6"/>
		</g>
	</g>
	<g>
		<text transform="matrix(1 0 0 1 437.9337 340.6438)" class="st3 st4">5</text>
	</g>
	<g>
		<g>
			<polygon points="434.8,339.9 434.8,339.4 434.2,339.4 434.2,339.9 433.7,339.9 433.7,339.4 434.2,339.4 434.2,338.8 433.7,338.8 
				433.7,338.3 434.2,338.3 434.2,338.8 434.8,338.8 434.8,338.3 435.4,338.3 435.4,338.8 436,338.8 436,338.3 436.2,338.3 
				436.2,338.1 433.5,338.1 433.5,340.1 436.2,340.1 436.2,339.9 436,339.9 436,339.4 435.4,339.4 435.4,339.9 			"/>
			<rect x="434.8" y="338.8" width="0.6" height="0.6"/>
		</g>
		<g>
			<polygon points="443.7,338.3 443.7,338.8 444.3,338.8 444.3,338.3 444.8,338.3 444.8,338.8 444.3,338.8 444.3,339.4 444.8,339.4 
				444.8,339.9 444.3,339.9 444.3,339.4 443.7,339.4 443.7,339.9 443.2,339.9 443.2,339.4 442.6,339.4 442.6,339.9 442.4,339.9 
				442.4,340.1 445,340.1 445,338.1 442.4,338.1 442.4,338.3 442.6,338.3 442.6,338.8 443.2,338.8 443.2,338.3 			"/>
			<rect x="443.2" y="338.8" width="0.6" height="0.6"/>
		</g>
	</g>
	<g>
		<text transform="matrix(1 0 0 1 437.9337 356.9601)" class="st3 st4">4</text>
	</g>
	<g>
		<g>
			<polygon points="434.8,356.3 434.8,355.7 434.2,355.7 434.2,356.3 433.7,356.3 433.7,355.7 434.2,355.7 434.2,355.1 433.7,355.1 
				433.7,354.6 434.2,354.6 434.2,355.1 434.8,355.1 434.8,354.6 435.4,354.6 435.4,355.1 436,355.1 436,354.6 436.2,354.6 
				436.2,354.4 433.5,354.4 433.5,356.5 436.2,356.5 436.2,356.3 436,356.3 436,355.7 435.4,355.7 435.4,356.3 			"/>
			<rect x="434.8" y="355.1" width="0.6" height="0.6"/>
		</g>
		<g>
			<polygon points="443.7,354.6 443.7,355.1 444.3,355.1 444.3,354.6 444.8,354.6 444.8,355.1 444.3,355.1 444.3,355.7 444.8,355.7 
				444.8,356.3 444.3,356.3 444.3,355.7 443.7,355.7 443.7,356.3 443.2,356.3 443.2,355.7 442.6,355.7 442.6,356.3 442.4,356.3 
				442.4,356.5 445,356.5 445,354.4 442.4,354.4 442.4,354.6 442.6,354.6 442.6,355.1 443.2,355.1 443.2,354.6 			"/>
			<rect x="443.2" y="355.1" width="0.6" height="0.6"/>
		</g>
	</g>
	<g>
		<text transform="matrix(1 0 0 1 437.9337 373.3991)" class="st3 st4">3</text>
	</g>
	<g>
		<g>
			<polygon points="434.8,372.7 434.8,372.2 434.2,372.2 434.2,372.7 433.7,372.7 433.7,372.2 434.2,372.2 434.2,371.6 433.7,371.6 
				433.7,371 434.2,371 434.2,371.6 434.8,371.6 434.8,371 435.4,371 435.4,371.6 436,371.6 436,371 436.2,371 436.2,370.8 
				433.5,370.8 433.5,372.9 436.2,372.9 436.2,372.7 436,372.7 436,372.2 435.4,372.2 435.4,372.7 			"/>
			<rect x="434.8" y="371.6" width="0.6" height="0.6"/>
		</g>
		<g>
			<polygon points="443.7,371 443.7,371.6 444.3,371.6 444.3,371 444.8,371 444.8,371.6 444.3,371.6 444.3,372.1 444.8,372.1 
				444.8,372.7 444.3,372.7 444.3,372.1 443.7,372.1 443.7,372.7 443.2,372.7 443.2,372.1 442.6,372.1 442.6,372.7 442.4,372.7 
				442.4,372.9 445,372.9 445,370.8 442.4,370.8 442.4,371 442.6,371 442.6,371.6 443.2,371.6 443.2,371 			"/>
			<rect x="443.2" y="371.6" width="0.6" height="0.6"/>
		</g>
	</g>
	<g>
		<text transform="matrix(1 0 0 1 42.3409 406.0312)" class="st3 st4">1</text>
	</g>
	<g>
		<text transform="matrix(1 0 0 1 375.888 626.7892)" class="st10 st11">1 : 50</text>
	</g>
	<g>
		<g>
			<polygon points="39.2,405.3 39.2,404.8 38.6,404.8 38.6,405.3 38.1,405.3 38.1,404.8 38.6,404.8 38.6,404.2 38.1,404.2 
				38.1,403.6 38.6,403.6 38.6,404.2 39.2,404.2 39.2,403.6 39.8,403.6 39.8,404.2 40.4,404.2 40.4,403.6 40.6,403.6 40.6,403.4 
				37.9,403.4 37.9,405.5 40.6,405.5 40.6,405.3 40.4,405.3 40.4,404.8 39.8,404.8 39.8,405.3 			"/>
			<rect x="39.2" y="404.2" width="0.6" height="0.6"/>
		</g>
		<g>
			<polygon points="48.2,403.6 48.2,404.2 48.7,404.2 48.7,403.6 49.2,403.6 49.2,404.2 48.7,404.2 48.7,404.8 49.2,404.8 
				49.2,405.3 48.7,405.3 48.7,404.8 48.2,404.8 48.2,405.3 47.6,405.3 47.6,404.8 47,404.8 47,405.3 46.8,405.3 46.8,405.5 
				49.4,405.5 49.4,403.4 46.8,403.4 46.8,403.6 47,403.6 47,404.2 47.6,404.2 47.6,403.6 			"/>
			<rect x="47.6" y="404.2" width="0.6" height="0.6"/>
		</g>
	</g>
	<g>
		<text transform="matrix(1 0 0 1 437.9337 389.7767)" class="st3 st4">2</text>
	</g>
	<g>
		<g>
			<polygon points="434.8,389.1 434.8,388.5 434.2,388.5 434.2,389.1 433.7,389.1 433.7,388.5 434.2,388.5 434.2,387.9 433.7,387.9 
				433.7,387.4 434.2,387.4 434.2,387.9 434.8,387.9 434.8,387.4 435.4,387.4 435.4,387.9 436,387.9 436,387.4 436.2,387.4 
				436.2,387.2 433.5,387.2 433.5,389.3 436.2,389.3 436.2,389.1 436,389.1 436,388.5 435.4,388.5 435.4,389.1 			"/>
			<rect x="434.8" y="387.9" width="0.6" height="0.6"/>
		</g>
		<g>
			<polygon points="443.7,387.4 443.7,387.9 444.3,387.9 444.3,387.4 444.8,387.4 444.8,387.9 444.3,387.9 444.3,388.5 444.8,388.5 
				444.8,389.1 444.3,389.1 444.3,388.5 443.7,388.5 443.7,389.1 443.2,389.1 443.2,388.5 442.6,388.5 442.6,389.1 442.4,389.1 
				442.4,389.3 445,389.3 445,387.2 442.4,387.2 442.4,387.4 442.6,387.4 442.6,387.9 443.2,387.9 443.2,387.4 			"/>
			<rect x="443.2" y="387.9" width="0.6" height="0.6"/>
		</g>
	</g>
	<line class="st12" x1="448.2" y1="98.8" x2="466.3" y2="98.8"/>
	<line class="st12" x1="448.2" y1="133.1" x2="466.3" y2="133.1"/>
	<line class="st2" x1="448.2" y1="98.8" x2="448.2" y2="134"/>
	<g>
		<polygon class="st13" points="451.4,101.7 485.7,101.7 451.4,130.2 		"/>
		<line class="st13" x1="448.2" y1="102.5" x2="451.4" y2="102.5"/>
		<line class="st13" x1="452.8" y1="133.1" x2="452.8" y2="98.8"/>
		<line class="st13" x1="448.2" y1="129.5" x2="451.4" y2="129.5"/>
	</g>
	<polygon class="st13" points="460.1,440.1 487.7,440.1 460.1,412.6 	"/>
	<line class="st13" x1="455.8" y1="411.1" x2="455.8" y2="440.1"/>
	<polyline class="st13" points="460.3,412.6 458.5,412.6 458.5,440.1 460.1,440.1 	"/>
	<line class="st13" x1="460.1" y1="411.1" x2="460.1" y2="412.6"/>
	<line class="st13" x1="455.8" y1="438.8" x2="458.5" y2="438.8"/>
	<line class="st13" x1="455.8" y1="413.9" x2="458.5" y2="413.9"/>
	<polygon class="st13" points="446.5,491.5 475.1,491.5 446.5,461.8 	"/>
	<polyline class="st13" points="446.5,459.6 446.5,461.8 444.9,461.8 444.9,491.5 446.5,491.5 	"/>
	<line class="st13" x1="442" y1="493.2" x2="442" y2="459.6"/>
	<line class="st13" x1="444.9" y1="463.2" x2="442" y2="463.2"/>
	<line class="st13" x1="444.9" y1="489.9" x2="442" y2="489.9"/>
	<polygon class="st13" points="34.6,491.1 6,491.1 34.6,461.4 	"/>
	<polyline class="st13" points="34.6,459.2 34.6,461.4 36.2,461.4 36.2,491.1 34.6,491.1 34.6,493.2 	"/>
	<line class="st13" x1="39.1" y1="493.2" x2="39.1" y2="459.6"/>
	<line class="st13" x1="36.2" y1="463.2" x2="39.1" y2="463.2"/>
	<line class="st13" x1="36.2" y1="489.9" x2="39.1" y2="489.9"/>
	<path class="st14" d="M82,440.8c0,0,0.9,0.3,1.1,0c0.2-0.3,1.2-7.2,1.5-7.4c0.4-0.4,0.8-0.3,1.1,0c0.2,0.3,1.4,7.3,1.6,7.5
		c0.2,0.3,0.6,0.3,0.9,0c0.3-0.3,1.4-7.5,1.7-7.7c0.2-0.2,0.6-0.3,0.9,0c0.3,0.3,1.4,7.2,1.6,7.6c0.2,0.4,0.6,0.5,1,0.3
		c0.4-0.2,1.6-7.2,1.7-7.7c0-0.4,0.8-0.5,1,0s1.4,7.3,1.5,7.6c0.1,0.2,0.8,0.2,1,0c0.2-0.4,1.4-7.3,1.5-7.5c0.1-0.4,1-0.6,1.2,0
		c0.2,0.4,1.1,7,1.3,7.5c0.1,0.4,0.8,0.4,1.1,0c0.3-0.4,1.2-7,1.5-7.5s0.9-0.5,1.2,0c0.2,0.4,1,7,1.4,7.5c0.2,0.3,0.8,0.3,1,0
		c0.3-0.4,1.3-7.2,1.5-7.5c0.2-0.4,1-0.5,1.2,0.1c0.2,0.6,1.2,7,1.4,7.5c0.2,0.3,0.7,0.4,0.9,0s1.5-7.4,1.7-7.8
		c0.1-0.2,1-0.4,1.2,0.1c0.2,0.5,1.4,7.9,1.4,7.9"/>
	<path class="st14" d="M400.5,440.8c-0.3-0.3-1.2-7.2-1.5-7.4c-0.4-0.4-0.8-0.3-1.1,0c-0.3,0.3-1.4,7.3-1.6,7.5
		c-0.2,0.3-0.6,0.3-0.9,0c-0.3-0.3-1.5-7.5-1.7-7.7c-0.2-0.2-0.6-0.3-0.9,0c-0.3,0.3-1.4,7.2-1.6,7.6c-0.3,0.4-0.6,0.5-1,0.3
		c-0.4-0.2-1.6-7.2-1.7-7.7c0-0.4-0.8-0.5-1,0c-0.2,0.5-1.4,7.3-1.5,7.6c-0.1,0.2-0.8,0.2-1,0c-0.2-0.4-1.4-7.3-1.5-7.5
		c-0.1-0.4-1-0.6-1.3,0c-0.2,0.4-1.1,7-1.3,7.5c-0.1,0.4-0.8,0.4-1.1,0c-0.3-0.4-1.2-7-1.5-7.5s-1-0.5-1.3,0c-0.2,0.4-1,7-1.4,7.5
		c-0.2,0.3-0.8,0.3-1,0c-0.3-0.4-1.4-7.2-1.5-7.5c-0.2-0.4-1-0.5-1.2,0.1c-0.2,0.6-1.2,7-1.4,7.5c-0.2,0.3-0.7,0.4-0.9,0
		s-1.5-7.4-1.7-7.8c-0.1-0.2-1-0.4-1.2,0.1s-1.4,7.9-1.4,7.9"/>
	<polyline class="st2" points="82,442.2 34.4,442.2 34.4,26.1 448.2,26.1 	"/>
</g>
</svg>
