<?xml version="1.0" encoding="utf-8"?>
<!-- Generator: Adobe Illustrator 20.1.0, SVG Export Plug-In . SVG Version: 6.00 Build 0)  -->
<svg version="1.1" id="Layer_1" xmlns="http://www.w3.org/2000/svg" xmlns:xlink="http://www.w3.org/1999/xlink" x="0px" y="0px"
	 viewBox="0 0 660.5 340.2" style="enable-background:new 0 0 660.5 340.2;" xml:space="preserve">
<style type="text/css">
	.st0{fill-rule:evenodd;clip-rule:evenodd;fill:#CFCECE;}
	.st1{clip-path:url(#SVGID_2_);}
	.st2{font-family:'MyriadPro-Regular';}
	.st3{font-size:9.1997px;}
	.st4{font-size:6.6997px;}
	.st5{fill:none;stroke:#000000;stroke-width:0.14;stroke-linecap:square;stroke-linejoin:round;stroke-miterlimit:10;}
	.st6{fill-rule:evenodd;clip-rule:evenodd;}
</style>
<g>
	<rect x="65.7" y="15.2" class="st0" width="31.2" height="20.2"/>
	<rect x="594.5" y="15.2" class="st0" width="31.2" height="20.2"/>
	<rect x="96.8" y="35.3" class="st0" width="31.2" height="20.2"/>
	<rect x="563.4" y="35.3" class="st0" width="31.2" height="20.2"/>
	<rect x="65.7" y="55.4" class="st0" width="31.2" height="40.3"/>
	<rect x="563.4" y="55.4" class="st0" width="31.2" height="40.3"/>
	<rect x="3.5" y="135.8" class="st0" width="31.2" height="20.2"/>
	<rect x="625.6" y="135.8" class="st0" width="31.2" height="20.2"/>
	<rect x="65.7" y="155.9" class="st0" width="31.2" height="20.2"/>
	<rect x="594.5" y="155.9" class="st0" width="31.2" height="20.2"/>
	<rect x="65.7" y="176" class="st0" width="31.2" height="20.2"/>
	<rect x="563.4" y="176" class="st0" width="31.2" height="20.2"/>
	<rect x="65.7" y="196.1" class="st0" width="31.2" height="20.2"/>
	<rect x="563.4" y="196.1" class="st0" width="31.2" height="20.2"/>
	<rect x="65.7" y="216.2" class="st0" width="31.2" height="20.2"/>
	<rect x="563.4" y="216.2" class="st0" width="31.2" height="20.2"/>
	<rect x="65.7" y="236.3" class="st0" width="31.2" height="20.2"/>
	<rect x="563.4" y="236.3" class="st0" width="31.2" height="20.2"/>
	<rect x="65.7" y="256.4" class="st0" width="31.2" height="20.2"/>
	<rect x="563.4" y="256.4" class="st0" width="31.2" height="20.2"/>
	<rect x="65.7" y="276.5" class="st0" width="31.2" height="20.2"/>
	<rect x="563.4" y="276.5" class="st0" width="31.2" height="20.2"/>
	<rect x="65.7" y="296.6" class="st0" width="31.2" height="20.2"/>
	<rect x="563.4" y="296.6" class="st0" width="31.2" height="20.2"/>
	<rect x="65.7" y="316.8" class="st0" width="31.2" height="20.2"/>
	<rect x="563.4" y="316.8" class="st0" width="31.2" height="20.2"/>
	<g>
		<defs>
			<rect id="SVGID_1_" x="-6.7" y="2.9" width="663.8" height="11.9"/>
		</defs>
		<clipPath id="SVGID_2_">
			<use xlink:href="#SVGID_1_"  style="overflow:visible;"/>
		</clipPath>
		<g class="st1">
			<text transform="matrix(1 0 0 1 7.8469 11.4043)" class="st2 st3">RÕDU</text>
		</g>
	</g>
	<g>
		<text transform="matrix(1 0 0 1 76.9465 32.3028)"><tspan x="0" y="0" class="st2 st3">1</tspan><tspan x="4.8" y="0" class="st2 st3">4</tspan></text>
		<text transform="matrix(1 0 0 1 111.0607 32.3028)" class="st2 st4">1</text>
		<text transform="matrix(1 0 0 1 142.1594 32.3028)" class="st2 st4">2</text>
		<text transform="matrix(1 0 0 1 173.258 32.3028)" class="st2 st4">3</text>
		<text transform="matrix(1 0 0 1 204.3566 32.3028)" class="st2 st4">4</text>
		<text transform="matrix(1 0 0 1 235.4797 32.3028)" class="st2 st4">5</text>
		<text transform="matrix(1 0 0 1 266.5803 32.3028)" class="st2 st4">6</text>
		<text transform="matrix(1 0 0 1 297.6769 32.3028)" class="st2 st4">7</text>
		<text transform="matrix(1 0 0 1 328.7775 32.3028)" class="st2 st4">8</text>
		<text transform="matrix(1 0 0 1 359.8918 32.3028)" class="st2 st4">9</text>
		<text transform="matrix(1 0 0 1 389.2922 32.3028)" class="st2 st4">10</text>
		<text transform="matrix(1 0 0 1 420.3918 32.3028)" class="st2 st4">11</text>
		<text transform="matrix(1 0 0 1 451.4894 32.3028)" class="st2 st4">12</text>
		<text transform="matrix(1 0 0 1 482.6125 32.3028)" class="st2 st4">13</text>
		<text transform="matrix(1 0 0 1 513.7121 32.3028)" class="st2 st4">14</text>
		<text transform="matrix(1 0 0 1 544.8117 32.3028)" class="st2 st4">15</text>
		<text transform="matrix(1 0 0 1 575.9084 32.3028)" class="st2 st4">16</text>
		<text transform="matrix(1 0 0 1 605.7238 32.3028)"><tspan x="0" y="0" class="st2 st3">1</tspan><tspan x="4.8" y="0" class="st2 st3">4</tspan></text>
		<text transform="matrix(1 0 0 1 108.0607 52.4024)"><tspan x="0" y="0" class="st2 st3">1</tspan><tspan x="4.8" y="0" class="st2 st3">3</tspan></text>
		<text transform="matrix(1 0 0 1 142.1594 52.4024)" class="st2 st4">1</text>
		<text transform="matrix(1 0 0 1 173.258 52.4024)" class="st2 st4">2</text>
		<text transform="matrix(1 0 0 1 204.3566 52.4024)" class="st2 st4">3</text>
		<text transform="matrix(1 0 0 1 235.4797 52.4024)" class="st2 st4">4</text>
		<text transform="matrix(1 0 0 1 266.5803 52.4024)" class="st2 st4">5</text>
		<text transform="matrix(1 0 0 1 297.6769 52.4024)" class="st2 st4">6</text>
		<text transform="matrix(1 0 0 1 328.7775 52.4024)" class="st2 st4">7</text>
		<text transform="matrix(1 0 0 1 359.8918 52.4024)" class="st2 st4">8</text>
		<text transform="matrix(1 0 0 1 390.9914 52.4024)" class="st2 st4">9</text>
		<text transform="matrix(1 0 0 1 420.3918 52.4024)" class="st2 st4">10</text>
		<text transform="matrix(1 0 0 1 451.4894 52.4024)" class="st2 st4">11</text>
		<text transform="matrix(1 0 0 1 482.6125 52.4024)" class="st2 st4">12</text>
		<text transform="matrix(1 0 0 1 513.7121 52.4024)" class="st2 st4">13</text>
		<text transform="matrix(1 0 0 1 544.8117 52.4024)" class="st2 st4">14</text>
		<text transform="matrix(1 0 0 1 574.6096 52.4024)"><tspan x="0" y="0" class="st2 st3">1</tspan><tspan x="4.8" y="0" class="st2 st3">3</tspan></text>
		<text transform="matrix(1 0 0 1 76.9465 72.503)"><tspan x="0" y="0" class="st2 st3">1</tspan><tspan x="4.8" y="0" class="st2 st3">2</tspan></text>
		<text transform="matrix(1 0 0 1 111.0607 72.503)" class="st2 st4">1</text>
		<text transform="matrix(1 0 0 1 142.1594 72.503)" class="st2 st4">2</text>
		<text transform="matrix(1 0 0 1 173.258 72.503)" class="st2 st4">3</text>
		<text transform="matrix(1 0 0 1 204.3566 72.503)" class="st2 st4">4</text>
		<text transform="matrix(1 0 0 1 235.4797 72.503)" class="st2 st4">5</text>
		<text transform="matrix(1 0 0 1 266.5803 72.503)" class="st2 st4">6</text>
		<text transform="matrix(1 0 0 1 297.6769 72.503)" class="st2 st4">7</text>
		<text transform="matrix(1 0 0 1 328.7775 72.503)" class="st2 st4">8</text>
		<text transform="matrix(1 0 0 1 359.8918 72.503)" class="st2 st4">9</text>
		<text transform="matrix(1 0 0 1 389.2922 72.503)" class="st2 st4">10</text>
		<text transform="matrix(1 0 0 1 420.3918 72.503)" class="st2 st4">11</text>
		<text transform="matrix(1 0 0 1 451.4894 72.503)" class="st2 st4">12</text>
		<text transform="matrix(1 0 0 1 482.6125 72.503)" class="st2 st4">13</text>
		<text transform="matrix(1 0 0 1 513.7121 72.503)" class="st2 st4">14</text>
		<text transform="matrix(1 0 0 1 544.8117 72.503)" class="st2 st4">15</text>
		<text transform="matrix(1 0 0 1 574.6096 72.503)"><tspan x="0" y="0" class="st2 st3">1</tspan><tspan x="4.8" y="0" class="st2 st3">2</tspan></text>
		<text transform="matrix(1 0 0 1 76.9465 92.6006)"><tspan x="0" y="0" class="st2 st3">1</tspan><tspan x="4.8" y="0" class="st2 st3">1</tspan></text>
		<text transform="matrix(1 0 0 1 111.0607 92.6006)" class="st2 st4">1</text>
		<text transform="matrix(1 0 0 1 142.1594 92.6006)" class="st2 st4">2</text>
		<text transform="matrix(1 0 0 1 173.258 92.6006)" class="st2 st4">3</text>
		<text transform="matrix(1 0 0 1 204.3566 92.6006)" class="st2 st4">4</text>
		<text transform="matrix(1 0 0 1 235.4797 92.6006)" class="st2 st4">5</text>
		<text transform="matrix(1 0 0 1 266.5803 92.6006)" class="st2 st4">6</text>
		<text transform="matrix(1 0 0 1 297.6769 92.6006)" class="st2 st4">7</text>
		<text transform="matrix(1 0 0 1 328.7775 92.6006)" class="st2 st4">8</text>
		<text transform="matrix(1 0 0 1 359.8918 92.6006)" class="st2 st4">9</text>
		<text transform="matrix(1 0 0 1 389.2922 92.6006)" class="st2 st4">10</text>
		<text transform="matrix(1 0 0 1 420.3918 92.6006)" class="st2 st4">11</text>
		<text transform="matrix(1 0 0 1 451.4894 92.6006)" class="st2 st4">12</text>
		<text transform="matrix(1 0 0 1 482.6125 92.6006)" class="st2 st4">13</text>
		<text transform="matrix(1 0 0 1 513.7121 92.6006)" class="st2 st4">14</text>
		<text transform="matrix(1 0 0 1 544.8117 92.6006)" class="st2 st4">15</text>
		<text transform="matrix(1 0 0 1 574.6096 92.6006)"><tspan x="0" y="0" class="st2 st3">1</tspan><tspan x="4.8" y="0" class="st2 st3">1</tspan></text>
		<text transform="matrix(1 0 0 1 4.4465 132.0244)"><tspan x="0" y="0" class="st2 st3">P</tspan><tspan x="4.9" y="0" class="st2 st3">A</tspan><tspan x="10.5" y="0" class="st2 st3">R</tspan><tspan x="15.5" y="0" class="st2 st3">T</tspan><tspan x="20.1" y="0" class="st2 st3">ER</tspan></text>
		<text transform="matrix(1 0 0 1 14.7463 152.9219)"><tspan x="0" y="0" class="st2 st3">1</tspan><tspan x="4.8" y="0" class="st2 st3">0</tspan></text>
		<text transform="matrix(1 0 0 1 48.8469 152.9219)" class="st2 st4">1</text>
		<text transform="matrix(1 0 0 1 79.9455 152.9219)" class="st2 st4">2</text>
		<text transform="matrix(1 0 0 1 111.0607 152.9219)" class="st2 st4">3</text>
		<text transform="matrix(1 0 0 1 142.1594 152.9219)" class="st2 st4">4</text>
		<text transform="matrix(1 0 0 1 173.258 152.9219)" class="st2 st4">5</text>
		<text transform="matrix(1 0 0 1 204.3566 152.9219)" class="st2 st4">6</text>
		<text transform="matrix(1 0 0 1 235.4797 152.9219)" class="st2 st4">7</text>
		<text transform="matrix(1 0 0 1 266.5803 152.9219)" class="st2 st4">8</text>
		<text transform="matrix(1 0 0 1 297.6769 152.9219)" class="st2 st4">9</text>
		<text transform="matrix(1 0 0 1 327.0783 152.9219)" class="st2 st4">10</text>
		<text transform="matrix(1 0 0 1 358.1935 152.9219)" class="st2 st4">11</text>
		<text transform="matrix(1 0 0 1 389.2922 152.9219)" class="st2 st4">12</text>
		<text transform="matrix(1 0 0 1 420.3918 152.9219)" class="st2 st4">13</text>
		<text transform="matrix(1 0 0 1 451.4894 152.9219)" class="st2 st4">14</text>
		<text transform="matrix(1 0 0 1 482.6125 152.9219)" class="st2 st4">15</text>
		<text transform="matrix(1 0 0 1 513.7121 152.9219)" class="st2 st4">16</text>
		<text transform="matrix(1 0 0 1 544.8117 152.9219)" class="st2 st4">17</text>
		<text transform="matrix(1 0 0 1 575.9084 152.9219)" class="st2 st4">18</text>
		<text transform="matrix(1 0 0 1 607.0236 152.9219)" class="st2 st4">19</text>
		<text transform="matrix(1 0 0 1 636.8254 152.9219)"><tspan x="0" y="0" class="st2 st3">1</tspan><tspan x="4.8" y="0" class="st2 st3">0</tspan></text>
		<text transform="matrix(1 0 0 1 79.3459 173.0235)" class="st2 st3">9</text>
		<text transform="matrix(1 0 0 1 111.0607 173.0235)" class="st2 st4">1</text>
		<text transform="matrix(1 0 0 1 142.1594 173.0235)" class="st2 st4">2</text>
		<text transform="matrix(1 0 0 1 173.258 173.0235)" class="st2 st4">3</text>
		<text transform="matrix(1 0 0 1 204.3566 173.0235)" class="st2 st4">4</text>
		<text transform="matrix(1 0 0 1 235.4797 173.0235)" class="st2 st4">5</text>
		<text transform="matrix(1 0 0 1 266.5803 173.0235)" class="st2 st4">6</text>
		<text transform="matrix(1 0 0 1 297.6769 173.0235)" class="st2 st4">7</text>
		<text transform="matrix(1 0 0 1 328.7775 173.0235)" class="st2 st4">8</text>
		<text transform="matrix(1 0 0 1 359.8918 173.0235)" class="st2 st4">9</text>
		<text transform="matrix(1 0 0 1 389.2922 173.0235)" class="st2 st4">10</text>
		<text transform="matrix(1 0 0 1 420.3918 173.0235)" class="st2 st4">11</text>
		<text transform="matrix(1 0 0 1 451.4894 173.0235)" class="st2 st4">12</text>
		<text transform="matrix(1 0 0 1 482.6125 173.0235)" class="st2 st4">13</text>
		<text transform="matrix(1 0 0 1 513.7121 173.0235)" class="st2 st4">14</text>
		<text transform="matrix(1 0 0 1 544.8117 173.0235)" class="st2 st4">15</text>
		<text transform="matrix(1 0 0 1 575.9084 173.0235)" class="st2 st4">16</text>
		<text transform="matrix(1 0 0 1 608.1262 173.0235)" class="st2 st3">9</text>
		<text transform="matrix(1 0 0 1 79.3459 193.1221)" class="st2 st3">8</text>
		<text transform="matrix(1 0 0 1 111.0607 193.1221)" class="st2 st4">1</text>
		<text transform="matrix(1 0 0 1 142.1594 193.1221)" class="st2 st4">2</text>
		<text transform="matrix(1 0 0 1 173.258 193.1221)" class="st2 st4">3</text>
		<text transform="matrix(1 0 0 1 204.3566 193.1221)" class="st2 st4">4</text>
		<text transform="matrix(1 0 0 1 235.4797 193.1221)" class="st2 st4">5</text>
		<text transform="matrix(1 0 0 1 266.5803 193.1221)" class="st2 st4">6</text>
		<text transform="matrix(1 0 0 1 297.6769 193.1221)" class="st2 st4">7</text>
		<text transform="matrix(1 0 0 1 328.7775 193.1221)" class="st2 st4">8</text>
		<text transform="matrix(1 0 0 1 359.8918 193.1221)" class="st2 st4">9</text>
		<text transform="matrix(1 0 0 1 389.2922 193.1221)" class="st2 st4">10</text>
		<text transform="matrix(1 0 0 1 420.3918 193.1221)" class="st2 st4">11</text>
		<text transform="matrix(1 0 0 1 451.4894 193.1221)" class="st2 st4">12</text>
		<text transform="matrix(1 0 0 1 482.6125 193.1221)" class="st2 st4">13</text>
		<text transform="matrix(1 0 0 1 513.7121 193.1221)" class="st2 st4">14</text>
		<text transform="matrix(1 0 0 1 544.8117 193.1221)" class="st2 st4">15</text>
		<text transform="matrix(1 0 0 1 577.0099 193.1221)" class="st2 st3">8</text>
		<text transform="matrix(1 0 0 1 79.3459 213.2373)" class="st2 st3">7</text>
		<text transform="matrix(1 0 0 1 111.0607 213.2373)" class="st2 st4">1</text>
		<text transform="matrix(1 0 0 1 142.1594 213.2373)" class="st2 st4">2</text>
		<text transform="matrix(1 0 0 1 173.258 213.2373)" class="st2 st4">3</text>
		<text transform="matrix(1 0 0 1 204.3566 213.2373)" class="st2 st4">4</text>
		<text transform="matrix(1 0 0 1 235.4797 213.2373)" class="st2 st4">5</text>
		<text transform="matrix(1 0 0 1 266.5803 213.2373)" class="st2 st4">6</text>
		<text transform="matrix(1 0 0 1 297.6769 213.2373)" class="st2 st4">7</text>
		<text transform="matrix(1 0 0 1 328.7775 213.2373)" class="st2 st4">8</text>
		<text transform="matrix(1 0 0 1 359.8918 213.2373)" class="st2 st4">9</text>
		<text transform="matrix(1 0 0 1 389.2922 213.2373)" class="st2 st4">10</text>
		<text transform="matrix(1 0 0 1 420.3918 213.2373)" class="st2 st4">11</text>
		<text transform="matrix(1 0 0 1 451.4894 213.2373)" class="st2 st4">12</text>
		<text transform="matrix(1 0 0 1 482.6125 213.2373)" class="st2 st4">13</text>
		<text transform="matrix(1 0 0 1 513.7121 213.2373)" class="st2 st4">14</text>
		<text transform="matrix(1 0 0 1 544.8117 213.2373)" class="st2 st4">15</text>
		<text transform="matrix(1 0 0 1 577.0099 213.2373)" class="st2 st3">7</text>
		<text transform="matrix(1 0 0 1 79.3459 233.336)" class="st2 st3">6</text>
		<text transform="matrix(1 0 0 1 111.0607 233.336)" class="st2 st4">1</text>
		<text transform="matrix(1 0 0 1 142.1594 233.336)" class="st2 st4">2</text>
		<text transform="matrix(1 0 0 1 173.258 233.336)" class="st2 st4">3</text>
		<text transform="matrix(1 0 0 1 204.3566 233.336)" class="st2 st4">4</text>
		<text transform="matrix(1 0 0 1 235.4797 233.336)" class="st2 st4">5</text>
		<text transform="matrix(1 0 0 1 266.5803 233.336)" class="st2 st4">6</text>
		<text transform="matrix(1 0 0 1 297.6769 233.336)" class="st2 st4">7</text>
		<text transform="matrix(1 0 0 1 328.7775 233.336)" class="st2 st4">8</text>
		<text transform="matrix(1 0 0 1 359.8918 233.336)" class="st2 st4">9</text>
		<text transform="matrix(1 0 0 1 389.2922 233.336)" class="st2 st4">10</text>
		<text transform="matrix(1 0 0 1 420.3918 233.336)" class="st2 st4">11</text>
		<text transform="matrix(1 0 0 1 451.4894 233.336)" class="st2 st4">12</text>
		<text transform="matrix(1 0 0 1 482.6125 233.336)" class="st2 st4">13</text>
		<text transform="matrix(1 0 0 1 513.7121 233.336)" class="st2 st4">14</text>
		<text transform="matrix(1 0 0 1 544.8117 233.336)" class="st2 st4">15</text>
		<text transform="matrix(1 0 0 1 577.0099 233.336)" class="st2 st3">6</text>
		<text transform="matrix(1 0 0 1 79.3459 253.4366)" class="st2 st3">5</text>
		<text transform="matrix(1 0 0 1 111.0607 253.4366)" class="st2 st4">1</text>
		<text transform="matrix(1 0 0 1 142.1594 253.4366)" class="st2 st4">2</text>
		<text transform="matrix(1 0 0 1 173.258 253.4366)" class="st2 st4">3</text>
		<text transform="matrix(1 0 0 1 204.3566 253.4366)" class="st2 st4">4</text>
		<text transform="matrix(1 0 0 1 235.4797 253.4366)" class="st2 st4">5</text>
		<text transform="matrix(1 0 0 1 266.5803 253.4366)" class="st2 st4">6</text>
		<text transform="matrix(1 0 0 1 297.6769 253.4366)" class="st2 st4">7</text>
		<text transform="matrix(1 0 0 1 328.7775 253.4366)" class="st2 st4">8</text>
		<text transform="matrix(1 0 0 1 359.8918 253.4366)" class="st2 st4">9</text>
		<text transform="matrix(1 0 0 1 389.2922 253.4366)" class="st2 st4">10</text>
		<text transform="matrix(1 0 0 1 420.3918 253.4366)" class="st2 st4">11</text>
		<text transform="matrix(1 0 0 1 451.4894 253.4366)" class="st2 st4">12</text>
		<text transform="matrix(1 0 0 1 482.6125 253.4366)" class="st2 st4">13</text>
		<text transform="matrix(1 0 0 1 513.7121 253.4366)" class="st2 st4">14</text>
		<text transform="matrix(1 0 0 1 544.8117 253.4366)" class="st2 st4">15</text>
		<text transform="matrix(1 0 0 1 577.0099 253.4366)" class="st2 st3">5</text>
		<text transform="matrix(1 0 0 1 79.3459 273.5371)" class="st2 st3">4</text>
		<text transform="matrix(1 0 0 1 111.0607 273.5371)" class="st2 st4">1</text>
		<text transform="matrix(1 0 0 1 142.1594 273.5371)" class="st2 st4">2</text>
		<text transform="matrix(1 0 0 1 173.258 273.5371)" class="st2 st4">3</text>
		<text transform="matrix(1 0 0 1 204.3566 273.5371)" class="st2 st4">4</text>
		<text transform="matrix(1 0 0 1 235.4797 273.5371)" class="st2 st4">5</text>
		<text transform="matrix(1 0 0 1 266.5803 273.5371)" class="st2 st4">6</text>
		<text transform="matrix(1 0 0 1 297.6769 273.5371)" class="st2 st4">7</text>
		<text transform="matrix(1 0 0 1 328.7775 273.5371)" class="st2 st4">8</text>
		<text transform="matrix(1 0 0 1 359.8918 273.5371)" class="st2 st4">9</text>
		<text transform="matrix(1 0 0 1 389.2922 273.5371)" class="st2 st4">10</text>
		<text transform="matrix(1 0 0 1 420.3918 273.5371)" class="st2 st4">11</text>
		<text transform="matrix(1 0 0 1 451.4894 273.5371)" class="st2 st4">12</text>
		<text transform="matrix(1 0 0 1 482.6125 273.5371)" class="st2 st4">13</text>
		<text transform="matrix(1 0 0 1 513.7121 273.5371)" class="st2 st4">14</text>
		<text transform="matrix(1 0 0 1 544.8117 273.5371)" class="st2 st4">15</text>
		<text transform="matrix(1 0 0 1 577.0099 273.5371)" class="st2 st3">4</text>
		<text transform="matrix(1 0 0 1 79.3459 293.6348)" class="st2 st3">3</text>
		<text transform="matrix(1 0 0 1 111.0607 293.6348)" class="st2 st4">1</text>
		<text transform="matrix(1 0 0 1 142.1594 293.6348)" class="st2 st4">2</text>
		<text transform="matrix(1 0 0 1 173.258 293.6348)" class="st2 st4">3</text>
		<text transform="matrix(1 0 0 1 204.3566 293.6348)" class="st2 st4">4</text>
		<text transform="matrix(1 0 0 1 235.4797 293.6348)" class="st2 st4">5</text>
		<text transform="matrix(1 0 0 1 266.5803 293.6348)" class="st2 st4">6</text>
		<text transform="matrix(1 0 0 1 297.6769 293.6348)" class="st2 st4">7</text>
		<text transform="matrix(1 0 0 1 328.7775 293.6348)" class="st2 st4">8</text>
		<text transform="matrix(1 0 0 1 359.8918 293.6348)" class="st2 st4">9</text>
		<text transform="matrix(1 0 0 1 389.2922 293.6348)" class="st2 st4">10</text>
		<text transform="matrix(1 0 0 1 420.3918 293.6348)" class="st2 st4">11</text>
		<text transform="matrix(1 0 0 1 451.4894 293.6348)" class="st2 st4">12</text>
		<text transform="matrix(1 0 0 1 482.6125 293.6348)" class="st2 st4">13</text>
		<text transform="matrix(1 0 0 1 513.7121 293.6348)" class="st2 st4">14</text>
		<text transform="matrix(1 0 0 1 544.8117 293.6348)" class="st2 st4">15</text>
		<text transform="matrix(1 0 0 1 577.0099 293.6348)" class="st2 st3">3</text>
		<text transform="matrix(1 0 0 1 79.3459 313.7588)" class="st2 st3">2</text>
		<text transform="matrix(1 0 0 1 111.0607 313.7588)" class="st2 st4">1</text>
		<text transform="matrix(1 0 0 1 142.1594 313.7588)" class="st2 st4">2</text>
		<text transform="matrix(1 0 0 1 173.258 313.7588)" class="st2 st4">3</text>
		<text transform="matrix(1 0 0 1 204.3566 313.7588)" class="st2 st4">4</text>
		<text transform="matrix(1 0 0 1 235.4797 313.7588)" class="st2 st4">5</text>
		<text transform="matrix(1 0 0 1 266.5803 313.7588)" class="st2 st4">6</text>
		<text transform="matrix(1 0 0 1 297.6769 313.7588)" class="st2 st4">7</text>
		<text transform="matrix(1 0 0 1 328.7775 313.7588)" class="st2 st4">8</text>
		<text transform="matrix(1 0 0 1 359.8918 313.7588)" class="st2 st4">9</text>
		<text transform="matrix(1 0 0 1 389.2922 313.7588)" class="st2 st4">10</text>
		<text transform="matrix(1 0 0 1 420.3918 313.7588)" class="st2 st4">11</text>
		<text transform="matrix(1 0 0 1 451.4894 313.7588)" class="st2 st4">12</text>
		<text transform="matrix(1 0 0 1 482.6125 313.7588)" class="st2 st4">13</text>
		<text transform="matrix(1 0 0 1 513.7121 313.7588)" class="st2 st4">14</text>
		<text transform="matrix(1 0 0 1 544.8117 313.7588)" class="st2 st4">15</text>
		<text transform="matrix(1 0 0 1 577.0099 313.7588)" class="st2 st3">2</text>
		<text transform="matrix(1 0 0 1 79.3459 333.8555)" class="st2 st3">1</text>
		<text transform="matrix(1 0 0 1 111.0607 333.8555)" class="st2 st4">1</text>
		<text transform="matrix(1 0 0 1 142.1594 333.8555)" class="st2 st4">2</text>
		<text transform="matrix(1 0 0 1 173.258 333.8555)" class="st2 st4">3</text>
		<text transform="matrix(1 0 0 1 204.3566 333.8555)" class="st2 st4">4</text>
		<text transform="matrix(1 0 0 1 235.4797 333.8555)" class="st2 st4">5</text>
		<text transform="matrix(1 0 0 1 266.5803 333.8555)" class="st2 st4">6</text>
		<text transform="matrix(1 0 0 1 297.6769 333.8555)" class="st2 st4">7</text>
		<text transform="matrix(1 0 0 1 328.7775 333.8555)" class="st2 st4">8</text>
		<text transform="matrix(1 0 0 1 359.8918 333.8555)" class="st2 st4">9</text>
		<text transform="matrix(1 0 0 1 389.2922 333.8555)" class="st2 st4">10</text>
		<text transform="matrix(1 0 0 1 420.3918 333.8555)" class="st2 st4">11</text>
		<text transform="matrix(1 0 0 1 451.4894 333.8555)" class="st2 st4">12</text>
		<text transform="matrix(1 0 0 1 482.6125 333.8555)" class="st2 st4">13</text>
		<text transform="matrix(1 0 0 1 513.7121 333.8555)" class="st2 st4">14</text>
		<text transform="matrix(1 0 0 1 544.8117 333.8555)" class="st2 st4">15</text>
		<text transform="matrix(1 0 0 1 577.0099 333.8555)" class="st2 st3">1</text>
	</g>
	<line class="st5" x1="65.4" y1="16.1" x2="65.4" y2="35.7"/>
	<rect x="65.3" y="16" class="st6" width="0.8" height="19.7"/>
	<line class="st5" x1="65.4" y1="55.1" x2="65.4" y2="96"/>
	<rect x="65.3" y="55" class="st6" width="0.8" height="41"/>
	<line class="st5" x1="96.5" y1="16.1" x2="96.5" y2="96"/>
	<rect x="96.4" y="16" class="st6" width="0.8" height="80"/>
	<line class="st5" x1="127.6" y1="16.1" x2="127.6" y2="96"/>
	<rect x="127.6" y="16" class="st6" width="0.8" height="80"/>
	<line class="st5" x1="158.7" y1="16.1" x2="158.7" y2="96"/>
	<rect x="158.7" y="16" class="st6" width="0.8" height="80"/>
	<line class="st5" x1="189.8" y1="16.1" x2="189.8" y2="96"/>
	<rect x="189.8" y="16" class="st6" width="0.8" height="80"/>
	<line class="st5" x1="220.9" y1="16.1" x2="220.9" y2="96"/>
	<rect x="220.9" y="16" class="st6" width="0.8" height="80"/>
	<line class="st5" x1="252" y1="16.1" x2="252" y2="96"/>
	<rect x="252" y="16" class="st6" width="0.8" height="80"/>
	<line class="st5" x1="283.1" y1="16.1" x2="283.1" y2="96"/>
	<rect x="283.1" y="16" class="st6" width="0.8" height="80"/>
	<line class="st5" x1="314.2" y1="16.1" x2="314.2" y2="96"/>
	<rect x="314.2" y="16" class="st6" width="0.8" height="80"/>
	<line class="st5" x1="345.3" y1="16.1" x2="345.3" y2="96"/>
	<rect x="345.3" y="16" class="st6" width="0.8" height="80"/>
	<line class="st5" x1="376.4" y1="16.1" x2="376.4" y2="96"/>
	<rect x="376.4" y="16" class="st6" width="0.8" height="80"/>
	<line class="st5" x1="407.5" y1="16.1" x2="407.5" y2="96"/>
	<rect x="407.5" y="16" class="st6" width="0.8" height="80"/>
	<line class="st5" x1="438.6" y1="16.1" x2="438.6" y2="96"/>
	<rect x="438.6" y="16" class="st6" width="0.8" height="80"/>
	<line class="st5" x1="469.7" y1="16.1" x2="469.7" y2="96"/>
	<rect x="469.7" y="16" class="st6" width="0.8" height="80"/>
	<line class="st5" x1="500.9" y1="16.1" x2="500.9" y2="96"/>
	<rect x="500.8" y="16" class="st6" width="0.8" height="80"/>
	<line class="st5" x1="532" y1="16.1" x2="532" y2="96"/>
	<rect x="531.9" y="16" class="st6" width="0.8" height="80"/>
	<line class="st5" x1="563.1" y1="16.1" x2="563.1" y2="96"/>
	<rect x="563" y="16" class="st6" width="0.8" height="80"/>
	<rect x="593.7" y="16" class="st6" width="0.8" height="19.7"/>
	<line class="st5" x1="594.2" y1="35.8" x2="594.2" y2="96"/>
	<rect x="594.1" y="35.7" class="st6" width="0.8" height="60.3"/>
	<line class="st5" x1="625.3" y1="16.1" x2="625.3" y2="35.7"/>
	<rect x="625.2" y="16" class="st6" width="0.8" height="19.7"/>
	<line class="st5" x1="65.4" y1="136.7" x2="65.4" y2="337.2"/>
	<rect x="65.3" y="136.6" class="st6" width="0.8" height="200.6"/>
	<line class="st5" x1="96.5" y1="136.7" x2="96.5" y2="337.2"/>
	<rect x="96.4" y="136.6" class="st6" width="0.8" height="200.6"/>
	<line class="st5" x1="127.6" y1="136.7" x2="127.6" y2="337.2"/>
	<rect x="127.6" y="136.6" class="st6" width="0.8" height="200.6"/>
	<line class="st5" x1="158.7" y1="136.7" x2="158.7" y2="337.2"/>
	<rect x="158.7" y="136.6" class="st6" width="0.8" height="200.6"/>
	<line class="st5" x1="189.8" y1="136.7" x2="189.8" y2="337.2"/>
	<rect x="189.8" y="136.6" class="st6" width="0.8" height="200.6"/>
	<line class="st5" x1="220.9" y1="136.7" x2="220.9" y2="337.2"/>
	<rect x="220.9" y="136.6" class="st6" width="0.8" height="200.6"/>
	<line class="st5" x1="252" y1="136.7" x2="252" y2="337.2"/>
	<rect x="252" y="136.6" class="st6" width="0.8" height="200.6"/>
	<line class="st5" x1="283.1" y1="136.7" x2="283.1" y2="337.2"/>
	<rect x="283.1" y="136.6" class="st6" width="0.8" height="200.6"/>
	<line class="st5" x1="314.2" y1="136.7" x2="314.2" y2="337.2"/>
	<rect x="314.2" y="136.6" class="st6" width="0.8" height="200.6"/>
	<line class="st5" x1="345.3" y1="136.7" x2="345.3" y2="337.2"/>
	<rect x="345.3" y="136.6" class="st6" width="0.8" height="200.6"/>
	<line class="st5" x1="376.4" y1="136.7" x2="376.4" y2="337.2"/>
	<rect x="376.4" y="136.6" class="st6" width="0.8" height="200.6"/>
	<line class="st5" x1="407.5" y1="136.7" x2="407.5" y2="337.2"/>
	<rect x="407.5" y="136.6" class="st6" width="0.8" height="200.6"/>
	<line class="st5" x1="438.6" y1="136.7" x2="438.6" y2="337.2"/>
	<rect x="438.6" y="136.6" class="st6" width="0.8" height="200.6"/>
	<line class="st5" x1="469.7" y1="136.7" x2="469.7" y2="337.2"/>
	<rect x="469.7" y="136.6" class="st6" width="0.8" height="200.6"/>
	<line class="st5" x1="500.9" y1="136.7" x2="500.9" y2="337.2"/>
	<rect x="500.8" y="136.6" class="st6" width="0.8" height="200.6"/>
	<line class="st5" x1="532" y1="136.7" x2="532" y2="337.2"/>
	<rect x="531.9" y="136.6" class="st6" width="0.8" height="200.6"/>
	<line class="st5" x1="563.1" y1="136.7" x2="563.1" y2="337.2"/>
	<rect x="563" y="136.6" class="st6" width="0.8" height="200.6"/>
	<line class="st5" x1="625.3" y1="136.7" x2="625.3" y2="176.4"/>
	<rect x="625.2" y="136.6" class="st6" width="0.8" height="39.8"/>
	<line class="st5" x1="594.2" y1="136.7" x2="594.2" y2="337.2"/>
	<rect x="594.1" y="136.6" class="st6" width="0.8" height="200.6"/>
	<line class="st5" x1="3.2" y1="136.7" x2="3.2" y2="156.3"/>
	<rect x="3.1" y="136.6" class="st6" width="0.8" height="19.7"/>
	<line class="st5" x1="34.3" y1="136.7" x2="34.3" y2="156.3"/>
	<rect x="34.2" y="136.6" class="st6" width="0.8" height="19.7"/>
	<line class="st5" x1="656.4" y1="136.7" x2="656.4" y2="156.3"/>
	<rect x="656.3" y="136.6" class="st6" width="0.8" height="19.7"/>
	<rect x="3.5" y="14.4" class="st6" width="622.5" height="1.6"/>
	<line class="st5" x1="66.2" y1="35" x2="626" y2="35"/>
	<rect x="66.1" y="34.9" class="st6" width="559.9" height="0.8"/>
	<line class="st5" x1="66.2" y1="55.1" x2="594.9" y2="55.1"/>
	<rect x="66.1" y="55" class="st6" width="528.8" height="0.8"/>
	<line class="st5" x1="66.2" y1="75.2" x2="594.9" y2="75.2"/>
	<rect x="66.1" y="75.1" class="st6" width="528.8" height="0.8"/>
	<line class="st5" x1="66.2" y1="95.3" x2="594.9" y2="95.3"/>
	<rect x="66.1" y="95.2" class="st6" width="528.8" height="0.8"/>
	<rect x="3.1" y="135" class="st6" width="654" height="1.6"/>
	<line class="st5" x1="4" y1="155.6" x2="657.1" y2="155.6"/>
	<rect x="3.9" y="155.5" class="st6" width="653.2" height="0.8"/>
	<line class="st5" x1="66.2" y1="175.7" x2="626" y2="175.7"/>
	<rect x="66.1" y="175.6" class="st6" width="559.9" height="0.8"/>
	<line class="st5" x1="66.2" y1="195.8" x2="594.9" y2="195.8"/>
	<rect x="66.1" y="195.7" class="st6" width="528.8" height="0.8"/>
	<line class="st5" x1="66.2" y1="215.9" x2="594.9" y2="215.9"/>
	<rect x="66.1" y="215.8" class="st6" width="528.8" height="0.8"/>
	<line class="st5" x1="66.2" y1="236" x2="594.9" y2="236"/>
	<rect x="66.1" y="235.9" class="st6" width="528.8" height="0.8"/>
	<line class="st5" x1="66.2" y1="256.1" x2="594.9" y2="256.1"/>
	<rect x="66.1" y="256" class="st6" width="528.8" height="0.8"/>
	<line class="st5" x1="66.2" y1="276.2" x2="594.9" y2="276.2"/>
	<rect x="66.1" y="276.1" class="st6" width="528.8" height="0.8"/>
	<line class="st5" x1="66.2" y1="296.3" x2="594.9" y2="296.3"/>
	<rect x="66.1" y="296.2" class="st6" width="528.8" height="0.8"/>
	<line class="st5" x1="66.2" y1="316.4" x2="594.9" y2="316.4"/>
	<rect x="66.1" y="316.4" class="st6" width="528.8" height="0.8"/>
	<line class="st5" x1="66.2" y1="336.5" x2="594.9" y2="336.5"/>
	<rect x="66.1" y="336.5" class="st6" width="528.8" height="0.8"/>
</g>
</svg>
